<?xml version="1.0" standalone="no"?>
<!DOCTYPE svg PUBLIC "-//W3C//DTD SVG 1.1//EN" "http://www.w3.org/Graphics/SVG/1.1/DTD/svg11.dtd" >
<svg xmlns="http://www.w3.org/2000/svg" xmlns:xlink="http://www.w3.org/1999/xlink" version="1.1">
<metadata>
Created by FontForge 20161013 at Fri Jun 30 14:09:54 2006
 By ,,,
Copyright (c) 2006 Linotype GmbH, www.linotype.com. All rights reserved. This font software may not be reproduced, modified, disclosed or transferred without the express written approval of Linotype GmbH. Neuzeit is a trademark of Heidelberger Druckmaschinen AG, exclusively licensed through Linotype GmbH, and may be registered in certain jurisdictions. This typeface is original artwork of Akira Kobayashi and Linotype Design Studio. The design may be protected in certain jurisdictions. 
</metadata>
<defs>
<font id="NeuzeitOffice-Bold" horiz-adv-x="510" >
  <font-face 
    font-family="Neuzeit Office Bold"
    font-weight="700"
    font-stretch="normal"
    units-per-em="1000"
    panose-1="2 0 8 3 5 0 0 2 0 3"
    ascent="706"
    descent="-294"
    x-height="470"
    cap-height="680"
    bbox="-184 -250 1128 912"
    underline-thickness="50"
    underline-position="-150"
    unicode-range="U+000D-FB02"
  />
<missing-glyph horiz-adv-x="512" 
d="M222 117v67h56v-67h-56zM225 234l-2 17q0 56 13 81q7 13 18 27.5t28 31.5q16 15 26 26.5t15 21t7 18t2 17.5q0 36 -22.5 60.5t-53.5 24.5t-53.5 -22t-28.5 -73l-50 8q7 72 44 104.5t91 32.5t89 -35.5t35 -95.5q0 -32 -12.5 -58.5t-50.5 -61.5q-37 -33 -43 -52
q-6 -20 -6 -72h-46zM462 50v617h-412v-617h412zM512 718v-718h-512v718h512z" />
    <glyph glyph-name="IJ" unicode="IJ" horiz-adv-x="650" 
d="M77 680h135v-680h-135v680zM348 101q56 0 77 29.5t21 94.5v334h-114v121h250v-455q0 -68 -16.5 -113.5t-45.5 -73.5t-70 -39.5t-90 -11.5q-15 0 -33 1.5t-36 4.5v113q14 -2 28.5 -3.5t28.5 -1.5z" />
    <glyph glyph-name="ij" unicode="ij" horiz-adv-x="500" 
d="M65 470h131v-470h-131v470zM54 615q0 15 5.5 29t16 25t24.5 17.5t31 6.5q15 0 28.5 -6t24 -16t17 -24t6.5 -30q0 -15 -6 -29t-16.5 -25t-24.5 -17.5t-29 -6.5q-17 0 -31 7t-24.5 17.5t-16 24t-5.5 27.5zM295 615q0 15 5.5 29t16 25t24.5 17.5t31 6.5q15 0 28.5 -6t24 -16
t17 -24t6.5 -30q0 -15 -6 -29t-16.5 -25t-24.5 -17.5t-29 -6.5q-17 0 -31 7t-24.5 17.5t-16 24t-5.5 27.5zM229 -87h5q38 0 55 16t17 52v489h131v-492q0 -54 -15 -89t-39.5 -54.5t-55.5 -27t-63 -7.5h-15.5t-19.5 2v111z" />
    <glyph glyph-name="napostrophe" unicode="&#x22;n" horiz-adv-x="572" 
d="M374 286q0 25 -7 42.5t-18.5 28t-26.5 15t-31 4.5q-39 0 -65.5 -30.5t-26.5 -78.5v-267h-131v470h125v-61h2q30 43 68 58.5t78 15.5q42 0 73.5 -13t51.5 -35t30 -52t10 -64v-319h-132v286zM-42 483q23 33 36 62.5t13 55.5q0 15 -5.5 28t-16.5 20l82 31q12 -11 19.5 -26
t7.5 -38q0 -35 -19.5 -67.5t-51.5 -65.5h-65z" />
    <glyph glyph-name="fi" unicode="fi" horiz-adv-x="581" 
d="M381 470h132v-470h-132v470zM447 539q-17 0 -31 7t-24 17.5t-16 24t-6 27.5q0 15 6 29t16 25t24 17.5t31 6.5q30 0 53.5 -22t23.5 -54q0 -15 -6 -29t-16.5 -25t-24.5 -17.5t-30 -6.5zM88 368h-74v102h74v41q0 34 10 69t32 63t56.5 45.5t82.5 17.5q15 0 31.5 -2t27.5 -5
v-109q-9 3 -18.5 5t-26.5 2q-35 0 -49.5 -24t-14.5 -68v-35h103v-102h-103v-368h-131v368z" />
    <glyph glyph-name="fl" unicode="fl" horiz-adv-x="581" 
d="M381 706h132v-706h-132v706zM88 368h-74v102h74v41q0 34 10 69t32 63t56.5 45.5t82.5 17.5q15 0 31.5 -2t27.5 -5v-109q-9 3 -18.5 5t-26.5 2q-35 0 -49 -24t-14 -68v-35h102v-102h-102v-368h-132v368z" />
    <glyph glyph-name=".notdef" horiz-adv-x="512" 
d="M222 117v67h56v-67h-56zM225 234l-2 17q0 56 13 81q7 13 18 27.5t28 31.5q16 15 26 26.5t15 21t7 18t2 17.5q0 36 -22.5 60.5t-53.5 24.5t-53.5 -22t-28.5 -73l-50 8q7 72 44 104.5t91 32.5t89 -35.5t35 -95.5q0 -32 -12.5 -58.5t-50.5 -61.5q-37 -33 -43 -52
q-6 -20 -6 -72h-46zM462 50v617h-412v-617h412zM512 718v-718h-512v718h512z" />
    <glyph glyph-name=".null" horiz-adv-x="0" 
 />
    <glyph glyph-name="nonmarkingreturn" unicode="&#xd;" horiz-adv-x="278" 
 />
    <glyph glyph-name="space" unicode=" " horiz-adv-x="255" 
 />
    <glyph glyph-name="exclam" unicode="!" horiz-adv-x="340" 
d="M105 680h130v-447h-130v447zM94 65q0 32 22 54t54 22t54 -22t22 -54q0 -31 -22 -53.5t-54 -22.5t-54 22.5t-22 53.5z" />
    <glyph glyph-name="quotedbl" unicode="&#x22;" horiz-adv-x="420" 
d="M268 680h94l-40 -252h-94zM98 680h94l-40 -252h-94z" />
    <glyph glyph-name="numbersign" unicode="#" 
d="M113 195h-80v78h91l16 123h-80v78h90l26 195h80l-25 -195h92l25 195h81l-26 -195h73v-78h-83l-16 -123h72v-78h-83l-26 -195h-79l25 195h-92l-26 -195h-80zM312 396h-92l-15 -123h92z" />
    <glyph glyph-name="dollar" unicode="$" 
d="M275 94q34 2 55.5 26.5t21.5 66.5q0 21 -5.5 36t-16 25.5t-24.5 17t-31 12.5v-184zM226 291q-30 10 -62.5 22.5t-58.5 33.5t-43 54.5t-17 84.5q0 86 48 134.5t133 59.5v69h49v-69q33 -2 65 -11t57 -29t41.5 -53.5t18.5 -85.5h-115q-1 45 -21 62.5t-46 20.5v-190
q39 -12 73 -26t60 -36t41 -55t15 -82q0 -55 -18.5 -92.5t-46.5 -61.5t-61 -35t-63 -12v-106h-49v106q-32 0 -65 9.5t-59.5 32t-44 61t-18.5 96.5h115q0 -18 4 -35t12 -30.5t22 -22.5t34 -11v197zM226 584q-11 -1 -23.5 -6t-23 -15.5t-17 -26.5t-6.5 -38q0 -23 6 -38t16 -25
t22.5 -16.5t25.5 -11.5v177z" />
    <glyph glyph-name="percent" unicode="%" horiz-adv-x="830" 
d="M221 407q16 0 26 8.5t15.5 22.5t7.5 32t2 37t-2 37.5t-7.5 32t-15.5 22t-26 8.5t-26 -8.5t-16 -22t-8 -32t-2 -37.5t2 -37t8 -32t16 -22.5t26 -8.5zM221 334q-32 0 -60 10.5t-48 32.5t-31.5 54t-11.5 76t11.5 76.5t31.5 54t48 32t60 10.5t59.5 -10.5t48 -32t32 -54
t11.5 -76.5t-11.5 -76t-32 -54t-48 -32.5t-59.5 -10.5zM609 -11q-32 0 -60 10.5t-48 32t-31.5 54t-11.5 76.5q0 43 11.5 75.5t31.5 54t48 32t60 10.5t59.5 -10.5t48 -32t32 -54t11.5 -75.5q0 -44 -11.5 -76.5t-32 -54t-48 -32t-59.5 -10.5zM609 61q16 0 26 8.5t16 22.5t8 32
t2 38q0 19 -2 37t-8 32t-16 22.5t-26 8.5t-26 -8.5t-15.5 -22.5t-7.5 -32t-2 -37q0 -20 2 -38t7.5 -32t15.5 -22.5t26 -8.5zM570 688h74l-390 -707h-78z" />
    <glyph glyph-name="ampersand" unicode="&#x26;" horiz-adv-x="653" 
d="M243 320q-38 -20 -55 -49t-17 -67q0 -45 30.5 -75.5t83.5 -30.5q66 0 100 36zM365 531q0 26 -15.5 40.5t-39.5 14.5q-23 0 -40.5 -14.5t-17.5 -43.5q0 -19 8 -40t32 -49q42 21 57.5 42t15.5 50zM607 347q-2 -57 -20 -113.5t-50 -98.5l108 -135h-150l-38 49
q-28 -22 -75 -42t-107 -20q-56 0 -99 14.5t-72.5 41t-45 63t-15.5 80.5q0 43 13 77t33 60t45.5 44.5t51.5 30.5q-27 34 -40 64.5t-13 62.5t12 60t34.5 49t54 33.5t69.5 12.5q43 0 75.5 -12t53.5 -32t31.5 -45.5t10.5 -52.5q0 -62 -33.5 -100.5t-91.5 -68.5l114 -148
q12 17 18.5 52.5t6.5 73.5h119z" />
    <glyph glyph-name="quotesingle" unicode="'" horiz-adv-x="250" 
d="M98 680h94l-40 -252h-94z" />
    <glyph glyph-name="parenleft" unicode="(" horiz-adv-x="350" 
d="M33 307q0 68 13 131.5t36 120t55 105.5t70 89l80 -42q-69 -73 -111 -175.5t-42 -228.5t42 -228.5t111 -175.5l-80 -42q-38 40 -70 89t-55 105.5t-36 120t-13 131.5z" />
    <glyph glyph-name="parenright" unicode=")" horiz-adv-x="350" 
d="M320 307q0 -68 -13 -131.5t-36 -120t-55 -105.5t-70 -89l-80 42q69 73 111 175.5t42 228.5t-42 228.5t-111 175.5l80 42q38 -40 70 -89t55 -105.5t36 -120t13 -131.5z" />
    <glyph glyph-name="asterisk" unicode="*" 
d="M252 451l-66 -105l-66 46l74 99l-116 33l22 74l115 -39l-4 121h81l-3 -123l114 44l28 -76l-121 -35l78 -95l-68 -48z" />
    <glyph glyph-name="plus" unicode="+" 
d="M208 293v177h94v-177h157v-95h-157v-177h-94v177h-157v95h157z" />
    <glyph glyph-name="comma" unicode="," horiz-adv-x="255" 
d="M77 146l127 -21l-115 -269l-85 18z" />
    <glyph glyph-name="hyphen" unicode="-" horiz-adv-x="360" 
d="M70 291h220v-99h-220v99z" />
    <glyph glyph-name="period" unicode="." horiz-adv-x="255" 
d="M52 65q0 32 22 54t54 22q31 0 53.5 -22t22.5 -54q0 -31 -22.5 -53.5t-53.5 -22.5q-32 0 -54 22.5t-22 53.5z" />
    <glyph glyph-name="slash" unicode="/" horiz-adv-x="400" 
d="M284 692h99l-265 -705h-100z" />
    <glyph glyph-name="zero" unicode="0" 
d="M36 340q0 33 2 72.5t9.5 78.5t22 75.5t38.5 64.5t60 45t86 17t86 -17t60.5 -45t39 -64.5t22 -75.5t10 -78.5t2.5 -72.5q0 -57 -7.5 -119.5t-31 -114t-67 -85t-114.5 -33.5t-114 33.5t-66 85t-30.5 114t-7.5 119.5zM335 340q0 49 -3.5 92t-12.5 75.5t-25 51.5t-40 19
t-39.5 -19t-25 -51.5t-13 -75.5t-3.5 -92q0 -52 3.5 -95.5t13 -75t25 -49.5t39.5 -18t40 18t25 49.5t12.5 75t3.5 95.5z" />
    <glyph glyph-name="one" unicode="1" 
d="M232 532q-35 -20 -77 -37t-76 -26v117q45 19 95.5 47t87.5 60h102v-693h-132v532z" />
    <glyph glyph-name="two" unicode="2" 
d="M39 109l217 235q36 39 57.5 76t21.5 75t-19 60.5t-59 22.5q-42 0 -67 -31t-25 -86h-127q0 58 18 101.5t48.5 72.5t71 43.5t84.5 14.5q105 0 158.5 -52t53.5 -137q0 -33 -8 -62.5t-26 -60.5t-47.5 -66t-72.5 -78l-120 -119h277v-118h-436v109z" />
    <glyph glyph-name="three" unicode="3" 
d="M148 421l145 143h-238v116h395v-114l-163 -155q42 0 78 -14.5t61.5 -40t40 -61t14.5 -77.5q0 -51 -17 -93t-47.5 -73t-73.5 -48t-95 -17q-44 0 -82.5 10.5t-68 32.5t-49 55.5t-23.5 78.5l130 13q10 -75 93 -75q26 0 44 9.5t29.5 25.5t16.5 36t5 41q0 48 -26.5 76.5
t-82.5 28.5q-43 0 -81 -14l-5 3v113z" />
    <glyph glyph-name="four" unicode="4" 
d="M292 557h-2l-164 -286h166v286zM26 295l242 391h151v-415h72v-102h-72v-169h-127v169h-266v126z" />
    <glyph glyph-name="five" unicode="5" 
d="M71 680h374v-116h-259l-13 -151q26 16 50.5 23t55.5 7q37 0 73.5 -12.5t65 -39t46 -67.5t17.5 -99q0 -47 -14.5 -90t-43.5 -76t-73 -52.5t-102 -19.5q-87 0 -145.5 38.5t-75.5 127.5l131 12q6 -26 27 -44.5t63 -18.5q50 0 72.5 33.5t22.5 86.5q0 45 -23.5 78t-77.5 33
q-25 0 -50 -9.5t-42 -27.5l-102 4z" />
    <glyph glyph-name="six" unicode="6" 
d="M356 513q-1 12 -5 24t-12 21.5t-22 15.5t-35 6q-33 0 -55.5 -19t-36.5 -49.5t-20 -68t-6 -73.5h1q16 23 48 43t82 20q38 0 72.5 -13t61 -39.5t42 -67.5t15.5 -96t-16.5 -97.5t-46 -72t-69.5 -45t-88 -15.5q-72 0 -117.5 30t-71.5 79t-35.5 111t-9.5 125q0 72 14 137.5
t44.5 115t79.5 79t118 29.5q54 0 90.5 -16.5t59 -41.5t33 -55t12.5 -58zM355 212q0 18 -3.5 38t-13 36.5t-26 27.5t-43.5 11t-45 -10t-29 -25t-15.5 -34t-4.5 -37t4 -39t14.5 -39t27.5 -30t44 -12t44 11t27.5 27.5t14.5 36.5t4 38z" />
    <glyph glyph-name="seven" unicode="7" 
d="M44 680h432v-107q-36 -60 -69.5 -134t-61.5 -151.5t-49.5 -152t-33.5 -135.5h-146q11 58 35 132.5t54.5 151t64.5 150t65 130.5h-291v116z" />
    <glyph glyph-name="eight" unicode="8" 
d="M346 201q0 33 -9.5 54t-23.5 33.5t-30 17.5t-29 5t-28.5 -5t-29.5 -17.5t-23.5 -33.5t-9.5 -54q0 -45 23.5 -73.5t67.5 -28.5t68 28.5t24 73.5zM254 418q36 0 56.5 23t20.5 63q0 39 -20.5 62.5t-56.5 23.5t-56 -23.5t-20 -62.5q0 -40 20 -63t56 -23zM34 191
q0 71 31.5 111.5t83.5 62.5q-50 23 -72.5 59t-22.5 88q0 39 12.5 72t37.5 57t62.5 38t87.5 14t87.5 -14t63 -38.5t38 -57.5t12.5 -71q0 -52 -26.5 -90t-68.5 -56q50 -18 83 -61t33 -114q0 -54 -18 -92.5t-48.5 -63.5t-70.5 -36.5t-85 -11.5q-44 0 -84 11.5t-70 36.5
t-48 63.5t-18 92.5z" />
    <glyph glyph-name="nine" unicode="9" 
d="M158 167q1 -12 4.5 -24t12 -21.5t22.5 -15.5t35 -6q33 0 55.5 19t36.5 49.5t20 68t6 73.5h-1q-16 -23 -48 -43t-82 -20q-38 0 -72.5 13t-61 39.5t-42 67t-15.5 96.5q0 55 16.5 97.5t46 72t69.5 45t88 15.5q72 0 117.5 -30t71.5 -79t35.5 -111t9.5 -125q0 -72 -14 -137.5
t-44.5 -115t-79.5 -79t-118 -29.5q-54 0 -90.5 16.5t-59 41.5t-33.5 55t-12 58zM159 468q0 -18 3.5 -38t13 -36.5t26 -27.5t43.5 -11t45 10t29 25t15.5 34t4.5 37t-4 39t-14.5 39t-27.5 30t-44 12t-44 -11t-27.5 -27.5t-14.5 -36.5t-4 -38z" />
    <glyph glyph-name="colon" unicode=":" horiz-adv-x="335" 
d="M168 331q-32 0 -54 22.5t-22 53.5q0 32 22 54t54 22q31 0 53.5 -22t22.5 -54q0 -31 -22.5 -53.5t-53.5 -22.5zM168 -11q-32 0 -54 22.5t-22 53.5q0 32 22 54t54 22q31 0 53.5 -22t22.5 -54q0 -31 -22.5 -53.5t-53.5 -22.5z" />
    <glyph glyph-name="semicolon" unicode=";" horiz-adv-x="335" 
d="M117 146l127 -21l-115 -269l-85 18zM168 331q-32 0 -54 22.5t-22 53.5q0 32 22 54t54 22q31 0 53.5 -22t22.5 -54q0 -31 -22.5 -53.5t-53.5 -22.5z" />
    <glyph glyph-name="less" unicode="&#x3c;" 
d="M51 212v67l407 178v-104l-247 -107l247 -109v-103z" />
    <glyph glyph-name="equal" unicode="=" 
d="M459 371v-96h-408v96h408zM459 216v-95h-408v95h408z" />
    <glyph glyph-name="greater" unicode="&#x3e;" 
d="M458 279v-67l-407 -178v103l247 109l-247 107v104z" />
    <glyph glyph-name="question" unicode="?" horiz-adv-x="520" 
d="M200 212v32q0 54 22 90t58 67q27 23 46 48t19 62t-20 54t-55 17q-77 0 -77 -95h-125q0 97 55 151.5t151 54.5q38 0 74.5 -10t64.5 -31.5t45 -56t17 -83.5q0 -32 -8 -57t-21 -45.5t-30 -36.5t-34 -30q-32 -26 -46.5 -49t-14.5 -53v-29h-121zM267 -11q-32 0 -54 22.5
t-22 53.5q0 32 22 54t54 22q31 0 53.5 -22t22.5 -54q0 -31 -22.5 -53.5t-53.5 -22.5z" />
    <glyph glyph-name="at" unicode="@" horiz-adv-x="1000" 
d="M520 379q-28 0 -49.5 -16.5t-36 -41.5t-22 -56t-7.5 -59q0 -14 3 -29.5t11 -29t23 -22.5t38 -9q32 0 54.5 16t36.5 40t20.5 52t6.5 52q0 18 -3.5 36.5t-12.5 33.5t-24 24t-38 9zM888 -50q-69 -73 -164.5 -107.5t-201.5 -34.5q-101 0 -184 32.5t-142 90t-91.5 138
t-32.5 176.5q0 94 35.5 175t96.5 139.5t143 92t175 33.5q81 0 156 -23.5t133 -71t93 -118.5t35 -166q0 -71 -19.5 -125t-51.5 -90t-74 -54.5t-87 -18.5q-48 0 -76 22t-28 57h-7q-9 -14 -22.5 -28.5t-31.5 -25.5t-40.5 -18t-48.5 -7q-80 0 -124 52.5t-44 137.5q0 50 17 98.5
t47.5 86t73 60.5t93.5 23q45 0 76 -18.5t40 -46.5h1l9 47h105l-45 -222q-3 -16 -7 -36t-4 -38q0 -20 7.5 -33.5t29.5 -13.5q47 0 76.5 49.5t29.5 132.5q0 72 -23.5 126.5t-65 91t-99 55.5t-126.5 19q-75 0 -136.5 -26.5t-105 -72.5t-67.5 -109.5t-24 -136.5
q0 -78 25.5 -140.5t71.5 -106.5t109.5 -67.5t139.5 -23.5q95 0 164 30.5t127 84.5z" />
    <glyph glyph-name="A" unicode="A" horiz-adv-x="633" 
d="M316 516h-1l-86 -264h174zM433 142h-238l-44 -142h-146l243 680h143l237 -680h-149z" />
    <glyph glyph-name="B" unicode="B" horiz-adv-x="597" 
d="M75 680h241q109 0 164.5 -50.5t55.5 -134.5q0 -56 -27 -89.5t-64 -50.5v-2q22 -5 42.5 -18t36.5 -32.5t25 -45.5t9 -58q0 -47 -17 -84t-48.5 -62.5t-75 -39t-95.5 -13.5h-247v680zM300 116q64 0 90.5 25t26.5 61q0 16 -5.5 32t-18 28.5t-32.5 20t-50 7.5h-100v-174h89z
M293 400q48 0 77.5 21t29.5 63t-27 61t-68 19h-94v-164h82z" />
    <glyph glyph-name="C" unicode="C" horiz-adv-x="723" 
d="M560 448q-17 66 -61.5 95t-107.5 29q-44 0 -79.5 -18.5t-60 -50.5t-38 -74t-13.5 -90q0 -54 14 -97t39.5 -72.5t62 -45.5t80.5 -16q52 0 97 25t65 83l148 -19q-18 -56 -49 -95.5t-71.5 -65t-90.5 -37.5t-105 -12q-74 0 -136 23t-107 68t-70 110.5t-25 151.5
q0 74 24.5 138.5t69.5 112t107 75t137 27.5q57 0 107.5 -11.5t91.5 -38t69.5 -68.5t42.5 -102z" />
    <glyph glyph-name="D" unicode="D" horiz-adv-x="723" 
d="M75 680h265q155 0 241 -87.5t86 -252.5q0 -81 -26 -144.5t-70.5 -107t-103 -66t-123.5 -22.5h-269v680zM334 116q52 0 89 20t59.5 52.5t33 72.5t10.5 80q0 43 -10 83t-33.5 71t-62.5 50t-96 19h-113v-448h123z" />
    <glyph glyph-name="E" unicode="E" horiz-adv-x="542" 
d="M75 680h412v-121h-276v-155h268v-121h-268v-162h276v-121h-412v680z" />
    <glyph glyph-name="F" unicode="F" horiz-adv-x="524" 
d="M75 680h399v-121h-263v-155h256v-121h-256v-283h-136v680z" />
    <glyph glyph-name="G" unicode="G" horiz-adv-x="753" 
d="M401 357h314q0 -183 -86.5 -276.5t-245.5 -93.5q-75 0 -136.5 29.5t-104.5 78.5t-66.5 112.5t-23.5 132.5t23.5 132.5t66.5 112.5t104.5 78.5t136.5 29.5q84 0 139 -21.5t89.5 -53t52.5 -66.5t28 -62l-141 -17q-18 45 -57 72t-111 27q-40 0 -74.5 -16t-60 -46t-40.5 -73
t-15 -97q0 -46 14 -88t40 -74t62.5 -51t82.5 -19q44 0 75.5 11t52 29.5t31.5 43.5t13 54h-163v111z" />
    <glyph glyph-name="H" unicode="H" horiz-adv-x="714" 
d="M504 283h-293v-283h-136v680h136v-276h293v276h135v-680h-135v283z" />
    <glyph glyph-name="I" unicode="I" horiz-adv-x="289" 
d="M77 680h135v-680h-135v680z" />
    <glyph glyph-name="J" unicode="J" horiz-adv-x="401" 
d="M99 101q56 0 77 29.5t21 94.5v334h-114v121h250v-455q0 -68 -16.5 -113.5t-45.5 -73.5t-70 -39.5t-90 -11.5q-15 0 -33 1.5t-36 4.5v113q14 -2 28.5 -3.5t28.5 -1.5z" />
    <glyph glyph-name="K" unicode="K" horiz-adv-x="597" 
d="M430 680h162l-234 -327l239 -353h-169l-216 334h-1v-334h-136v680h136v-319h1z" />
    <glyph glyph-name="L" unicode="L" horiz-adv-x="497" 
d="M75 680h136v-553h261v-127h-397v680z" />
    <glyph glyph-name="M" unicode="M" horiz-adv-x="882" 
d="M677 481h-2l-198 -481h-76l-194 472h-2v-472h-130v680h173l196 -489l191 489h172v-680h-130v481z" />
    <glyph glyph-name="N" unicode="N" horiz-adv-x="723" 
d="M207 482h-2v-482h-130v680h154l287 -475h2v475h130v-680h-149z" />
    <glyph glyph-name="O" unicode="O" horiz-adv-x="805" 
d="M606 339q0 46 -13 88t-38.5 74t-64 51t-88.5 19t-88 -19t-63.5 -51t-38.5 -74t-13 -88q0 -45 13 -87t38.5 -74t63.5 -51t88 -19t88.5 19t64 51t38.5 74t13 87zM52 339q0 69 23.5 132.5t68 113t109.5 79t149 29.5t149 -29.5t110 -79t68 -113t23 -132.5q0 -68 -23 -131.5
t-68 -112.5t-110 -78.5t-149 -29.5t-149 29.5t-109.5 78.5t-68 112.5t-23.5 131.5z" />
    <glyph glyph-name="P" unicode="P" horiz-adv-x="597" 
d="M299 364q34 0 55.5 9.5t34 24t17 32t4.5 34.5t-6 35t-19.5 32.5t-34.5 23.5t-50 9h-89v-200h88zM75 680h234q40 0 82 -10.5t76 -35t56 -66t22 -104.5q0 -59 -20 -100t-52 -66.5t-72.5 -37t-80.5 -11.5h-109v-249h-136v680z" />
    <glyph glyph-name="Q" unicode="Q" horiz-adv-x="805" 
d="M52 339q0 69 23.5 132.5t68 113t109.5 79t149 29.5t149 -29.5t110 -79t68 -113t23 -132.5q0 -68 -23 -131t-67 -112l58 -50l-79 -85l-72 64q-35 -18 -77 -28t-90 -10q-84 0 -149 29.5t-109.5 78.5t-68 112.5t-23.5 131.5zM606 339q0 46 -13 88t-38.5 74t-64 51t-88.5 19
t-88 -19t-63.5 -51t-38.5 -74t-13 -88q0 -45 13 -87t38.5 -74t63.5 -51t88 -19q36 0 63 10l-68 60l74 81l88 -75q23 32 35 71.5t12 83.5z" />
    <glyph glyph-name="R" unicode="R" horiz-adv-x="597" 
d="M290 268h-79v-268h-136v680h254q54 0 95.5 -16t70 -43.5t43.5 -64.5t15 -79q0 -27 -7.5 -56t-23 -55.5t-39 -47.5t-56.5 -31l158 -287h-162zM301 379q35 0 57.5 8.5t36 21.5t18.5 29.5t5 33.5q0 18 -5.5 35t-19 29.5t-37 20t-59.5 7.5h-86v-185h90z" />
    <glyph glyph-name="S" unicode="S" horiz-adv-x="603" 
d="M417 501q-3 36 -28.5 57.5t-78.5 21.5q-48 0 -77.5 -19.5t-29.5 -59.5q0 -20 7.5 -34.5t23.5 -25t41.5 -19.5t62.5 -19q49 -13 89 -29t68.5 -39.5t44.5 -56.5t16 -79q0 -48 -18 -87.5t-51.5 -67t-82 -42.5t-109.5 -15q-72 0 -120 17.5t-78 47t-44.5 68t-17.5 79.5l135 4
q5 -56 38 -78t87 -22q58 0 91 18.5t33 63.5q0 41 -37.5 61.5t-110.5 40.5q-51 14 -90 30.5t-65 39t-39 53t-13 74.5q0 42 16.5 79.5t48 66.5t78.5 46t107 17q61 0 106 -15t74.5 -40.5t44 -59.5t14.5 -72z" />
    <glyph glyph-name="T" unicode="T" horiz-adv-x="524" 
d="M194 559h-179v121h494v-121h-179v-559h-136v559z" />
    <glyph glyph-name="U" unicode="U" horiz-adv-x="687" 
d="M484 680h135v-398q0 -80 -22.5 -136t-60 -91t-88 -51.5t-105.5 -16.5q-56 0 -105.5 16.5t-87 51.5t-59.5 91t-22 136v398h135v-399q0 -85 33 -129t106 -44q72 0 106.5 44t34.5 129v399z" />
    <glyph glyph-name="V" unicode="V" horiz-adv-x="597" 
d="M445 680h146l-220 -680h-143l-222 680h149l146 -500h2z" />
    <glyph glyph-name="W" unicode="W" horiz-adv-x="904" 
d="M455 474h-2l-112 -474h-144l-175 680h144l106 -500h2l107 500h146l111 -500h2l99 500h143l-173 -680h-144z" />
    <glyph glyph-name="X" unicode="X" horiz-adv-x="597" 
d="M297 229l-130 -229h-162l214 344l-201 336h162l124 -230l123 230h159l-204 -336l211 -344h-167z" />
    <glyph glyph-name="Y" unicode="Y" horiz-adv-x="570" 
d="M416 680h149l-211 -417v-263h-135v263l-214 417h159l127 -283z" />
    <glyph glyph-name="Z" unicode="Z" horiz-adv-x="588" 
d="M42 107l337 451h-315v122h484v-107l-338 -452h338v-121h-506v107z" />
    <glyph glyph-name="bracketleft" unicode="[" horiz-adv-x="350" 
d="M67 747h220v-89h-106v-703h106v-89h-220v881z" />
    <glyph glyph-name="backslash" unicode="\" horiz-adv-x="400" 
d="M18 692h100l265 -705h-99z" />
    <glyph glyph-name="bracketright" unicode="]" horiz-adv-x="350" 
d="M283 -134h-220v89h106v703h-106v89h220v-881z" />
    <glyph glyph-name="asciicircum" unicode="^" 
d="M38 297l179 276h76l178 -276h-111l-107 160l-104 -160h-111z" />
    <glyph glyph-name="underscore" unicode="_" horiz-adv-x="500" 
d="M0 -75h500v-50h-500v50z" />
    <glyph glyph-name="grave" unicode="`" horiz-adv-x="255" 
d="M19 681h132l79 -127h-85z" />
    <glyph glyph-name="a" unicode="a" horiz-adv-x="552" 
d="M354 206h-37q-26 0 -50.5 -2.5t-44.5 -9.5t-32 -20t-12 -34q0 -34 21 -46.5t54 -12.5q19 0 37 5.5t32.5 17.5t23 30.5t8.5 45.5v26zM359 62h-2q-20 -37 -56 -55.5t-92 -18.5q-28 0 -57 7.5t-52.5 24.5t-38.5 45t-15 69q0 45 18.5 73.5t52 45t81 23t105.5 6.5h51v19
q0 42 -19 64.5t-63 22.5q-42 0 -62.5 -17t-22.5 -43h-126q1 31 14 59t40 49.5t68 34t98 12.5q58 0 96.5 -13t61.5 -36.5t32 -57t9 -73.5v-230q0 -19 2 -39.5t5 -33.5h-119z" />
    <glyph glyph-name="b" unicode="b" horiz-adv-x="616" 
d="M431 233q0 27 -7.5 51.5t-21.5 44t-36 31t-50 11.5q-31 0 -53.5 -11.5t-37.5 -30.5t-22.5 -43.5t-7.5 -51.5q0 -29 8 -55t23 -45t37 -30t50 -11q29 0 51 11.5t37 30.5t22.5 44.5t7.5 53.5zM68 706h131v-300h1q34 43 69.5 60t81.5 17q51 0 91.5 -20t68.5 -54t43 -79
t15 -94t-16 -94t-45 -79.5t-69.5 -55t-89.5 -20.5q-46 0 -85 18.5t-68 60.5h-2v-66h-126v706z" />
    <glyph glyph-name="c" unicode="c" horiz-adv-x="550" 
d="M406 315q-10 25 -33.5 45.5t-65.5 20.5q-34 0 -57 -13t-37.5 -34.5t-21 -50t-6.5 -58.5q0 -57 31 -94.5t89 -37.5q39 0 63 17t38 48l118 -45q-27 -55 -82.5 -90t-140.5 -35q-65 0 -113 18.5t-79.5 50.5t-46.5 76.5t-15 97.5q0 54 18 100.5t51.5 80t80.5 52.5t105 19
q93 0 145.5 -34t77.5 -89z" />
    <glyph glyph-name="d" unicode="d" horiz-adv-x="616" 
d="M421 234q0 27 -7.5 51.5t-22.5 43.5t-38 30.5t-54 11.5q-28 0 -49.5 -11.5t-36 -31t-22 -44t-7.5 -51.5q0 -28 8 -53.5t23 -44.5t37.5 -30.5t51.5 -11.5q28 0 49.5 11t36.5 30t23 45t8 55zM421 66h-1q-29 -42 -68.5 -60.5t-84.5 -18.5q-49 0 -89.5 20.5t-69.5 55
t-45 79.5t-16 94t15 94t43 79t68.5 54t91.5 20q45 0 80.5 -17t68.5 -60h2v300h131v-706h-126v66z" />
    <glyph glyph-name="e" unicode="e" horiz-adv-x="580" 
d="M181 201q0 -21 8 -41.5t24 -36t40.5 -25t56.5 -9.5q74 0 100 54l121 -29q-28 -65 -83.5 -95.5t-143.5 -30.5q-61 0 -108.5 17.5t-80.5 49.5t-50.5 77.5t-17.5 101.5q0 57 18 103t51.5 78.5t80.5 50t104 17.5q119 0 179.5 -65t60.5 -180v-37h-360zM407 285q0 18 -5 36.5
t-16.5 33.5t-31 25t-49.5 10q-34 0 -57 -10.5t-37 -26t-21 -34t-9 -34.5h226z" />
    <glyph glyph-name="f" unicode="f" horiz-adv-x="332" 
d="M88 368h-74v102h74v41q0 34 10 69t32 63t56.5 45.5t82.5 17.5q15 0 31.5 -2t27.5 -5v-109q-9 3 -18.5 5t-26.5 2q-35 0 -49.5 -24t-14.5 -68v-35h103v-102h-103v-368h-131v368z" />
    <glyph glyph-name="g" unicode="g" horiz-adv-x="616" 
d="M422 470h126v-433q0 -53 -14.5 -96.5t-46.5 -75t-82 -48.5t-122 -17q-102 0 -160 35.5t-74 101.5l128 18q8 -29 38 -42t69 -13q72 0 104.5 30t32.5 106v48l-1 1q-22 -45 -61.5 -65t-90.5 -20q-44 0 -84 15.5t-70 46t-47.5 75t-17.5 101.5q0 49 16.5 93.5t46 78t70.5 53.5
t91 20q54 0 92.5 -24.5t55.5 -62.5h1v74zM421 239q0 65 -31.5 98.5t-90.5 33.5q-26 0 -47 -10t-36 -28t-23 -41.5t-8 -50.5q0 -42 11.5 -69t29.5 -42.5t39 -21.5t40 -6q13 0 32.5 5t38 19.5t32 41.5t13.5 71z" />
    <glyph glyph-name="h" unicode="h" horiz-adv-x="572" 
d="M374 286q0 25 -7.5 42.5t-20 28t-28 15t-30.5 4.5q-40 0 -64.5 -30.5t-24.5 -78.5v-267h-131v706h131v-297h2q28 43 63 58.5t73 15.5q42 0 74 -13t53 -35t31.5 -52t10.5 -64v-319h-132v286z" />
    <glyph glyph-name="i" unicode="i" horiz-adv-x="261" 
d="M65 470h131v-470h-131v470zM54 615q0 15 5.5 29t16 25t24.5 17.5t31 6.5q15 0 28.5 -6t24 -16t17 -24t6.5 -30q0 -15 -6 -29t-16.5 -25t-24.5 -17.5t-29 -6.5q-17 0 -31 7t-24.5 17.5t-16 24t-5.5 27.5z" />
    <glyph glyph-name="j" unicode="j" horiz-adv-x="261" 
d="M56 615q0 15 5.5 29t16 25t24.5 17.5t31 6.5q15 0 28.5 -6t24 -16t17 -24t6.5 -30q0 -15 -6 -29t-16.5 -25t-24.5 -17.5t-29 -6.5q-17 0 -31 7t-24.5 17.5t-16 24t-5.5 27.5zM-10 -87h5q38 0 55 16t17 52v489h131v-492q0 -54 -15 -89t-39.5 -54.5t-55.5 -27t-63 -7.5
h-15.5t-19.5 2v111z" />
    <glyph glyph-name="k" unicode="k" horiz-adv-x="507" 
d="M199 214h-1v-214h-130v706h130v-421h1l148 185h148l-184 -209l200 -261h-157z" />
    <glyph glyph-name="l" unicode="l" horiz-adv-x="261" 
d="M65 706h131v-706h-131v706z" />
    <glyph glyph-name="m" unicode="m" horiz-adv-x="855" 
d="M659 303q0 27 -16.5 50t-54.5 23q-21 0 -38 -8t-29 -20t-18.5 -27t-6.5 -29v-292h-132v290q0 37 -18.5 61.5t-60.5 24.5q-20 0 -36 -8t-27 -20.5t-17 -29t-6 -33.5v-285h-131v470h125v-61h2q31 41 69.5 57.5t79.5 16.5q12 0 29.5 -2.5t36.5 -10t37 -22t31 -38.5
q17 23 37.5 37.5t41 22.5t39.5 10.5t34 2.5q30 0 58.5 -9t51 -27t36.5 -45t14 -64v-338h-131v303z" />
    <glyph glyph-name="n" unicode="n" horiz-adv-x="572" 
d="M374 286q0 25 -7 42.5t-18.5 28t-26.5 15t-31 4.5q-39 0 -65.5 -30.5t-26.5 -78.5v-267h-131v470h125v-61h2q30 43 68 58.5t78 15.5q42 0 73.5 -13t51.5 -35t30 -52t10 -64v-319h-132v286z" />
    <glyph glyph-name="o" unicode="o" horiz-adv-x="613" 
d="M566 236q0 -47 -16.5 -92t-49.5 -79.5t-81.5 -55.5t-112.5 -21q-69 0 -118 21t-80.5 55.5t-46 79.5t-14.5 92q0 46 16.5 90.5t49.5 79.5t81.5 56t111.5 21q68 0 117.5 -21t81 -56t46.5 -79.5t15 -90.5zM180 235q0 -63 30.5 -103.5t95.5 -40.5t95 40.5t30 103.5t-30 104
t-95 41t-95.5 -41t-30.5 -104z" />
    <glyph glyph-name="p" unicode="p" horiz-adv-x="616" 
d="M431 238q0 28 -7.5 53t-22.5 44t-37 30t-51 11q-28 0 -50 -11t-37.5 -29.5t-23.5 -44t-8 -55.5q0 -26 7.5 -51t23 -44t38.5 -30.5t54 -11.5q28 0 49.5 11.5t36 31t21.5 44.5t7 52zM68 470h125v-65h2q29 42 68.5 60t85.5 18q49 0 89.5 -20.5t69.5 -55t45 -79.5t16 -94
t-15 -94t-43 -79t-68.5 -54t-91.5 -20q-46 0 -81.5 16.5t-68.5 60.5h-2v-264h-131v670z" />
    <glyph glyph-name="q" unicode="q" horiz-adv-x="616" 
d="M421 236q0 30 -8 55.5t-23 44t-37 29.5t-50 11q-29 0 -51 -11t-37 -30t-22.5 -44t-7.5 -53q0 -27 7.5 -52t21.5 -44.5t35.5 -31t49.5 -11.5q31 0 54 11.5t38 30.5t22.5 44t7.5 51zM416 64h-2q-33 -44 -68 -60.5t-81 -16.5q-51 0 -91.5 20t-68.5 54t-43 79t-15 94t16 94
t45 79.5t69.5 55t89.5 20.5q46 0 85 -18t68 -60h2v65h125v-670h-131v264z" />
    <glyph glyph-name="r" unicode="r" horiz-adv-x="374" 
d="M70 470h126v-119h2q7 24 21.5 47.5t34 42.5t43.5 30.5t51 11.5h12v-128h-13q-30 0 -56.5 -11t-46.5 -30t-31.5 -45t-11.5 -57v-212h-131v470z" />
    <glyph glyph-name="s" unicode="s" horiz-adv-x="500" 
d="M327 329q-2 29 -24.5 44t-60.5 15q-26 0 -47.5 -10.5t-21.5 -31.5q0 -25 21.5 -36.5t53.5 -18t69 -12.5t69 -20t53.5 -40.5t21.5 -73.5q0 -23 -9.5 -50.5t-33.5 -51.5t-66 -40t-108 -16q-42 0 -78 7.5t-62.5 25.5t-43.5 46.5t-21 70.5l128 4q2 -35 27 -47t55 -12
q12 0 26 2t25.5 7.5t19 15t7.5 24.5q0 24 -20.5 34.5t-51.5 16.5t-67 12t-67 21t-51.5 42t-20.5 75q0 27 11 54t34 48.5t60 35t89 13.5q91 0 146.5 -36t61.5 -113z" />
    <glyph glyph-name="t" unicode="t" horiz-adv-x="343" 
d="M17 470h71v135h132v-135h110v-102h-110v-227q0 -24 13 -32.5t39 -8.5q18 0 39 3v-103q-16 -2 -39.5 -3.5t-39.5 -1.5q-32 0 -58.5 6t-45.5 21t-29.5 40.5t-10.5 64.5v241h-71v102z" />
    <glyph glyph-name="u" unicode="u" horiz-adv-x="572" 
d="M377 62h-2q-29 -43 -67 -59t-78 -16q-43 0 -74 13t-51 35.5t-29.5 52t-9.5 63.5v319h131v-286q0 -26 7 -43t19 -28t26.5 -15.5t29.5 -4.5q41 0 67 31t26 79v267h132v-470h-127v62z" />
    <glyph glyph-name="v" unicode="v" horiz-adv-x="507" 
d="M7 470h145l101 -321h2l102 321h144l-180 -470h-138z" />
    <glyph glyph-name="w" unicode="w" horiz-adv-x="769" 
d="M387 326h-2l-98 -326h-136l-140 470h140l74 -326h2l89 326h139l94 -326h2l74 326h133l-142 -470h-139z" />
    <glyph glyph-name="x" unicode="x" horiz-adv-x="507" 
d="M250 138l-83 -138h-158l165 235l-162 235h163l78 -133l83 133h159l-165 -230l169 -240h-163z" />
    <glyph glyph-name="y" unicode="y" horiz-adv-x="507" 
d="M185 0l-176 470h148l99 -314h2l100 314h141l-259 -670h-138z" />
    <glyph glyph-name="z" unicode="z" horiz-adv-x="469" 
d="M36 95l230 268h-217v107h384v-96l-227 -268h227v-106h-397v95z" />
    <glyph glyph-name="braceleft" unicode="{" horiz-adv-x="350" 
d="M90 625q0 31 12 54t30 38t39.5 22.5t40.5 7.5h80v-83h-39q-32 0 -40.5 -20.5t-8.5 -51.5v-184q0 -29 -10.5 -47.5t-25.5 -30t-32.5 -16.5t-31.5 -6v-2q14 -2 31.5 -7t32.5 -16.5t25.5 -30.5t10.5 -47v-184q0 -31 8.5 -51t40.5 -20h39v-84h-80q-19 0 -40.5 7.5t-39.5 22.5
t-30 38t-12 54v205q0 21 -7.5 34.5t-18.5 22t-23.5 12t-23.5 3.5v83q11 0 23.5 3.5t23.5 12t18.5 22.5t7.5 35v204z" />
    <glyph glyph-name="bar" unicode="|" horiz-adv-x="250" 
d="M78 752h94v-892h-94v892z" />
    <glyph glyph-name="braceright" unicode="}" horiz-adv-x="350" 
d="M260 -12q0 -31 -12 -54t-30 -38t-39.5 -22.5t-40.5 -7.5h-80v84h39q32 0 40.5 20t8.5 51v184q0 28 10.5 47t25.5 30.5t32.5 16.5t31.5 7v2q-14 1 -31.5 6t-32.5 16.5t-25.5 30t-10.5 47.5v184q0 31 -8.5 51.5t-40.5 20.5h-39v83h80q19 0 40.5 -7.5t39.5 -22.5t30 -38
t12 -54v-204q0 -21 7.5 -35t18.5 -22.5t23.5 -12t23.5 -3.5v-83q-11 0 -23.5 -3.5t-23.5 -12t-18.5 -22t-7.5 -34.5v-205z" />
    <glyph glyph-name="asciitilde" unicode="~" 
d="M268 292q26 -17 41.5 -22.5t32.5 -5.5q16 0 29 10.5t28 37.5l73 -60q-17 -27 -33.5 -44t-33 -26.5t-32.5 -12.5t-31 -3q-28 0 -51.5 9t-49.5 25q-28 17 -43 22t-29 5t-27.5 -8t-30.5 -40l-72 61q17 29 33.5 46t33 26t32 12t30.5 3q32 0 53.5 -9t46.5 -26z" />
    <glyph glyph-name="uni00A0" unicode="&#xa0;" horiz-adv-x="255" 
 />
    <glyph glyph-name="exclamdown" unicode="&#xa1;" horiz-adv-x="340" 
d="M235 -208h-130v447h130v-447zM246 407q0 -32 -22 -54t-54 -22t-54 22t-22 54q0 31 22 53.5t54 22.5t54 -22.5t22 -53.5z" />
    <glyph glyph-name="cent" unicode="&#xa2;" 
d="M304 483q47 -2 92 -17t75 -51l-76 -77q-18 20 -41.5 31.5t-49.5 13.5v-296q27 0 52.5 13t42.5 33l72 -78q-32 -35 -76.5 -50.5t-90.5 -17.5v-71h-53v71q-51 4 -91.5 25t-69 54t-43.5 76.5t-15 93.5q0 103 59 168t160 79v66h53v-66zM251 382q-55 -11 -81 -52t-26 -95
q0 -52 27 -93t80 -55v295z" />
    <glyph glyph-name="sterling" unicode="&#xa3;" 
d="M28 379h68q-13 22 -25.5 56t-12.5 73q0 36 11.5 69.5t36 59t62 41t90.5 15.5t89.5 -12t60 -34.5t34.5 -54t13 -71.5h-118q-2 26 -19 45.5t-55 19.5q-25 0 -40 -8.5t-23.5 -20.5t-11.5 -26t-3 -26q0 -26 11 -56.5t32 -69.5h139v-63h-124q4 -11 6.5 -23t2.5 -24
q0 -22 -3.5 -41.5t-12.5 -38t-24.5 -38t-40.5 -41.5l2 -2q33 10 55 10q16 0 33.5 -3t34.5 -6.5t33.5 -6.5t30.5 -3q20 0 43 6.5t45 27.5l28 -107q-36 -20 -65 -28.5t-54 -8.5q-23 0 -45 5.5t-43.5 12t-43 12t-42.5 5.5q-14 0 -44.5 -6t-65.5 -29l-46 98q20 11 39 25.5
t34 33.5t24 41.5t9 49.5q0 26 -4.5 45.5t-10.5 33.5h-90v63z" />
    <glyph glyph-name="currency" unicode="&#xa4;" 
d="M74 205q-23 23 -33.5 58t-10.5 71q0 37 10.5 72t33.5 58l-52 52l52 51l51 -50q23 19 58 30.5t71 11.5t71.5 -11.5t58.5 -30.5l51 50l52 -51l-52 -52q23 -23 33.5 -58t10.5 -72q0 -36 -10.5 -71t-33.5 -58l52 -52l-52 -51l-51 50q-23 -19 -58.5 -30.5t-71.5 -11.5
t-71 11.5t-58 30.5l-51 -50l-52 51zM124 334q0 -27 10 -50.5t28 -41.5t41.5 -28t50.5 -10t51 10t41.5 28t27.5 41.5t10 50.5t-10 51t-27.5 42t-41.5 28t-51 10t-50.5 -10t-41.5 -28t-28 -42t-10 -51z" />
    <glyph glyph-name="yen" unicode="&#xa5;" 
d="M65 237h129v79h-129v63h95l-141 301h136l99 -277l108 277h123l-141 -301h94v-63h-130v-79h130v-64h-130v-173h-114v173h-129v64z" />
    <glyph glyph-name="brokenbar" unicode="&#xa6;" horiz-adv-x="250" 
d="M78 194h94v-304h-94v304zM78 722h94v-304h-94v304z" />
    <glyph glyph-name="section" unicode="&#xa7;" 
d="M325 161q20 10 29 29t9 39q0 19 -6.5 32.5t-17 24t-24.5 18.5t-28 15l-89 40q-19 -6 -35.5 -23.5t-16.5 -46.5q0 -18 6.5 -31.5t17 -23t24 -17t27.5 -13.5zM242 -179q-59 0 -99 15t-64.5 40t-36 58t-14.5 68l115 4q4 -48 32 -66.5t67 -18.5q15 0 30.5 4.5t28 13.5
t20.5 23t8 32q0 22 -9.5 37.5t-28.5 28t-47 23.5t-65 25q-28 10 -54.5 23.5t-47 32t-33 43.5t-12.5 60q0 55 26 90t64 55q-61 39 -61 114q0 42 17.5 73t46.5 52t65 31.5t74 10.5q49 0 86.5 -12.5t63 -34.5t38 -50.5t12.5 -61.5l-111 -4q-2 30 -23 47.5t-64 17.5
q-15 0 -30 -4t-27 -12t-19.5 -20.5t-7.5 -29.5q0 -19 10 -33.5t27 -26.5t41 -23t52 -23q30 -13 60 -28.5t53 -36.5t37.5 -48.5t14.5 -64.5q0 -42 -21 -76.5t-55 -51.5q29 -22 40.5 -51t11.5 -65q0 -43 -18 -76.5t-48 -56.5t-68 -35t-77 -12z" />
    <glyph glyph-name="dieresis" unicode="&#xa8;" horiz-adv-x="255" 
d="M31 684q28 0 48 -20t20 -48t-20 -48t-48 -20t-48 20t-20 48t20 48t48 20zM224 684q28 0 48 -20t20 -48t-20 -48t-48 -20t-47.5 20t-19.5 48t19.5 48t47.5 20z" />
    <glyph glyph-name="copyright" unicode="&#xa9;" horiz-adv-x="900" 
d="M635 283q-5 -36 -20.5 -63t-38.5 -46t-52 -28.5t-60 -9.5q-45 0 -82 16t-63 43.5t-40 65.5t-14 82q0 45 13.5 82.5t39 65.5t62 43.5t82.5 15.5q66 0 112.5 -37t56.5 -109h-83q-7 35 -32.5 51.5t-58.5 16.5q-51 0 -77 -35.5t-26 -92.5q0 -27 7.5 -51t21 -42t33 -28
t43.5 -10q37 0 61.5 18t27.5 52h87zM98 340q0 73 27.5 137t75.5 112t112.5 75.5t137.5 27.5t137 -27.5t112 -75.5t75.5 -112t27.5 -137t-27.5 -137t-75.5 -112t-112 -76t-137 -28t-137.5 28t-112.5 76t-75.5 112t-27.5 137zM751 340q0 66 -23 121.5t-63.5 96.5t-95 64
t-118.5 23t-119 -23t-95.5 -64t-63.5 -96.5t-23 -121.5t23 -122t63.5 -97t95.5 -64t119 -23t118.5 23t95 64t63.5 97t23 122z" />
    <glyph glyph-name="ordfeminine" unicode="&#xaa;" horiz-adv-x="500" 
d="M306 490h-22q-17 0 -34 -1.5t-30 -6t-21 -13t-8 -21.5q0 -21 13.5 -29t34.5 -8q26 0 46.5 15t20.5 50v14zM311 382q-37 -44 -103 -44q-20 0 -41 5.5t-38 18t-28 32.5t-11 50q0 33 13 54t37 32.5t58 16t76 4.5h32v10q0 26 -12.5 41.5t-41.5 15.5q-25 0 -39 -12.5
t-17 -29.5h-95q1 23 10.5 44t28.5 37t48.5 25.5t70.5 9.5q42 0 69.5 -9t44 -26t23 -41t6.5 -54v-161q0 -11 1.5 -26t4.5 -29h-91z" />
    <glyph glyph-name="guillemotleft" unicode="&#xab;" horiz-adv-x="500" 
d="M241 257l93 164h95l-95 -164l99 -165h-94zM67 257l93 164h95l-95 -164l99 -165h-94z" />
    <glyph glyph-name="logicalnot" unicode="&#xac;" 
d="M384 275h-354v96h450v-247h-96v151z" />
    <glyph glyph-name="uni00AD" unicode="&#xad;" horiz-adv-x="360" 
d="M70 291h220v-99h-220v99z" />
    <glyph glyph-name="registered" unicode="&#xae;" horiz-adv-x="600" 
d="M528 493q0 -47 -18 -88t-48.5 -71t-72 -47.5t-88.5 -17.5t-89 17.5t-73 47.5t-49 71t-18 88t18 88.5t49 72t73 48.5t89 18t88.5 -18t72 -48.5t48.5 -72t18 -88.5zM492 493q0 40 -15 75t-41 61.5t-60.5 41.5t-74.5 15t-75 -15t-61.5 -41.5t-41.5 -61.5t-15 -75
q0 -39 15 -74t41.5 -61t61.5 -41t75 -15t74.5 15t60.5 41t41 61t15 74zM349 368l-50 96h-29v-96h-71v260h112q19 0 38 -4t34.5 -13.5t25 -25.5t9.5 -39q0 -26 -14.5 -44.5t-37.5 -26.5l66 -107h-83zM343 545q0 13 -11.5 19t-23.5 6h-38v-54h38q14 0 24.5 8t10.5 21z" />
    <glyph glyph-name="macron" unicode="&#xaf;" horiz-adv-x="255" 
d="M-3 635h262v-60h-262v60z" />
    <glyph glyph-name="degree" unicode="&#xb0;" horiz-adv-x="400" 
d="M40 560q0 33 12.5 62t34.5 51t51 34.5t62 12.5t62 -12.5t51 -34.5t34.5 -51t12.5 -62t-12.5 -62t-34.5 -51t-51 -34.5t-62 -12.5t-62 12.5t-51 34.5t-34.5 51t-12.5 62zM118 560q0 -34 24 -58t58 -24t58 24t24 58t-24 58t-58 24t-58 -24t-24 -58z" />
    <glyph glyph-name="plusminus" unicode="&#xb1;" 
d="M211 468h90v-112h158v-95h-158v-114h-90v114h-160v95h160v112zM51 117h408v-96h-408v96z" />
    <glyph glyph-name="twosuperior" unicode="&#xb2;" horiz-adv-x="400" 
d="M72 363l122 131q19 21 30 39.5t11 38.5q0 17 -8.5 27.5t-26.5 10.5q-19 0 -30.5 -17t-11.5 -47h-86q0 36 10.5 62.5t28.5 44.5t41.5 27t49.5 9q61 0 93 -30.5t32 -81.5q0 -19 -4.5 -36t-14.5 -35t-27 -38t-41 -44l-51 -51h139v-81h-256v71z" />
    <glyph glyph-name="threesuperior" unicode="&#xb3;" horiz-adv-x="400" 
d="M134 536l68 66h-119v80h234v-74l-79 -75q45 -5 70.5 -35.5t25.5 -77.5q0 -60 -37.5 -97.5t-99.5 -37.5q-50 0 -88 27.5t-43 84.5l87 9q6 -42 44 -42q25 0 35 17t10 37q0 22 -13 35.5t-39 13.5q-21 0 -42 -7l-14 1v75z" />
    <glyph glyph-name="acute" unicode="&#xb4;" horiz-adv-x="255" 
d="M105 681h132l-127 -127h-85z" />
    <glyph glyph-name="mu" unicode="&#xb5;" horiz-adv-x="574" 
d="M188 470v-233q0 -20 2 -44.5t10.5 -46t26 -36t49.5 -14.5q30 0 50.5 10t34 27t19.5 39t6 46v252h120v-470h-114v77h-2q-8 -18 -19.5 -34t-28 -28.5t-38.5 -19.5t-51 -7q-18 0 -36.5 6t-28.5 18v-240h-120v698h120z" />
    <glyph glyph-name="paragraph" unicode="&#xb6;" horiz-adv-x="560" 
d="M393 602h-96v-792h-94v524q-94 0 -146 44.5t-52 125.5q0 52 16.5 86t45.5 54t68.5 28t86.5 8h265v-870h-94v792z" />
    <glyph glyph-name="periodcentered" unicode="&#xb7;" horiz-adv-x="255" 
d="M52 295q0 32 22 54t54 22q31 0 53.5 -22t22.5 -54q0 -31 -22.5 -53.5t-53.5 -22.5q-32 0 -54 22.5t-22 53.5z" />
    <glyph glyph-name="cedilla" unicode="&#xb8;" horiz-adv-x="255" 
d="M55 -87l49 87h52l-28 -52l1 -1q4 1 10.5 1h10.5q37 0 63 -17.5t26 -56.5q0 -27 -10.5 -45.5t-28 -30t-41 -16t-50.5 -4.5q-7 0 -17 0.5t-21 2t-22 3.5t-18 5l7 48q31 -6 61 -6q23 0 41.5 7.5t18.5 31.5q0 20 -15.5 26.5t-37.5 6.5q-13 0 -23.5 -1.5t-16.5 -3.5z" />
    <glyph glyph-name="onesuperior" unicode="&#xb9;" horiz-adv-x="400" 
d="M188 579q-20 -10 -42.5 -18t-42.5 -14v80q26 11 55 27.5t51 34.5h67v-397h-88v287z" />
    <glyph glyph-name="ordmasculine" unicode="&#xba;" horiz-adv-x="500" 
d="M437 515q0 -34 -12 -66.5t-36 -57.5t-59 -40t-81 -15q-50 0 -85.5 15t-58 40t-33 57.5t-10.5 66.5t12 66t35.5 57t58.5 40.5t81 15.5q50 0 85.5 -15.5t58.5 -40.5t33.5 -57t10.5 -66zM167 515q0 -42 20 -68.5t62 -26.5t62 26.5t20 68.5q0 41 -20 68t-62 27t-62 -27
t-20 -68z" />
    <glyph glyph-name="guillemotright" unicode="&#xbb;" horiz-adv-x="500" 
d="M259 257l-93 -165h-95l95 165l-99 164h94zM433 257l-93 -165h-95l95 165l-99 164h94z" />
    <glyph glyph-name="onequarter" unicode="&#xbc;" horiz-adv-x="900" 
d="M585 688h74l-390 -707h-78zM188 582q-20 -10 -42.5 -19.5t-42.5 -15.5v80q26 11 55 27.5t51 34.5h67v-397h-88v290zM665 288l-79 -123h80zM509 172l153 221h89v-228h50v-72h-50v-93h-85v93h-157v79z" />
    <glyph glyph-name="onehalf" unicode="&#xbd;" horiz-adv-x="900" 
d="M547 71l122 131q19 21 30 39.5t11 38.5q0 17 -8.5 27.5t-26.5 10.5q-19 0 -30.5 -17t-11.5 -47h-86q0 36 10.5 62.5t28.5 44.5t41.5 27t49.5 9q61 0 93 -30.5t32 -81.5q0 -19 -4.5 -36t-14.5 -35t-27 -38t-41 -44l-51 -51h139v-81h-256v71zM585 688h74l-390 -707h-78z
M188 582q-20 -10 -42.5 -19.5t-42.5 -15.5v80q26 11 55 27.5t51 34.5h67v-397h-88v290z" />
    <glyph glyph-name="threequarters" unicode="&#xbe;" horiz-adv-x="900" 
d="M599 688h74l-390 -707h-78zM133 536l68 66h-119v80h234v-74l-79 -75q45 -5 70.5 -35.5t25.5 -77.5q0 -60 -37.5 -97.5t-99.5 -37.5q-50 0 -88 27.5t-43 84.5l87 9q6 -42 44 -42q25 0 35 17t10 37q0 22 -13 35.5t-39 13.5q-21 0 -42 -7l-14 1v75zM665 288l-79 -123h80z
M509 172l153 221h89v-228h50v-72h-50v-93h-85v93h-157v79z" />
    <glyph glyph-name="questiondown" unicode="&#xbf;" horiz-adv-x="520" 
d="M320 260v-32q0 -54 -22 -90t-58 -67q-27 -23 -46 -48t-19 -62t20 -54t55 -17q77 0 77 95h125q0 -97 -55 -151.5t-151 -54.5q-38 0 -74.5 10t-64.5 31.5t-45 56t-17 83.5q0 32 8 57t21 45.5t30 36.5t34 30q32 26 46.5 49t14.5 53v29h121zM253 483q32 0 54 -22.5t22 -53.5
q0 -32 -22 -54t-54 -22q-31 0 -53.5 22t-22.5 54q0 31 22.5 53.5t53.5 22.5z" />
    <glyph glyph-name="Agrave" unicode="&#xc0;" horiz-adv-x="633" 
d="M316 516h-1l-86 -264h174zM433 142h-238l-44 -142h-146l243 680h143l237 -680h-149zM157 871h132l79 -127h-85z" />
    <glyph glyph-name="Aacute" unicode="&#xc1;" horiz-adv-x="633" 
d="M316 516h-1l-86 -264h174zM433 142h-238l-44 -142h-146l243 680h143l237 -680h-149zM353 871h132l-127 -127h-85z" />
    <glyph glyph-name="Acircumflex" unicode="&#xc2;" horiz-adv-x="633" 
d="M316 516h-1l-86 -264h174zM433 142h-238l-44 -142h-146l243 680h143l237 -680h-149zM316 820l-64 -81h-88l97 132h109l97 -132h-88z" />
    <glyph glyph-name="Atilde" unicode="&#xc3;" horiz-adv-x="633" 
d="M316 516h-1l-86 -264h174zM433 142h-238l-44 -142h-146l243 680h143l237 -680h-149zM156 745q2 18 8.5 37t18.5 34.5t29.5 25t41.5 9.5q18 0 35 -5t33 -11q17 -7 31 -12.5t26 -5.5q18 0 29 10.5t14 27.5h52q-3 -18 -9.5 -36.5t-18 -33.5t-29 -24.5t-41.5 -9.5
q-17 0 -34.5 5t-33.5 11t-30 11.5t-27 5.5q-36 0 -44 -39h-51z" />
    <glyph glyph-name="Adieresis" unicode="&#xc4;" horiz-adv-x="633" 
d="M316 516h-1l-86 -264h174zM433 142h-238l-44 -142h-146l243 680h143l237 -680h-149zM220 878q28 0 48 -20t20 -48t-20 -48t-48 -20t-48 20t-20 48t20 48t48 20zM413 878q28 0 48 -20t20 -48t-20 -48t-48 -20t-47.5 20t-19.5 48t19.5 48t47.5 20z" />
    <glyph glyph-name="Aring" unicode="&#xc5;" horiz-adv-x="633" 
d="M316 516h-1l-86 -264h174zM433 142h-238l-44 -142h-146l243 680h143l237 -680h-149zM221 819q0 19 7 35.5t20 29.5t29.5 20.5t36.5 7.5q18 0 35 -7.5t30 -20t20.5 -29.5t7.5 -36q0 -18 -7.5 -35t-20.5 -30t-30 -20.5t-35 -7.5q-20 0 -36.5 7.5t-29.5 20.5t-20 30t-7 35z
M269 819q0 -18 13 -31t32 -13q18 0 31 13t13 31q0 19 -13 32t-31 13q-19 0 -32 -13t-13 -32z" />
    <glyph glyph-name="AE" unicode="&#xc6;" horiz-adv-x="870" 
d="M430 146h-198l-65 -146h-158l321 680h485v-121h-249v-155h240v-121h-240v-162h249v-121h-385v146zM430 575h-15l-135 -314h150v314z" />
    <glyph glyph-name="Ccedilla" unicode="&#xc7;" horiz-adv-x="723" 
d="M298 -87l43 77q-64 7 -117 33t-91.5 70.5t-59.5 106.5t-21 140q0 74 24.5 138.5t69.5 112t107 75t137 27.5q57 0 107.5 -11.5t91.5 -38t69.5 -68.5t42.5 -102l-141 -25q-17 66 -61.5 95t-107.5 29q-44 0 -79.5 -18.5t-60 -50.5t-38 -74t-13.5 -90q0 -54 14 -97
t39.5 -72.5t62 -45.5t80.5 -16q52 0 97 25t65 83l148 -19q-18 -56 -48.5 -95.5t-71 -65t-90 -37.5t-104.5 -12l-21 -39l1 -1q4 1 10.5 1h10.5q37 0 63 -17.5t26 -56.5q0 -27 -10.5 -45.5t-28 -30t-41 -16t-50.5 -4.5q-7 0 -17 0.5t-21 2t-22 3.5t-18 5l7 48q31 -6 61 -6
q23 0 41.5 7.5t18.5 31.5q0 20 -15.5 26.5t-37.5 6.5q-13 0 -23.5 -1.5t-16.5 -3.5z" />
    <glyph glyph-name="Egrave" unicode="&#xc8;" horiz-adv-x="542" 
d="M75 680h412v-121h-276v-155h268v-121h-268v-162h276v-121h-412v680zM137 871h132l79 -127h-85z" />
    <glyph glyph-name="Eacute" unicode="&#xc9;" horiz-adv-x="542" 
d="M75 680h412v-121h-276v-155h268v-121h-268v-162h276v-121h-412v680zM296 871h132l-127 -127h-85z" />
    <glyph glyph-name="Ecircumflex" unicode="&#xca;" horiz-adv-x="542" 
d="M75 680h412v-121h-276v-155h268v-121h-268v-162h276v-121h-412v680zM281 820l-64 -81h-88l97 132h109l97 -132h-88z" />
    <glyph glyph-name="Edieresis" unicode="&#xcb;" horiz-adv-x="542" 
d="M75 680h412v-121h-276v-155h268v-121h-268v-162h276v-121h-412v680zM186 878q28 0 48 -20t20 -48t-20 -48t-48 -20t-48 20t-20 48t20 48t48 20zM379 878q28 0 48 -20t20 -48t-20 -48t-48 -20t-47.5 20t-19.5 48t19.5 48t47.5 20z" />
    <glyph glyph-name="Igrave" unicode="&#xcc;" horiz-adv-x="289" 
d="M77 680h135v-680h-135v680zM-23 871h132l79 -127h-85z" />
    <glyph glyph-name="Iacute" unicode="&#xcd;" horiz-adv-x="289" 
d="M77 680h135v-680h-135v680zM174 871h132l-127 -127h-85z" />
    <glyph glyph-name="Icircumflex" unicode="&#xce;" horiz-adv-x="289" 
d="M77 680h135v-680h-135v680zM144 820l-64 -81h-88l97 132h109l97 -132h-88z" />
    <glyph glyph-name="Idieresis" unicode="&#xcf;" horiz-adv-x="289" 
d="M77 680h135v-680h-135v680zM59 878q28 0 45.5 -20t17.5 -48t-17.5 -48t-45.5 -20t-45.5 20t-17.5 48t17.5 48t45.5 20zM232 878q28 0 45.5 -20t17.5 -48t-17.5 -48t-45.5 -20t-45 20t-17 48t17 48t45 20z" />
    <glyph glyph-name="Eth" unicode="&#xd0;" horiz-adv-x="723" 
d="M5 400h70v280h265q155 0 241 -87.5t86 -252.5q0 -81 -26 -144.5t-70.5 -107t-103.5 -66t-124 -22.5h-268v316h-70v84zM389 316h-178v-200h123q52 0 89 20t59.5 52.5t33 72.5t10.5 80q0 43 -10 83t-33.5 71t-62.5 50t-96 19h-113v-164h178v-84z" />
    <glyph glyph-name="Ntilde" unicode="&#xd1;" horiz-adv-x="723" 
d="M207 482h-2v-482h-130v680h154l287 -475h2v475h130v-680h-149zM209 745q2 18 8.5 37t18.5 34.5t29.5 25t41.5 9.5q18 0 35 -5t33 -11q17 -7 31 -12.5t26 -5.5q18 0 29 10.5t14 27.5h52q-3 -18 -9.5 -36.5t-18 -33.5t-29 -24.5t-41.5 -9.5q-17 0 -34.5 5t-33.5 11
t-30 11.5t-27 5.5q-36 0 -44 -39h-51z" />
    <glyph glyph-name="Ograve" unicode="&#xd2;" horiz-adv-x="805" 
d="M606 339q0 46 -13 88t-38.5 74t-64 51t-88.5 19t-88 -19t-63.5 -51t-38.5 -74t-13 -88q0 -45 13 -87t38.5 -74t63.5 -51t88 -19t88.5 19t64 51t38.5 74t13 87zM52 339q0 69 23.5 132.5t68 113t109.5 79t149 29.5t149 -29.5t110 -79t68 -113t23 -132.5q0 -68 -23 -131.5
t-68 -112.5t-110 -78.5t-149 -29.5t-149 29.5t-109.5 78.5t-68 112.5t-23.5 131.5zM249 871h132l79 -127h-85z" />
    <glyph glyph-name="Oacute" unicode="&#xd3;" horiz-adv-x="805" 
d="M606 339q0 46 -13 88t-38.5 74t-64 51t-88.5 19t-88 -19t-63.5 -51t-38.5 -74t-13 -88q0 -45 13 -87t38.5 -74t63.5 -51t88 -19t88.5 19t64 51t38.5 74t13 87zM52 339q0 69 23.5 132.5t68 113t109.5 79t149 29.5t149 -29.5t110 -79t68 -113t23 -132.5q0 -68 -23 -131.5
t-68 -112.5t-110 -78.5t-149 -29.5t-149 29.5t-109.5 78.5t-68 112.5t-23.5 131.5zM447 871h132l-127 -127h-85z" />
    <glyph glyph-name="Ocircumflex" unicode="&#xd4;" horiz-adv-x="805" 
d="M606 339q0 46 -13 88t-38.5 74t-64 51t-88.5 19t-88 -19t-63.5 -51t-38.5 -74t-13 -88q0 -45 13 -87t38.5 -74t63.5 -51t88 -19t88.5 19t64 51t38.5 74t13 87zM52 339q0 69 23.5 132.5t68 113t109.5 79t149 29.5t149 -29.5t110 -79t68 -113t23 -132.5q0 -68 -23 -131.5
t-68 -112.5t-110 -78.5t-149 -29.5t-149 29.5t-109.5 78.5t-68 112.5t-23.5 131.5zM417 820l-64 -81h-88l97 132h109l97 -132h-88z" />
    <glyph glyph-name="Otilde" unicode="&#xd5;" horiz-adv-x="805" 
d="M606 339q0 46 -13 88t-38.5 74t-64 51t-88.5 19t-88 -19t-63.5 -51t-38.5 -74t-13 -88q0 -45 13 -87t38.5 -74t63.5 -51t88 -19t88.5 19t64 51t38.5 74t13 87zM52 339q0 69 23.5 132.5t68 113t109.5 79t149 29.5t149 -29.5t110 -79t68 -113t23 -132.5q0 -68 -23 -131.5
t-68 -112.5t-110 -78.5t-149 -29.5t-149 29.5t-109.5 78.5t-68 112.5t-23.5 131.5zM254 745q2 18 8.5 37t18.5 34.5t29.5 25t41.5 9.5q18 0 35 -5t33 -11q17 -7 31 -12.5t26 -5.5q18 0 29 10.5t14 27.5h52q-3 -18 -9.5 -36.5t-18 -33.5t-29 -24.5t-41.5 -9.5q-17 0 -34.5 5
t-33.5 11t-30 11.5t-27 5.5q-36 0 -44 -39h-51z" />
    <glyph glyph-name="Odieresis" unicode="&#xd6;" horiz-adv-x="805" 
d="M606 339q0 46 -13 88t-38.5 74t-64 51t-88.5 19t-88 -19t-63.5 -51t-38.5 -74t-13 -88q0 -45 13 -87t38.5 -74t63.5 -51t88 -19t88.5 19t64 51t38.5 74t13 87zM52 339q0 69 23.5 132.5t68 113t109.5 79t149 29.5t149 -29.5t110 -79t68 -113t23 -132.5q0 -68 -23 -131.5
t-68 -112.5t-110 -78.5t-149 -29.5t-149 29.5t-109.5 78.5t-68 112.5t-23.5 131.5zM308 878q28 0 48 -20t20 -48t-20 -48t-48 -20t-48 20t-20 48t20 48t48 20zM501 878q28 0 48 -20t20 -48t-20 -48t-48 -20t-47.5 20t-19.5 48t19.5 48t47.5 20z" />
    <glyph glyph-name="multiply" unicode="&#xd7;" 
d="M255 311l155 153l64 -64l-152 -151l156 -161l-68 -67l-157 152l-153 -152l-69 66l157 155l-156 158l68 66z" />
    <glyph glyph-name="Oslash" unicode="&#xd8;" horiz-adv-x="805" 
d="M264 159q24 -26 58.5 -40t78.5 -14q53 0 92 19.5t65 52t39 75t13 88.5q0 36 -8.5 71t-22.5 62zM541 522q-25 25 -60.5 39t-79.5 14q-51 0 -89 -19t-64 -51.5t-39 -75.5t-13 -90q0 -35 7 -68t22 -60zM129 114q-38 48 -57.5 105t-19.5 121q0 69 23.5 133t68 112.5t109.5 78
t148 29.5q72 0 127.5 -21t99.5 -59l95 93l45 -41l-96 -95q39 -48 59.5 -106.5t20.5 -123.5q0 -69 -23 -132.5t-67.5 -112.5t-110 -78.5t-150.5 -29.5q-72 0 -130 22t-101 60l-95 -94l-45 40z" />
    <glyph glyph-name="Ugrave" unicode="&#xd9;" horiz-adv-x="687" 
d="M484 680h135v-398q0 -80 -22.5 -136t-60 -91t-88 -51.5t-105.5 -16.5q-56 0 -105.5 16.5t-87 51.5t-59.5 91t-22 136v398h135v-399q0 -85 33 -129t106 -44q72 0 106.5 44t34.5 129v399zM180 871h132l79 -127h-85z" />
    <glyph glyph-name="Uacute" unicode="&#xda;" horiz-adv-x="687" 
d="M484 680h135v-398q0 -80 -22.5 -136t-60 -91t-88 -51.5t-105.5 -16.5q-56 0 -105.5 16.5t-87 51.5t-59.5 91t-22 136v398h135v-399q0 -85 33 -129t106 -44q72 0 106.5 44t34.5 129v399zM378 871h132l-127 -127h-85z" />
    <glyph glyph-name="Ucircumflex" unicode="&#xdb;" horiz-adv-x="687" 
d="M484 680h135v-398q0 -80 -22.5 -136t-60 -91t-88 -51.5t-105.5 -16.5q-56 0 -105.5 16.5t-87 51.5t-59.5 91t-22 136v398h135v-399q0 -85 33 -129t106 -44q72 0 106.5 44t34.5 129v399zM349 820l-64 -81h-88l97 132h109l97 -132h-88z" />
    <glyph glyph-name="Udieresis" unicode="&#xdc;" horiz-adv-x="687" 
d="M484 680h135v-398q0 -80 -22.5 -136t-60 -91t-88 -51.5t-105.5 -16.5q-56 0 -105.5 16.5t-87 51.5t-59.5 91t-22 136v398h135v-399q0 -85 33 -129t106 -44q72 0 106.5 44t34.5 129v399zM248 878q28 0 48 -20t20 -48t-20 -48t-48 -20t-48 20t-20 48t20 48t48 20zM441 878
q28 0 48 -20t20 -48t-20 -48t-48 -20t-47.5 20t-19.5 48t19.5 48t47.5 20z" />
    <glyph glyph-name="Yacute" unicode="&#xdd;" horiz-adv-x="570" 
d="M416 680h149l-211 -417v-263h-135v263l-214 417h159l127 -283zM329 871h132l-127 -127h-85z" />
    <glyph glyph-name="Thorn" unicode="&#xde;" horiz-adv-x="552" 
d="M277 248q33 0 54.5 9t34 23.5t17 32t4.5 34.5t-6 35t-19.5 32.5t-34.5 23.5t-50 9h-66v-199h66zM75 680h136v-117h76q40 0 81.5 -10.5t75.5 -35t56 -66t22 -104.5q0 -59 -20 -99.5t-52 -66.5t-72 -37.5t-81 -11.5h-86v-132h-136v680z" />
    <glyph glyph-name="germandbls" unicode="&#xdf;" horiz-adv-x="572" 
d="M266 402q14 0 31.5 5t32.5 16.5t25 31.5t10 50q0 49 -23.5 69.5t-55.5 20.5q-44 0 -64 -31.5t-20 -82.5v-481h-132v487q0 43 13 82.5t40 70t69 48.5t100 18q42 0 79 -10.5t65 -32.5t44.5 -57t16.5 -84t-23.5 -90t-74.5 -61v-2q25 -4 48.5 -15.5t41.5 -31t29 -48t11 -66.5
q0 -42 -14.5 -80.5t-42.5 -68t-69 -47t-95 -17.5q-14 0 -28 1.5t-26 3.5v108q8 -1 14.5 -1.5t16.5 -0.5q54 0 81 28.5t27 70.5q0 29 -9.5 48.5t-26.5 31t-40 16t-51 4.5v97z" />
    <glyph glyph-name="agrave" unicode="&#xe0;" horiz-adv-x="552" 
d="M354 206h-37q-26 0 -50.5 -2.5t-44.5 -9.5t-32 -20t-12 -34q0 -34 21 -46.5t54 -12.5q19 0 37 5.5t32.5 17.5t23 30.5t8.5 45.5v26zM359 62h-2q-20 -37 -56 -55.5t-92 -18.5q-28 0 -57 7.5t-52.5 24.5t-38.5 45t-15 69q0 45 18.5 73.5t52 45t81 23t105.5 6.5h51v19
q0 42 -19 64.5t-63 22.5q-42 0 -62.5 -17t-22.5 -43h-126q1 31 14 59t40 49.5t68 34t98 12.5q58 0 96.5 -13t61.5 -36.5t32 -57t9 -73.5v-230q0 -19 2 -39.5t5 -33.5h-119zM142 681h132l79 -127h-85z" />
    <glyph glyph-name="aacute" unicode="&#xe1;" horiz-adv-x="552" 
d="M354 206h-37q-26 0 -50.5 -2.5t-44.5 -9.5t-32 -20t-12 -34q0 -34 21 -46.5t54 -12.5q19 0 37 5.5t32.5 17.5t23 30.5t8.5 45.5v26zM359 62h-2q-20 -37 -56 -55.5t-92 -18.5q-28 0 -57 7.5t-52.5 24.5t-38.5 45t-15 69q0 45 18.5 73.5t52 45t81 23t105.5 6.5h51v19
q0 42 -19 64.5t-63 22.5q-42 0 -62.5 -17t-22.5 -43h-126q1 31 14 59t40 49.5t68 34t98 12.5q58 0 96.5 -13t61.5 -36.5t32 -57t9 -73.5v-230q0 -19 2 -39.5t5 -33.5h-119zM293 681h132l-127 -127h-85z" />
    <glyph glyph-name="acircumflex" unicode="&#xe2;" horiz-adv-x="552" 
d="M354 206h-37q-26 0 -50.5 -2.5t-44.5 -9.5t-32 -20t-12 -34q0 -34 21 -46.5t54 -12.5q19 0 37 5.5t32.5 17.5t23 30.5t8.5 45.5v26zM359 62h-2q-20 -37 -56 -55.5t-92 -18.5q-28 0 -57 7.5t-52.5 24.5t-38.5 45t-15 69q0 45 18.5 73.5t52 45t81 23t105.5 6.5h51v19
q0 42 -19 64.5t-63 22.5q-42 0 -62.5 -17t-22.5 -43h-126q1 31 14 59t40 49.5t68 34t98 12.5q58 0 96.5 -13t61.5 -36.5t32 -57t9 -73.5v-230q0 -19 2 -39.5t5 -33.5h-119zM271 630l-64 -81h-88l97 132h109l97 -132h-88z" />
    <glyph glyph-name="atilde" unicode="&#xe3;" horiz-adv-x="552" 
d="M354 206h-37q-26 0 -50.5 -2.5t-44.5 -9.5t-32 -20t-12 -34q0 -34 21 -46.5t54 -12.5q19 0 37 5.5t32.5 17.5t23 30.5t8.5 45.5v26zM359 62h-2q-20 -37 -56 -55.5t-92 -18.5q-28 0 -57 7.5t-52.5 24.5t-38.5 45t-15 69q0 45 18.5 73.5t52 45t81 23t105.5 6.5h51v19
q0 42 -19 64.5t-63 22.5q-42 0 -62.5 -17t-22.5 -43h-126q1 31 14 59t40 49.5t68 34t98 12.5q58 0 96.5 -13t61.5 -36.5t32 -57t9 -73.5v-230q0 -19 2 -39.5t5 -33.5h-119zM113 555q2 18 8.5 37t18.5 34.5t29.5 25t41.5 9.5q18 0 35 -5t33 -11q17 -7 31 -12.5t26 -5.5
q18 0 29 10.5t14 27.5h52q-3 -18 -9.5 -36.5t-18 -33.5t-29 -24.5t-41.5 -9.5q-17 0 -34.5 5t-33.5 11t-30 11.5t-27 5.5q-36 0 -44 -39h-51z" />
    <glyph glyph-name="adieresis" unicode="&#xe4;" horiz-adv-x="552" 
d="M354 206h-37q-26 0 -50.5 -2.5t-44.5 -9.5t-32 -20t-12 -34q0 -34 21 -46.5t54 -12.5q19 0 37 5.5t32.5 17.5t23 30.5t8.5 45.5v26zM359 62h-2q-20 -37 -56 -55.5t-92 -18.5q-28 0 -57 7.5t-52.5 24.5t-38.5 45t-15 69q0 45 18.5 73.5t52 45t81 23t105.5 6.5h51v19
q0 42 -19 64.5t-63 22.5q-42 0 -62.5 -17t-22.5 -43h-126q1 31 14 59t40 49.5t68 34t98 12.5q58 0 96.5 -13t61.5 -36.5t32 -57t9 -73.5v-230q0 -19 2 -39.5t5 -33.5h-119zM180 684q28 0 48 -20t20 -48t-20 -48t-48 -20t-48 20t-20 48t20 48t48 20zM373 684q28 0 48 -20
t20 -48t-20 -48t-48 -20t-47.5 20t-19.5 48t19.5 48t47.5 20z" />
    <glyph glyph-name="aring" unicode="&#xe5;" horiz-adv-x="552" 
d="M354 206h-37q-26 0 -50.5 -2.5t-44.5 -9.5t-32 -20t-12 -34q0 -34 21 -46.5t54 -12.5q19 0 37 5.5t32.5 17.5t23 30.5t8.5 45.5v26zM359 62h-2q-20 -37 -56 -55.5t-92 -18.5q-28 0 -57 7.5t-52.5 24.5t-38.5 45t-15 69q0 45 18.5 73.5t52 45t81 23t105.5 6.5h51v19
q0 42 -19 64.5t-63 22.5q-42 0 -62.5 -17t-22.5 -43h-126q1 31 14 59t40 49.5t68 34t98 12.5q58 0 96.5 -13t61.5 -36.5t32 -57t9 -73.5v-230q0 -19 2 -39.5t5 -33.5h-119zM192 629q0 19 7 35.5t20 29.5t29.5 20.5t36.5 7.5q18 0 35 -7.5t30 -20t20.5 -29.5t7.5 -36
q0 -18 -7.5 -35t-20.5 -30t-30 -20.5t-35 -7.5q-20 0 -36.5 7.5t-29.5 20.5t-20 30t-7 35zM240 629q0 -18 13 -31t32 -13q18 0 31 13t13 31q0 19 -13 32t-31 13q-19 0 -32 -13t-13 -32z" />
    <glyph glyph-name="ae" unicode="&#xe6;" horiz-adv-x="870" 
d="M476 201q0 -21 7.5 -41.5t23.5 -36t40 -25t56 -9.5q73 0 99 54l119 -29q-28 -65 -81.5 -96t-141.5 -31q-65 0 -110.5 25t-71.5 63q-35 -47 -82 -67.5t-118 -20.5q-27 0 -57 7t-54.5 24t-40.5 44.5t-16 68.5q0 35 11.5 63t39 47.5t73 29.5t112.5 10h71v24q0 42 -18 62.5
t-63 20.5q-87 0 -91 -60h-120q2 27 12.5 54.5t35.5 50t65.5 36.5t102.5 14q23 0 46 -3.5t44 -12t38.5 -22.5t28.5 -36q26 35 68 54.5t90 19.5q119 0 178 -65t59 -180v-37h-355zM697 285q0 18 -4.5 36.5t-15.5 33.5t-30 25t-49 10q-34 0 -56.5 -10.5t-36.5 -26t-20.5 -34
t-8.5 -34.5h221zM355 197h-68q-63 0 -87.5 -12.5t-24.5 -44.5t21 -45t57 -13q45 0 73.5 22.5t28.5 65.5v27z" />
    <glyph glyph-name="ccedilla" unicode="&#xe7;" horiz-adv-x="550" 
d="M213 -87l43 78q-54 6 -93 26t-65 51.5t-38.5 73t-12.5 89.5q0 54 18 100.5t51.5 80t80.5 52.5t105 19q93 0 145.5 -34t77.5 -89l-119 -45q-10 25 -33.5 45.5t-65.5 20.5q-34 0 -57 -13t-37.5 -34.5t-21 -50t-6.5 -58.5q0 -57 31 -94.5t89 -37.5q39 0 63 17t38 48l118 -45
q-27 -54 -80.5 -88.5t-136.5 -36.5l-21 -40l1 -1q4 1 10.5 1h10.5q37 0 63 -17.5t26 -56.5q0 -27 -10.5 -45.5t-28 -30t-41 -16t-50.5 -4.5q-7 0 -17 0.5t-21 2t-22 3.5t-18 5l7 48q31 -6 61 -6q23 0 41.5 7.5t18.5 31.5q0 20 -15.5 26.5t-37.5 6.5q-13 0 -23.5 -1.5
t-16.5 -3.5z" />
    <glyph glyph-name="egrave" unicode="&#xe8;" horiz-adv-x="580" 
d="M181 201q0 -21 8 -41.5t24 -36t40.5 -25t56.5 -9.5q74 0 100 54l121 -29q-28 -65 -83.5 -95.5t-143.5 -30.5q-61 0 -108.5 17.5t-80.5 49.5t-50.5 77.5t-17.5 101.5q0 57 18 103t51.5 78.5t80.5 50t104 17.5q119 0 179.5 -65t60.5 -180v-37h-360zM407 285q0 18 -5 36.5
t-16.5 33.5t-31 25t-49.5 10q-34 0 -57 -10.5t-37 -26t-21 -34t-9 -34.5h226zM150 681h132l79 -127h-85z" />
    <glyph glyph-name="eacute" unicode="&#xe9;" horiz-adv-x="580" 
d="M181 201q0 -21 8 -41.5t24 -36t40.5 -25t56.5 -9.5q74 0 100 54l121 -29q-28 -65 -83.5 -95.5t-143.5 -30.5q-61 0 -108.5 17.5t-80.5 49.5t-50.5 77.5t-17.5 101.5q0 57 18 103t51.5 78.5t80.5 50t104 17.5q119 0 179.5 -65t60.5 -180v-37h-360zM407 285q0 18 -5 36.5
t-16.5 33.5t-31 25t-49.5 10q-34 0 -57 -10.5t-37 -26t-21 -34t-9 -34.5h226zM334 681h132l-127 -127h-85z" />
    <glyph glyph-name="ecircumflex" unicode="&#xea;" horiz-adv-x="580" 
d="M181 201q0 -21 8 -41.5t24 -36t40.5 -25t56.5 -9.5q74 0 100 54l121 -29q-28 -65 -83.5 -95.5t-143.5 -30.5q-61 0 -108.5 17.5t-80.5 49.5t-50.5 77.5t-17.5 101.5q0 57 18 103t51.5 78.5t80.5 50t104 17.5q119 0 179.5 -65t60.5 -180v-37h-360zM407 285q0 18 -5 36.5
t-16.5 33.5t-31 25t-49.5 10q-34 0 -57 -10.5t-37 -26t-21 -34t-9 -34.5h226zM298 630l-64 -81h-88l97 132h109l97 -132h-88z" />
    <glyph glyph-name="edieresis" unicode="&#xeb;" horiz-adv-x="580" 
d="M181 201q0 -21 8 -41.5t24 -36t40.5 -25t56.5 -9.5q74 0 100 54l121 -29q-28 -65 -83.5 -95.5t-143.5 -30.5q-61 0 -108.5 17.5t-80.5 49.5t-50.5 77.5t-17.5 101.5q0 57 18 103t51.5 78.5t80.5 50t104 17.5q119 0 179.5 -65t60.5 -180v-37h-360zM407 285q0 18 -5 36.5
t-16.5 33.5t-31 25t-49.5 10q-34 0 -57 -10.5t-37 -26t-21 -34t-9 -34.5h226zM204 684q28 0 48 -20t20 -48t-20 -48t-48 -20t-48 20t-20 48t20 48t48 20zM397 684q28 0 48 -20t20 -48t-20 -48t-48 -20t-47.5 20t-19.5 48t19.5 48t47.5 20z" />
    <glyph glyph-name="igrave" unicode="&#xec;" horiz-adv-x="261" 
d="M65 470h131v-470h-131v470zM-29 681h132l79 -127h-85z" />
    <glyph glyph-name="iacute" unicode="&#xed;" horiz-adv-x="261" 
d="M65 470h131v-470h-131v470zM165 681h132l-127 -127h-85z" />
    <glyph glyph-name="icircumflex" unicode="&#xee;" horiz-adv-x="261" 
d="M65 470h131v-470h-131v470zM138 630l-64 -81h-88l97 132h109l97 -132h-88z" />
    <glyph glyph-name="idieresis" unicode="&#xef;" horiz-adv-x="261" 
d="M65 470h131v-470h-131v470zM47 684q28 0 45.5 -20t17.5 -48t-17.5 -48t-45.5 -20t-45.5 20t-17.5 48t17.5 48t45.5 20zM220 684q28 0 45.5 -20t17.5 -48t-17.5 -48t-45.5 -20t-45 20t-17 48t17 48t45 20z" />
    <glyph glyph-name="eth" unicode="&#xf0;" horiz-adv-x="612" 
d="M106 581l119 49q-23 17 -46 30.5t-49 27.5l117 53q23 -15 44.5 -30.5t46.5 -34.5l124 51l50 -49l-118 -48q44 -38 76.5 -77.5t53.5 -83t31 -92t10 -105.5t-14 -109t-45 -91t-80.5 -62t-121.5 -23q-57 0 -104.5 17.5t-81.5 50t-52.5 78t-18.5 102.5t19.5 103.5t53 78.5
t78.5 49.5t96 17.5q33 0 54.5 -7t47.5 -23h2q-17 30 -46.5 65.5t-67.5 64.5l-122 -50zM433 237q0 63 -34.5 104t-91.5 41q-60 0 -94.5 -41t-34.5 -104q0 -30 7.5 -56.5t23 -46t40 -30.5t58.5 -11q32 0 56 11t39.5 30.5t23 46t7.5 56.5z" />
    <glyph glyph-name="ntilde" unicode="&#xf1;" horiz-adv-x="572" 
d="M374 286q0 25 -7 42.5t-18.5 28t-26.5 15t-31 4.5q-39 0 -65.5 -30.5t-26.5 -78.5v-267h-131v470h125v-61h2q30 43 68 58.5t78 15.5q42 0 73.5 -13t51.5 -35t30 -52t10 -64v-319h-132v286zM136 555q2 18 8.5 37t18.5 34.5t29.5 25t41.5 9.5q18 0 35 -5t33 -11
q17 -7 31 -12.5t26 -5.5q18 0 29 10.5t14 27.5h52q-3 -18 -9.5 -36.5t-18 -33.5t-29 -24.5t-41.5 -9.5q-17 0 -34.5 5t-33.5 11t-30 11.5t-27 5.5q-36 0 -44 -39h-51z" />
    <glyph glyph-name="ograve" unicode="&#xf2;" horiz-adv-x="613" 
d="M566 236q0 -47 -16.5 -92t-49.5 -79.5t-81.5 -55.5t-112.5 -21q-69 0 -118 21t-80.5 55.5t-46 79.5t-14.5 92q0 46 16.5 90.5t49.5 79.5t81.5 56t111.5 21q68 0 117.5 -21t81 -56t46.5 -79.5t15 -90.5zM180 235q0 -63 30.5 -103.5t95.5 -40.5t95 40.5t30 103.5t-30 104
t-95 41t-95.5 -41t-30.5 -104zM143 681h132l79 -127h-85z" />
    <glyph glyph-name="oacute" unicode="&#xf3;" horiz-adv-x="613" 
d="M566 236q0 -47 -16.5 -92t-49.5 -79.5t-81.5 -55.5t-112.5 -21q-69 0 -118 21t-80.5 55.5t-46 79.5t-14.5 92q0 46 16.5 90.5t49.5 79.5t81.5 56t111.5 21q68 0 117.5 -21t81 -56t46.5 -79.5t15 -90.5zM180 235q0 -63 30.5 -103.5t95.5 -40.5t95 40.5t30 103.5t-30 104
t-95 41t-95.5 -41t-30.5 -104zM344 681h132l-127 -127h-85z" />
    <glyph glyph-name="ocircumflex" unicode="&#xf4;" horiz-adv-x="613" 
d="M566 236q0 -47 -16.5 -92t-49.5 -79.5t-81.5 -55.5t-112.5 -21q-69 0 -118 21t-80.5 55.5t-46 79.5t-14.5 92q0 46 16.5 90.5t49.5 79.5t81.5 56t111.5 21q68 0 117.5 -21t81 -56t46.5 -79.5t15 -90.5zM180 235q0 -63 30.5 -103.5t95.5 -40.5t95 40.5t30 103.5t-30 104
t-95 41t-95.5 -41t-30.5 -104zM311 630l-64 -81h-88l97 132h109l97 -132h-88z" />
    <glyph glyph-name="otilde" unicode="&#xf5;" horiz-adv-x="613" 
d="M566 236q0 -47 -16.5 -92t-49.5 -79.5t-81.5 -55.5t-112.5 -21q-69 0 -118 21t-80.5 55.5t-46 79.5t-14.5 92q0 46 16.5 90.5t49.5 79.5t81.5 56t111.5 21q68 0 117.5 -21t81 -56t46.5 -79.5t15 -90.5zM180 235q0 -63 30.5 -103.5t95.5 -40.5t95 40.5t30 103.5t-30 104
t-95 41t-95.5 -41t-30.5 -104zM152 555q2 18 8.5 37t18.5 34.5t29.5 25t41.5 9.5q18 0 35 -5t33 -11q17 -7 31 -12.5t26 -5.5q18 0 29 10.5t14 27.5h52q-3 -18 -9.5 -36.5t-18 -33.5t-29 -24.5t-41.5 -9.5q-17 0 -34.5 5t-33.5 11t-30 11.5t-27 5.5q-36 0 -44 -39h-51z" />
    <glyph glyph-name="odieresis" unicode="&#xf6;" horiz-adv-x="613" 
d="M566 236q0 -47 -16.5 -92t-49.5 -79.5t-81.5 -55.5t-112.5 -21q-69 0 -118 21t-80.5 55.5t-46 79.5t-14.5 92q0 46 16.5 90.5t49.5 79.5t81.5 56t111.5 21q68 0 117.5 -21t81 -56t46.5 -79.5t15 -90.5zM180 235q0 -63 30.5 -103.5t95.5 -40.5t95 40.5t30 103.5t-30 104
t-95 41t-95.5 -41t-30.5 -104zM211 684q28 0 48 -20t20 -48t-20 -48t-48 -20t-48 20t-20 48t20 48t48 20zM404 684q28 0 48 -20t20 -48t-20 -48t-48 -20t-47.5 20t-19.5 48t19.5 48t47.5 20z" />
    <glyph glyph-name="divide" unicode="&#xf7;" 
d="M188 397q0 28 20 47t47 19t46.5 -19t19.5 -47t-19.5 -48t-46.5 -20t-47 20t-20 48zM188 95q0 27 20 46.5t47 19.5t46.5 -19.5t19.5 -46.5q0 -28 -19.5 -47.5t-46.5 -19.5t-47 19.5t-20 47.5zM51 198v95h408v-95h-408z" />
    <glyph glyph-name="oslash" unicode="&#xf8;" horiz-adv-x="613" 
d="M566 236q0 -47 -16.5 -92t-49.5 -79.5t-81.5 -55.5t-112.5 -21q-51 0 -90 11t-69 31l-57 -60l-36 34l56 59q-32 35 -47.5 80t-15.5 93q0 46 16.5 90.5t49.5 79.5t81.5 56t111.5 21q50 0 89.5 -12t69.5 -32l57 61l35 -33l-54 -60q32 -35 47.5 -79.5t15.5 -91.5zM180 235
q0 -48 16 -81l189 201q-30 25 -79 25q-65 0 -95.5 -41t-30.5 -104zM431 235q0 47 -16 80l-188 -200q32 -24 79 -24q65 0 95 40.5t30 103.5z" />
    <glyph glyph-name="ugrave" unicode="&#xf9;" horiz-adv-x="572" 
d="M377 62h-2q-29 -43 -67 -59t-78 -16q-43 0 -74 13t-51 35.5t-29.5 52t-9.5 63.5v319h131v-286q0 -26 7 -43t19 -28t26.5 -15.5t29.5 -4.5q41 0 67 31t26 79v267h132v-470h-127v62zM139 681h132l79 -127h-85z" />
    <glyph glyph-name="uacute" unicode="&#xfa;" horiz-adv-x="572" 
d="M377 62h-2q-29 -43 -67 -59t-78 -16q-43 0 -74 13t-51 35.5t-29.5 52t-9.5 63.5v319h131v-286q0 -26 7 -43t19 -28t26.5 -15.5t29.5 -4.5q41 0 67 31t26 79v267h132v-470h-127v62zM309 681h132l-127 -127h-85z" />
    <glyph glyph-name="ucircumflex" unicode="&#xfb;" horiz-adv-x="572" 
d="M377 62h-2q-29 -43 -67 -59t-78 -16q-43 0 -74 13t-51 35.5t-29.5 52t-9.5 63.5v319h131v-286q0 -26 7 -43t19 -28t26.5 -15.5t29.5 -4.5q41 0 67 31t26 79v267h132v-470h-127v62zM290 630l-64 -81h-88l97 132h109l97 -132h-88z" />
    <glyph glyph-name="udieresis" unicode="&#xfc;" horiz-adv-x="572" 
d="M377 62h-2q-29 -43 -67 -59t-78 -16q-43 0 -74 13t-51 35.5t-29.5 52t-9.5 63.5v319h131v-286q0 -26 7 -43t19 -28t26.5 -15.5t29.5 -4.5q41 0 67 31t26 79v267h132v-470h-127v62zM186 684q28 0 48 -20t20 -48t-20 -48t-48 -20t-48 20t-20 48t20 48t48 20zM379 684
q28 0 48 -20t20 -48t-20 -48t-48 -20t-47.5 20t-19.5 48t19.5 48t47.5 20z" />
    <glyph glyph-name="yacute" unicode="&#xfd;" horiz-adv-x="507" 
d="M185 0l-176 470h148l99 -314h2l100 314h141l-259 -670h-138zM312 681h132l-127 -127h-85z" />
    <glyph glyph-name="thorn" unicode="&#xfe;" horiz-adv-x="616" 
d="M430 238q0 28 -7.5 53t-22.5 44t-37 30t-51 11q-28 0 -50 -11t-37 -29.5t-23 -44t-8 -55.5q0 -26 7.5 -51t22.5 -44t37.5 -30.5t53.5 -11.5q29 0 50.5 11.5t36 31t21.5 44.5t7 52zM68 706h131v-295h1q23 35 62.5 53.5t85.5 18.5q49 0 89.5 -20.5t69.5 -55t45 -79.5
t16 -94t-15 -94t-43 -79t-68.5 -54t-91.5 -20q-46 0 -81 16.5t-69 60.5h-1v-264h-131v906z" />
    <glyph glyph-name="ydieresis" unicode="&#xff;" horiz-adv-x="507" 
d="M185 0l-176 470h148l99 -314h2l100 314h141l-259 -670h-138zM159 684q28 0 48 -20t20 -48t-20 -48t-48 -20t-48 20t-20 48t20 48t48 20zM352 684q28 0 48 -20t20 -48t-20 -48t-48 -20t-47.5 20t-19.5 48t19.5 48t47.5 20z" />
    <glyph glyph-name="Amacron" unicode="&#x100;" horiz-adv-x="633" 
d="M316 516h-1l-86 -264h174zM433 142h-238l-44 -142h-146l243 680h143l237 -680h-149zM186 825h262v-60h-262v60z" />
    <glyph glyph-name="amacron" unicode="&#x101;" horiz-adv-x="552" 
d="M354 206h-37q-26 0 -50.5 -2.5t-44.5 -9.5t-32 -20t-12 -34q0 -34 21 -46.5t54 -12.5q19 0 37 5.5t32.5 17.5t23 30.5t8.5 45.5v26zM359 62h-2q-20 -37 -56 -55.5t-92 -18.5q-28 0 -57 7.5t-52.5 24.5t-38.5 45t-15 69q0 45 18.5 73.5t52 45t81 23t105.5 6.5h51v19
q0 42 -19 64.5t-63 22.5q-42 0 -62.5 -17t-22.5 -43h-126q1 31 14 59t40 49.5t68 34t98 12.5q58 0 96.5 -13t61.5 -36.5t32 -57t9 -73.5v-230q0 -19 2 -39.5t5 -33.5h-119zM147 635h262v-60h-262v60z" />
    <glyph glyph-name="Abreve" unicode="&#x102;" horiz-adv-x="633" 
d="M316 516h-1l-86 -264h174zM433 142h-238l-44 -142h-146l243 680h143l237 -680h-149zM462 869q-3 -58 -42.5 -93t-102.5 -35t-102.5 35t-43.5 93h62q7 -34 26 -51t58 -17q38 0 57.5 17t27.5 51h60z" />
    <glyph glyph-name="abreve" unicode="&#x103;" horiz-adv-x="552" 
d="M354 206h-37q-26 0 -50.5 -2.5t-44.5 -9.5t-32 -20t-12 -34q0 -34 21 -46.5t54 -12.5q19 0 37 5.5t32.5 17.5t23 30.5t8.5 45.5v26zM359 62h-2q-20 -37 -56 -55.5t-92 -18.5q-28 0 -57 7.5t-52.5 24.5t-38.5 45t-15 69q0 45 18.5 73.5t52 45t81 23t105.5 6.5h51v19
q0 42 -19 64.5t-63 22.5q-42 0 -62.5 -17t-22.5 -43h-126q1 31 14 59t40 49.5t68 34t98 12.5q58 0 96.5 -13t61.5 -36.5t32 -57t9 -73.5v-230q0 -19 2 -39.5t5 -33.5h-119zM416 679q-3 -58 -42.5 -93t-102.5 -35t-102.5 35t-43.5 93h62q7 -34 26 -51t58 -17q38 0 57.5 17
t27.5 51h60z" />
    <glyph glyph-name="Aogonek" unicode="&#x104;" horiz-adv-x="633" 
d="M433 142h-238l-44 -142h-146l243 680h143l237 -680h-41q-30 -30 -47.5 -54t-17.5 -53q0 -39 40 -39q23 0 41 5l7 -48q-14 -5 -30.5 -8t-33.5 -3t-35 3.5t-32.5 11.5t-24 22.5t-9.5 35.5q0 35 25 67t68 60h-59zM316 516h-1l-86 -264h174z" />
    <glyph glyph-name="aogonek" unicode="&#x105;" horiz-adv-x="552" 
d="M359 62h-2q-20 -37 -56 -55.5t-92 -18.5q-28 0 -57 7.5t-52.5 24.5t-38.5 45t-15 69q0 45 18.5 73.5t52 45t81 23t105.5 6.5h51v19q0 42 -19 64.5t-63 22.5q-42 0 -62.5 -17t-22.5 -43h-126q1 31 14 59t40 49.5t68 34t98 12.5q58 0 96.5 -13t61.5 -36.5t32 -57t9 -73.5
v-230q0 -19 2 -39.5t5 -33.5h-35q-30 -30 -47.5 -54t-17.5 -53q0 -39 40 -39q23 0 41 5l7 -48q-14 -5 -30.5 -8t-33.5 -3t-35 3.5t-32.5 11.5t-24 22.5t-9.5 35.5q0 35 25 67t68 60h-35zM354 206h-37q-26 0 -50.5 -2.5t-44.5 -9.5t-32 -20t-12 -34q0 -34 21 -46.5t54 -12.5
q19 0 37 5.5t32.5 17.5t23 30.5t8.5 45.5v26z" />
    <glyph glyph-name="Cacute" unicode="&#x106;" horiz-adv-x="723" 
d="M560 448q-17 66 -61.5 95t-107.5 29q-44 0 -79.5 -18.5t-60 -50.5t-38 -74t-13.5 -90q0 -54 14 -97t39.5 -72.5t62 -45.5t80.5 -16q52 0 97 25t65 83l148 -19q-18 -56 -49 -95.5t-71.5 -65t-90.5 -37.5t-105 -12q-74 0 -136 23t-107 68t-70 110.5t-25 151.5
q0 74 24.5 138.5t69.5 112t107 75t137 27.5q57 0 107.5 -11.5t91.5 -38t69.5 -68.5t42.5 -102zM424 871h132l-127 -127h-85z" />
    <glyph glyph-name="cacute" unicode="&#x107;" horiz-adv-x="550" 
d="M406 315q-10 25 -33.5 45.5t-65.5 20.5q-34 0 -57 -13t-37.5 -34.5t-21 -50t-6.5 -58.5q0 -57 31 -94.5t89 -37.5q39 0 63 17t38 48l118 -45q-27 -55 -82.5 -90t-140.5 -35q-65 0 -113 18.5t-79.5 50.5t-46.5 76.5t-15 97.5q0 54 18 100.5t51.5 80t80.5 52.5t105 19
q93 0 145.5 -34t77.5 -89zM326 681h132l-127 -127h-85z" />
    <glyph glyph-name="Ccircumflex" unicode="&#x108;" horiz-adv-x="723" 
d="M560 448q-17 66 -61.5 95t-107.5 29q-44 0 -79.5 -18.5t-60 -50.5t-38 -74t-13.5 -90q0 -54 14 -97t39.5 -72.5t62 -45.5t80.5 -16q52 0 97 25t65 83l148 -19q-18 -56 -49 -95.5t-71.5 -65t-90.5 -37.5t-105 -12q-74 0 -136 23t-107 68t-70 110.5t-25 151.5
q0 74 24.5 138.5t69.5 112t107 75t137 27.5q57 0 107.5 -11.5t91.5 -38t69.5 -68.5t42.5 -102zM401 820l-64 -81h-88l97 132h109l97 -132h-88z" />
    <glyph glyph-name="ccircumflex" unicode="&#x109;" horiz-adv-x="550" 
d="M406 315q-10 25 -33.5 45.5t-65.5 20.5q-34 0 -57 -13t-37.5 -34.5t-21 -50t-6.5 -58.5q0 -57 31 -94.5t89 -37.5q39 0 63 17t38 48l118 -45q-27 -55 -82.5 -90t-140.5 -35q-65 0 -113 18.5t-79.5 50.5t-46.5 76.5t-15 97.5q0 54 18 100.5t51.5 80t80.5 52.5t105 19
q93 0 145.5 -34t77.5 -89zM300 630l-64 -81h-88l97 132h109l97 -132h-88z" />
    <glyph glyph-name="Cdotaccent" unicode="&#x10a;" horiz-adv-x="723" 
d="M560 448q-17 66 -61.5 95t-107.5 29q-44 0 -79.5 -18.5t-60 -50.5t-38 -74t-13.5 -90q0 -54 14 -97t39.5 -72.5t62 -45.5t80.5 -16q52 0 97 25t65 83l148 -19q-18 -56 -49 -95.5t-71.5 -65t-90.5 -37.5t-105 -12q-74 0 -136 23t-107 68t-70 110.5t-25 151.5
q0 74 24.5 138.5t69.5 112t107 75t137 27.5q57 0 107.5 -11.5t91.5 -38t69.5 -68.5t42.5 -102zM317 812q0 15 5.5 29t16 25t24.5 17.5t31 6.5q15 0 28.5 -6t24 -16t17 -24t6.5 -30q0 -15 -6 -29t-16.5 -25t-24.5 -17.5t-29 -6.5q-17 0 -31 7t-24.5 17.5t-16 24t-5.5 27.5z
" />
    <glyph glyph-name="cdotaccent" unicode="&#x10b;" horiz-adv-x="550" 
d="M406 315q-10 25 -33.5 45.5t-65.5 20.5q-34 0 -57 -13t-37.5 -34.5t-21 -50t-6.5 -58.5q0 -57 31 -94.5t89 -37.5q39 0 63 17t38 48l118 -45q-27 -55 -82.5 -90t-140.5 -35q-65 0 -113 18.5t-79.5 50.5t-46.5 76.5t-15 97.5q0 54 18 100.5t51.5 80t80.5 52.5t105 19
q93 0 145.5 -34t77.5 -89zM221 615q0 15 5.5 29t16 25t24.5 17.5t31 6.5q15 0 28.5 -6t24 -16t17 -24t6.5 -30q0 -15 -6 -29t-16.5 -25t-24.5 -17.5t-29 -6.5q-17 0 -31 7t-24.5 17.5t-16 24t-5.5 27.5z" />
    <glyph glyph-name="Ccaron" unicode="&#x10c;" horiz-adv-x="723" 
d="M560 448q-17 66 -61.5 95t-107.5 29q-44 0 -79.5 -18.5t-60 -50.5t-38 -74t-13.5 -90q0 -54 14 -97t39.5 -72.5t62 -45.5t80.5 -16q52 0 97 25t65 83l148 -19q-18 -56 -49 -95.5t-71.5 -65t-90.5 -37.5t-105 -12q-74 0 -136 23t-107 68t-70 110.5t-25 151.5
q0 74 24.5 138.5t69.5 112t107 75t137 27.5q57 0 107.5 -11.5t91.5 -38t69.5 -68.5t42.5 -102zM467 871h88l-97 -132h-109l-97 132h88l64 -82z" />
    <glyph glyph-name="ccaron" unicode="&#x10d;" horiz-adv-x="550" 
d="M406 315q-10 25 -33.5 45.5t-65.5 20.5q-34 0 -57 -13t-37.5 -34.5t-21 -50t-6.5 -58.5q0 -57 31 -94.5t89 -37.5q39 0 63 17t38 48l118 -45q-27 -55 -82.5 -90t-140.5 -35q-65 0 -113 18.5t-79.5 50.5t-46.5 76.5t-15 97.5q0 54 18 100.5t51.5 80t80.5 52.5t105 19
q93 0 145.5 -34t77.5 -89zM358 681h88l-97 -132h-109l-97 132h88l64 -82z" />
    <glyph glyph-name="Dcaron" unicode="&#x10e;" horiz-adv-x="723" 
d="M75 680h265q155 0 241 -87.5t86 -252.5q0 -81 -26 -144.5t-70.5 -107t-103 -66t-123.5 -22.5h-269v680zM334 116q52 0 89 20t59.5 52.5t33 72.5t10.5 80q0 43 -10 83t-33.5 71t-62.5 50t-96 19h-113v-448h123zM397 871h88l-97 -132h-109l-97 132h88l64 -82z" />
    <glyph glyph-name="dcaron" unicode="&#x10f;" horiz-adv-x="616" 
d="M421 234q0 27 -7.5 51.5t-22.5 43.5t-38 30.5t-54 11.5q-28 0 -49.5 -11.5t-36 -31t-22 -44t-7.5 -51.5q0 -28 8 -53.5t23 -44.5t37.5 -30.5t51.5 -11.5q28 0 49.5 11t36.5 30t23 45t8 55zM421 66h-1q-29 -42 -68.5 -60.5t-84.5 -18.5q-49 0 -89.5 20.5t-69.5 55
t-45 79.5t-16 94t15 94t43 79t68.5 54t91.5 20q45 0 80.5 -17t68.5 -60h2v300h131v-706h-126v66zM595 483q23 33 36 62.5t13 55.5q0 15 -5.5 28t-16.5 20l82 31q12 -11 19.5 -26t7.5 -38q0 -35 -19.5 -67.5t-51.5 -65.5h-65z" />
    <glyph glyph-name="Dcroat" unicode="&#x110;" horiz-adv-x="723" 
d="M5 400h70v280h265q155 0 241 -87.5t86 -252.5q0 -81 -26 -144.5t-70.5 -107t-103.5 -66t-124 -22.5h-268v316h-70v84zM389 316h-178v-200h123q52 0 89 20t59.5 52.5t33 72.5t10.5 80q0 43 -10 83t-33.5 71t-62.5 50t-96 19h-113v-164h178v-84z" />
    <glyph glyph-name="dcroat" unicode="&#x111;" horiz-adv-x="616" 
d="M286 602h130v104h131v-104h65v-61h-65v-541h-126v66h-1q-29 -42 -68.5 -60.5t-84.5 -18.5q-49 0 -89.5 20.5t-69.5 55t-45 79.5t-16 94t15 94t43 79t68.5 54t91.5 20q45 0 80.5 -17t68.5 -60h2v135h-130v61zM421 234q0 27 -7.5 51.5t-22.5 43.5t-38 30.5t-54 11.5
q-28 0 -49.5 -11.5t-36 -31t-22 -44t-7.5 -51.5q0 -28 8 -53.5t23 -44.5t37.5 -30.5t51.5 -11.5q28 0 49.5 11t36.5 30t23 45t8 55z" />
    <glyph glyph-name="Emacron" unicode="&#x112;" horiz-adv-x="542" 
d="M75 680h412v-121h-276v-155h268v-121h-268v-162h276v-121h-412v680zM149 825h262v-60h-262v60z" />
    <glyph glyph-name="emacron" unicode="&#x113;" horiz-adv-x="580" 
d="M181 201q0 -21 8 -41.5t24 -36t40.5 -25t56.5 -9.5q74 0 100 54l121 -29q-28 -65 -83.5 -95.5t-143.5 -30.5q-61 0 -108.5 17.5t-80.5 49.5t-50.5 77.5t-17.5 101.5q0 57 18 103t51.5 78.5t80.5 50t104 17.5q119 0 179.5 -65t60.5 -180v-37h-360zM407 285q0 18 -5 36.5
t-16.5 33.5t-31 25t-49.5 10q-34 0 -57 -10.5t-37 -26t-21 -34t-9 -34.5h226zM161 635h262v-60h-262v60z" />
    <glyph glyph-name="Ebreve" unicode="&#x114;" horiz-adv-x="542" 
d="M75 680h412v-121h-276v-155h268v-121h-268v-162h276v-121h-412v680zM424 869q-3 -58 -42.5 -93t-102.5 -35t-102.5 35t-43.5 93h62q7 -34 26 -51t58 -17q38 0 57.5 17t27.5 51h60z" />
    <glyph glyph-name="ebreve" unicode="&#x115;" horiz-adv-x="580" 
d="M181 201q0 -21 8 -41.5t24 -36t40.5 -25t56.5 -9.5q74 0 100 54l121 -29q-28 -65 -83.5 -95.5t-143.5 -30.5q-61 0 -108.5 17.5t-80.5 49.5t-50.5 77.5t-17.5 101.5q0 57 18 103t51.5 78.5t80.5 50t104 17.5q119 0 179.5 -65t60.5 -180v-37h-360zM407 285q0 18 -5 36.5
t-16.5 33.5t-31 25t-49.5 10q-34 0 -57 -10.5t-37 -26t-21 -34t-9 -34.5h226zM446 679q-3 -58 -42.5 -93t-102.5 -35t-102.5 35t-43.5 93h62q7 -34 26 -51t58 -17q38 0 57.5 17t27.5 51h60z" />
    <glyph glyph-name="Edotaccent" unicode="&#x116;" horiz-adv-x="542" 
d="M75 680h412v-121h-276v-155h268v-121h-268v-162h276v-121h-412v680zM208 812q0 15 5.5 29t16 25t24.5 17.5t31 6.5q15 0 28.5 -6t24 -16t17 -24t6.5 -30q0 -15 -6 -29t-16.5 -25t-24.5 -17.5t-29 -6.5q-17 0 -31 7t-24.5 17.5t-16 24t-5.5 27.5z" />
    <glyph glyph-name="edotaccent" unicode="&#x117;" horiz-adv-x="580" 
d="M181 201q0 -21 8 -41.5t24 -36t40.5 -25t56.5 -9.5q74 0 100 54l121 -29q-28 -65 -83.5 -95.5t-143.5 -30.5q-61 0 -108.5 17.5t-80.5 49.5t-50.5 77.5t-17.5 101.5q0 57 18 103t51.5 78.5t80.5 50t104 17.5q119 0 179.5 -65t60.5 -180v-37h-360zM407 285q0 18 -5 36.5
t-16.5 33.5t-31 25t-49.5 10q-34 0 -57 -10.5t-37 -26t-21 -34t-9 -34.5h226zM221 615q0 15 5.5 29t16 25t24.5 17.5t31 6.5q15 0 28.5 -6t24 -16t17 -24t6.5 -30q0 -15 -6 -29t-16.5 -25t-24.5 -17.5t-29 -6.5q-17 0 -31 7t-24.5 17.5t-16 24t-5.5 27.5z" />
    <glyph glyph-name="Eogonek" unicode="&#x118;" horiz-adv-x="542" 
d="M75 680h412v-121h-276v-155h268v-121h-268v-162h276v-121h-54q-30 -30 -47.5 -54t-17.5 -53q0 -39 40 -39q23 0 41 5l7 -48q-14 -5 -30.5 -8t-33.5 -3t-35 3.5t-32.5 11.5t-24 22.5t-9.5 35.5q0 35 25 67t68 60h-309v680z" />
    <glyph glyph-name="eogonek" unicode="&#x119;" horiz-adv-x="580" 
d="M181 201q0 -21 8 -41.5t24 -36t40.5 -25t56.5 -9.5q74 0 100 54l121 -29q-24 -57 -69 -86.5t-113 -37.5q-26 -26 -40.5 -48.5t-14.5 -48.5q0 -39 40 -39q23 0 41 5l7 -48q-14 -5 -30.5 -8t-33.5 -3t-35 3.5t-32.5 11.5t-24 22.5t-9.5 35.5q0 31 20 60t55 55
q-117 4 -181 69.5t-64 176.5q0 57 18 103t51.5 78.5t80.5 50t104 17.5q119 0 179.5 -65t60.5 -180v-37h-360zM407 285q0 18 -5 36.5t-16.5 33.5t-31 25t-49.5 10q-34 0 -57 -10.5t-37 -26t-21 -34t-9 -34.5h226z" />
    <glyph glyph-name="Ecaron" unicode="&#x11a;" horiz-adv-x="542" 
d="M75 680h412v-121h-276v-155h268v-121h-268v-162h276v-121h-412v680zM349 871h88l-97 -132h-109l-97 132h88l64 -82z" />
    <glyph glyph-name="ecaron" unicode="&#x11b;" horiz-adv-x="580" 
d="M181 201q0 -21 8 -41.5t24 -36t40.5 -25t56.5 -9.5q74 0 100 54l121 -29q-28 -65 -83.5 -95.5t-143.5 -30.5q-61 0 -108.5 17.5t-80.5 49.5t-50.5 77.5t-17.5 101.5q0 57 18 103t51.5 78.5t80.5 50t104 17.5q119 0 179.5 -65t60.5 -180v-37h-360zM407 285q0 18 -5 36.5
t-16.5 33.5t-31 25t-49.5 10q-34 0 -57 -10.5t-37 -26t-21 -34t-9 -34.5h226zM361 681h88l-97 -132h-109l-97 132h88l64 -82z" />
    <glyph glyph-name="Gcircumflex" unicode="&#x11c;" horiz-adv-x="753" 
d="M401 357h314q0 -183 -86.5 -276.5t-245.5 -93.5q-75 0 -136.5 29.5t-104.5 78.5t-66.5 112.5t-23.5 132.5t23.5 132.5t66.5 112.5t104.5 78.5t136.5 29.5q84 0 139 -21.5t89.5 -53t52.5 -66.5t28 -62l-141 -17q-18 45 -57 72t-111 27q-40 0 -74.5 -16t-60 -46t-40.5 -73
t-15 -97q0 -46 14 -88t40 -74t62.5 -51t82.5 -19q44 0 75.5 11t52 29.5t31.5 43.5t13 54h-163v111zM388 820l-64 -81h-88l97 132h109l97 -132h-88z" />
    <glyph glyph-name="gcircumflex" unicode="&#x11d;" horiz-adv-x="616" 
d="M422 470h126v-433q0 -53 -14.5 -96.5t-46.5 -75t-82 -48.5t-122 -17q-102 0 -160 35.5t-74 101.5l128 18q8 -29 38 -42t69 -13q72 0 104.5 30t32.5 106v48l-1 1q-22 -45 -61.5 -65t-90.5 -20q-44 0 -84 15.5t-70 46t-47.5 75t-17.5 101.5q0 49 16.5 93.5t46 78t70.5 53.5
t91 20q54 0 92.5 -24.5t55.5 -62.5h1v74zM421 239q0 65 -31.5 98.5t-90.5 33.5q-26 0 -47 -10t-36 -28t-23 -41.5t-8 -50.5q0 -42 11.5 -69t29.5 -42.5t39 -21.5t40 -6q13 0 32.5 5t38 19.5t32 41.5t13.5 71zM300 630l-64 -81h-88l97 132h109l97 -132h-88z" />
    <glyph glyph-name="Gbreve" unicode="&#x11e;" horiz-adv-x="753" 
d="M401 357h314q0 -183 -86.5 -276.5t-245.5 -93.5q-75 0 -136.5 29.5t-104.5 78.5t-66.5 112.5t-23.5 132.5t23.5 132.5t66.5 112.5t104.5 78.5t136.5 29.5q84 0 139 -21.5t89.5 -53t52.5 -66.5t28 -62l-141 -17q-18 45 -57 72t-111 27q-40 0 -74.5 -16t-60 -46t-40.5 -73
t-15 -97q0 -46 14 -88t40 -74t62.5 -51t82.5 -19q44 0 75.5 11t52 29.5t31.5 43.5t13 54h-163v111zM524 869q-3 -58 -42.5 -93t-102.5 -35t-102.5 35t-43.5 93h62q7 -34 26 -51t58 -17q38 0 57.5 17t27.5 51h60z" />
    <glyph glyph-name="gbreve" unicode="&#x11f;" horiz-adv-x="616" 
d="M422 470h126v-433q0 -53 -14.5 -96.5t-46.5 -75t-82 -48.5t-122 -17q-102 0 -160 35.5t-74 101.5l128 18q8 -29 38 -42t69 -13q72 0 104.5 30t32.5 106v48l-1 1q-22 -45 -61.5 -65t-90.5 -20q-44 0 -84 15.5t-70 46t-47.5 75t-17.5 101.5q0 49 16.5 93.5t46 78t70.5 53.5
t91 20q54 0 92.5 -24.5t55.5 -62.5h1v74zM421 239q0 65 -31.5 98.5t-90.5 33.5q-26 0 -47 -10t-36 -28t-23 -41.5t-8 -50.5q0 -42 11.5 -69t29.5 -42.5t39 -21.5t40 -6q13 0 32.5 5t38 19.5t32 41.5t13.5 71zM446 679q-3 -58 -42.5 -93t-102.5 -35t-102.5 35t-43.5 93h62
q7 -34 26 -51t58 -17q38 0 57.5 17t27.5 51h60z" />
    <glyph glyph-name="Gdotaccent" unicode="&#x120;" horiz-adv-x="753" 
d="M401 357h314q0 -183 -86.5 -276.5t-245.5 -93.5q-75 0 -136.5 29.5t-104.5 78.5t-66.5 112.5t-23.5 132.5t23.5 132.5t66.5 112.5t104.5 78.5t136.5 29.5q84 0 139 -21.5t89.5 -53t52.5 -66.5t28 -62l-141 -17q-18 45 -57 72t-111 27q-40 0 -74.5 -16t-60 -46t-40.5 -73
t-15 -97q0 -46 14 -88t40 -74t62.5 -51t82.5 -19q44 0 75.5 11t52 29.5t31.5 43.5t13 54h-163v111zM310 812q0 15 5.5 29t16 25t24.5 17.5t31 6.5q15 0 28.5 -6t24 -16t17 -24t6.5 -30q0 -15 -6 -29t-16.5 -25t-24.5 -17.5t-29 -6.5q-17 0 -31 7t-24.5 17.5t-16 24
t-5.5 27.5z" />
    <glyph glyph-name="gdotaccent" unicode="&#x121;" horiz-adv-x="616" 
d="M422 470h126v-433q0 -53 -14.5 -96.5t-46.5 -75t-82 -48.5t-122 -17q-102 0 -160 35.5t-74 101.5l128 18q8 -29 38 -42t69 -13q72 0 104.5 30t32.5 106v48l-1 1q-22 -45 -61.5 -65t-90.5 -20q-44 0 -84 15.5t-70 46t-47.5 75t-17.5 101.5q0 49 16.5 93.5t46 78t70.5 53.5
t91 20q54 0 92.5 -24.5t55.5 -62.5h1v74zM421 239q0 65 -31.5 98.5t-90.5 33.5q-26 0 -47 -10t-36 -28t-23 -41.5t-8 -50.5q0 -42 11.5 -69t29.5 -42.5t39 -21.5t40 -6q13 0 32.5 5t38 19.5t32 41.5t13.5 71zM224 615q0 15 5.5 29t16 25t24.5 17.5t31 6.5q15 0 28.5 -6
t24 -16t17 -24t6.5 -30q0 -15 -6 -29t-16.5 -25t-24.5 -17.5t-29 -6.5q-17 0 -31 7t-24.5 17.5t-16 24t-5.5 27.5z" />
    <glyph glyph-name="Gcommaaccent" unicode="&#x122;" horiz-adv-x="753" 
d="M401 357h314q0 -183 -86.5 -276.5t-245.5 -93.5q-75 0 -136.5 29.5t-104.5 78.5t-66.5 112.5t-23.5 132.5t23.5 132.5t66.5 112.5t104.5 78.5t136.5 29.5q84 0 139 -21.5t89.5 -53t52.5 -66.5t28 -62l-141 -17q-18 45 -57 72t-111 27q-40 0 -74.5 -16t-60 -46t-40.5 -73
t-15 -97q0 -46 14 -88t40 -74t62.5 -51t82.5 -19q44 0 75.5 11t52 29.5t31.5 43.5t13 54h-163v111zM304 -250q23 33 36 62.5t13 55.5q0 15 -5.5 28t-16.5 20l82 31q12 -11 19.5 -26t7.5 -38q0 -35 -19.5 -67.5t-51.5 -65.5h-65z" />
    <glyph glyph-name="gcommaaccent" unicode="&#x123;" horiz-adv-x="616" 
d="M422 470h126v-433q0 -53 -14.5 -96.5t-46.5 -75t-82 -48.5t-122 -17q-102 0 -160 35.5t-74 101.5l128 18q8 -29 38 -42t69 -13q72 0 104.5 30t32.5 106v48l-1 1q-22 -45 -61.5 -65t-90.5 -20q-44 0 -84 15.5t-70 46t-47.5 75t-17.5 101.5q0 49 16.5 93.5t46 78t70.5 53.5
t91 20q54 0 92.5 -24.5t55.5 -62.5h1v74zM421 239q0 65 -31.5 98.5t-90.5 33.5q-26 0 -47 -10t-36 -28t-23 -41.5t-8 -50.5q0 -42 11.5 -69t29.5 -42.5t39 -21.5t40 -6q13 0 32.5 5t38 19.5t32 41.5t13.5 71zM367 737q-23 -33 -36 -62.5t-13 -55.5q0 -15 5.5 -28t16.5 -20
l-82 -31q-12 11 -19.5 26t-7.5 38q0 35 19.5 67.5t51.5 65.5h65z" />
    <glyph glyph-name="Hcircumflex" unicode="&#x124;" horiz-adv-x="714" 
d="M504 283h-293v-283h-136v680h136v-276h293v276h135v-680h-135v283zM362 820l-64 -81h-88l97 132h109l97 -132h-88z" />
    <glyph glyph-name="hcircumflex" unicode="&#x125;" horiz-adv-x="572" 
d="M374 286q0 25 -7.5 42.5t-20 28t-28 15t-30.5 4.5q-40 0 -64.5 -30.5t-24.5 -78.5v-267h-131v706h131v-297h2q28 43 63 58.5t73 15.5q42 0 74 -13t53 -35t31.5 -52t10.5 -64v-319h-132v286zM318 810l-64 -81h-88l97 132h109l97 -132h-88z" />
    <glyph glyph-name="Hbar" unicode="&#x126;" horiz-adv-x="714" 
d="M24 541h51v139h136v-139h293v139h135v-139h59v-64h-59v-477h-135v283h-293v-283h-136v477h-51v64zM504 404v73h-293v-73h293z" />
    <glyph glyph-name="hbar" unicode="&#x127;" horiz-adv-x="572" 
d="M16 602h52v104h131v-104h161v-61h-161v-132h2q28 43 63 58.5t73 15.5q42 0 74 -13t53 -35t31.5 -52t10.5 -64v-319h-132v286q0 25 -7.5 42.5t-20 28t-28 15t-30.5 4.5q-40 0 -64.5 -30.5t-24.5 -78.5v-267h-131v541h-52v61z" />
    <glyph glyph-name="Itilde" unicode="&#x128;" horiz-adv-x="289" 
d="M77 680h135v-680h-135v680zM-16 745q2 18 8.5 37t18.5 34.5t29.5 25t41.5 9.5q18 0 35 -5t33 -11q17 -7 31 -12.5t26 -5.5q18 0 29 10.5t14 27.5h52q-3 -18 -9.5 -36.5t-18 -33.5t-29 -24.5t-41.5 -9.5q-17 0 -34.5 5t-33.5 11t-30 11.5t-27 5.5q-36 0 -44 -39h-51z" />
    <glyph glyph-name="itilde" unicode="&#x129;" horiz-adv-x="261" 
d="M65 470h131v-470h-131v470zM-24 555q2 18 8.5 37t18.5 34.5t29.5 25t41.5 9.5q18 0 35 -5t33 -11q17 -7 31 -12.5t26 -5.5q18 0 29 10.5t14 27.5h52q-3 -18 -9.5 -36.5t-18 -33.5t-29 -24.5t-41.5 -9.5q-17 0 -34.5 5t-33.5 11t-30 11.5t-27 5.5q-36 0 -44 -39h-51z" />
    <glyph glyph-name="Imacron" unicode="&#x12a;" horiz-adv-x="289" 
d="M77 680h135v-680h-135v680zM11 825h262v-60h-262v60z" />
    <glyph glyph-name="imacron" unicode="&#x12b;" horiz-adv-x="261" 
d="M65 470h131v-470h-131v470zM2 635h262v-60h-262v60z" />
    <glyph glyph-name="Iogonek" unicode="&#x12e;" horiz-adv-x="289" 
d="M77 680h135v-680h-23q-30 -30 -47.5 -54t-17.5 -53q0 -39 40 -39q23 0 41 5l7 -48q-14 -5 -30.5 -8t-33.5 -3t-35 3.5t-32.5 11.5t-24 22.5t-9.5 35.5q0 35 25 67t68 60h-63v680z" />
    <glyph glyph-name="iogonek" unicode="&#x12f;" horiz-adv-x="261" 
d="M65 470h131v-470h-14q-30 -30 -47.5 -54t-17.5 -53q0 -39 40 -39q23 0 41 5l7 -48q-14 -5 -30.5 -8t-33.5 -3t-35 3.5t-32.5 11.5t-24 22.5t-9.5 35.5q0 35 25 67t68 60h-68v470zM54 615q0 15 5.5 29t16 25t24.5 17.5t31 6.5q15 0 28.5 -6t24 -16t17 -24t6.5 -30
q0 -15 -6 -29t-16.5 -25t-24.5 -17.5t-29 -6.5q-17 0 -31 7t-24.5 17.5t-16 24t-5.5 27.5z" />
    <glyph glyph-name="Idotaccent" unicode="&#x130;" horiz-adv-x="289" 
d="M77 680h135v-680h-135v680zM67 812q0 15 5.5 29t16 25t24.5 17.5t31 6.5q15 0 28.5 -6t24 -16t17 -24t6.5 -30q0 -15 -6 -29t-16.5 -25t-24.5 -17.5t-29 -6.5q-17 0 -31 7t-24.5 17.5t-16 24t-5.5 27.5z" />
    <glyph glyph-name="dotlessi" unicode="&#x131;" horiz-adv-x="261" 
d="M65 470h131v-470h-131v470z" />
    <glyph glyph-name="Jcircumflex" unicode="&#x134;" horiz-adv-x="401" 
d="M99 101q56 0 77 29.5t21 94.5v334h-114v121h250v-455q0 -68 -16.5 -113.5t-45.5 -73.5t-70 -39.5t-90 -11.5q-15 0 -33 1.5t-36 4.5v113q14 -2 28.5 -3.5t28.5 -1.5zM234 820l-64 -81h-88l97 132h109l97 -132h-88z" />
    <glyph glyph-name="jcircumflex" unicode="&#x135;" horiz-adv-x="261" 
d="M-10 -102h5q38 0 55 16t17 52v504h131v-507q0 -54 -15 -89t-39.5 -54.5t-55.5 -27t-63 -7.5h-15.5t-19.5 2v111zM135 630l-64 -81h-88l97 132h109l97 -132h-88z" />
    <glyph glyph-name="Kcommaaccent" unicode="&#x136;" horiz-adv-x="597" 
d="M430 680h162l-234 -327l239 -353h-169l-216 334h-1v-334h-136v680h136v-319h1zM222 -250q23 33 36 62.5t13 55.5q0 15 -5.5 28t-16.5 20l82 31q12 -11 19.5 -26t7.5 -38q0 -35 -19.5 -67.5t-51.5 -65.5h-65z" />
    <glyph glyph-name="kcommaaccent" unicode="&#x137;" horiz-adv-x="507" 
d="M199 214h-1v-214h-130v706h130v-421h1l148 185h148l-184 -209l200 -261h-157zM178 -250q23 33 36 62.5t13 55.5q0 15 -5.5 28t-16.5 20l82 31q12 -11 19.5 -26t7.5 -38q0 -35 -19.5 -67.5t-51.5 -65.5h-65z" />
    <glyph glyph-name="Lacute" unicode="&#x139;" horiz-adv-x="497" 
d="M75 680h136v-553h261v-127h-397v680zM176 871h132l-127 -127h-85z" />
    <glyph glyph-name="lacute" unicode="&#x13a;" horiz-adv-x="261" 
d="M65 706h131v-706h-131v706zM170.924 880.763h129.39l-124.489 -107.001h-83.3184z" />
    <glyph glyph-name="Lcommaaccent" unicode="&#x13b;" horiz-adv-x="497" 
d="M75 680h136v-553h261v-127h-397v680zM189 -250q23 33 36 62.5t13 55.5q0 15 -5.5 28t-16.5 20l82 31q12 -11 19.5 -26t7.5 -38q0 -35 -19.5 -67.5t-51.5 -65.5h-65z" />
    <glyph glyph-name="lcommaaccent" unicode="&#x13c;" horiz-adv-x="261" 
d="M65 706h131v-706h-131v706zM58 -250q23 33 36 62.5t13 55.5q0 15 -5.5 28t-16.5 20l82 31q12 -11 19.5 -26t7.5 -38q0 -35 -19.5 -67.5t-51.5 -65.5h-65z" />
    <glyph glyph-name="Lcaron" unicode="&#x13d;" horiz-adv-x="497" 
d="M75 680h136v-553h261v-127h-397v680zM326 483q23 33 36 62.5t13 55.5q0 15 -5.5 28t-16.5 20l82 31q12 -11 19.5 -26t7.5 -38q0 -35 -19.5 -67.5t-51.5 -65.5h-65z" />
    <glyph glyph-name="lcaron" unicode="&#x13e;" horiz-adv-x="261" 
d="M65 706h131v-706h-131v706zM248 483q23 33 36 62.5t13 55.5q0 15 -5.5 28t-16.5 20l82 31q12 -11 19.5 -26t7.5 -38q0 -35 -19.5 -67.5t-51.5 -65.5h-65z" />
    <glyph glyph-name="Ldot" unicode="&#x13f;" horiz-adv-x="497" 
d="M75 680h136v-553h261v-127h-397v680zM319 415q0 15 5.5 29t16 25t24.5 17.5t31 6.5q15 0 28.5 -6t24 -16t17 -24t6.5 -30q0 -15 -6 -29t-16.5 -25t-24.5 -17.5t-29 -6.5q-17 0 -31 7t-24.5 17.5t-16 24t-5.5 27.5z" />
    <glyph glyph-name="ldot" unicode="&#x140;" horiz-adv-x="416" 
d="M65 706h131v-706h-131v706zM264 372q0 15 5.5 29t16 25t24.5 17.5t31 6.5q15 0 28.5 -6t24 -16t17 -24t6.5 -30q0 -15 -6 -29t-16.5 -25t-24.5 -17.5t-29 -6.5q-17 0 -31 7t-24.5 17.5t-16 24t-5.5 27.5z" />
    <glyph glyph-name="Lslash" unicode="&#x141;" horiz-adv-x="497" 
d="M20 304l55 35v341h136v-261l183 107v-104l-183 -107v-188h261v-127h-397v235l-55 -35v104z" />
    <glyph glyph-name="lslash" unicode="&#x142;" horiz-adv-x="261" 
d="M18 429l50 35v242h125v-171l53 38v-88l-53 -38v-447h-125v375l-50 -35v89z" />
    <glyph glyph-name="Nacute" unicode="&#x143;" horiz-adv-x="723" 
d="M207 482h-2v-482h-130v680h154l287 -475h2v475h130v-680h-149zM388 871h132l-127 -127h-85z" />
    <glyph glyph-name="nacute" unicode="&#x144;" horiz-adv-x="572" 
d="M374 286q0 25 -7 42.5t-18.5 28t-26.5 15t-31 4.5q-39 0 -65.5 -30.5t-26.5 -78.5v-267h-131v470h125v-61h2q30 43 68 58.5t78 15.5q42 0 73.5 -13t51.5 -35t30 -52t10 -64v-319h-132v286zM291 681h132l-127 -127h-85z" />
    <glyph glyph-name="Ncommaaccent" unicode="&#x145;" horiz-adv-x="723" 
d="M207 482h-2v-482h-130v680h154l287 -475h2v475h130v-680h-149zM266 -250q23 33 36 62.5t13 55.5q0 15 -5.5 28t-16.5 20l82 31q12 -11 19.5 -26t7.5 -38q0 -35 -19.5 -67.5t-51.5 -65.5h-65z" />
    <glyph glyph-name="ncommaaccent" unicode="&#x146;" horiz-adv-x="572" 
d="M374 286q0 25 -7 42.5t-18.5 28t-26.5 15t-31 4.5q-39 0 -65.5 -30.5t-26.5 -78.5v-267h-131v470h125v-61h2q30 43 68 58.5t78 15.5q42 0 73.5 -13t51.5 -35t30 -52t10 -64v-319h-132v286zM201 -250q23 33 36 62.5t13 55.5q0 15 -5.5 28t-16.5 20l82 31q12 -11 19.5 -26
t7.5 -38q0 -35 -19.5 -67.5t-51.5 -65.5h-65z" />
    <glyph glyph-name="Ncaron" unicode="&#x147;" horiz-adv-x="723" 
d="M207 482h-2v-482h-130v680h154l287 -475h2v475h130v-680h-149zM443 871h88l-97 -132h-109l-97 132h88l64 -82z" />
    <glyph glyph-name="ncaron" unicode="&#x148;" horiz-adv-x="572" 
d="M374 286q0 25 -7 42.5t-18.5 28t-26.5 15t-31 4.5q-39 0 -65.5 -30.5t-26.5 -78.5v-267h-131v470h125v-61h2q30 43 68 58.5t78 15.5q42 0 73.5 -13t51.5 -35t30 -52t10 -64v-319h-132v286zM350 681h88l-97 -132h-109l-97 132h88l64 -82z" />
    <glyph glyph-name="Omacron" unicode="&#x14c;" horiz-adv-x="805" 
d="M606 339q0 46 -13 88t-38.5 74t-64 51t-88.5 19t-88 -19t-63.5 -51t-38.5 -74t-13 -88q0 -45 13 -87t38.5 -74t63.5 -51t88 -19t88.5 19t64 51t38.5 74t13 87zM52 339q0 69 23.5 132.5t68 113t109.5 79t149 29.5t149 -29.5t110 -79t68 -113t23 -132.5q0 -68 -23 -131.5
t-68 -112.5t-110 -78.5t-149 -29.5t-149 29.5t-109.5 78.5t-68 112.5t-23.5 131.5zM269 825h262v-60h-262v60z" />
    <glyph glyph-name="omacron" unicode="&#x14d;" horiz-adv-x="613" 
d="M566 236q0 -47 -16.5 -92t-49.5 -79.5t-81.5 -55.5t-112.5 -21q-69 0 -118 21t-80.5 55.5t-46 79.5t-14.5 92q0 46 16.5 90.5t49.5 79.5t81.5 56t111.5 21q68 0 117.5 -21t81 -56t46.5 -79.5t15 -90.5zM180 235q0 -63 30.5 -103.5t95.5 -40.5t95 40.5t30 103.5t-30 104
t-95 41t-95.5 -41t-30.5 -104zM178 635h262v-60h-262v60z" />
    <glyph glyph-name="Obreve" unicode="&#x14e;" horiz-adv-x="805" 
d="M606 339q0 46 -13 88t-38.5 74t-64 51t-88.5 19t-88 -19t-63.5 -51t-38.5 -74t-13 -88q0 -45 13 -87t38.5 -74t63.5 -51t88 -19t88.5 19t64 51t38.5 74t13 87zM52 339q0 69 23.5 132.5t68 113t109.5 79t149 29.5t149 -29.5t110 -79t68 -113t23 -132.5q0 -68 -23 -131.5
t-68 -112.5t-110 -78.5t-149 -29.5t-149 29.5t-109.5 78.5t-68 112.5t-23.5 131.5zM549 869q-3 -58 -42.5 -93t-102.5 -35t-102.5 35t-43.5 93h62q7 -34 26 -51t58 -17q38 0 57.5 17t27.5 51h60z" />
    <glyph glyph-name="obreve" unicode="&#x14f;" horiz-adv-x="613" 
d="M566 236q0 -47 -16.5 -92t-49.5 -79.5t-81.5 -55.5t-112.5 -21q-69 0 -118 21t-80.5 55.5t-46 79.5t-14.5 92q0 46 16.5 90.5t49.5 79.5t81.5 56t111.5 21q68 0 117.5 -21t81 -56t46.5 -79.5t15 -90.5zM180 235q0 -63 30.5 -103.5t95.5 -40.5t95 40.5t30 103.5t-30 104
t-95 41t-95.5 -41t-30.5 -104zM451 679q-3 -58 -42.5 -93t-102.5 -35t-102.5 35t-43.5 93h62q7 -34 26 -51t58 -17q38 0 57.5 17t27.5 51h60z" />
    <glyph glyph-name="Ohungarumlaut" unicode="&#x150;" horiz-adv-x="805" 
d="M606 339q0 46 -13 88t-38.5 74t-64 51t-88.5 19t-88 -19t-63.5 -51t-38.5 -74t-13 -88q0 -45 13 -87t38.5 -74t63.5 -51t88 -19t88.5 19t64 51t38.5 74t13 87zM52 339q0 69 23.5 132.5t68 113t109.5 79t149 29.5t149 -29.5t110 -79t68 -113t23 -132.5q0 -68 -23 -131.5
t-68 -112.5t-110 -78.5t-149 -29.5t-149 29.5t-109.5 78.5t-68 112.5t-23.5 131.5zM348 871h122l-127 -127h-75zM537 871h123l-127 -127h-75z" />
    <glyph glyph-name="ohungarumlaut" unicode="&#x151;" horiz-adv-x="613" 
d="M566 236q0 -47 -16.5 -92t-49.5 -79.5t-81.5 -55.5t-112.5 -21q-69 0 -118 21t-80.5 55.5t-46 79.5t-14.5 92q0 46 16.5 90.5t49.5 79.5t81.5 56t111.5 21q68 0 117.5 -21t81 -56t46.5 -79.5t15 -90.5zM180 235q0 -63 30.5 -103.5t95.5 -40.5t95 40.5t30 103.5t-30 104
t-95 41t-95.5 -41t-30.5 -104zM244 681h122l-127 -127h-75zM433 681h123l-127 -127h-75z" />
    <glyph glyph-name="OE" unicode="&#x152;" horiz-adv-x="950" 
d="M525 339q0 37 -7 78t-26 76t-53 58t-88 23q-49 0 -82.5 -19.5t-54.5 -52t-30 -75t-9 -89.5q0 -107 42 -169.5t129 -62.5q82 0 130.5 62t48.5 171zM519 79h-2q-20 -31 -46.5 -49t-53.5 -27.5t-51 -12.5t-40 -3q-62 0 -114.5 21t-90.5 64.5t-59.5 110t-21.5 158.5
q0 76 21 141t58.5 111.5t90.5 73t116 26.5q76 0 123.5 -25t68.5 -61h1v73h376v-121h-246v-155h237v-121h-237v-162h246v-121h-376v79z" />
    <glyph glyph-name="oe" unicode="&#x153;" horiz-adv-x="930" 
d="M545 201q0 -21 7.5 -41.5t23 -36t39 -25t54.5 -9.5q72 0 96 54l116 -29q-26 -65 -79.5 -95.5t-138.5 -30.5q-66 0 -112.5 21.5t-72.5 60.5q-21 -34 -66 -58.5t-122 -24.5q-50 0 -94 17.5t-77 49.5t-52.5 78t-19.5 102q0 57 19.5 103t53 78.5t79.5 50t99 17.5
q57 0 106.5 -19.5t76.5 -61.5q27 38 72.5 59.5t106.5 21.5q114 0 172.5 -65.5t58.5 -179.5v-37h-346zM430 244q0 33 -10.5 58.5t-27.5 43t-40 26.5t-47 9q-58 0 -91.5 -40t-33.5 -106q0 -69 32 -106.5t93 -37.5q33 0 57 14.5t39 36.5t22 49t7 53zM762 285q0 18 -4.5 36.5
t-16 33.5t-30.5 25t-47 10q-33 0 -54.5 -10.5t-35 -26t-20.5 -34t-9 -34.5h217z" />
    <glyph glyph-name="Racute" unicode="&#x154;" horiz-adv-x="597" 
d="M290 268h-79v-268h-136v680h254q54 0 95.5 -16t70 -43.5t43.5 -64.5t15 -79q0 -27 -7.5 -56t-23 -55.5t-39 -47.5t-56.5 -31l158 -287h-162zM301 379q35 0 57.5 8.5t36 21.5t18.5 29.5t5 33.5q0 18 -5.5 35t-19 29.5t-37 20t-59.5 7.5h-86v-185h90zM285 871h132
l-127 -127h-85z" />
    <glyph glyph-name="racute" unicode="&#x155;" horiz-adv-x="374" 
d="M70 470h126v-119h2q7 24 21.5 47.5t34 42.5t43.5 30.5t51 11.5h12v-128h-13q-30 0 -56.5 -11t-46.5 -30t-31.5 -45t-11.5 -57v-212h-131v470zM206 681h132l-127 -127h-85z" />
    <glyph glyph-name="Rcommaaccent" unicode="&#x156;" horiz-adv-x="597" 
d="M290 268h-79v-268h-136v680h254q54 0 95.5 -16t70 -43.5t43.5 -64.5t15 -79q0 -27 -7.5 -56t-23 -55.5t-39 -47.5t-56.5 -31l158 -287h-162zM301 379q35 0 57.5 8.5t36 21.5t18.5 29.5t5 33.5q0 18 -5.5 35t-19 29.5t-37 20t-59.5 7.5h-86v-185h90zM210 -250
q23 33 36 62.5t13 55.5q0 15 -5.5 28t-16.5 20l82 31q12 -11 19.5 -26t7.5 -38q0 -35 -19.5 -67.5t-51.5 -65.5h-65z" />
    <glyph glyph-name="rcommaaccent" unicode="&#x157;" horiz-adv-x="374" 
d="M70 470h126v-119h2q7 24 21.5 47.5t34 42.5t43.5 30.5t51 11.5h12v-128h-13q-30 0 -56.5 -11t-46.5 -30t-31.5 -45t-11.5 -57v-212h-131v470zM60 -250q23 33 36 62.5t13 55.5q0 15 -5.5 28t-16.5 20l82 31q12 -11 19.5 -26t7.5 -38q0 -35 -19.5 -67.5t-51.5 -65.5h-65z
" />
    <glyph glyph-name="Rcaron" unicode="&#x158;" horiz-adv-x="597" 
d="M290 268h-79v-268h-136v680h254q54 0 95.5 -16t70 -43.5t43.5 -64.5t15 -79q0 -27 -7.5 -56t-23 -55.5t-39 -47.5t-56.5 -31l158 -287h-162zM301 379q35 0 57.5 8.5t36 21.5t18.5 29.5t5 33.5q0 18 -5.5 35t-19 29.5t-37 20t-59.5 7.5h-86v-185h90zM341 871h88l-97 -132
h-109l-97 132h88l64 -82z" />
    <glyph glyph-name="rcaron" unicode="&#x159;" horiz-adv-x="374" 
d="M70 470h126v-119h2q7 24 21.5 47.5t34 42.5t43.5 30.5t51 11.5h12v-128h-13q-30 0 -56.5 -11t-46.5 -30t-31.5 -45t-11.5 -57v-212h-131v470zM250 681h88l-97 -132h-109l-97 132h88l64 -82z" />
    <glyph glyph-name="Sacute" unicode="&#x15a;" horiz-adv-x="603" 
d="M417 501q-3 36 -28.5 57.5t-78.5 21.5q-48 0 -77.5 -19.5t-29.5 -59.5q0 -20 7.5 -34.5t23.5 -25t41.5 -19.5t62.5 -19q49 -13 89 -29t68.5 -39.5t44.5 -56.5t16 -79q0 -48 -18 -87.5t-51.5 -67t-82 -42.5t-109.5 -15q-72 0 -120 17.5t-78 47t-44.5 68t-17.5 79.5l135 4
q5 -56 38 -78t87 -22q58 0 91 18.5t33 63.5q0 41 -37.5 61.5t-110.5 40.5q-51 14 -90 30.5t-65 39t-39 53t-13 74.5q0 42 16.5 79.5t48 66.5t78.5 46t107 17q61 0 106 -15t74.5 -40.5t44 -59.5t14.5 -72zM333 871h132l-127 -127h-85z" />
    <glyph glyph-name="sacute" unicode="&#x15b;" horiz-adv-x="500" 
d="M327 329q-2 29 -24.5 44t-60.5 15q-26 0 -47.5 -10.5t-21.5 -31.5q0 -25 21.5 -36.5t53.5 -18t69 -12.5t69 -20t53.5 -40.5t21.5 -73.5q0 -23 -9.5 -50.5t-33.5 -51.5t-66 -40t-108 -16q-42 0 -78 7.5t-62.5 25.5t-43.5 46.5t-21 70.5l128 4q2 -35 27 -47t55 -12
q12 0 26 2t25.5 7.5t19 15t7.5 24.5q0 24 -20.5 34.5t-51.5 16.5t-67 12t-67 21t-51.5 42t-20.5 75q0 27 11 54t34 48.5t60 35t89 13.5q91 0 146.5 -36t61.5 -113zM274 681h132l-127 -127h-85z" />
    <glyph glyph-name="Scircumflex" unicode="&#x15c;" horiz-adv-x="603" 
d="M417 501q-3 36 -28.5 57.5t-78.5 21.5q-48 0 -77.5 -19.5t-29.5 -59.5q0 -20 7.5 -34.5t23.5 -25t41.5 -19.5t62.5 -19q49 -13 89 -29t68.5 -39.5t44.5 -56.5t16 -79q0 -48 -18 -87.5t-51.5 -67t-82 -42.5t-109.5 -15q-72 0 -120 17.5t-78 47t-44.5 68t-17.5 79.5l135 4
q5 -56 38 -78t87 -22q58 0 91 18.5t33 63.5q0 41 -37.5 61.5t-110.5 40.5q-51 14 -90 30.5t-65 39t-39 53t-13 74.5q0 42 16.5 79.5t48 66.5t78.5 46t107 17q61 0 106 -15t74.5 -40.5t44 -59.5t14.5 -72zM312 820l-64 -81h-88l97 132h109l97 -132h-88z" />
    <glyph glyph-name="scircumflex" unicode="&#x15d;" horiz-adv-x="500" 
d="M327 329q-2 29 -24.5 44t-60.5 15q-26 0 -47.5 -10.5t-21.5 -31.5q0 -25 21.5 -36.5t53.5 -18t69 -12.5t69 -20t53.5 -40.5t21.5 -73.5q0 -23 -9.5 -50.5t-33.5 -51.5t-66 -40t-108 -16q-42 0 -78 7.5t-62.5 25.5t-43.5 46.5t-21 70.5l128 4q2 -35 27 -47t55 -12
q12 0 26 2t25.5 7.5t19 15t7.5 24.5q0 24 -20.5 34.5t-51.5 16.5t-67 12t-67 21t-51.5 42t-20.5 75q0 27 11 54t34 48.5t60 35t89 13.5q91 0 146.5 -36t61.5 -113zM254 630l-64 -81h-88l97 132h109l97 -132h-88z" />
    <glyph glyph-name="Scedilla" unicode="&#x15e;" horiz-adv-x="603" 
d="M218 -87l42 75q-62 4 -103.5 23.5t-67.5 48t-38.5 64.5t-15.5 75l135 4q5 -56 38 -78t87 -22q58 0 91 18.5t33 63.5q0 41 -37.5 61.5t-110.5 40.5q-51 14 -90 30.5t-65 39t-39 53t-13 74.5q0 42 16.5 79.5t48 66.5t78.5 46t107 17q61 0 106 -15t74.5 -40.5t44 -59.5
t14.5 -72l-136 -5q-3 36 -28.5 57.5t-78.5 21.5q-48 0 -77.5 -19.5t-29.5 -59.5q0 -20 7.5 -34.5t23.5 -25t41.5 -19.5t62.5 -19q49 -13 89 -29t68.5 -39.5t44.5 -56.5t16 -79q0 -94 -64.5 -150.5t-179.5 -61.5l-21 -39l1 -1q4 1 10.5 1h10.5q37 0 63 -17.5t26 -56.5
q0 -27 -10.5 -45.5t-28 -30t-41 -16t-50.5 -4.5q-7 0 -17 0.5t-21 2t-22 3.5t-18 5l7 48q31 -6 61 -6q23 0 41.5 7.5t18.5 31.5q0 20 -15.5 26.5t-37.5 6.5q-13 0 -23.5 -1.5t-16.5 -3.5z" />
    <glyph glyph-name="scedilla" unicode="&#x15f;" horiz-adv-x="500" 
d="M184 -87l42 75q-39 1 -71.5 10t-57 26.5t-39.5 45t-19 67.5l128 4q2 -35 27 -47t55 -12q12 0 26 2t25.5 7.5t19 15t7.5 24.5q0 24 -20.5 34.5t-51.5 16.5t-67 12t-67 21t-51.5 42t-20.5 75q0 27 11 54t34 48.5t60 35t89 13.5q91 0 146.5 -36t61.5 -113l-124 -5
q-2 29 -24.5 44t-60.5 15q-26 0 -47.5 -10.5t-21.5 -31.5q0 -25 21.5 -36.5t53.5 -18t69 -12.5t69 -20t53.5 -40.5t21.5 -73.5q0 -22 -8 -47.5t-28.5 -48t-56 -39.5t-90.5 -21l-21 -41l1 -1q4 1 10.5 1h10.5q37 0 63 -17.5t26 -56.5q0 -27 -10.5 -45.5t-28 -30t-41 -16
t-50.5 -4.5q-7 0 -17 0.5t-21 2t-22 3.5t-18 5l7 48q31 -6 61 -6q23 0 41.5 7.5t18.5 31.5q0 20 -15.5 26.5t-37.5 6.5q-13 0 -23.5 -1.5t-16.5 -3.5z" />
    <glyph glyph-name="Scaron" unicode="&#x160;" horiz-adv-x="603" 
d="M417 501q-3 36 -28.5 57.5t-78.5 21.5q-48 0 -77.5 -19.5t-29.5 -59.5q0 -20 7.5 -34.5t23.5 -25t41.5 -19.5t62.5 -19q49 -13 89 -29t68.5 -39.5t44.5 -56.5t16 -79q0 -48 -18 -87.5t-51.5 -67t-82 -42.5t-109.5 -15q-72 0 -120 17.5t-78 47t-44.5 68t-17.5 79.5l135 4
q5 -56 38 -78t87 -22q58 0 91 18.5t33 63.5q0 41 -37.5 61.5t-110.5 40.5q-51 14 -90 30.5t-65 39t-39 53t-13 74.5q0 42 16.5 79.5t48 66.5t78.5 46t107 17q61 0 106 -15t74.5 -40.5t44 -59.5t14.5 -72zM373 871h88l-97 -132h-109l-97 132h88l64 -82z" />
    <glyph glyph-name="scaron" unicode="&#x161;" horiz-adv-x="500" 
d="M327 329q-2 29 -24.5 44t-60.5 15q-26 0 -47.5 -10.5t-21.5 -31.5q0 -25 21.5 -36.5t53.5 -18t69 -12.5t69 -20t53.5 -40.5t21.5 -73.5q0 -23 -9.5 -50.5t-33.5 -51.5t-66 -40t-108 -16q-42 0 -78 7.5t-62.5 25.5t-43.5 46.5t-21 70.5l128 4q2 -35 27 -47t55 -12
q12 0 26 2t25.5 7.5t19 15t7.5 24.5q0 24 -20.5 34.5t-51.5 16.5t-67 12t-67 21t-51.5 42t-20.5 75q0 27 11 54t34 48.5t60 35t89 13.5q91 0 146.5 -36t61.5 -113zM319 681h88l-97 -132h-109l-97 132h88l64 -82z" />
    <glyph glyph-name="Tcommaaccent" unicode="&#x162;" horiz-adv-x="524" 
d="M194 559h-179v121h494v-121h-179v-559h-136v559zM182 -250q23 33 36 62.5t13 55.5q0 15 -5.5 28t-16.5 20l82 31q12 -11 19.5 -26t7.5 -38q0 -35 -19.5 -67.5t-51.5 -65.5h-65z" />
    <glyph glyph-name="tcommaaccent" unicode="&#x163;" horiz-adv-x="343" 
d="M17 470h71v135h132v-135h110v-102h-110v-227q0 -24 13 -32.5t39 -8.5q18 0 39 3v-103q-16 -2 -39.5 -3.5t-39.5 -1.5q-32 0 -58.5 6t-45.5 21t-29.5 40.5t-10.5 64.5v241h-71v102zM125 -250q23 33 36 62.5t13 55.5q0 15 -5.5 28t-16.5 20l82 31q12 -11 19.5 -26t7.5 -38
q0 -35 -19.5 -67.5t-51.5 -65.5h-65z" />
    <glyph glyph-name="Tcaron" unicode="&#x164;" horiz-adv-x="524" 
d="M194 559h-179v121h494v-121h-179v-559h-136v559zM326 871h88l-97 -132h-109l-97 132h88l64 -82z" />
    <glyph glyph-name="tcaron" unicode="&#x165;" horiz-adv-x="343" 
d="M17 470h71v135h132v-135h110v-102h-110v-227q0 -24 13 -32.5t39 -8.5q18 0 39 3v-103q-16 -2 -39.5 -3.5t-39.5 -1.5q-32 0 -58.5 6t-45.5 21t-29.5 40.5t-10.5 64.5v241h-71v102zM270 513q23 33 36 62.5t13 55.5q0 15 -5.5 28t-16.5 20l82 31q12 -11 19.5 -26t7.5 -38
q0 -35 -19.5 -67.5t-51.5 -65.5h-65z" />
    <glyph glyph-name="Tbar" unicode="&#x166;" horiz-adv-x="524" 
d="M67 434h127v125h-179v121h494v-121h-179v-125h127v-76h-127v-358h-136v358h-127v76z" />
    <glyph glyph-name="tbar" unicode="&#x167;" horiz-adv-x="343" 
d="M24 291h64v77h-71v102h71v135h132v-135h110v-102h-110v-77h99v-60h-99v-90q0 -24 13 -32.5t39 -8.5q18 0 39 3v-103q-16 -2 -39.5 -3.5t-39.5 -1.5q-32 0 -58.5 6t-45.5 21t-29.5 40.5t-10.5 64.5v104h-64v60z" />
    <glyph glyph-name="Utilde" unicode="&#x168;" horiz-adv-x="687" 
d="M484 680h135v-398q0 -80 -22.5 -136t-60 -91t-88 -51.5t-105.5 -16.5q-56 0 -105.5 16.5t-87 51.5t-59.5 91t-22 136v398h135v-399q0 -85 33 -129t106 -44q72 0 106.5 44t34.5 129v399zM186 745q2 18 8.5 37t18.5 34.5t29.5 25t41.5 9.5q18 0 35 -5t33 -11
q17 -7 31 -12.5t26 -5.5q18 0 29 10.5t14 27.5h52q-3 -18 -9.5 -36.5t-18 -33.5t-29 -24.5t-41.5 -9.5q-17 0 -34.5 5t-33.5 11t-30 11.5t-27 5.5q-36 0 -44 -39h-51z" />
    <glyph glyph-name="utilde" unicode="&#x169;" horiz-adv-x="572" 
d="M377 62h-2q-29 -43 -67 -59t-78 -16q-43 0 -74 13t-51 35.5t-29.5 52t-9.5 63.5v319h131v-286q0 -26 7 -43t19 -28t26.5 -15.5t29.5 -4.5q41 0 67 31t26 79v267h132v-470h-127v62zM128 555q2 18 8.5 37t18.5 34.5t29.5 25t41.5 9.5q18 0 35 -5t33 -11q17 -7 31 -12.5
t26 -5.5q18 0 29 10.5t14 27.5h52q-3 -18 -9.5 -36.5t-18 -33.5t-29 -24.5t-41.5 -9.5q-17 0 -34.5 5t-33.5 11t-30 11.5t-27 5.5q-36 0 -44 -39h-51z" />
    <glyph glyph-name="Umacron" unicode="&#x16a;" horiz-adv-x="687" 
d="M484 680h135v-398q0 -80 -22.5 -136t-60 -91t-88 -51.5t-105.5 -16.5q-56 0 -105.5 16.5t-87 51.5t-59.5 91t-22 136v398h135v-399q0 -85 33 -129t106 -44q72 0 106.5 44t34.5 129v399zM217 825h262v-60h-262v60z" />
    <glyph glyph-name="umacron" unicode="&#x16b;" horiz-adv-x="572" 
d="M377 62h-2q-29 -43 -67 -59t-78 -16q-43 0 -74 13t-51 35.5t-29.5 52t-9.5 63.5v319h131v-286q0 -26 7 -43t19 -28t26.5 -15.5t29.5 -4.5q41 0 67 31t26 79v267h132v-470h-127v62zM162 635h262v-60h-262v60z" />
    <glyph glyph-name="Ubreve" unicode="&#x16c;" horiz-adv-x="687" 
d="M484 680h135v-398q0 -80 -22.5 -136t-60 -91t-88 -51.5t-105.5 -16.5q-56 0 -105.5 16.5t-87 51.5t-59.5 91t-22 136v398h135v-399q0 -85 33 -129t106 -44q72 0 106.5 44t34.5 129v399zM487 869q-3 -58 -42.5 -93t-102.5 -35t-102.5 35t-43.5 93h62q7 -34 26 -51t58 -17
q38 0 57.5 17t27.5 51h60z" />
    <glyph glyph-name="ubreve" unicode="&#x16d;" horiz-adv-x="572" 
d="M377 62h-2q-29 -43 -67 -59t-78 -16q-43 0 -74 13t-51 35.5t-29.5 52t-9.5 63.5v319h131v-286q0 -26 7 -43t19 -28t26.5 -15.5t29.5 -4.5q41 0 67 31t26 79v267h132v-470h-127v62zM428 679q-3 -58 -42.5 -93t-102.5 -35t-102.5 35t-43.5 93h62q7 -34 26 -51t58 -17
q38 0 57.5 17t27.5 51h60z" />
    <glyph glyph-name="Uring" unicode="&#x16e;" horiz-adv-x="687" 
d="M484 680h135v-398q0 -80 -22.5 -136t-60 -91t-88 -51.5t-105.5 -16.5q-56 0 -105.5 16.5t-87 51.5t-59.5 91t-22 136v398h135v-399q0 -85 33 -129t106 -44q72 0 106.5 44t34.5 129v399zM252 819q0 19 7 35.5t20 29.5t29.5 20.5t36.5 7.5q18 0 35 -7.5t30 -20t20.5 -29.5
t7.5 -36q0 -18 -7.5 -35t-20.5 -30t-30 -20.5t-35 -7.5q-20 0 -36.5 7.5t-29.5 20.5t-20 30t-7 35zM300 819q0 -18 13 -31t32 -13q18 0 31 13t13 31q0 19 -13 32t-31 13q-19 0 -32 -13t-13 -32z" />
    <glyph glyph-name="uring" unicode="&#x16f;" horiz-adv-x="572" 
d="M377 62h-2q-29 -43 -67 -59t-78 -16q-43 0 -74 13t-51 35.5t-29.5 52t-9.5 63.5v319h131v-286q0 -26 7 -43t19 -28t26.5 -15.5t29.5 -4.5q41 0 67 31t26 79v267h132v-470h-127v62zM196 629q0 19 7 35.5t20 29.5t29.5 20.5t36.5 7.5q18 0 35 -7.5t30 -20t20.5 -29.5
t7.5 -36q0 -18 -7.5 -35t-20.5 -30t-30 -20.5t-35 -7.5q-20 0 -36.5 7.5t-29.5 20.5t-20 30t-7 35zM244 629q0 -18 13 -31t32 -13q18 0 31 13t13 31q0 19 -13 32t-31 13q-19 0 -32 -13t-13 -32z" />
    <glyph glyph-name="Uhungarumlaut" unicode="&#x170;" horiz-adv-x="687" 
d="M484 680h135v-398q0 -80 -22.5 -136t-60 -91t-88 -51.5t-105.5 -16.5q-56 0 -105.5 16.5t-87 51.5t-59.5 91t-22 136v398h135v-399q0 -85 33 -129t106 -44q72 0 106.5 44t34.5 129v399zM290 871h122l-127 -127h-75zM479 871h123l-127 -127h-75z" />
    <glyph glyph-name="uhungarumlaut" unicode="&#x171;" horiz-adv-x="572" 
d="M377 62h-2q-29 -43 -67 -59t-78 -16q-43 0 -74 13t-51 35.5t-29.5 52t-9.5 63.5v319h131v-286q0 -26 7 -43t19 -28t26.5 -15.5t29.5 -4.5q41 0 67 31t26 79v267h132v-470h-127v62zM235 681h122l-127 -127h-75zM424 681h123l-127 -127h-75z" />
    <glyph glyph-name="Uogonek" unicode="&#x172;" horiz-adv-x="687" 
d="M484 680h135v-398q0 -68 -16.5 -119t-45.5 -86.5t-68.5 -56t-84.5 -27.5q-26 -27 -41.5 -50t-15.5 -50q0 -39 40 -39q23 0 41 5l7 -48q-14 -5 -30.5 -8t-33.5 -3t-35 3.5t-32.5 11.5t-24 22.5t-9.5 35.5q0 31 19.5 59.5t54.5 54.5h-1q-56 0 -105.5 16.5t-87 51.5
t-59.5 91t-22 136v398h135v-399q0 -85 33 -129t106 -44q72 0 106.5 44t34.5 129v399z" />
    <glyph glyph-name="uogonek" unicode="&#x173;" horiz-adv-x="572" 
d="M377 62h-2q-29 -43 -67 -59t-78 -16q-43 0 -74 13t-51 35.5t-29.5 52t-9.5 63.5v319h131v-286q0 -26 7 -43t19 -28t26.5 -15.5t29.5 -4.5q41 0 67 31t26 79v267h132v-470h-37q-30 -30 -47.5 -54t-17.5 -53q0 -39 40 -39q23 0 41 5l7 -48q-14 -5 -30.5 -8t-33.5 -3
t-35 3.5t-32.5 11.5t-24 22.5t-9.5 35.5q0 35 25 67t68 60h-41v62z" />
    <glyph glyph-name="Wcircumflex" unicode="&#x174;" horiz-adv-x="904" 
d="M455 474h-2l-112 -474h-144l-175 680h144l106 -500h2l107 500h146l111 -500h2l99 500h143l-173 -680h-144zM456 820l-64 -81h-88l97 132h109l97 -132h-88z" />
    <glyph glyph-name="wcircumflex" unicode="&#x175;" horiz-adv-x="769" 
d="M387 326h-2l-98 -326h-136l-140 470h140l74 -326h2l89 326h139l94 -326h2l74 326h133l-142 -470h-139zM387 630l-64 -81h-88l97 132h109l97 -132h-88z" />
    <glyph glyph-name="Ycircumflex" unicode="&#x176;" horiz-adv-x="570" 
d="M416 680h149l-211 -417v-263h-135v263l-214 417h159l127 -283zM293 820l-64 -81h-88l97 132h109l97 -132h-88z" />
    <glyph glyph-name="ycircumflex" unicode="&#x177;" horiz-adv-x="507" 
d="M185 0l-176 470h148l99 -314h2l100 314h141l-259 -670h-138zM257 630l-64 -81h-88l97 132h109l97 -132h-88z" />
    <glyph glyph-name="Ydieresis" unicode="&#x178;" horiz-adv-x="570" 
d="M416 680h149l-211 -417v-263h-135v263l-214 417h159l127 -283zM195 878q28 0 48 -20t20 -48t-20 -48t-48 -20t-48 20t-20 48t20 48t48 20zM388 878q28 0 48 -20t20 -48t-20 -48t-48 -20t-47.5 20t-19.5 48t19.5 48t47.5 20z" />
    <glyph glyph-name="Zacute" unicode="&#x179;" horiz-adv-x="588" 
d="M42 107l337 451h-315v122h484v-107l-338 -452h338v-121h-506v107zM331 871h132l-127 -127h-85z" />
    <glyph glyph-name="zacute" unicode="&#x17a;" horiz-adv-x="469" 
d="M36 95l230 268h-217v107h384v-96l-227 -268h227v-106h-397v95zM266 681h132l-127 -127h-85z" />
    <glyph glyph-name="Zdotaccent" unicode="&#x17b;" horiz-adv-x="588" 
d="M42 107l337 451h-315v122h484v-107l-338 -452h338v-121h-506v107zM241 812q0 15 5.5 29t16 25t24.5 17.5t31 6.5q15 0 28.5 -6t24 -16t17 -24t6.5 -30q0 -15 -6 -29t-16.5 -25t-24.5 -17.5t-29 -6.5q-17 0 -31 7t-24.5 17.5t-16 24t-5.5 27.5z" />
    <glyph glyph-name="zdotaccent" unicode="&#x17c;" horiz-adv-x="469" 
d="M36 95l230 268h-217v107h384v-96l-227 -268h227v-106h-397v95zM173 615q0 15 5.5 29t16 25t24.5 17.5t31 6.5q15 0 28.5 -6t24 -16t17 -24t6.5 -30q0 -15 -6 -29t-16.5 -25t-24.5 -17.5t-29 -6.5q-17 0 -31 7t-24.5 17.5t-16 24t-5.5 27.5z" />
    <glyph glyph-name="Zcaron" unicode="&#x17d;" horiz-adv-x="588" 
d="M42 107l337 451h-315v122h484v-107l-338 -452h338v-121h-506v107zM377 871h88l-97 -132h-109l-97 132h88l64 -82z" />
    <glyph glyph-name="zcaron" unicode="&#x17e;" horiz-adv-x="469" 
d="M36 95l230 268h-217v107h384v-96l-227 -268h227v-106h-397v95zM307 681h88l-97 -132h-109l-97 132h88l64 -82z" />
    <glyph glyph-name="florin" unicode="&#x192;" 
d="M115 371h73l11 106q4 36 10.5 72t23 65t46.5 47.5t81 18.5q20 0 31.5 -1.5t23.5 -3.5l-9 -106l-15 4.5t-15 1.5q-15 0 -25 -7.5t-15.5 -18t-7.5 -23t-3 -22.5l-13 -133h79l-10 -100h-74l-24 -296q-4 -44 -12.5 -79t-27 -59t-49 -36.5t-77.5 -12.5q-14 0 -26 2t-22 4
l9 103q7 -1 15 -2.5t16 -1.5q14 0 23 8.5t14.5 21.5t8 27t3.5 26l24 295h-75z" />
    <glyph glyph-name="Scommaaccent" unicode="&#x218;" horiz-adv-x="603" 
d="M417 501q-3 36 -28.5 57.5t-78.5 21.5q-48 0 -77.5 -19.5t-29.5 -59.5q0 -20 7.5 -34.5t23.5 -25t41.5 -19.5t62.5 -19q49 -13 89 -29t68.5 -39.5t44.5 -56.5t16 -79q0 -48 -18 -87.5t-51.5 -67t-82 -42.5t-109.5 -15q-72 0 -120 17.5t-78 47t-44.5 68t-17.5 79.5l135 4
q5 -56 38 -78t87 -22q58 0 91 18.5t33 63.5q0 41 -37.5 61.5t-110.5 40.5q-51 14 -90 30.5t-65 39t-39 53t-13 74.5q0 42 16.5 79.5t48 66.5t78.5 46t107 17q61 0 106 -15t74.5 -40.5t44 -59.5t14.5 -72zM233 -250q23 33 36 62.5t13 55.5q0 15 -5.5 28t-16.5 20l82 31
q12 -11 19.5 -26t7.5 -38q0 -35 -19.5 -67.5t-51.5 -65.5h-65z" />
    <glyph glyph-name="scommaaccent" unicode="&#x219;" horiz-adv-x="500" 
d="M327 329q-2 29 -24.5 44t-60.5 15q-26 0 -47.5 -10.5t-21.5 -31.5q0 -25 21.5 -36.5t53.5 -18t69 -12.5t69 -20t53.5 -40.5t21.5 -73.5q0 -23 -9.5 -50.5t-33.5 -51.5t-66 -40t-108 -16q-42 0 -78 7.5t-62.5 25.5t-43.5 46.5t-21 70.5l128 4q2 -35 27 -47t55 -12
q12 0 26 2t25.5 7.5t19 15t7.5 24.5q0 24 -20.5 34.5t-51.5 16.5t-67 12t-67 21t-51.5 42t-20.5 75q0 27 11 54t34 48.5t60 35t89 13.5q91 0 146.5 -36t61.5 -113zM172 -250q23 33 36 62.5t13 55.5q0 15 -5.5 28t-16.5 20l82 31q12 -11 19.5 -26t7.5 -38q0 -35 -19.5 -67.5
t-51.5 -65.5h-65z" />
    <glyph glyph-name="uni021A" unicode="&#x21a;" horiz-adv-x="524" 
d="M194 559h-179v121h494v-121h-179v-559h-136v559zM182 -250q23 33 36 62.5t13 55.5q0 15 -5.5 28t-16.5 20l82 31q12 -11 19.5 -26t7.5 -38q0 -35 -19.5 -67.5t-51.5 -65.5h-65z" />
    <glyph glyph-name="uni021B" unicode="&#x21b;" horiz-adv-x="343" 
d="M17 470h71v135h132v-135h110v-102h-110v-227q0 -24 13 -32.5t39 -8.5q18 0 39 3v-103q-16 -2 -39.5 -3.5t-39.5 -1.5q-32 0 -58.5 6t-45.5 21t-29.5 40.5t-10.5 64.5v241h-71v102zM125 -250q23 33 36 62.5t13 55.5q0 15 -5.5 28t-16.5 20l82 31q12 -11 19.5 -26t7.5 -38
q0 -35 -19.5 -67.5t-51.5 -65.5h-65z" />
    <glyph glyph-name="dotlessj" unicode="&#x237;" horiz-adv-x="261" 
d="M-10 -102h5q38 0 55 16t17 52v504h131v-507q0 -54 -15 -89t-39.5 -54.5t-55.5 -27t-63 -7.5h-15.5t-19.5 2v111z" />
    <glyph glyph-name="circumflex" unicode="&#x2c6;" horiz-adv-x="255" 
d="M128 630l-64 -81h-88l97 132h109l97 -132h-88z" />
    <glyph glyph-name="caron" unicode="&#x2c7;" horiz-adv-x="255" 
d="M191 681h88l-97 -132h-109l-97 132h88l64 -82z" />
    <glyph glyph-name="uni02C9" unicode="&#x2c9;" horiz-adv-x="255" 
d="M-3 825h262v-60h-262v60z" />
    <glyph glyph-name="breve" unicode="&#x2d8;" horiz-adv-x="255" 
d="M273 679q-3 -58 -42.5 -93t-102.5 -35t-102.5 35t-43.5 93h62q7 -34 26 -51t58 -17q38 0 57.5 17t27.5 51h60z" />
    <glyph glyph-name="dotaccent" unicode="&#x2d9;" horiz-adv-x="255" 
d="M51 615q0 15 5.5 29t16 25t24.5 17.5t31 6.5q15 0 28.5 -6t24 -16t17 -24t6.5 -30q0 -15 -6 -29t-16.5 -25t-24.5 -17.5t-29 -6.5q-17 0 -31 7t-24.5 17.5t-16 24t-5.5 27.5z" />
    <glyph glyph-name="ring" unicode="&#x2da;" horiz-adv-x="255" 
d="M35 629q0 19 7 35.5t20 29.5t29.5 20.5t36.5 7.5q18 0 35 -7.5t30 -20t20.5 -29.5t7.5 -36q0 -18 -7.5 -35t-20.5 -30t-30 -20.5t-35 -7.5q-20 0 -36.5 7.5t-29.5 20.5t-20 30t-7 35zM83 629q0 -18 13 -31t32 -13q18 0 31 13t13 31q0 19 -13 32t-31 13q-19 0 -32 -13
t-13 -32z" />
    <glyph glyph-name="ogonek" unicode="&#x2db;" horiz-adv-x="255" 
d="M175 0q-30 -30 -47.5 -54t-17.5 -53q0 -39 40 -39q23 0 41 5l7 -48q-14 -5 -30.5 -8t-33.5 -3t-35 3.5t-32.5 11.5t-24 22.5t-9.5 35.5q0 35 25 67t68 60h49z" />
    <glyph glyph-name="tilde" unicode="&#x2dc;" horiz-adv-x="255" 
d="M-31 555q2 18 8.5 37t18.5 34.5t29.5 25t41.5 9.5q18 0 35 -5t33 -11q17 -7 31 -12.5t26 -5.5q18 0 29 10.5t14 27.5h52q-3 -18 -9.5 -36.5t-18 -33.5t-29 -24.5t-41.5 -9.5q-17 0 -34.5 5t-33.5 11t-30 11.5t-27 5.5q-36 0 -44 -39h-51z" />
    <glyph glyph-name="hungarumlaut" unicode="&#x2dd;" horiz-adv-x="255" 
d="M15 681h122l-127 -127h-75zM204 681h123l-127 -127h-75z" />
    <glyph glyph-name="uni0394" unicode="&#x394;" horiz-adv-x="685" 
d="M8 0l270 712h115l284 -712h-669zM334 581l-173 -477h358z" />
    <glyph glyph-name="uni03A9" unicode="&#x3a9;" horiz-adv-x="759" 
d="M425 0v189q38 7 67.5 26.5t49.5 47.5t30 62t10 72q0 45 -15 84.5t-42.5 69.5t-65.5 47.5t-84 17.5q-47 0 -85.5 -17.5t-66 -47.5t-42.5 -70t-15 -85q0 -78 38.5 -132.5t115.5 -74.5v-189h-274v106h172v32q-45 14 -77.5 40t-53.5 61t-31 77t-10 88q0 69 25.5 127.5
t70 100.5t104 65.5t127.5 23.5t128 -23t104.5 -64t70 -99t25.5 -128q0 -47 -9.5 -89.5t-30.5 -78t-54 -61.5t-79 -40v-32h173v-106h-276z" />
    <glyph glyph-name="uni03BC" unicode="&#x3bc;" horiz-adv-x="574" 
d="M188 470v-233q0 -20 2 -44.5t10.5 -46t26 -36t49.5 -14.5q30 0 50.5 10t34 27t19.5 39t6 46v252h120v-470h-114v77h-2q-8 -18 -19.5 -34t-28 -28.5t-38.5 -19.5t-51 -7q-18 0 -36.5 6t-28.5 18v-240h-120v698h120z" />
    <glyph glyph-name="pi" unicode="&#x3c0;" horiz-adv-x="593" 
d="M580 13q-21 -10 -46.5 -15t-48.5 -5q-33 0 -53.5 10t-32 27.5t-15 41.5t-3.5 52v244h-183v-368h-117v368h-70v102h566v-102h-79v-227q0 -11 0.5 -21t4.5 -18.5t11.5 -13.5t21.5 -5q21 0 44 10v-80z" />
    <glyph glyph-name="endash" unicode="&#x2013;" 
d="M50 297h410v-80h-410v80z" />
    <glyph glyph-name="emdash" unicode="&#x2014;" horiz-adv-x="800" 
d="M50 297h700v-80h-700v80z" />
    <glyph glyph-name="quoteleft" unicode="&#x2018;" horiz-adv-x="250" 
d="M32 448l106 244l80 -15l-67 -251z" />
    <glyph glyph-name="quoteright" unicode="&#x2019;" horiz-adv-x="250" 
d="M218 670l-106 -244l-80 15l67 251z" />
    <glyph glyph-name="quotesinglbase" unicode="&#x201a;" horiz-adv-x="250" 
d="M218 124l-106 -244l-80 15l67 251z" />
    <glyph glyph-name="quotedblleft" unicode="&#x201c;" horiz-adv-x="420" 
d="M213 448l102 244l73 -15l-62 -251zM32 448l102 244l73 -15l-62 -251z" />
    <glyph glyph-name="quotedblright" unicode="&#x201d;" horiz-adv-x="420" 
d="M207 670l-102 -244l-73 15l62 251zM388 670l-102 -244l-73 15l62 251z" />
    <glyph glyph-name="quotedblbase" unicode="&#x201e;" horiz-adv-x="420" 
d="M207 124l-102 -244l-73 15l62 251zM388 124l-102 -244l-73 15l62 251z" />
    <glyph glyph-name="dagger" unicode="&#x2020;" 
d="M193 357h-150v110h150v213h125v-213h150v-110h-150v-466h-125v466z" />
    <glyph glyph-name="daggerdbl" unicode="&#x2021;" 
d="M193 390h-150v110h150v180h125v-180h150v-110h-150v-209h150v-110h-150v-180h-125v180h-150v110h150v209z" />
    <glyph glyph-name="bullet" unicode="&#x2022;" horiz-adv-x="500" 
d="M431 352q0 -38 -14 -70.5t-39 -57.5t-58 -39t-70 -14q-38 0 -70.5 14t-57.5 39t-39 57.5t-14 70.5q0 37 14 70t39 57.5t57.5 38.5t70.5 14q37 0 70 -14t58 -38.5t39 -57.5t14 -70z" />
    <glyph glyph-name="ellipsis" unicode="&#x2026;" horiz-adv-x="765" 
d="M562 65q0 32 22 54t54 22q31 0 53.5 -22t22.5 -54q0 -31 -22.5 -53.5t-53.5 -22.5q-32 0 -54 22.5t-22 53.5zM307 65q0 32 22 54t54 22q31 0 53.5 -22t22.5 -54q0 -31 -22.5 -53.5t-53.5 -22.5q-32 0 -54 22.5t-22 53.5zM52 65q0 32 22 54t54 22q31 0 53.5 -22t22.5 -54
q0 -31 -22.5 -53.5t-53.5 -22.5q-32 0 -54 22.5t-22 53.5z" />
    <glyph glyph-name="perthousand" unicode="&#x2030;" horiz-adv-x="1190" 
d="M221 407q16 0 26 8.5t15.5 22.5t7.5 32t2 37t-2 37.5t-7.5 32t-15.5 22t-26 8.5t-26 -8.5t-16 -22t-8 -32t-2 -37.5t2 -37t8 -32t16 -22.5t26 -8.5zM221 334q-32 0 -60 10.5t-48 32.5t-31.5 54t-11.5 76t11.5 76.5t31.5 54t48 32t60 10.5t59.5 -10.5t48 -32t32 -54
t11.5 -76.5t-11.5 -76t-32 -54t-48 -32.5t-59.5 -10.5zM611 -11q-32 0 -60 10.5t-48 32t-31.5 54t-11.5 76.5q0 43 11.5 75.5t31.5 54t48 32t60 10.5t59.5 -10.5t48 -32t32 -54t11.5 -75.5q0 -44 -11.5 -76.5t-32 -54t-48 -32t-59.5 -10.5zM611 61q16 0 26 8.5t16 22.5t8 32
t2 38q0 19 -2 37t-8 32t-16 22.5t-26 8.5t-26 -8.5t-15.5 -22.5t-7.5 -32t-2 -37q0 -20 2 -38t7.5 -32t15.5 -22.5t26 -8.5zM570 688h74l-390 -707h-78zM977 -11q-32 0 -60 10.5t-48 32t-31.5 54t-11.5 76.5q0 43 11.5 75.5t31.5 54t48 32t60 10.5t59.5 -10.5t48 -32t32 -54
t11.5 -75.5q0 -44 -11.5 -76.5t-32 -54t-48 -32t-59.5 -10.5zM977 61q16 0 26 8.5t16 22.5t8 32t2 38q0 19 -2 37t-8 32t-16 22.5t-26 8.5t-26 -8.5t-15.5 -22.5t-7.5 -32t-2 -37q0 -20 2 -38t7.5 -32t15.5 -22.5t26 -8.5z" />
    <glyph glyph-name="guilsinglleft" unicode="&#x2039;" horiz-adv-x="330" 
d="M164 421h99l-98 -164l94 -165h-100l-92 165z" />
    <glyph glyph-name="guilsinglright" unicode="&#x203a;" horiz-adv-x="330" 
d="M263 257l-92 -165h-99l94 165l-99 164h100z" />
    <glyph glyph-name="fraction" unicode="&#x2044;" horiz-adv-x="100" 
d="M210 688h74l-390 -707h-78z" />
    <glyph glyph-name="Euro" unicode="&#x20ac;" 
d="M225 238q11 -65 52 -102t104 -37q14 0 30.5 1.5t33.5 7.5l18 -109q-20 -7 -41.5 -9.5t-41.5 -2.5q-60 0 -109 18.5t-85 51.5t-59 79t-31 102h-73l11 64h58q-1 6 -1.5 16.5t-0.5 17.5q0 10 0.5 20t1.5 19h-69l11 64h68q10 49 31.5 94.5t56 81t81.5 57t109 21.5
q20 0 41.5 -2t42.5 -10l-26 -107q-26 9 -57 9q-33 0 -59 -12.5t-44.5 -33t-30.5 -46.5t-16 -52h175l-13 -64h-171q-3 -18 -3 -36q0 -11 0.5 -20t1.5 -17h165l-12 -64h-149z" />
    <glyph glyph-name="afii61289" unicode="&#x2113;" horiz-adv-x="500" 
d="M443 50q-72 -63 -158 -63q-72 0 -112.5 38.5t-40.5 102.5v48l-56 -52h-2l-42 63l99 85v244q0 42 11 76.5t32 60t51.5 39.5t70.5 14q63 0 100 -38.5t37 -104.5q0 -76 -45.5 -151.5t-139.5 -158.5v-107q0 -21 6 -35.5t15 -22.5t20.5 -11.5t23.5 -3.5q41 0 88 38h2zM338 555
q0 31 -9.5 52t-33.5 21q-25 0 -36 -23.5t-11 -66.5v-185q46 51 68 102.5t22 99.5z" />
    <glyph glyph-name="trademark" unicode="&#x2122;" horiz-adv-x="900" 
d="M754 571h-2l-96 -264h-67l-96 264h-2v-264h-87v373h129l90 -235l89 235h129v-373h-87v264zM160 607h-106v73h306v-73h-106v-300h-94v300z" />
    <glyph glyph-name="Omega" unicode="&#x2126;" horiz-adv-x="759" 
d="M425 0v189q38 7 67.5 26.5t49.5 47.5t30 62t10 72q0 45 -15 84.5t-42.5 69.5t-65.5 47.5t-84 17.5q-47 0 -85.5 -17.5t-66 -47.5t-42.5 -70t-15 -85q0 -78 38.5 -132.5t115.5 -74.5v-189h-274v106h172v32q-45 14 -77.5 40t-53.5 61t-31 77t-10 88q0 69 25.5 127.5
t70 100.5t104 65.5t127.5 23.5t128 -23t104.5 -64t70 -99t25.5 -128q0 -47 -9.5 -89.5t-30.5 -78t-54 -61.5t-79 -40v-32h173v-106h-276z" />
    <glyph glyph-name="estimated" unicode="&#x212e;" horiz-adv-x="604" 
d="M157 259v-181q59 -59 145 -59q63 0 109 28.5t84 91.5l35 -21q-23 -36 -46.5 -61.5t-51 -42t-59.5 -24t-71 -7.5q-59 0 -106.5 21.5t-81.5 59t-52 87.5t-18 108t18 108.5t52 87.5t81.5 58.5t106.5 21.5q58 0 105.5 -20.5t81.5 -57t53 -87t19 -111.5h-404zM448 295v145
q-63 60 -147 60t-144 -60v-145h291z" />
    <glyph glyph-name="partialdiff" unicode="&#x2202;" horiz-adv-x="556" 
d="M514 358q0 -64 -10.5 -130t-38.5 -119.5t-77.5 -87.5t-128.5 -34q-50 0 -90 17.5t-69 48t-44.5 72t-15.5 90.5q0 48 15.5 88.5t44 70t68.5 46t88 16.5q42 0 76.5 -14.5t66.5 -40.5v28q0 36 -7 75.5t-24.5 72.5t-46.5 55t-73 22q-35 0 -65 -13.5t-57 -35.5l-59 70
q42 32 81.5 49t93.5 17q78 0 130 -32t83.5 -84t45 -116.5t13.5 -130.5zM397 289q-26 29 -55.5 46.5t-70.5 17.5q-31 0 -54 -12t-38 -31.5t-22.5 -46t-7.5 -54.5q0 -27 6.5 -52t20.5 -44t35.5 -30.5t51.5 -11.5q36 0 61 19t41.5 47.5t24 62.5t7.5 64v25z" />
    <glyph glyph-name="Delta" unicode="&#x2206;" horiz-adv-x="685" 
d="M8 0l270 712h115l284 -712h-669zM334 581l-173 -477h358z" />
    <glyph glyph-name="product" unicode="&#x220f;" horiz-adv-x="741" 
d="M565 -214v897h-389v-897h-114v1000h617v-1000h-114z" />
    <glyph glyph-name="summation" unicode="&#x2211;" horiz-adv-x="648" 
d="M25 -214v89l303 417l-290 405v89h573v-103h-422l275 -390l-293 -404h453v-103h-599z" />
    <glyph glyph-name="minus" unicode="&#x2212;" 
d="M459 293v-95h-408v95h408z" />
    <glyph glyph-name="uni2215" unicode="&#x2215;" horiz-adv-x="100" 
d="M210 688h74l-390 -707h-78z" />
    <glyph glyph-name="uni2219" unicode="&#x2219;" horiz-adv-x="255" 
d="M52 295q0 32 22 54t54 22q31 0 53.5 -22t22.5 -54q0 -31 -22.5 -53.5t-53.5 -22.5q-32 0 -54 22.5t-22 53.5z" />
    <glyph glyph-name="radical" unicode="&#x221a;" horiz-adv-x="537" 
d="M338 -214h-106l-152 317l-51 -25l-41 90l148 68l129 -273l168 823h116z" />
    <glyph glyph-name="infinity" unicode="&#x221e;" horiz-adv-x="815" 
d="M770 263q0 -38 -11.5 -71t-33.5 -58t-53 -39t-71 -14q-31 0 -58 9.5t-50.5 25t-44.5 35.5t-40 42q-21 -22 -41.5 -42t-43 -35.5t-49 -24.5t-58.5 -9q-39 0 -71 14t-54 38t-34 57t-12 71q0 37 11.5 70t33 57t52.5 38t70 14q33 0 60 -10t51 -26.5t44.5 -38t40.5 -44.5
q19 23 39.5 44.5t44 38.5t51 27t59.5 10q39 0 70 -14t53 -38t33.5 -57t11.5 -70zM680 260q0 36 -21 61t-59 25q-20 0 -38.5 -8.5t-36 -21.5t-33 -28.5t-27.5 -28.5q13 -15 28.5 -29.5t32.5 -26t36.5 -19t40.5 -7.5q37 0 57 24t20 59zM350 259q-12 13 -28 28t-34 28
t-37.5 21.5t-38.5 8.5q-35 0 -56 -25.5t-21 -59.5q0 -37 21.5 -59.5t58.5 -22.5q19 0 38 7.5t36.5 19.5t33 26t27.5 28z" />
    <glyph glyph-name="integral" unicode="&#x222b;" horiz-adv-x="611" 
d="M496 709q0 -23 -14.5 -37.5t-37.5 -14.5q-24 0 -34.5 11.5t-16 25t-10 25t-15.5 11.5q-14 0 -18 -32.5t-4 -115.5v-589q0 -38 -6.5 -75t-23.5 -66.5t-47 -48t-77 -18.5q-18 0 -37.5 4t-36 13t-27 23.5t-10.5 35.5q0 23 15 38t38 15q24 0 34.5 -11.5t16 -25t9.5 -25
t14 -11.5q6 0 10 3t7 17.5t4.5 44t1.5 83.5v506q0 42 2.5 93t17 95t46 73.5t89.5 29.5q17 0 36.5 -4.5t36 -13.5t27 -23.5t10.5 -35.5z" />
    <glyph glyph-name="approxequal" unicode="&#x2248;" 
d="M475 379q-3 -28 -11 -55t-23 -48t-37.5 -33.5t-53.5 -12.5q-23 0 -49 8.5t-62 22.5q-29 11 -48.5 17.5t-38.5 6.5q-25 0 -37 -18t-14 -35h-65q3 26 11 53t23 48.5t37.5 35t53.5 13.5q25 0 48 -7t53 -20q42 -18 62.5 -23t37.5 -5q23 0 34 16.5t13 35.5h66zM475 200
q-3 -28 -11 -55t-23 -48t-37.5 -33.5t-53.5 -12.5q-23 0 -49 8.5t-62 22.5q-29 11 -48.5 17.5t-38.5 6.5q-25 0 -37 -18t-14 -35h-65q3 26 11 53t23 48.5t37.5 35t53.5 13.5q25 0 48 -7t53 -20q42 -18 62.5 -23t37.5 -5q23 0 34 16.5t13 35.5h66z" />
    <glyph glyph-name="notequal" unicode="&#x2260;" 
d="M254 143l-60 -117l-82 42l37 75h-100v95h147l22 48h-169v95h216l57 114l83 -39l-37 -75h92v-95h-139l-21 -48h160v-95h-206z" />
    <glyph glyph-name="lessequal" unicode="&#x2264;" 
d="M49 261v98l411 140v-106l-273 -84l273 -78v-103zM49 3v100h411v-100h-411z" />
    <glyph glyph-name="greaterequal" unicode="&#x2265;" 
d="M49 231l274 78l-274 84v106l411 -140v-98l-411 -133v103zM49 103h411v-100h-411v100z" />
    <glyph glyph-name="lozenge" unicode="&#x25ca;" horiz-adv-x="593" 
d="M346 -35h-100l-177 391l177 391h100l178 -391zM296 641l-118 -285l118 -286l119 286z" />
    <glyph glyph-name="grave.cap" unicode="&#xe300;" horiz-adv-x="255" 
d="M19 871h132l79 -127h-85z" />
    <glyph glyph-name="acute.cap" unicode="&#xe301;" horiz-adv-x="255" 
d="M105 871h132l-127 -127h-85z" />
    <glyph glyph-name="circumflex.cap" unicode="&#xe302;" horiz-adv-x="255" 
d="M128 820l-64 -81h-88l97 132h109l97 -132h-88z" />
    <glyph glyph-name="caron.cap" unicode="&#xe303;" horiz-adv-x="255" 
d="M191 871h88l-97 -132h-109l-97 132h88l64 -82z" />
    <glyph glyph-name="tilde.cap" unicode="&#xe304;" horiz-adv-x="255" 
d="M-31 745q2 18 8.5 37t18.5 34.5t29.5 25t41.5 9.5q18 0 35 -5t33 -11q17 -7 31 -12.5t26 -5.5q18 0 29 10.5t14 27.5h52q-3 -18 -9.5 -36.5t-18 -33.5t-29 -24.5t-41.5 -9.5q-17 0 -34.5 5t-33.5 11t-30 11.5t-27 5.5q-36 0 -44 -39h-51z" />
    <glyph glyph-name="dieresis.cap" unicode="&#xe305;" horiz-adv-x="255" 
d="M31 878q28 0 48 -20t20 -48t-20 -48t-48 -20t-48 20t-20 48t20 48t48 20zM224 878q28 0 48 -20t20 -48t-20 -48t-48 -20t-47.5 20t-19.5 48t19.5 48t47.5 20z" />
    <glyph glyph-name="macron.cap" unicode="&#xe306;" horiz-adv-x="255" 
d="M-3 825h262v-60h-262v60z" />
    <glyph glyph-name="breve.cap" unicode="&#xe307;" horiz-adv-x="255" 
d="M273 869q-3 -58 -42.5 -93t-102.5 -35t-102.5 35t-43.5 93h62q7 -34 26 -51t58 -17q38 0 57.5 17t27.5 51h60z" />
    <glyph glyph-name="ring.cap" unicode="&#xe308;" horiz-adv-x="255" 
d="M35 819q0 19 7 35.5t20 29.5t29.5 20.5t36.5 7.5q18 0 35 -7.5t30 -20t20.5 -29.5t7.5 -36q0 -18 -7.5 -35t-20.5 -30t-30 -20.5t-35 -7.5q-20 0 -36.5 7.5t-29.5 20.5t-20 30t-7 35zM83 819q0 -18 13 -31t32 -13q18 0 31 13t13 31q0 19 -13 32t-31 13q-19 0 -32 -13
t-13 -32z" />
    <glyph glyph-name="hungarumlaut.cap" unicode="&#xe309;" horiz-adv-x="255" 
d="M15 871h122l-127 -127h-75zM204 871h123l-127 -127h-75z" />
    <glyph glyph-name="dotaccent.cap" unicode="&#xe30a;" horiz-adv-x="255" 
d="M51 812q0 15 5.5 29t16 25t24.5 17.5t31 6.5q15 0 28.5 -6t24 -16t17 -24t6.5 -30q0 -15 -6 -29t-16.5 -25t-24.5 -17.5t-29 -6.5q-17 0 -31 7t-24.5 17.5t-16 24t-5.5 27.5z" />
    <glyph glyph-name="caron.alt" unicode="&#xe30b;" horiz-adv-x="255" 
d="M71 483q23 33 36 62.5t13 55.5q0 15 -5.5 28t-16.5 20l82 31q12 -11 19.5 -26t7.5 -38q0 -35 -19.5 -67.5t-51.5 -65.5h-65z" />
    <glyph glyph-name="commaaccent" unicode="&#xe30c;" horiz-adv-x="255" 
d="M66 -250q23 33 36 62.5t13 55.5q0 15 -5.5 28t-16.5 20l82 31q12 -11 19.5 -26t7.5 -38q0 -35 -19.5 -67.5t-51.5 -65.5h-65z" />
    <glyph glyph-name="commaaccent.alt" unicode="&#xe30d;" horiz-adv-x="255" 
d="M215 737q-23 -33 -36 -62.5t-13 -55.5q0 -15 5.5 -28t16.5 -20l-82 -31q-12 11 -19.5 26t-7.5 38q0 35 19.5 67.5t51.5 65.5h65z" />
    <glyph glyph-name="uniF8FF" unicode="&#xf8ff;" horiz-adv-x="512" 
d="M222 117v67h56v-67h-56zM225 234l-2 17q0 56 13 81q7 13 18 27.5t28 31.5q16 15 26 26.5t15 21t7 18t2 17.5q0 36 -22.5 60.5t-53.5 24.5t-53.5 -22t-28.5 -73l-50 8q7 72 44 104.5t91 32.5t89 -35.5t35 -95.5q0 -32 -12.5 -58.5t-50.5 -61.5q-37 -33 -43 -52
q-6 -20 -6 -72h-46zM462 50v617h-412v-617h412zM512 718v-718h-512v718h512z" />
    </font>
</defs>
</svg>
