<?xml version="1.0" standalone="no"?>
<!DOCTYPE svg PUBLIC "-//W3C//DTD SVG 1.1//EN" "http://www.w3.org/Graphics/SVG/1.1/DTD/svg11.dtd" >
<svg xmlns="http://www.w3.org/2000/svg" xmlns:xlink="http://www.w3.org/1999/xlink" version="1.1">
<metadata>
Created by FontForge 20161013 at Fri Jun 30 14:09:49 2006
 By ,,,
Copyright (c) 2006 Linotype GmbH, www.linotype.com. All rights reserved. This font software may not be reproduced, modified, disclosed or transferred without the express written approval of Linotype GmbH. Neuzeit is a trademark of Heidelberger Druckmaschinen AG, exclusively licensed through Linotype GmbH, and may be registered in certain jurisdictions. This typeface is original artwork of Akira Kobayashi and Linotype Design Studio. The design may be protected in certain jurisdictions. 
</metadata>
<defs>
<font id="NeuzeitOffice-Italic" horiz-adv-x="510" >
  <font-face 
    font-family="Neuzeit Office Italic"
    font-weight="400"
    font-style="italic"
    font-stretch="normal"
    units-per-em="1000"
    panose-1="2 0 5 3 5 0 0 9 0 3"
    ascent="706"
    descent="-294"
    x-height="470"
    cap-height="680"
    bbox="-257 -250 1115 911"
    underline-thickness="50"
    underline-position="-150"
    unicode-range="U+000D-FB02"
  />
<missing-glyph horiz-adv-x="512" 
d="M222 117v67h56v-67h-56zM225 234l-2 17q0 56 13 81q7 13 18 27.5t28 31.5q16 15 26 26.5t15 21t7 18t2 17.5q0 36 -22.5 60.5t-53.5 24.5t-53.5 -22t-28.5 -73l-50 8q7 72 44 104.5t91 32.5t89 -35.5t35 -95.5q0 -32 -12.5 -58.5t-50.5 -61.5q-37 -33 -43 -52
q-6 -20 -6 -72h-46zM462 50v617h-412v-617h412zM512 718v-718h-512v718h512z" />
    <glyph glyph-name="IJ" unicode="IJ" horiz-adv-x="650" 
d="M204 680h73l-144 -680h-73zM253 58q23 -4 38.5 -5.5t34.5 -1.5q43 0 71 11.5t45 33t27 53t19 71.5l84 396h-142l14 64h215l-102 -479q-9 -42 -23 -81t-40.5 -68.5t-68.5 -47t-106 -17.5q-17 0 -39 2t-41 7z" />
    <glyph glyph-name="ij" unicode="ij" horiz-adv-x="500" 
d="M145 470h71l-99 -470h-71zM165 630q0 23 15.5 38.5t38.5 15.5q22 0 37.5 -15.5t15.5 -38.5q0 -22 -15.5 -37.5t-37.5 -15.5q-23 0 -38.5 15.5t-15.5 37.5zM171 -140h9q40 0 61.5 18t31.5 64l112 528h72l-113 -533q-7 -32 -19 -57.5t-31.5 -43t-48.5 -27t-70 -9.5h-17z
M404 630q0 23 15.5 38.5t38.5 15.5q22 0 37.5 -15.5t15.5 -38.5q0 -22 -15.5 -37.5t-37.5 -15.5q-23 0 -38.5 15.5t-15.5 37.5z" />
    <glyph glyph-name="napostrophe" unicode="&#x22;n" horiz-adv-x="572" 
d="M-15 483q35 42 55.5 81t20.5 70q0 13 -4 25l63 21q4 -9 5 -16t1 -18q0 -34 -27.5 -78t-66.5 -85h-47zM192 387q33 45 77.5 66.5t95.5 21.5q21 0 46.5 -6t47.5 -20t37 -39t15 -62q0 -17 -5 -42l-65 -306h-71l60 283q2 11 4 23.5t2 21.5q0 25 -8 42t-21.5 27t-31.5 14.5
t-38 4.5q-26 0 -53.5 -10t-51.5 -30t-42 -49t-26 -67l-55 -260h-71l99 470h71l-17 -83h1z" />
    <glyph glyph-name="fi" unicode="fi" horiz-adv-x="581" 
d="M151 414h-102l12 56h102l7 30q8 37 23 73.5t38.5 66t56.5 47.5t78 18q31 0 60 -7l-11 -65q-11 5 -27 6.5t-33 1.5q-27 0 -46 -12.5t-32.5 -33t-21.5 -46.5t-14 -53l-6 -26h139l-12 -56h-139l-87 -414h-72zM464 470h71l-99 -470h-71zM484 630q0 23 15.5 38.5t38.5 15.5
q22 0 37.5 -15.5t15.5 -38.5q0 -22 -15.5 -37.5t-37.5 -15.5q-23 0 -38.5 15.5t-15.5 37.5z" />
    <glyph glyph-name="fl" unicode="fl" horiz-adv-x="581" 
d="M151 414h-102l12 56h102l7 30q8 37 23 73.5t38.5 66t56.5 47.5t78 18q31 0 60 -7l-11 -65q-11 5 -27 6.5t-33 1.5q-27 0 -46 -12.5t-32.5 -33t-21.5 -46.5t-14 -53l-6 -26h139l-12 -56h-139l-87 -414h-72zM514 706h71l-150 -706h-71z" />
    <glyph glyph-name=".notdef" horiz-adv-x="512" 
d="M222 117v67h56v-67h-56zM225 234l-2 17q0 56 13 81q7 13 18 27.5t28 31.5q16 15 26 26.5t15 21t7 18t2 17.5q0 36 -22.5 60.5t-53.5 24.5t-53.5 -22t-28.5 -73l-50 8q7 72 44 104.5t91 32.5t89 -35.5t35 -95.5q0 -32 -12.5 -58.5t-50.5 -61.5q-37 -33 -43 -52
q-6 -20 -6 -72h-46zM462 50v617h-412v-617h412zM512 718v-718h-512v718h512z" />
    <glyph glyph-name=".null" horiz-adv-x="0" 
 />
    <glyph glyph-name="nonmarkingreturn" unicode="&#xd;" horiz-adv-x="278" 
 />
    <glyph glyph-name="space" unicode=" " horiz-adv-x="255" 
 />
    <glyph glyph-name="exclam" unicode="!" horiz-adv-x="340" 
d="M230 680h70l-108 -495h-67zM82 40q0 21 15 35.5t36 14.5t35.5 -14.5t14.5 -35.5t-14.5 -36t-35.5 -15t-36 15t-15 36z" />
    <glyph glyph-name="quotedbl" unicode="&#x22;" horiz-adv-x="420" 
d="M373 680h60l-88 -228h-60zM203 680h60l-88 -228h-60z" />
    <glyph glyph-name="numbersign" unicode="#" 
d="M357 410h-117l-52 -151h116zM285 207h-117l-72 -207h-57l72 207h-98l12 52h105l53 151h-98l11 52h105l73 207h58l-73 -207h116l73 207h58l-73 -207h98l-11 -52h-105l-53 -151h98l-12 -52h-105l-72 -207h-58z" />
    <glyph glyph-name="dollar" unicode="$" 
d="M236 51q29 0 54 9.5t43 27.5t28.5 43.5t10.5 57.5q0 45 -18 72t-63 48zM247 324q-24 10 -47.5 23t-42 31.5t-30 44.5t-11.5 64q0 46 16.5 81.5t44.5 60.5t65.5 38t79.5 13l14 68h47l-14 -70q72 -7 103.5 -49t31.5 -122h-64q0 21 -2.5 40.5t-11.5 35.5t-25.5 27t-43.5 13
l-53 -251q40 -19 66.5 -37.5t42 -39.5t22 -45.5t6.5 -55.5q0 -45 -16 -82t-45 -63t-69 -40.5t-88 -14.5l-23 -110h-47l23 111q-69 8 -108 54.5t-39 133.5h65q0 -63 25 -94t70 -36zM310 625q-56 0 -91 -35.5t-35 -95.5q0 -44 19.5 -66.5t56.5 -38.5z" />
    <glyph glyph-name="percent" unicode="%" horiz-adv-x="830" 
d="M361 558q0 33 -16 54t-49 21q-28 0 -49.5 -16t-36.5 -40t-22.5 -53.5t-7.5 -56.5q0 -32 16 -52.5t48 -20.5q26 0 47.5 14.5t37 38t24 52.5t8.5 59zM120 467q0 40 12.5 78.5t36 68.5t57 48t76.5 18q51 0 84.5 -29t33.5 -92q0 -39 -12.5 -77.5t-35.5 -68.5t-56 -48.5
t-74 -18.5q-25 0 -47.5 7t-39 22t-26 37.5t-9.5 54.5zM698 701h55l-578 -733h-55zM696 202q0 33 -16 54t-49 21q-28 0 -49.5 -16t-36.5 -40t-22.5 -53.5t-7.5 -56.5q0 -32 16 -52.5t48 -20.5q26 0 47.5 14.5t37 38t24 52.5t8.5 59zM455 111q0 41 12.5 79.5t36 68t57 47.5
t76.5 18q51 0 84.5 -29t33.5 -92q0 -39 -12.5 -77.5t-35.5 -68.5t-56 -48.5t-74 -18.5q-25 0 -47.5 7t-39 22t-26 37.5t-9.5 54.5z" />
    <glyph glyph-name="ampersand" unicode="&#x26;" horiz-adv-x="653" 
d="M307 348q-38 -15 -69.5 -32t-54 -38.5t-35.5 -49.5t-13 -66q0 -48 29.5 -81t84.5 -33q60 0 103.5 26.5t75.5 61.5zM462 557q0 26 -18 47.5t-49 21.5q-33 0 -60 -24.5t-27 -73.5q0 -32 9.5 -58.5t23.5 -52.5q121 48 121 140zM595 302q-6 -18 -16 -40t-22 -44.5t-26 -44
t-28 -38.5l81 -135h-77l-50 87q-42 -42 -93 -71t-122 -29q-42 0 -75.5 13t-57 36t-35.5 54t-12 68q0 51 20 88.5t51.5 65t71 47t79.5 35.5q-16 30 -27 62.5t-11 70.5q0 27 9 54t27.5 49t47 36t68.5 14q57 0 91.5 -34.5t34.5 -84.5q0 -67 -41.5 -111t-118.5 -79l106 -187
q18 23 34.5 56t25.5 62h65z" />
    <glyph glyph-name="quotesingle" unicode="'" horiz-adv-x="250" 
d="M203 680h60l-88 -228h-60z" />
    <glyph glyph-name="parenleft" unicode="(" horiz-adv-x="350" 
d="M63 165q0 96 23 183.5t62.5 162.5t92 136t111.5 104l35 -43q-42 -30 -87.5 -80.5t-83.5 -119.5t-62.5 -155t-24.5 -186q0 -93 24.5 -161t60.5 -119l-53 -33q-17 22 -34.5 53.5t-31.5 71t-23 86.5t-9 100z" />
    <glyph glyph-name="parenright" unicode=")" horiz-adv-x="350" 
d="M311 439q0 -96 -23 -183.5t-62.5 -162.5t-92 -136t-111.5 -104l-35 43q42 30 87.5 80.5t83.5 119.5t62.5 155t24.5 186q0 93 -24.5 161t-60.5 119l53 33q17 -22 34.5 -53.5t31.5 -71t23 -86.5t9 -100z" />
    <glyph glyph-name="asterisk" unicode="*" 
d="M139 547l14 45l125 -45v133h47v-133l123 45l16 -45l-128 -43l83 -107l-40 -29l-78 111l-77 -111l-40 29l83 107z" />
    <glyph glyph-name="plus" unicode="+" 
d="M226 275v181h58v-181h177v-59h-177v-181h-58v181h-177v59h177z" />
    <glyph glyph-name="comma" unicode="," horiz-adv-x="255" 
d="M96 103l66 -17l-161 -221l-43 8z" />
    <glyph glyph-name="hyphen" unicode="-" horiz-adv-x="360" 
d="M77 269h220l-14 -66h-220z" />
    <glyph glyph-name="period" unicode="." horiz-adv-x="255" 
d="M38 47q0 23 16.5 39.5t39.5 16.5t39 -16.5t16 -39.5t-16 -39t-39 -16t-39.5 16t-16.5 39z" />
    <glyph glyph-name="slash" unicode="/" horiz-adv-x="400" 
d="M405 692h54l-415 -705h-53z" />
    <glyph glyph-name="zero" unicode="0" 
d="M205 -13q-47 0 -76.5 16t-46.5 42.5t-23.5 61.5t-6.5 74q0 48 8 105t24 114t40 110t57 93.5t74 65t91 24.5q46 0 75.5 -15.5t46.5 -41t24 -58t7 -65.5q0 -48 -7.5 -106t-22.5 -116.5t-39 -113t-56.5 -97t-74.5 -68t-94 -25.5zM342 635q-35 0 -65 -22.5t-54 -59
t-42.5 -83.5t-31 -97t-19 -99t-6.5 -88q0 -64 19.5 -101.5t67.5 -37.5q35 0 64.5 23.5t54 62t42.5 87.5t30.5 100.5t19 100.5t6.5 88q0 61 -20 93.5t-66 32.5z" />
    <glyph glyph-name="one" unicode="1" 
d="M326 585q-15 -9 -34.5 -18.5t-40.5 -18t-42.5 -16t-40.5 -13.5l15 70q24 7 51.5 18t54 24.5t50.5 29t42 32.5h38l-147 -693h-70z" />
    <glyph glyph-name="two" unicode="2" 
d="M10 65l247 217q38 33 69.5 63.5t54 59.5t34.5 59t12 63q0 54 -28.5 79t-73.5 25q-34 0 -58.5 -11t-41 -30.5t-26.5 -46.5t-14 -58h-71q13 97 70.5 152.5t146.5 55.5q36 0 67.5 -9.5t54.5 -29.5t36 -50.5t13 -72.5q0 -44 -15.5 -81t-42.5 -71.5t-63 -67.5t-77 -68
l-209 -180h324l-16 -63h-403z" />
    <glyph glyph-name="three" unicode="3" 
d="M173 395l253 222h-281l14 63h363l-14 -68l-236 -202l2 -2q15 3 28 3q37 0 65.5 -11.5t48 -32.5t29 -49.5t9.5 -62.5q0 -44 -14.5 -91.5t-45 -86.5t-77 -64.5t-110.5 -25.5q-55 0 -89 17t-53 42.5t-26 56t-7 57.5l66 6q0 -23 5.5 -44.5t18 -38t34 -27t54.5 -10.5
q44 0 76 19t53 48.5t31 65.5t10 70q0 23 -5 43.5t-17.5 35.5t-33.5 24t-53 9q-29 0 -55.5 -7t-46.5 -16l-5 4z" />
    <glyph glyph-name="four" unicode="4" 
d="M313 188h-291l12 59l362 439h91l-95 -439h83l-12 -59h-83l-40 -188h-67zM407 615h-2l-296 -368h217z" />
    <glyph glyph-name="five" unicode="5" 
d="M458 260q0 -44 -14.5 -92t-45 -88.5t-77 -66.5t-110.5 -26q-53 0 -86.5 17t-53.5 42.5t-27.5 56t-7.5 57.5l66 6q0 -23 5.5 -44.5t18.5 -38t34.5 -27t53.5 -10.5q44 0 76.5 19.5t53.5 50t31.5 67t10.5 70.5q0 24 -4.5 46.5t-16.5 40.5t-33 29t-55 11q-44 0 -76 -17.5
t-61 -46.5h-60l110 364h321l-14 -65h-256l-76 -223h2q55 46 124 46q85 0 126 -48t41 -130z" />
    <glyph glyph-name="six" unicode="6" 
d="M392 255q0 24 -5 45t-17.5 36.5t-32.5 25t-50 9.5q-27 0 -52.5 -10t-47.5 -28.5t-37.5 -44.5t-22.5 -58q-2 -12 -3 -23t-1 -22q0 -27 5.5 -52t18.5 -44.5t34 -31t52 -11.5q37 0 66.5 17t50 46t31.5 66.5t11 79.5zM459 554q0 35 -22 57t-61 22q-47 0 -86 -25.5
t-68.5 -66.5t-50 -93.5t-31.5 -106.5h2q9 16 25.5 31.5t37 28.5t45 21t50.5 8q45 0 76.5 -13.5t51 -36t28.5 -53t9 -64.5q0 -52 -15 -101.5t-44.5 -88.5t-73.5 -62.5t-101 -23.5q-53 0 -87.5 17.5t-55 45.5t-28.5 64t-8 73q0 87 21.5 176.5t63 163t102 120t137.5 46.5
q44 0 72.5 -12.5t45.5 -32t23.5 -43t7.5 -45.5z" />
    <glyph glyph-name="seven" unicode="7" 
d="M140 680h415l-16 -74q-59 -69 -115.5 -145t-105.5 -154t-89 -156t-65 -151h-80q10 31 31.5 77t51.5 100t66.5 113t76.5 117t81.5 112t81.5 98h-347z" />
    <glyph glyph-name="eight" unicode="8" 
d="M433 542q0 42 -26 68t-71 26q-32 0 -58 -11t-45 -30t-29.5 -44.5t-10.5 -54.5q0 -20 5.5 -38.5t17 -33t29.5 -23t43 -8.5t51 10t47 29.5t34 47t13 62.5zM465 227q0 -55 -19.5 -99.5t-53 -75.5t-79 -48t-96.5 -17q-99 0 -147.5 47t-48.5 123q0 43 14.5 79t39 63.5t57 47
t68.5 28.5v2q-38 20 -56 51t-18 67q0 43 16.5 79.5t45 63t67.5 41t85 14.5q78 0 119.5 -38t41.5 -104q0 -36 -10.5 -65t-29 -51.5t-43 -38.5t-51.5 -25v-2q45 -17 71.5 -52.5t26.5 -89.5zM397 222q0 56 -33.5 87t-89.5 31q-38 0 -71 -13t-57.5 -36t-38.5 -55.5t-14 -71.5
q0 -55 33.5 -87t90.5 -32q37 0 70 12t57.5 35t38.5 55.5t14 74.5z" />
    <glyph glyph-name="nine" unicode="9" 
d="M155 435q0 -24 5 -45t17.5 -36.5t32.5 -25t50 -9.5q25 0 51 8.5t48 25t38 41t23 56.5q2 12 3 23t1 22q0 27 -5.5 52t-18.5 44.5t-34 31t-52 11.5q-37 0 -66.5 -16t-50 -43.5t-31.5 -63.5t-11 -76zM88 126q5 -39 29 -59t63 -20q49 0 86.5 25.5t65 66.5t46 93.5t29.5 106.5
h-2q-9 -14 -25.5 -28t-37.5 -25.5t-46 -18.5t-52 -7q-45 0 -76 14.5t-50 37.5t-27.5 53t-8.5 62q0 50 15 97.5t44.5 85t73.5 60.5t101 23q53 0 87.5 -17.5t55 -45.5t28.5 -64t8 -73q0 -87 -19.5 -176.5t-58.5 -163t-98 -120t-139 -46.5q-43 0 -72.5 12t-47.5 31t-27 43
t-11 47z" />
    <glyph glyph-name="colon" unicode=":" horiz-adv-x="335" 
d="M78 47q0 23 16.5 39.5t39.5 16.5t39 -16.5t16 -39.5t-16 -39t-39 -16t-39.5 16t-16.5 39zM159 427q0 23 16.5 39.5t39.5 16.5t39 -16.5t16 -39.5t-16 -39t-39 -16t-39.5 16t-16.5 39z" />
    <glyph glyph-name="semicolon" unicode=";" horiz-adv-x="335" 
d="M136 103l66 -17l-161 -221l-43 8zM159 427q0 23 16.5 39.5t39.5 16.5t39 -16.5t16 -39.5t-16 -39t-39 -16t-39.5 16t-16.5 39z" />
    <glyph glyph-name="less" unicode="&#x3c;" 
d="M49 224v44l412 189v-60l-325 -151l325 -151v-61z" />
    <glyph glyph-name="equal" unicode="=" 
d="M461 339v-59h-412v59h412zM461 211v-60h-412v60h412z" />
    <glyph glyph-name="greater" unicode="&#x3e;" 
d="M460 267v-43l-411 -190v61l324 151l-324 151v60z" />
    <glyph glyph-name="question" unicode="?" horiz-adv-x="520" 
d="M216 211q6 27 13 51t19 45.5t31 41.5t50 40q30 20 51.5 37.5t35.5 35.5t20.5 38.5t6.5 46.5q0 36 -23.5 60.5t-68.5 24.5q-59 0 -91.5 -36t-40.5 -93h-68q4 33 18 66.5t39.5 61t63 45t90.5 17.5q69 0 111.5 -38t42.5 -104q0 -40 -11 -69t-31 -52t-48 -43.5t-62 -42.5
q-28 -18 -48.5 -43t-30.5 -78l-7 -38h-67zM177 40q0 21 15 35.5t36 14.5t35.5 -14.5t14.5 -35.5t-14.5 -36t-35.5 -15t-36 15t-15 36z" />
    <glyph glyph-name="at" unicode="@" horiz-adv-x="1000" 
d="M517 402q-34 0 -60.5 -17.5t-44.5 -45t-27.5 -62t-9.5 -67.5q0 -17 4 -37.5t14.5 -39t28.5 -31t47 -12.5q41 0 69 19.5t45 48t24 62t7 62.5q0 22 -4.5 43.5t-15.5 38.5t-30 27.5t-47 10.5zM869 -36q-65 -63 -152.5 -96.5t-193.5 -33.5q-96 0 -174 30.5t-133.5 85t-86 130
t-30.5 165.5q0 89 33 164.5t90.5 131t135 87t165.5 31.5q75 0 146 -22t125.5 -66.5t87.5 -111t33 -155.5q0 -67 -17.5 -117.5t-46.5 -84.5t-68 -51.5t-81 -17.5q-48 0 -72.5 25t-24.5 57h-4q-6 -12 -17.5 -26t-29 -26.5t-41 -21t-53.5 -8.5q-37 0 -66.5 13.5t-49.5 37.5
t-31 57.5t-11 72.5q0 47 15 91.5t43.5 79t68.5 55.5t91 21q42 0 75 -17t45 -50h4l12 50h61l-44 -203q-2 -8 -4 -19.5t-3.5 -24.5t-3 -25.5t-1.5 -21.5q0 -11 2 -21.5t8.5 -19t18 -14t30.5 -5.5q28 0 52 16t40.5 44t26 65.5t9.5 80.5q0 73 -24.5 129.5t-68 95t-103 58
t-130.5 19.5q-78 0 -141.5 -27.5t-109.5 -75.5t-71 -113t-25 -140q0 -80 26 -144.5t73 -110t112.5 -70t144.5 -24.5q99 0 171.5 31.5t130.5 84.5z" />
    <glyph glyph-name="A" unicode="A" horiz-adv-x="633" 
d="M403 594h-2l-202 -333h244zM386 680h73l96 -680h-80l-24 197h-292l-117 -197h-86z" />
    <glyph glyph-name="B" unicode="B" horiz-adv-x="597" 
d="M191 680h177q37 0 71 -7t60 -24.5t41 -46t15 -70.5q0 -72 -42.5 -119t-112.5 -64v-1q54 -12 84 -43t30 -93q0 -55 -21 -95t-57 -66t-83.5 -38.5t-99.5 -12.5h-206zM265 64q35 0 67.5 7.5t57 25t39 44.5t14.5 66q0 111 -151 111h-106l-54 -254h133zM312 376q36 0 67 9
t53.5 27.5t35 46t12.5 63.5q0 30 -11 49t-30 30.5t-43 16t-49 4.5h-96l-53 -246h114z" />
    <glyph glyph-name="C" unicode="C" horiz-adv-x="723" 
d="M671 133q-50 -63 -123.5 -104.5t-173.5 -41.5q-68 0 -123.5 21t-94.5 59t-60.5 91.5t-21.5 118.5q0 88 31.5 164t86.5 132t129 88t159 32q61 0 105 -12.5t74 -33.5t49 -47t32 -53l-63 -34q-21 54 -69 85.5t-130 31.5q-73 0 -132.5 -28.5t-102 -76.5t-65.5 -111t-23 -131
q0 -50 13.5 -92t41 -73.5t69.5 -49t99 -17.5q61 0 123.5 27t115.5 94z" />
    <glyph glyph-name="D" unicode="D" horiz-adv-x="723" 
d="M384 680q98 0 159 -25.5t95.5 -66t46.5 -90t12 -97.5q0 -86 -29.5 -159t-84.5 -127t-133.5 -84.5t-177.5 -30.5h-217l144 680h185zM141 64h128q79 0 143.5 24t110.5 66.5t71.5 101.5t25.5 130q0 48 -12.5 89.5t-42.5 73t-78.5 49.5t-120.5 18h-108z" />
    <glyph glyph-name="E" unicode="E" horiz-adv-x="542" 
d="M191 680h380l-14 -64h-308l-50 -235h299l-13 -63h-299l-54 -254h308l-13 -64h-380z" />
    <glyph glyph-name="F" unicode="F" horiz-adv-x="524" 
d="M191 680h371l-14 -64h-298l-50 -235h289l-13 -63h-289l-67 -318h-73z" />
    <glyph glyph-name="G" unicode="G" horiz-adv-x="753" 
d="M370 -13q-69 0 -124 21t-93 59t-58.5 91.5t-20.5 118.5q0 88 32 164t87.5 132t130 88t159.5 32q95 0 156.5 -35.5t90.5 -89.5l-60 -40q-27 48 -74 75t-118 27q-73 0 -132.5 -28.5t-102 -76.5t-65.5 -111t-23 -131q0 -50 12.5 -92t39.5 -73.5t68.5 -49t98.5 -17.5
q67 0 115 21.5t79.5 54.5t47.5 73.5t19 79.5h-240l14 64h307q-3 -72 -25.5 -136.5t-65 -113.5t-106 -78t-149.5 -29z" />
    <glyph glyph-name="H" unicode="H" horiz-adv-x="714" 
d="M191 680h73l-64 -299h377l64 299h73l-144 -680h-73l67 318h-377l-67 -318h-73z" />
    <glyph glyph-name="I" unicode="I" horiz-adv-x="289" 
d="M204 680h73l-144 -680h-73z" />
    <glyph glyph-name="J" unicode="J" horiz-adv-x="401" 
d="M4 58q23 -4 38.5 -5.5t34.5 -1.5q43 0 71 11.5t45 33t27 53t19 71.5l84 396h-142l14 64h215l-102 -479q-9 -42 -23 -81t-40.5 -68.5t-68.5 -47t-106 -17.5q-17 0 -39 2t-41 7z" />
    <glyph glyph-name="K" unicode="K" horiz-adv-x="597" 
d="M191 680h71l-68 -321h2l356 321h98l-378 -326l257 -354h-95l-241 345h-2l-73 -345h-71z" />
    <glyph glyph-name="L" unicode="L" horiz-adv-x="497" 
d="M191 680h73l-131 -617h291l-13 -63h-364z" />
    <glyph glyph-name="M" unicode="M" horiz-adv-x="882" 
d="M191 680h83l137 -579l377 579h92l-144 -680h-72l119 557h-3l-365 -557h-46l-134 557h-2l-115 -557h-71z" />
    <glyph glyph-name="N" unicode="N" horiz-adv-x="723" 
d="M191 680h75l262 -570l121 570h71l-144 -680h-75l-261 568h-2l-120 -568h-71z" />
    <glyph glyph-name="O" unicode="O" horiz-adv-x="805" 
d="M374 -13q-66 0 -121.5 20.5t-95.5 58t-62 91t-22 118.5q0 87 30.5 163.5t83.5 133t125 89t155 32.5q66 0 121.5 -20.5t95 -58t62 -90t22.5 -117.5q0 -87 -29.5 -163.5t-82 -133.5t-125 -90t-157.5 -33zM691 400q0 48 -15 90t-43.5 73t-71 49t-96.5 18q-71 0 -129.5 -29.5
t-99.5 -78.5t-63.5 -111.5t-22.5 -129.5q0 -48 15 -90.5t43.5 -73.5t71 -49t97.5 -18q70 0 128 29t99 77.5t64 112t23 131.5z" />
    <glyph glyph-name="P" unicode="P" horiz-adv-x="597" 
d="M296 328q37 0 75.5 7.5t69.5 27t50.5 53.5t19.5 86q0 35 -14 57.5t-36.5 35t-52 17t-59.5 4.5h-99l-61 -288h107zM191 680h179q45 0 84.5 -9.5t69.5 -30t47 -52t17 -75.5q0 -65 -24 -112.5t-64.5 -78t-94 -45t-112.5 -14.5h-118l-55 -263h-73z" />
    <glyph glyph-name="Q" unicode="Q" horiz-adv-x="805" 
d="M374 -13q-66 0 -121.5 20.5t-95.5 58t-62 91t-22 118.5q0 87 30.5 163.5t83.5 133t125 89t155 32.5q66 0 121.5 -20.5t95 -58t62 -90t22.5 -117.5q0 -94 -33 -173.5t-93 -137.5l68 -85l-50 -41l-64 87q-47 -34 -103 -52t-119 -18zM691 400q0 48 -15 90t-43.5 73t-71 49
t-96.5 18q-71 0 -129.5 -29.5t-99.5 -78.5t-63.5 -111.5t-22.5 -129.5q0 -48 15 -90.5t43.5 -73.5t71 -49t97.5 -18q51 0 95.5 15.5t81.5 44.5l-62 76l52 42l56 -76q43 49 67 113.5t24 134.5z" />
    <glyph glyph-name="R" unicode="R" horiz-adv-x="597" 
d="M333 358q37 0 71 8t59 26t40 46.5t15 70.5q0 33 -13 54t-34 32.5t-47 16t-51 4.5h-123l-54 -258h137zM317 296h-134l-63 -296h-73l144 680h197q58 0 97.5 -13t64 -35t35.5 -51t11 -61q0 -59 -21 -99t-52 -65.5t-66.5 -38t-63.5 -15.5l149 -302h-86z" />
    <glyph glyph-name="S" unicode="S" horiz-adv-x="603" 
d="M521 514q0 32 -11 54t-31 35.5t-48 19.5t-61 6q-26 0 -55.5 -6.5t-54.5 -22.5t-41 -41.5t-16 -63.5q0 -31 10.5 -50t28 -31t41 -19.5t50.5 -14.5q41 -11 77 -24t63 -33.5t42.5 -50t15.5 -73.5q0 -42 -17 -80.5t-50.5 -67.5t-82.5 -46.5t-112 -17.5q-41 0 -82 8t-74.5 30
t-55.5 59.5t-24 97.5h75q2 -42 18 -68t39.5 -40.5t51.5 -19t55 -4.5q31 0 63 7.5t58 24t43 43t17 65.5q0 29 -10 49t-30.5 34.5t-51 25t-71.5 21.5q-30 8 -59 19t-52.5 30t-37.5 47.5t-14 70.5q0 45 19.5 83t53.5 65.5t79 42.5t95 15q99 0 158 -42.5t59 -136.5h-70z" />
    <glyph glyph-name="T" unicode="T" horiz-adv-x="524" 
d="M307 616h-209l14 64h488l-14 -64h-206l-130 -616h-73z" />
    <glyph glyph-name="U" unicode="U" horiz-adv-x="687" 
d="M185 680h73l-95 -445q-3 -14 -4.5 -30t-1.5 -28q0 -37 11.5 -61t31.5 -38.5t47 -20.5t57 -6q49 0 85.5 11t63.5 35t45.5 61.5t29.5 90.5l92 431h73l-92 -432q-28 -132 -98.5 -196.5t-198.5 -64.5q-108 0 -165.5 43t-57.5 131q0 14 1.5 29.5t4.5 30.5z" />
    <glyph glyph-name="V" unicode="V" horiz-adv-x="597" 
d="M113 680h80l72 -581h2l323 581h83l-396 -680h-65z" />
    <glyph glyph-name="W" unicode="W" horiz-adv-x="904" 
d="M529 573h-2l-322 -573h-62l-26 680h77l11 -562h2l310 562h68l60 -568h1l257 568h76l-324 -680h-62z" />
    <glyph glyph-name="X" unicode="X" horiz-adv-x="597" 
d="M310 293l-245 -293h-92l305 347l-135 333h84l104 -285l237 285h92l-296 -337l138 -343h-82z" />
    <glyph glyph-name="Y" unicode="Y" horiz-adv-x="570" 
d="M262 280l-152 400h87l112 -340l253 340h87l-318 -400l-59 -280h-69z" />
    <glyph glyph-name="Z" unicode="Z" horiz-adv-x="588" 
d="M-2 59l541 557h-388l14 64h480l-13 -59l-539 -557h410l-13 -64h-504z" />
    <glyph glyph-name="bracketleft" unicode="[" horiz-adv-x="350" 
d="M205 747h167l-10 -49h-107l-167 -782h107l-10 -50h-167z" />
    <glyph glyph-name="backslash" unicode="\" horiz-adv-x="400" 
d="M90 692h52l205 -705h-52z" />
    <glyph glyph-name="bracketright" unicode="]" horiz-adv-x="350" 
d="M174 -135h-167l10 49h107l167 782h-107l10 50h167z" />
    <glyph glyph-name="asciicircum" unicode="^" 
d="M47 240l184 333h47l184 -333h-63l-144 262l-144 -262h-64z" />
    <glyph glyph-name="underscore" unicode="_" horiz-adv-x="500" 
d="M0 -75h500v-50h-500v50z" />
    <glyph glyph-name="grave" unicode="`" horiz-adv-x="255" 
d="M106 699h95l79 -128h-56z" />
    <glyph glyph-name="a" unicode="a" horiz-adv-x="552" 
d="M355 62h-2q-35 -44 -80 -59.5t-85 -15.5q-75 0 -114.5 33t-39.5 91q0 48 22.5 79t58.5 49.5t81 26.5t91 10l116 5l8 38q2 8 3 16.5t1 16.5q0 32 -22.5 52.5t-81.5 20.5q-67 0 -99 -21t-45 -63h-70q23 78 82.5 110t139.5 32t123 -30t43 -87q0 -20 -4 -39l-50 -233
q-5 -22 -6.5 -46.5t-1.5 -47.5h-68v62zM392 227l-89 -3q-40 -2 -75 -7t-61.5 -16.5t-42 -31t-15.5 -50.5q0 -40 24.5 -58.5t69.5 -18.5q25 0 53 7t53 22t44 37.5t25 53.5z" />
    <glyph glyph-name="b" unicode="b" horiz-adv-x="616" 
d="M482 270q0 33 -7.5 61t-24 48.5t-42 32t-60.5 11.5q-39 0 -75 -18t-63.5 -49.5t-44 -74.5t-16.5 -94q0 -30 10 -55t29 -43.5t45.5 -29t58.5 -10.5q40 0 75 16t60.5 45t40 69.5t14.5 90.5zM188 706h71l-69 -316h1q9 15 24.5 31t37 30t49 23t62.5 9q96 0 144.5 -55.5
t48.5 -150.5q0 -59 -18.5 -111.5t-53 -92t-83.5 -63t-109 -23.5q-40 0 -69 11t-49 26.5t-31.5 33t-16.5 30.5l-18 -88h-71z" />
    <glyph glyph-name="c" unicode="c" horiz-adv-x="550" 
d="M454 347q-6 21 -18.5 35.5t-29 24t-35.5 13.5t-38 4q-47 0 -85.5 -18.5t-66 -49.5t-42.5 -71.5t-15 -84.5q0 -32 9.5 -60t28 -49t46 -33t63.5 -12q39 0 78 15t68 58l56 -29q-38 -54 -90.5 -78.5t-115.5 -24.5q-51 0 -91 15t-67.5 42t-42 65t-14.5 84q0 60 21.5 113
t59 92.5t89 62t112.5 22.5q30 0 58.5 -5.5t52.5 -18t42.5 -34t29.5 -53.5z" />
    <glyph glyph-name="d" unicode="d" horiz-adv-x="616" 
d="M427 77q-23 -36 -64.5 -63t-106.5 -27q-96 0 -146 53.5t-50 144.5q0 58 19 112t53.5 95.5t84 66t109.5 24.5q40 0 68 -10t47 -25t30 -32t17 -31h4l69 321h69l-150 -706h-65l14 77h-2zM135 192q0 -66 35 -105.5t102 -39.5q37 0 72.5 16.5t63 46.5t44 72t16.5 93
q0 30 -8.5 56.5t-26.5 46.5t-45 31.5t-63 11.5q-41 0 -75.5 -17t-60 -48t-40 -73t-14.5 -91z" />
    <glyph glyph-name="e" unicode="e" horiz-adv-x="580" 
d="M125 220q-2 -9 -2 -15.5v-11.5q0 -71 42.5 -109.5t111.5 -38.5q60 0 98 23t63 59l54 -34q-41 -51 -93 -78.5t-129 -27.5q-46 0 -86 13t-69 39t-46 65t-17 91q0 60 20 112.5t56.5 91.5t86.5 61.5t110 22.5q91 0 144 -48.5t53 -134.5q0 -13 -1.5 -35t-6.5 -45h-389z
M449 276q2 9 2.5 17.5t0.5 14.5q0 49 -36 83t-98 34q-35 0 -65.5 -12.5t-54 -33t-39.5 -47.5t-23 -56h313z" />
    <glyph glyph-name="f" unicode="f" horiz-adv-x="332" 
d="M151 414h-102l12 56h102l7 30q8 37 23 73.5t38.5 66t56.5 47.5t78 18q31 0 60 -7l-11 -65q-11 5 -27 6.5t-33 1.5q-27 0 -46 -12.5t-32.5 -33t-21.5 -46.5t-14 -53l-6 -26h139l-12 -56h-139l-87 -414h-72z" />
    <glyph glyph-name="g" unicode="g" horiz-adv-x="616" 
d="M423 88q-23 -34 -65.5 -61t-104.5 -27q-96 0 -146 52t-50 143q0 58 19 110.5t53.5 92t84 62.5t109.5 23q40 0 68 -9.5t47 -24t30 -31t17 -30.5h2l17 82h71l-91 -423q-12 -56 -32 -101.5t-51.5 -77.5t-77 -50t-108.5 -18q-85 0 -133 30.5t-59 99.5l71 11q5 -37 34.5 -58.5
t91.5 -21.5q51 0 85 15.5t56.5 42.5t35.5 63t22 77l6 29h-2zM132 202q0 -66 35 -104t102 -38q37 0 72.5 14.5t63 42t44 67.5t16.5 91q0 30 -8.5 56.5t-26.5 46.5t-45 31.5t-63 11.5q-41 0 -75.5 -15.5t-60 -44.5t-40 -69.5t-14.5 -89.5z" />
    <glyph glyph-name="h" unicode="h" horiz-adv-x="572" 
d="M430 283q2 11 4 23.5t2 21.5q0 25 -8 42t-21.5 27t-31.5 14.5t-38 4.5q-26 0 -53.5 -10t-51.5 -30t-42 -49t-26 -67l-55 -260h-71l150 706h71l-68 -319h1q33 45 77.5 66.5t95.5 21.5q21 0 46.5 -6t47.5 -20t37 -39t15 -62q0 -17 -5 -42l-65 -306h-71z" />
    <glyph glyph-name="i" unicode="i" horiz-adv-x="261" 
d="M145 470h71l-99 -470h-71zM165 630q0 23 15.5 38.5t38.5 15.5q22 0 37.5 -15.5t15.5 -38.5q0 -22 -15.5 -37.5t-37.5 -15.5q-23 0 -38.5 15.5t-15.5 37.5z" />
    <glyph glyph-name="j" unicode="j" horiz-adv-x="261" 
d="M-68 -140h9q40 0 61.5 18t31.5 64l112 528h72l-113 -533q-7 -32 -19 -57.5t-31.5 -43t-48.5 -27t-70 -9.5h-17zM165 630q0 23 15.5 38.5t38.5 15.5q22 0 37.5 -15.5t15.5 -38.5q0 -22 -15.5 -37.5t-37.5 -15.5q-23 0 -38.5 15.5t-15.5 37.5z" />
    <glyph glyph-name="k" unicode="k" horiz-adv-x="507" 
d="M161 250l-53 -250h-71l150 706h71l-95 -447l254 211h96l-273 -216l209 -254h-87z" />
    <glyph glyph-name="l" unicode="l" horiz-adv-x="261" 
d="M196 706h71l-150 -706h-71z" />
    <glyph glyph-name="m" unicode="m" horiz-adv-x="855" 
d="M474 382q69 93 173 93q21 0 46.5 -6t47.5 -20t37 -39t15 -62q0 -17 -5 -42l-65 -306h-71l60 283q2 11 4 23.5t2 21.5q0 25 -8 42t-21.5 27t-31.5 14.5t-38 4.5q-26 0 -50 -10.5t-44 -28.5t-34 -42.5t-20 -52.5l-59 -282h-70l64 302q2 12 3.5 22t1.5 19q0 38 -22 55.5
t-62 17.5q-23 0 -48 -9.5t-47.5 -27t-39.5 -42t-23 -54.5l-60 -283h-71l99 470h71l-16 -78h2q11 15 26 29.5t34.5 26.5t44 19.5t56.5 7.5q30 0 51 -9.5t35 -23.5t21.5 -30t9.5 -30h2z" />
    <glyph glyph-name="n" unicode="n" horiz-adv-x="572" 
d="M192 387q33 45 77.5 66.5t95.5 21.5q21 0 46.5 -6t47.5 -20t37 -39t15 -62q0 -17 -5 -42l-65 -306h-71l60 283q2 11 4 23.5t2 21.5q0 25 -8 42t-21.5 27t-31.5 14.5t-38 4.5q-26 0 -53.5 -10t-51.5 -30t-42 -49t-26 -67l-55 -260h-71l99 470h71l-17 -83h1z" />
    <glyph glyph-name="o" unicode="o" horiz-adv-x="613" 
d="M479 271q0 32 -10 60t-29.5 48.5t-48 32.5t-65.5 12q-44 0 -81 -18t-64 -48.5t-42 -71.5t-15 -86q0 -32 9.5 -60t28.5 -49t48 -33t68 -12q43 0 80 18t64 49t42 72t15 86zM273 -13q-50 0 -91 15t-70 42.5t-44.5 65t-15.5 82.5q0 58 20 111t56.5 93t88.5 63.5t115 23.5
q48 0 88.5 -14.5t69.5 -41.5t45 -64.5t16 -82.5q0 -60 -20 -113t-56 -93t-87.5 -63.5t-114.5 -23.5z" />
    <glyph glyph-name="p" unicode="p" horiz-adv-x="616" 
d="M482 270q0 33 -7.5 61t-24 48.5t-42 32t-60.5 11.5q-39 0 -75 -18t-63.5 -49.5t-44 -74.5t-16.5 -94q0 -30 10 -55t29 -43.5t45.5 -29t58.5 -10.5q40 0 75 16t60.5 45t40 69.5t14.5 90.5zM137 470h70l-17 -80h1q9 15 24.5 31t37 30t49 23t62.5 9q96 0 144.5 -55.5
t48.5 -150.5q0 -59 -18.5 -111.5t-53 -92t-83.5 -63t-109 -23.5q-40 0 -69 11t-49 26.5t-32 33t-17 30.5l-61 -288h-70z" />
    <glyph glyph-name="q" unicode="q" horiz-adv-x="616" 
d="M425 77q-23 -36 -63.5 -63t-105.5 -27q-96 0 -146 53.5t-50 144.5q0 58 19 112t53.5 95.5t84 66t109.5 24.5q40 0 68 -10t47 -25t30 -32t17 -31h4l18 85h69l-142 -670h-70l60 277h-2zM135 192q0 -66 35 -105.5t102 -39.5q37 0 72.5 16.5t63 46.5t44 72t16.5 93
q0 30 -8.5 56.5t-26.5 46.5t-45 31.5t-63 11.5q-41 0 -75.5 -17t-60 -48t-40 -73t-14.5 -91z" />
    <glyph glyph-name="r" unicode="r" horiz-adv-x="374" 
d="M137 470h69l-24 -113h2q11 18 31 38.5t46 38t56 29.5t60 12h22l-13 -65h-20q-36 0 -70.5 -15t-63 -41t-49 -62t-29.5 -79l-45 -213h-71z" />
    <glyph glyph-name="s" unicode="s" horiz-adv-x="500" 
d="M397 346q0 44 -30.5 62t-80.5 18q-19 0 -41 -3.5t-40.5 -13.5t-31 -26.5t-12.5 -41.5q0 -32 23 -45.5t73 -24.5q33 -8 62 -17t50.5 -23.5t34 -36.5t12.5 -55t-14 -61t-41 -48t-66 -31.5t-90 -11.5q-33 0 -65.5 5.5t-59.5 20.5t-45 43t-21 73h71q2 -29 14 -45.5
t29.5 -25.5t38 -11.5t40.5 -2.5q23 0 47 4t43.5 14t32 27.5t12.5 44.5q0 18 -7.5 30.5t-22.5 21t-38 15.5t-54 15q-27 7 -50.5 15t-41.5 21.5t-28.5 34t-10.5 50.5q0 35 16 62.5t43.5 46t63.5 28t77 9.5q81 0 127.5 -32t46.5 -105h-66z" />
    <glyph glyph-name="t" unicode="t" horiz-adv-x="343" 
d="M66 470h95l30 137h70l-30 -137h140l-12 -56h-140l-58 -269q-2 -9 -4 -20.5t-2 -23.5q0 -27 15 -37.5t47 -10.5q14 0 24 1.5t21 3.5l-13 -58q-28 -5 -60 -5q-49 0 -78.5 22t-29.5 69q0 12 2 25t5 26l61 277h-95z" />
    <glyph glyph-name="u" unicode="u" horiz-adv-x="572" 
d="M382 82q-33 -45 -77.5 -66.5t-95.5 -21.5q-21 0 -46.5 6t-47.5 20t-37 38.5t-15 62.5q0 17 5 42l65 307h71l-60 -284q-2 -11 -4 -23.5t-2 -21.5q0 -50 29 -69t70 -19q26 0 53 10t51 30t42.5 49t26.5 67l55 261h71l-99 -470h-71l17 82h-1z" />
    <glyph glyph-name="v" unicode="v" horiz-adv-x="507" 
d="M82 470h78l57 -369h2l237 369h77l-308 -470h-58z" />
    <glyph glyph-name="w" unicode="w" horiz-adv-x="769" 
d="M87 470h76l32 -362h2l209 362h62l41 -362h2l205 362h77l-275 -470h-65l-38 361h-2l-212 -361h-61z" />
    <glyph glyph-name="x" unicode="x" horiz-adv-x="507" 
d="M213 243l-124 227h84l90 -185l168 185h90l-222 -230l130 -240h-81l-99 195l-181 -195h-90z" />
    <glyph glyph-name="y" unicode="y" horiz-adv-x="507" 
d="M172 10l-95 460h81l63 -390h2l229 390h78l-419 -670h-80z" />
    <glyph glyph-name="z" unicode="z" horiz-adv-x="469" 
d="M12 60l354 349h-267l13 61h351l-13 -60l-353 -349h279l-12 -61h-364z" />
    <glyph glyph-name="braceleft" unicode="{" horiz-adv-x="350" 
d="M87 331q32 0 54 27.5t36 96.5l42 201q8 40 36 65.5t84 25.5h32l-9 -45h-17q-27 0 -45 -15t-23 -40l-42 -196q-14 -62 -34.5 -95t-56.5 -48v-2q38 -19 38 -75q0 -14 -1.5 -31t-6.5 -37l-42 -197q-2 -10 -2 -19q0 -36 45 -36h17l-8 -45h-32q-46 0 -65 18t-19 47q0 6 1 15
t3 16l42 196q5 20 6.5 36.5t1.5 29.5q0 32 -11 45t-34 13z" />
    <glyph glyph-name="bar" unicode="|" horiz-adv-x="250" 
d="M99 752h53v-892h-53v892z" />
    <glyph glyph-name="braceright" unicode="}" horiz-adv-x="350" 
d="M291 281q-32 0 -54 -27.5t-36 -96.5l-42 -201q-8 -40 -36 -65.5t-84 -25.5h-32l9 45h17q27 0 45 15t23 40l42 196q13 62 34 95t57 48v2q-38 19 -38 75q0 14 1.5 31t6.5 37l42 197q2 10 2 19q0 36 -45 36h-17l8 45h32q46 0 65 -18t19 -47q0 -6 -1 -15t-3 -16l-42 -196
q-5 -20 -6.5 -36.5t-1.5 -29.5q0 -32 11 -45t34 -13z" />
    <glyph glyph-name="asciitilde" unicode="~" 
d="M259 277q27 -17 44.5 -25t36.5 -8q26 0 44.5 18.5t29.5 38.5l43 -38q-20 -32 -48.5 -54.5t-66.5 -22.5q-24 0 -44 5.5t-48 23.5q-27 17 -44.5 24.5t-36.5 7.5q-25 0 -43 -17t-30 -40l-43 38q22 33 49.5 56t65.5 23q24 0 45 -6.5t46 -23.5z" />
    <glyph glyph-name="uni00A0" unicode="&#xa0;" horiz-adv-x="255" 
 />
    <glyph glyph-name="exclamdown" unicode="&#xa1;" horiz-adv-x="340" 
d="M111 -208h-70l108 495h67zM259 432q0 -21 -15 -35.5t-36 -14.5t-35.5 14.5t-14.5 35.5t14.5 36t35.5 15t36 -15t15 -36z" />
    <glyph glyph-name="cent" unicode="&#xa2;" 
d="M296 421q-39 -5 -73 -25t-58.5 -51t-39 -71t-14.5 -85q0 -56 27.5 -94t78.5 -47zM265 46q37 1 70 19t52 44l44 -40q-38 -42 -83 -60.5t-95 -19.5l-13 -61h-48l14 63q-81 9 -123 61t-42 130q0 59 20.5 111t56.5 91.5t85 64t106 28.5l13 63h48l-13 -61q45 -2 81.5 -23.5
t55.5 -58.5l-55 -35q-11 24 -35 41.5t-59 19.5z" />
    <glyph glyph-name="sterling" unicode="&#xa3;" 
d="M67 376h82q-11 25 -15.5 50t-4.5 45q0 46 16 86.5t45.5 70.5t71 47.5t92.5 17.5q48 0 80.5 -12t53 -33t29 -50t8.5 -64l-74 -6q0 54 -27.5 78t-71.5 24q-63 0 -103.5 -41.5t-40.5 -115.5q0 -23 4 -44.5t14 -52.5h190l-10 -47h-172q1 -5 1 -10.5v-10.5q0 -36 -11.5 -70.5
t-30.5 -65t-43.5 -57t-50.5 -45.5l2 -2q13 5 28.5 9.5t48.5 4.5q20 0 38.5 -4t40.5 -11q17 -5 34.5 -9t37.5 -4q25 0 49.5 8.5t41.5 20.5l9 -64q-15 -8 -42 -19t-72 -11q-25 0 -49.5 5.5t-39.5 10.5q-22 7 -52 12.5t-49 5.5q-36 0 -66 -11t-47 -25l-16 63q39 19 69.5 46
t52 59t33 67t11.5 69q0 20 -5 38h-100z" />
    <glyph glyph-name="currency" unicode="&#xa4;" 
d="M80 196q-23 28 -36 63.5t-13 74.5q0 40 13 75.5t36 63.5l-51 50l37 37l51 -50q29 23 64 36t74 13q40 0 75.5 -13t63.5 -36l50 50l37 -37l-50 -50q23 -29 36 -64t13 -75q0 -38 -13 -73.5t-36 -64.5l50 -50l-37 -38l-50 51q-29 -23 -64 -36t-75 -13q-39 0 -74 13t-64 36
l-51 -51l-37 38zM422 334q0 36 -13.5 67t-36.5 54.5t-53 37t-64 13.5q-33 0 -63.5 -13.5t-53 -37t-36 -54.5t-13.5 -67q0 -35 13.5 -66.5t36 -54.5t53 -36.5t63.5 -13.5q34 0 64 13.5t53 36.5t36.5 54.5t13.5 66.5z" />
    <glyph glyph-name="yen" unicode="&#xa5;" 
d="M188 181h-143l10 48h143l18 83h-143l10 47h117l-92 321h75l80 -321l211 321h81l-233 -321h117l-10 -47h-145l-18 -83h145l-10 -48h-145l-38 -181h-68z" />
    <glyph glyph-name="brokenbar" unicode="&#xa6;" horiz-adv-x="250" 
d="M99 194h53v-304h-53v304zM99 722h53v-304h-53v304z" />
    <glyph glyph-name="section" unicode="&#xa7;" 
d="M249 377q-17 0 -35.5 -6.5t-35 -19t-27 -31t-10.5 -43.5q0 -29 21 -52t62 -43l61 -30q17 3 34 11.5t31 22t22.5 31.5t8.5 40q0 40 -23 60t-54 34zM173 -166q-48 0 -82 14t-55.5 38.5t-31.5 57t-10 69.5h70q0 -58 31.5 -88.5t80.5 -30.5q22 0 45 5t42 17.5t31.5 34
t12.5 54.5q0 28 -14.5 50t-39.5 36l-110 58q-29 16 -52 45.5t-23 67.5q0 60 38.5 98.5t95.5 54.5q-8 6 -17.5 15.5t-17.5 23t-13.5 30.5t-5.5 36q0 45 16.5 78t44 54t62 31t70.5 10q86 0 127 -37.5t41 -118.5h-67q0 51 -25 73.5t-76 22.5q-54 0 -86.5 -27t-32.5 -78
q0 -35 22 -59t51 -38l79 -39q32 -16 56 -44t24 -75q0 -29 -10 -53t-27 -43.5t-38.5 -33.5t-45.5 -21q24 -17 36.5 -46t12.5 -58q0 -48 -17 -83t-46 -57.5t-67 -33t-79 -10.5z" />
    <glyph glyph-name="dieresis" unicode="&#xa8;" horiz-adv-x="255" 
d="M66 627q0 20 14 34t34 14t34.5 -14t14.5 -34t-14.5 -34.5t-34.5 -14.5t-34 14.5t-14 34.5zM252 627q0 20 14 34t34 14t34.5 -14t14.5 -34t-14.5 -34.5t-34.5 -14.5t-34 14.5t-14 34.5z" />
    <glyph glyph-name="copyright" unicode="&#xa9;" horiz-adv-x="900" 
d="M639 270q-14 -68 -62 -109t-115 -41q-49 0 -88.5 17t-67 47t-42.5 70.5t-15 87.5q0 48 14.5 88t41.5 69.5t66 46t89 16.5q34 0 64.5 -9.5t54.5 -28.5t39.5 -46t20.5 -63h-56q-8 42 -40 71t-82 29q-79 0 -119.5 -48.5t-40.5 -123.5q0 -78 41 -127t120 -49q49 0 81.5 29.5
t39.5 73.5h56zM98 340q0 73 27.5 137t75.5 112t112.5 75.5t137.5 27.5t137 -27.5t112 -75.5t75.5 -112t27.5 -137t-27.5 -137t-75.5 -112t-112 -76t-137 -28t-137.5 28t-112.5 76t-75.5 112t-27.5 137zM751 340q0 66 -23 121.5t-63.5 96.5t-95 64t-118.5 23t-119 -23
t-95.5 -64t-63.5 -96.5t-23 -121.5t23 -122t63.5 -97t95.5 -64t119 -23t118.5 23t95 64t63.5 97t23 122z" />
    <glyph glyph-name="ordfeminine" unicode="&#xaa;" horiz-adv-x="500" 
d="M355 378q-26 -24 -55.5 -33.5t-54.5 -9.5q-56 0 -85 24.5t-29 68.5q0 43 23.5 67.5t61 37.5t84 16.5t91.5 3.5q4 14 5.5 24.5t1.5 18.5q0 20 -14.5 33t-52.5 13q-44 0 -65.5 -15.5t-31.5 -43.5h-61q19 60 62.5 85.5t100.5 25.5q60 0 91.5 -22.5t31.5 -65.5
q0 -5 -0.5 -13.5t-2.5 -15.5l-12 -51q-11 -45 -20 -91t-9 -91h-59zM381 505q-41 0 -75 -2.5t-58.5 -10t-38.5 -21.5t-14 -38q0 -25 15.5 -36.5t44.5 -11.5q16 0 34.5 5t35 15t29.5 24.5t18 32.5z" />
    <glyph glyph-name="guillemotleft" unicode="&#xab;" horiz-adv-x="500" 
d="M255 259l132 162h73l-134 -162l62 -167h-74zM84 259l133 162h73l-134 -162l61 -167h-73z" />
    <glyph glyph-name="logicalnot" unicode="&#xac;" 
d="M407 280h-363v59h421v-230h-58v171z" />
    <glyph glyph-name="uni00AD" unicode="&#xad;" horiz-adv-x="360" 
d="M77 269h220l-14 -66h-220z" />
    <glyph glyph-name="registered" unicode="&#xae;" horiz-adv-x="600" 
d="M122 493q0 47 18 88.5t49 72t72.5 48.5t88.5 18t88.5 -18t72.5 -48.5t49 -72t18 -88.5t-18 -88t-49 -71.5t-72.5 -48t-88.5 -17.5t-88.5 17.5t-72.5 48t-49 71.5t-18 88zM158 493q0 -39 15 -74t41 -61.5t61 -41.5t75 -15t75 15t61 41.5t41 61.5t15 74q0 40 -15 75t-41 61
t-61 41t-75 15t-75 -15t-61 -41t-41 -61t-15 -75zM261 622h90q18 0 35 -4t30.5 -13t21.5 -23t8 -35q0 -28 -16 -45.5t-43 -23.5l69 -112h-56l-60 107h-33v-107h-46v256zM344 510q20 0 38 7.5t18 30.5q0 21 -16.5 28t-34.5 7h-42v-73h37z" />
    <glyph glyph-name="macron" unicode="&#xaf;" horiz-adv-x="255" 
d="M92 655h246l-11 -52h-246z" />
    <glyph glyph-name="degree" unicode="&#xb0;" horiz-adv-x="400" 
d="M349 571q0 43 -28 71t-71 28t-71 -28t-28 -71t28 -71t71 -28t71 28t28 71zM399 571q0 -32 -11 -59.5t-31 -47.5t-47.5 -31t-59.5 -11t-59.5 11t-47.5 31t-31 47.5t-11 59.5t11 59.5t31 47.5t47.5 31t59.5 11t59.5 -11t47.5 -31t31 -47.5t11 -59.5z" />
    <glyph glyph-name="plusminus" unicode="&#xb1;" 
d="M226 459h58v-124h177v-59h-177v-120h-58v120h-177v59h177v124zM49 94h412v-59h-412v59z" />
    <glyph glyph-name="twosuperior" unicode="&#xb2;" horiz-adv-x="400" 
d="M106 340l148 122q39 32 64 63.5t25 64.5q0 26 -15.5 37.5t-37.5 11.5q-33 0 -52 -22.5t-24 -57.5h-55q9 61 45.5 95.5t88.5 34.5q44 0 75.5 -23t31.5 -74q0 -25 -8.5 -47t-23.5 -41.5t-35 -38t-43 -37.5l-104 -85h181l-14 -51h-252z" />
    <glyph glyph-name="threesuperior" unicode="&#xb3;" horiz-adv-x="400" 
d="M175 521l128 110h-146l11 51h220l-9 -49l-115 -98q42 -3 64.5 -29.5t22.5 -65.5q0 -28 -9.5 -55.5t-28.5 -49.5t-47 -36t-65 -14q-35 0 -56 10.5t-33 27t-16 36t-4 36.5l53 5q0 -13 2.5 -25t9 -21.5t18 -15t28.5 -5.5q22 0 39 9t28 24t17 33.5t6 37.5q0 23 -13 38.5
t-43 15.5q-14 0 -33 -3.5t-36 -11.5z" />
    <glyph glyph-name="acute" unicode="&#xb4;" horiz-adv-x="255" 
d="M221 699h96l-145 -128h-59z" />
    <glyph glyph-name="mu" unicode="&#xb5;" horiz-adv-x="574" 
d="M82 470h66v-261q0 -86 27.5 -123.5t99.5 -37.5q30 0 56 12t45 35t30 56.5t11 76.5v242h66v-367q0 -26 1.5 -51.5t3.5 -51.5h-71v76h-2q-11 -18 -28 -34t-38 -28t-44.5 -19t-46.5 -7q-69 0 -110 29v-245h-66v698z" />
    <glyph glyph-name="paragraph" unicode="&#xb6;" horiz-adv-x="560" 
d="M480 633h-90l-175 -823h-66l111 524q-36 0 -64.5 11t-48.5 29.5t-31 44.5t-11 56q0 51 19 89t52 64t76.5 39t91.5 13h211l-185 -870h-65z" />
    <glyph glyph-name="periodcentered" unicode="&#xb7;" horiz-adv-x="255" 
d="M82 294q0 23 16.5 39.5t39.5 16.5t39 -16.5t16 -39.5t-16 -39t-39 -16t-39.5 16t-16.5 39z" />
    <glyph glyph-name="cedilla" unicode="&#xb8;" horiz-adv-x="255" 
d="M-6 -79l66 79h40l-40 -52l1 -1q4 1 10.5 1h10.5q28 0 50 -15t22 -45q0 -29 -12.5 -48.5t-32 -31.5t-42.5 -17t-44 -5q-16 0 -34 2t-38 7l7 36q30 -6 59 -6q13 0 26.5 2.5t24.5 8.5t18.5 15.5t7.5 23.5q0 20 -15.5 28t-35.5 8q-13 0 -24 -1.5t-17 -3.5z" />
    <glyph glyph-name="onesuperior" unicode="&#xb9;" horiz-adv-x="400" 
d="M257 606q-18 -9 -41.5 -17.5t-44.5 -15.5l11 58q29 8 61 24t52 34h34l-84 -397h-55z" />
    <glyph glyph-name="ordmasculine" unicode="&#xba;" horiz-adv-x="500" 
d="M417 540q0 42 -25.5 71t-74.5 29q-29 0 -53.5 -12t-42.5 -32.5t-28 -47.5t-10 -58q0 -43 24.5 -72t76.5 -29q28 0 52.5 12t42.5 32.5t28 48t10 58.5zM280 334q-37 0 -67 11t-51 31t-32.5 47.5t-11.5 60.5q0 42 14.5 80.5t41 67.5t64 46t83.5 17q36 0 65.5 -11t50.5 -30.5
t33 -47t12 -60.5q0 -43 -14.5 -81.5t-41 -67.5t-63.5 -46t-83 -17z" />
    <glyph glyph-name="guillemotright" unicode="&#xbb;" horiz-adv-x="500" 
d="M184 255l-63 166h73l61 -166l-133 -163h-74zM354 255l-63 166h74l60 -166l-133 -163h-73z" />
    <glyph glyph-name="onequarter" unicode="&#xbc;" horiz-adv-x="900" 
d="M668 103h-170l8 42l221 252h55l-52 -245h46l-10 -49h-46l-22 -103h-52zM715 322l-146 -170h108zM716 701h55l-578 -733h-55zM257 606q-18 -9 -41.5 -17.5t-44.5 -15.5l11 58q29 8 61 24t52 34h34l-84 -397h-55z" />
    <glyph glyph-name="onehalf" unicode="&#xbd;" horiz-adv-x="900" 
d="M533 48l148 122q39 32 64 63.5t25 64.5q0 26 -15.5 37.5t-37.5 11.5q-33 0 -52 -22.5t-24 -57.5h-55q9 61 45.5 95.5t88.5 34.5q44 0 75.5 -23t31.5 -74q0 -37 -20.5 -70t-52 -63.5t-69.5 -59t-72 -56.5h181l-14 -51h-252zM706 701h55l-578 -733h-55zM257 606
q-18 -9 -41.5 -17.5t-44.5 -15.5l11 58q29 8 61 24t52 34h34l-84 -397h-55z" />
    <glyph glyph-name="threequarters" unicode="&#xbe;" horiz-adv-x="900" 
d="M668 103h-170l8 42l221 252h55l-52 -245h56l-10 -49h-56l-22 -103h-52zM715 322l-146 -170h108zM726 701h55l-578 -733h-55zM175 521l128 110h-146l11 51h220l-9 -49l-115 -98q42 -3 64.5 -29.5t22.5 -65.5q0 -28 -9.5 -55.5t-28.5 -49.5t-47 -36t-65 -14q-35 0 -56 10.5
t-33 27t-16 36t-4 36.5l53 5q0 -13 2.5 -25t9 -21.5t18 -15t28.5 -5.5q22 0 39 9t28 24t17 33.5t6 37.5q0 23 -13 38.5t-43 15.5q-14 0 -33 -3.5t-36 -11.5z" />
    <glyph glyph-name="questiondown" unicode="&#xbf;" horiz-adv-x="520" 
d="M301 261q-6 -27 -13 -51t-19 -45.5t-31 -41.5t-50 -40q-30 -20 -51.5 -37.5t-35.5 -35.5t-20.5 -38.5t-6.5 -46.5q0 -36 23.5 -60.5t68.5 -24.5q59 0 91.5 36t40.5 93h68q-4 -33 -18 -66.5t-39.5 -61t-63.5 -45t-90 -17.5q-69 0 -111.5 38t-42.5 104q0 40 11 68.5t31 52
t48 43.5t62 43q28 18 48.5 43t30.5 78l7 38h67zM340 432q0 -21 -15 -35.5t-36 -14.5t-35.5 14.5t-14.5 35.5t14.5 36t35.5 15t36 -15t15 -36z" />
    <glyph glyph-name="Agrave" unicode="&#xc0;" horiz-adv-x="633" 
d="M403 594h-2l-202 -333h244zM386 680h73l96 -680h-80l-24 197h-292l-117 -197h-86zM277 869h95l79 -128h-56z" />
    <glyph glyph-name="Aacute" unicode="&#xc1;" horiz-adv-x="633" 
d="M403 594h-2l-202 -333h244zM386 680h73l96 -680h-80l-24 197h-292l-117 -197h-86zM508 869h96l-144 -128h-59z" />
    <glyph glyph-name="Acircumflex" unicode="&#xc2;" horiz-adv-x="633" 
d="M403 594h-2l-202 -333h244zM386 680h73l96 -680h-80l-24 197h-292l-117 -197h-86zM449 826l-77 -85h-75l117 128h81l63 -128h-68z" />
    <glyph glyph-name="Atilde" unicode="&#xc3;" horiz-adv-x="633" 
d="M403 594h-2l-202 -333h244zM386 680h73l96 -680h-80l-24 197h-292l-117 -197h-86zM280 748q12 45 38 72t69 27q20 0 37 -4.5t31 -10.5t30 -12.5t29 -6.5q23 0 34 13.5t15 27.5h45q-14 -48 -39.5 -73.5t-68.5 -25.5q-17 0 -32.5 4.5t-34.5 13.5q-15 8 -30.5 12.5
t-28.5 4.5q-23 0 -34.5 -14t-14.5 -28h-45z" />
    <glyph glyph-name="Adieresis" unicode="&#xc4;" horiz-adv-x="633" 
d="M403 594h-2l-202 -333h244zM386 680h73l96 -680h-80l-24 197h-292l-117 -197h-86zM289 797q0 20 14 34t34 14t34.5 -14t14.5 -34t-14.5 -34.5t-34.5 -14.5t-34 14.5t-14 34.5zM475 797q0 20 14 34t34 14t34.5 -14t14.5 -34t-14.5 -34.5t-34.5 -14.5t-34 14.5t-14 34.5z
" />
    <glyph glyph-name="Aring" unicode="&#xc5;" horiz-adv-x="633" 
d="M403 594h-2l-202 -333h244zM386 680h73l96 -680h-80l-24 197h-292l-117 -197h-86zM349 818q0 19 7.5 36t20 29.5t29 20t35.5 7.5t36 -7.5t29.5 -20t20 -29.5t7.5 -36t-7.5 -35.5t-20 -29t-29.5 -20t-36 -7.5q-38 0 -65 27t-27 65zM497 818q0 23 -16.5 39.5t-39.5 16.5
t-39.5 -16.5t-16.5 -39.5t16.5 -39.5t39.5 -16.5t39.5 16.5t16.5 39.5z" />
    <glyph glyph-name="AE" unicode="&#xc6;" horiz-adv-x="870" 
d="M899 680l-14 -64h-288l-50 -235h279l-13 -63h-279l-54 -254h288l-13 -64h-360l41 196h-241l-141 -196h-93l505 680h433zM239 261h211l75 355h-33z" />
    <glyph glyph-name="Ccedilla" unicode="&#xc7;" horiz-adv-x="723" 
d="M289 -79l56 67q-62 4 -112 27t-85.5 60.5t-54.5 88.5t-19 113q0 88 31.5 164t86.5 132t129 88t159 32q61 0 105 -12.5t74 -33.5t49 -47t32 -53l-63 -34q-21 54 -69 85.5t-130 31.5q-73 0 -132.5 -28.5t-102 -76.5t-65.5 -111t-23 -131q0 -50 13.5 -92t41 -73.5t69.5 -49
t99 -17.5q61 0 123.5 27t115.5 94l54 -39q-49 -62 -119.5 -102.5t-166.5 -43.5l-30 -39l1 -1q4 1 10.5 1h10.5q28 0 50 -15t22 -45q0 -29 -12.5 -48.5t-32 -31.5t-42.5 -17t-44 -5q-16 0 -34 2t-38 7l7 36q30 -6 59 -6q13 0 26.5 2.5t24.5 8.5t18.5 15.5t7.5 23.5
q0 20 -15.5 28t-35.5 8q-13 0 -24 -1.5t-17 -3.5z" />
    <glyph glyph-name="Egrave" unicode="&#xc8;" horiz-adv-x="542" 
d="M191 680h380l-14 -64h-308l-50 -235h299l-13 -63h-299l-54 -254h308l-13 -64h-380zM255 869h95l79 -128h-56z" />
    <glyph glyph-name="Eacute" unicode="&#xc9;" horiz-adv-x="542" 
d="M191 680h380l-14 -64h-308l-50 -235h299l-13 -63h-299l-54 -254h308l-13 -64h-380zM441 869h96l-144 -128h-59z" />
    <glyph glyph-name="Ecircumflex" unicode="&#xca;" horiz-adv-x="542" 
d="M191 680h380l-14 -64h-308l-50 -235h299l-13 -63h-299l-54 -254h308l-13 -64h-380zM410 826l-77 -85h-75l117 128h81l63 -128h-68z" />
    <glyph glyph-name="Edieresis" unicode="&#xcb;" horiz-adv-x="542" 
d="M191 680h380l-14 -64h-308l-50 -235h299l-13 -63h-299l-54 -254h308l-13 -64h-380zM265 797q0 20 14 34t34 14t34.5 -14t14.5 -34t-14.5 -34.5t-34.5 -14.5t-34 14.5t-14 34.5zM451 797q0 20 14 34t34 14t34.5 -14t14.5 -34t-14.5 -34.5t-34.5 -14.5t-34 14.5t-14 34.5z
" />
    <glyph glyph-name="Igrave" unicode="&#xcc;" horiz-adv-x="289" 
d="M204 680h73l-144 -680h-73zM103 869h95l79 -128h-56z" />
    <glyph glyph-name="Iacute" unicode="&#xcd;" horiz-adv-x="289" 
d="M204 680h73l-144 -680h-73zM330 869h96l-144 -128h-59z" />
    <glyph glyph-name="Icircumflex" unicode="&#xce;" horiz-adv-x="289" 
d="M204 680h73l-144 -680h-73zM266 826l-77 -85h-75l117 128h81l63 -128h-68z" />
    <glyph glyph-name="Idieresis" unicode="&#xcf;" horiz-adv-x="289" 
d="M204 680h73l-144 -680h-73zM106 797q0 20 14 34t34 14t34.5 -14t14.5 -34t-14.5 -34.5t-34.5 -14.5t-34 14.5t-14 34.5zM292 797q0 20 14 34t34 14t34.5 -14t14.5 -34t-14.5 -34.5t-34.5 -14.5t-34 14.5t-14 34.5z" />
    <glyph glyph-name="Eth" unicode="&#xd0;" horiz-adv-x="723" 
d="M62 392h76l61 288h185q98 0 159 -25.5t95.5 -66t46.5 -90t12 -97.5q0 -86 -29.5 -159t-84.5 -127t-133.5 -84.5t-177.5 -30.5h-217l72 334h-78zM211 392h159l-13 -58h-158l-58 -270h128q79 0 143.5 24t110.5 66.5t71.5 101.5t25.5 130q0 48 -12.5 89.5t-42.5 73
t-78.5 49.5t-120.5 18h-108z" />
    <glyph glyph-name="Ntilde" unicode="&#xd1;" horiz-adv-x="723" 
d="M191 680h75l262 -570l121 570h71l-144 -680h-75l-261 568h-2l-120 -568h-71zM322 748q12 45 38 72t69 27q20 0 37 -4.5t31 -10.5t30 -12.5t29 -6.5q23 0 34 13.5t15 27.5h45q-14 -48 -39.5 -73.5t-68.5 -25.5q-17 0 -32.5 4.5t-34.5 13.5q-15 8 -30.5 12.5t-28.5 4.5
q-23 0 -34.5 -14t-14.5 -28h-45z" />
    <glyph glyph-name="Ograve" unicode="&#xd2;" horiz-adv-x="805" 
d="M374 -13q-66 0 -121.5 20.5t-95.5 58t-62 91t-22 118.5q0 87 30.5 163.5t83.5 133t125 89t155 32.5q66 0 121.5 -20.5t95 -58t62 -90t22.5 -117.5q0 -87 -29.5 -163.5t-82 -133.5t-125 -90t-157.5 -33zM691 400q0 48 -15 90t-43.5 73t-71 49t-96.5 18q-71 0 -129.5 -29.5
t-99.5 -78.5t-63.5 -111.5t-22.5 -129.5q0 -48 15 -90.5t43.5 -73.5t71 -49t97.5 -18q70 0 128 29t99 77.5t64 112t23 131.5zM368 869h95l79 -128h-56z" />
    <glyph glyph-name="Oacute" unicode="&#xd3;" horiz-adv-x="805" 
d="M374 -13q-66 0 -121.5 20.5t-95.5 58t-62 91t-22 118.5q0 87 30.5 163.5t83.5 133t125 89t155 32.5q66 0 121.5 -20.5t95 -58t62 -90t22.5 -117.5q0 -87 -29.5 -163.5t-82 -133.5t-125 -90t-157.5 -33zM691 400q0 48 -15 90t-43.5 73t-71 49t-96.5 18q-71 0 -129.5 -29.5
t-99.5 -78.5t-63.5 -111.5t-22.5 -129.5q0 -48 15 -90.5t43.5 -73.5t71 -49t97.5 -18q70 0 128 29t99 77.5t64 112t23 131.5zM547 869h96l-144 -128h-59z" />
    <glyph glyph-name="Ocircumflex" unicode="&#xd4;" horiz-adv-x="805" 
d="M374 -13q-66 0 -121.5 20.5t-95.5 58t-62 91t-22 118.5q0 87 30.5 163.5t83.5 133t125 89t155 32.5q66 0 121.5 -20.5t95 -58t62 -90t22.5 -117.5q0 -87 -29.5 -163.5t-82 -133.5t-125 -90t-157.5 -33zM691 400q0 48 -15 90t-43.5 73t-71 49t-96.5 18q-71 0 -129.5 -29.5
t-99.5 -78.5t-63.5 -111.5t-22.5 -129.5q0 -48 15 -90.5t43.5 -73.5t71 -49t97.5 -18q70 0 128 29t99 77.5t64 112t23 131.5zM521 826l-77 -85h-75l117 128h81l63 -128h-68z" />
    <glyph glyph-name="Otilde" unicode="&#xd5;" horiz-adv-x="805" 
d="M374 -13q-66 0 -121.5 20.5t-95.5 58t-62 91t-22 118.5q0 87 30.5 163.5t83.5 133t125 89t155 32.5q66 0 121.5 -20.5t95 -58t62 -90t22.5 -117.5q0 -87 -29.5 -163.5t-82 -133.5t-125 -90t-157.5 -33zM691 400q0 48 -15 90t-43.5 73t-71 49t-96.5 18q-71 0 -129.5 -29.5
t-99.5 -78.5t-63.5 -111.5t-22.5 -129.5q0 -48 15 -90.5t43.5 -73.5t71 -49t97.5 -18q70 0 128 29t99 77.5t64 112t23 131.5zM349 748q12 45 38 72t69 27q20 0 37 -4.5t31 -10.5t30 -12.5t29 -6.5q23 0 34 13.5t15 27.5h45q-14 -48 -39.5 -73.5t-68.5 -25.5q-17 0 -32.5 4.5
t-34.5 13.5q-15 8 -30.5 12.5t-28.5 4.5q-23 0 -34.5 -14t-14.5 -28h-45z" />
    <glyph glyph-name="Odieresis" unicode="&#xd6;" horiz-adv-x="805" 
d="M374 -13q-66 0 -121.5 20.5t-95.5 58t-62 91t-22 118.5q0 87 30.5 163.5t83.5 133t125 89t155 32.5q66 0 121.5 -20.5t95 -58t62 -90t22.5 -117.5q0 -87 -29.5 -163.5t-82 -133.5t-125 -90t-157.5 -33zM691 400q0 48 -15 90t-43.5 73t-71 49t-96.5 18q-71 0 -129.5 -29.5
t-99.5 -78.5t-63.5 -111.5t-22.5 -129.5q0 -48 15 -90.5t43.5 -73.5t71 -49t97.5 -18q70 0 128 29t99 77.5t64 112t23 131.5zM359 797q0 20 14 34t34 14t34.5 -14t14.5 -34t-14.5 -34.5t-34.5 -14.5t-34 14.5t-14 34.5zM545 797q0 20 14 34t34 14t34.5 -14t14.5 -34
t-14.5 -34.5t-34.5 -14.5t-34 14.5t-14 34.5z" />
    <glyph glyph-name="multiply" unicode="&#xd7;" 
d="M255 287l134 135l41 -42l-134 -133l135 -136l-42 -43l-134 135l-135 -135l-42 42l136 135l-135 135l41 42z" />
    <glyph glyph-name="Oslash" unicode="&#xd8;" horiz-adv-x="805" 
d="M132 92q-29 36 -44 82t-15 101q0 87 30.5 163.5t83.5 132.5t125 88.5t155 32.5q60 0 110.5 -16.5t89.5 -47.5l77 78l42 -41l-78 -78q29 -35 44.5 -80.5t15.5 -99.5q0 -87 -29.5 -163.5t-82 -133.5t-125 -90t-157.5 -33q-121 0 -201 65l-84 -84l-40 41zM691 400
q0 76 -37 133l-431 -431q29 -25 67 -38.5t87 -13.5q70 0 128 29t99 77.5t64 112t23 131.5zM150 281q0 -78 36 -135l430 432q-28 24 -65.5 37.5t-85.5 13.5q-71 0 -129.5 -29.5t-99.5 -78t-63.5 -111t-22.5 -129.5z" />
    <glyph glyph-name="Ugrave" unicode="&#xd9;" horiz-adv-x="687" 
d="M185 680h73l-95 -445q-3 -14 -4.5 -30t-1.5 -28q0 -37 11.5 -61t31.5 -38.5t47 -20.5t57 -6q49 0 85.5 11t63.5 35t45.5 61.5t29.5 90.5l92 431h73l-92 -432q-28 -132 -98.5 -196.5t-198.5 -64.5q-108 0 -165.5 43t-57.5 131q0 14 1.5 29.5t4.5 30.5zM295 869h95l79 -128
h-56z" />
    <glyph glyph-name="Uacute" unicode="&#xda;" horiz-adv-x="687" 
d="M185 680h73l-95 -445q-3 -14 -4.5 -30t-1.5 -28q0 -37 11.5 -61t31.5 -38.5t47 -20.5t57 -6q49 0 85.5 11t63.5 35t45.5 61.5t29.5 90.5l92 431h73l-92 -432q-28 -132 -98.5 -196.5t-198.5 -64.5q-108 0 -165.5 43t-57.5 131q0 14 1.5 29.5t4.5 30.5zM515 869h96
l-144 -128h-59z" />
    <glyph glyph-name="Ucircumflex" unicode="&#xdb;" horiz-adv-x="687" 
d="M185 680h73l-95 -445q-3 -14 -4.5 -30t-1.5 -28q0 -37 11.5 -61t31.5 -38.5t47 -20.5t57 -6q49 0 85.5 11t63.5 35t45.5 61.5t29.5 90.5l92 431h73l-92 -432q-28 -132 -98.5 -196.5t-198.5 -64.5q-108 0 -165.5 43t-57.5 131q0 14 1.5 29.5t4.5 30.5zM473 826l-77 -85
h-75l117 128h81l63 -128h-68z" />
    <glyph glyph-name="Udieresis" unicode="&#xdc;" horiz-adv-x="687" 
d="M185 680h73l-95 -445q-3 -14 -4.5 -30t-1.5 -28q0 -37 11.5 -61t31.5 -38.5t47 -20.5t57 -6q49 0 85.5 11t63.5 35t45.5 61.5t29.5 90.5l92 431h73l-92 -432q-28 -132 -98.5 -196.5t-198.5 -64.5q-108 0 -165.5 43t-57.5 131q0 14 1.5 29.5t4.5 30.5zM323 797q0 20 14 34
t34 14t34.5 -14t14.5 -34t-14.5 -34.5t-34.5 -14.5t-34 14.5t-14 34.5zM509 797q0 20 14 34t34 14t34.5 -14t14.5 -34t-14.5 -34.5t-34.5 -14.5t-34 14.5t-14 34.5z" />
    <glyph glyph-name="Yacute" unicode="&#xdd;" horiz-adv-x="570" 
d="M262 280l-152 400h87l112 -340l253 340h87l-318 -400l-59 -280h-69zM468 869h96l-144 -128h-59z" />
    <glyph glyph-name="Thorn" unicode="&#xde;" horiz-adv-x="552" 
d="M194 680h73l-28 -130h77q45 0 84.5 -9.5t69.5 -30t47 -52t17 -75.5q0 -65 -24 -112.5t-64.5 -78t-94 -45t-112.5 -14.5h-88l-28 -133h-76zM242 198q37 0 75.5 7.5t69.5 27t50.5 53.5t19.5 86q0 35 -14 57.5t-36.5 35t-52 17t-59.5 4.5h-69l-61 -288h77z" />
    <glyph glyph-name="germandbls" unicode="&#xdf;" horiz-adv-x="572" 
d="M202 63q13 -3 29 -5t33 -2q24 0 53.5 6.5t55 24t43 48.5t17.5 79q0 62 -35.5 92t-91.5 30h-25l14 63h31q27 0 54 10t48.5 29.5t34.5 47.5t13 63q0 42 -26 70.5t-76 28.5q-39 0 -68 -16.5t-49 -42t-32.5 -56.5t-18.5 -61l-100 -472h-70l100 475q9 42 26.5 83.5t46 74
t70.5 53t100 20.5q76 0 121.5 -39t45.5 -111q0 -40 -13 -72t-34.5 -56t-49.5 -39.5t-58 -21.5v-2q21 -4 42 -14.5t38 -28.5t27.5 -43.5t10.5 -59.5q0 -51 -19 -92t-52 -70.5t-78 -45.5t-97 -16q-16 0 -36 1.5t-37 5.5z" />
    <glyph glyph-name="agrave" unicode="&#xe0;" horiz-adv-x="552" 
d="M355 62h-2q-35 -44 -80 -59.5t-85 -15.5q-75 0 -114.5 33t-39.5 91q0 48 22.5 79t58.5 49.5t81 26.5t91 10l116 5l8 38q2 8 3 16.5t1 16.5q0 32 -22.5 52.5t-81.5 20.5q-67 0 -99 -21t-45 -63h-70q23 78 82.5 110t139.5 32t123 -30t43 -87q0 -20 -4 -39l-50 -233
q-5 -22 -6.5 -46.5t-1.5 -47.5h-68v62zM392 227l-89 -3q-40 -2 -75 -7t-61.5 -16.5t-42 -31t-15.5 -50.5q0 -40 24.5 -58.5t69.5 -18.5q25 0 53 7t53 22t44 37.5t25 53.5zM204 699h95l79 -128h-56z" />
    <glyph glyph-name="aacute" unicode="&#xe1;" horiz-adv-x="552" 
d="M355 62h-2q-35 -44 -80 -59.5t-85 -15.5q-75 0 -114.5 33t-39.5 91q0 48 22.5 79t58.5 49.5t81 26.5t91 10l116 5l8 38q2 8 3 16.5t1 16.5q0 32 -22.5 52.5t-81.5 20.5q-67 0 -99 -21t-45 -63h-70q23 78 82.5 110t139.5 32t123 -30t43 -87q0 -20 -4 -39l-50 -233
q-5 -22 -6.5 -46.5t-1.5 -47.5h-68v62zM392 227l-89 -3q-40 -2 -75 -7t-61.5 -16.5t-42 -31t-15.5 -50.5q0 -40 24.5 -58.5t69.5 -18.5q25 0 53 7t53 22t44 37.5t25 53.5zM415 699h96l-145 -128h-59z" />
    <glyph glyph-name="acircumflex" unicode="&#xe2;" horiz-adv-x="552" 
d="M355 62h-2q-35 -44 -80 -59.5t-85 -15.5q-75 0 -114.5 33t-39.5 91q0 48 22.5 79t58.5 49.5t81 26.5t91 10l116 5l8 38q2 8 3 16.5t1 16.5q0 32 -22.5 52.5t-81.5 20.5q-67 0 -99 -21t-45 -63h-70q23 78 82.5 110t139.5 32t123 -30t43 -87q0 -20 -4 -39l-50 -233
q-5 -22 -6.5 -46.5t-1.5 -47.5h-68v62zM392 227l-89 -3q-40 -2 -75 -7t-61.5 -16.5t-42 -31t-15.5 -50.5q0 -40 24.5 -58.5t69.5 -18.5q25 0 53 7t53 22t44 37.5t25 53.5zM377 656l-78 -85h-75l118 128h81l62 -128h-68z" />
    <glyph glyph-name="atilde" unicode="&#xe3;" horiz-adv-x="552" 
d="M355 62h-2q-35 -44 -80 -59.5t-85 -15.5q-75 0 -114.5 33t-39.5 91q0 48 22.5 79t58.5 49.5t81 26.5t91 10l116 5l8 38q2 8 3 16.5t1 16.5q0 32 -22.5 52.5t-81.5 20.5q-67 0 -99 -21t-45 -63h-70q23 78 82.5 110t139.5 32t123 -30t43 -87q0 -20 -4 -39l-50 -233
q-5 -22 -6.5 -46.5t-1.5 -47.5h-68v62zM392 227l-89 -3q-40 -2 -75 -7t-61.5 -16.5t-42 -31t-15.5 -50.5q0 -40 24.5 -58.5t69.5 -18.5q25 0 53 7t53 22t44 37.5t25 53.5zM202 578q12 45 38 72t69 27q20 0 37 -4.5t31 -10.5t30 -12.5t29 -6.5q23 0 34 13.5t15 27.5h45
q-14 -48 -39.5 -73.5t-68.5 -25.5q-17 0 -32.5 4.5t-34.5 13.5q-15 8 -30.5 12.5t-28.5 4.5q-23 0 -34.5 -14t-14.5 -28h-45z" />
    <glyph glyph-name="adieresis" unicode="&#xe4;" horiz-adv-x="552" 
d="M355 62h-2q-35 -44 -80 -59.5t-85 -15.5q-75 0 -114.5 33t-39.5 91q0 48 22.5 79t58.5 49.5t81 26.5t91 10l116 5l8 38q2 8 3 16.5t1 16.5q0 32 -22.5 52.5t-81.5 20.5q-67 0 -99 -21t-45 -63h-70q23 78 82.5 110t139.5 32t123 -30t43 -87q0 -20 -4 -39l-50 -233
q-5 -22 -6.5 -46.5t-1.5 -47.5h-68v62zM392 227l-89 -3q-40 -2 -75 -7t-61.5 -16.5t-42 -31t-15.5 -50.5q0 -40 24.5 -58.5t69.5 -18.5q25 0 53 7t53 22t44 37.5t25 53.5zM225 627q0 20 14 34t34 14t34.5 -14t14.5 -34t-14.5 -34.5t-34.5 -14.5t-34 14.5t-14 34.5zM411 627
q0 20 14 34t34 14t34.5 -14t14.5 -34t-14.5 -34.5t-34.5 -14.5t-34 14.5t-14 34.5z" />
    <glyph glyph-name="aring" unicode="&#xe5;" horiz-adv-x="552" 
d="M355 62h-2q-35 -44 -80 -59.5t-85 -15.5q-75 0 -114.5 33t-39.5 91q0 48 22.5 79t58.5 49.5t81 26.5t91 10l116 5l8 38q2 8 3 16.5t1 16.5q0 32 -22.5 52.5t-81.5 20.5q-67 0 -99 -21t-45 -63h-70q23 78 82.5 110t139.5 32t123 -30t43 -87q0 -20 -4 -39l-50 -233
q-5 -22 -6.5 -46.5t-1.5 -47.5h-68v62zM392 227l-89 -3q-40 -2 -75 -7t-61.5 -16.5t-42 -31t-15.5 -50.5q0 -40 24.5 -58.5t69.5 -18.5q25 0 53 7t53 22t44 37.5t25 53.5zM279 648q0 19 7.5 36t20 29.5t29 20t35.5 7.5t36 -7.5t29.5 -20t20 -29.5t7.5 -36t-7.5 -35.5
t-20 -29t-29.5 -20t-36 -7.5q-38 0 -65 27t-27 65zM427 648q0 23 -16.5 39.5t-39.5 16.5t-39.5 -16.5t-16.5 -39.5t16.5 -39.5t39.5 -16.5t39.5 16.5t16.5 39.5z" />
    <glyph glyph-name="ae" unicode="&#xe6;" horiz-adv-x="870" 
d="M435 220q-2 -9 -2 -15.5v-11.5q0 -71 37.5 -109.5t106.5 -38.5q30 0 52.5 6t40.5 17t32 26t26 33l54 -34q-20 -26 -41.5 -45.5t-46.5 -33t-55.5 -20.5t-68.5 -7q-66 0 -110.5 27t-69.5 84q-17 -26 -36 -46.5t-43 -35t-54 -22t-69 -7.5q-75 0 -114.5 33t-39.5 91
q0 48 19 78.5t51.5 48t74.5 25t88 9.5l114 4q1 4 3.5 13.5t5 21.5t4 23t1.5 18q0 32 -22.5 52.5t-81.5 20.5t-86.5 -24.5t-37.5 -59.5h-70q11 39 31.5 66t47.5 44t58.5 24.5t64.5 7.5q124 0 153 -74q35 35 75.5 54.5t97.5 19.5q91 0 139 -48.5t48 -134.5q0 -13 -1.5 -35
t-6.5 -45h-369zM372 223l-89 -3q-40 -2 -72 -6t-54.5 -14.5t-35 -29.5t-12.5 -51q0 -40 24.5 -58.5t69.5 -18.5q25 0 49.5 7t46 22t37 37.5t22.5 53.5zM739 276q2 9 2.5 17.5t0.5 14.5q0 49 -31 83t-93 34q-35 0 -64 -11.5t-50.5 -31.5t-36 -47.5t-21.5 -58.5h293z" />
    <glyph glyph-name="ccedilla" unicode="&#xe7;" horiz-adv-x="550" 
d="M166 -79l58 69q-83 12 -127.5 66.5t-44.5 136.5q0 60 21.5 113t59 92.5t89 62t112.5 22.5q30 0 58.5 -5.5t52.5 -18t42.5 -34t29.5 -53.5l-63 -25q-6 21 -18.5 35.5t-29 24t-35.5 13.5t-38 4q-47 0 -85.5 -18.5t-66 -49.5t-42.5 -71.5t-15 -84.5q0 -32 9.5 -60t28 -49
t46 -33t63.5 -12q39 0 78 15t68 58l56 -29q-38 -54 -90.5 -78.5t-115.5 -24.5h-5l-30 -39l1 -1q4 1 10.5 1h10.5q28 0 50 -15t22 -45q0 -29 -12.5 -48.5t-32 -31.5t-42.5 -17t-44 -5q-16 0 -34 2t-38 7l7 36q30 -6 59 -6q13 0 26.5 2.5t24.5 8.5t18.5 15.5t7.5 23.5
q0 20 -15.5 28t-35.5 8q-13 0 -24 -1.5t-17 -3.5z" />
    <glyph glyph-name="egrave" unicode="&#xe8;" horiz-adv-x="580" 
d="M125 220q-2 -9 -2 -15.5v-11.5q0 -71 42.5 -109.5t111.5 -38.5q60 0 98 23t63 59l54 -34q-41 -51 -93 -78.5t-129 -27.5q-46 0 -86 13t-69 39t-46 65t-17 91q0 60 20 112.5t56.5 91.5t86.5 61.5t110 22.5q91 0 144 -48.5t53 -134.5q0 -13 -1.5 -35t-6.5 -45h-389z
M449 276q2 9 2.5 17.5t0.5 14.5q0 49 -36 83t-98 34q-35 0 -65.5 -12.5t-54 -33t-39.5 -47.5t-23 -56h313zM201 699h95l79 -128h-56z" />
    <glyph glyph-name="eacute" unicode="&#xe9;" horiz-adv-x="580" 
d="M125 220q-2 -9 -2 -15.5v-11.5q0 -71 42.5 -109.5t111.5 -38.5q60 0 98 23t63 59l54 -34q-41 -51 -93 -78.5t-129 -27.5q-46 0 -86 13t-69 39t-46 65t-17 91q0 60 20 112.5t56.5 91.5t86.5 61.5t110 22.5q91 0 144 -48.5t53 -134.5q0 -13 -1.5 -35t-6.5 -45h-389z
M449 276q2 9 2.5 17.5t0.5 14.5q0 49 -36 83t-98 34q-35 0 -65.5 -12.5t-54 -33t-39.5 -47.5t-23 -56h313zM417 699h96l-145 -128h-59z" />
    <glyph glyph-name="ecircumflex" unicode="&#xea;" horiz-adv-x="580" 
d="M125 220q-2 -9 -2 -15.5v-11.5q0 -71 42.5 -109.5t111.5 -38.5q60 0 98 23t63 59l54 -34q-41 -51 -93 -78.5t-129 -27.5q-46 0 -86 13t-69 39t-46 65t-17 91q0 60 20 112.5t56.5 91.5t86.5 61.5t110 22.5q91 0 144 -48.5t53 -134.5q0 -13 -1.5 -35t-6.5 -45h-389z
M449 276q2 9 2.5 17.5t0.5 14.5q0 49 -36 83t-98 34q-35 0 -65.5 -12.5t-54 -33t-39.5 -47.5t-23 -56h313zM356 656l-78 -85h-75l118 128h81l62 -128h-68z" />
    <glyph glyph-name="edieresis" unicode="&#xeb;" horiz-adv-x="580" 
d="M125 220q-2 -9 -2 -15.5v-11.5q0 -71 42.5 -109.5t111.5 -38.5q60 0 98 23t63 59l54 -34q-41 -51 -93 -78.5t-129 -27.5q-46 0 -86 13t-69 39t-46 65t-17 91q0 60 20 112.5t56.5 91.5t86.5 61.5t110 22.5q91 0 144 -48.5t53 -134.5q0 -13 -1.5 -35t-6.5 -45h-389z
M449 276q2 9 2.5 17.5t0.5 14.5q0 49 -36 83t-98 34q-35 0 -65.5 -12.5t-54 -33t-39.5 -47.5t-23 -56h313zM219 627q0 20 14 34t34 14t34.5 -14t14.5 -34t-14.5 -34.5t-34.5 -14.5t-34 14.5t-14 34.5zM405 627q0 20 14 34t34 14t34.5 -14t14.5 -34t-14.5 -34.5t-34.5 -14.5
t-34 14.5t-14 34.5z" />
    <glyph glyph-name="igrave" unicode="&#xec;" horiz-adv-x="261" 
d="M145 470h71l-99 -470h-71zM52 699h95l79 -128h-56z" />
    <glyph glyph-name="iacute" unicode="&#xed;" horiz-adv-x="261" 
d="M145 470h71l-99 -470h-71zM264 699h96l-145 -128h-59z" />
    <glyph glyph-name="icircumflex" unicode="&#xee;" horiz-adv-x="261" 
d="M145 470h71l-99 -470h-71zM223 656l-78 -85h-75l118 128h81l62 -128h-68z" />
    <glyph glyph-name="idieresis" unicode="&#xef;" horiz-adv-x="261" 
d="M145 470h71l-99 -470h-71zM86 627q0 20 14 34t34 14t34.5 -14t14.5 -34t-14.5 -34.5t-34.5 -14.5t-34 14.5t-14 34.5zM242 627q0 20 14 34t34 14t34.5 -14t14.5 -34t-14.5 -34.5t-34.5 -14.5t-34 14.5t-14 34.5z" />
    <glyph glyph-name="eth" unicode="&#xf0;" horiz-adv-x="612" 
d="M462 235q6 28 6 53q0 60 -35 100t-98 40q-45 0 -84 -19t-68 -51t-45.5 -74.5t-16.5 -89.5q0 -30 9 -57t26 -47t42.5 -32t57.5 -12q38 0 72 14.5t61 39.5t46 59.5t27 75.5zM243 576l118 57q-20 18 -43.5 33t-50.5 28l55 38q29 -14 53 -31.5t45 -37.5l120 60l29 -35
l-120 -58q48 -51 73 -115.5t25 -143.5q0 -69 -15.5 -137.5t-51 -123t-92.5 -89t-139 -34.5q-53 0 -90.5 16t-61.5 43t-35 62t-11 73q0 57 19.5 111t56.5 96.5t90.5 68.5t121.5 26q45 0 84 -19t59 -55h2q-9 66 -33.5 110.5t-58.5 82.5l-120 -58z" />
    <glyph glyph-name="ntilde" unicode="&#xf1;" horiz-adv-x="572" 
d="M197 578q12 45 38 72t69 27q20 0 37 -4.5t31 -10.5t30 -12.5t29 -6.5q23 0 34 13.5t15 27.5h45q-14 -48 -39.5 -73.5t-68.5 -25.5q-17 0 -32.5 4.5t-34.5 13.5q-15 8 -30.5 12.5t-28.5 4.5q-23 0 -34.5 -14t-14.5 -28h-45zM192 387q33 45 77.5 66.5t95.5 21.5
q21 0 46.5 -6t47.5 -20t37 -39t15 -62q0 -17 -5 -42l-65 -306h-71l60 283q2 11 4 23.5t2 21.5q0 25 -8 42t-21.5 27t-31.5 14.5t-38 4.5q-26 0 -53.5 -10t-51.5 -30t-42 -49t-26 -67l-55 -260h-71l99 470h71l-17 -83h1z" />
    <glyph glyph-name="ograve" unicode="&#xf2;" horiz-adv-x="613" 
d="M479 271q0 32 -10 60t-29.5 48.5t-48 32.5t-65.5 12q-44 0 -81 -18t-64 -48.5t-42 -71.5t-15 -86q0 -32 9.5 -60t28.5 -49t48 -33t68 -12q43 0 80 18t64 49t42 72t15 86zM273 -13q-50 0 -91 15t-70 42.5t-44.5 65t-15.5 82.5q0 58 20 111t56.5 93t88.5 63.5t115 23.5
q48 0 88.5 -14.5t69.5 -41.5t45 -64.5t16 -82.5q0 -60 -20 -113t-56 -93t-87.5 -63.5t-114.5 -23.5zM208 699h95l79 -128h-56z" />
    <glyph glyph-name="oacute" unicode="&#xf3;" horiz-adv-x="613" 
d="M479 271q0 32 -10 60t-29.5 48.5t-48 32.5t-65.5 12q-44 0 -81 -18t-64 -48.5t-42 -71.5t-15 -86q0 -32 9.5 -60t28.5 -49t48 -33t68 -12q43 0 80 18t64 49t42 72t15 86zM273 -13q-50 0 -91 15t-70 42.5t-44.5 65t-15.5 82.5q0 58 20 111t56.5 93t88.5 63.5t115 23.5
q48 0 88.5 -14.5t69.5 -41.5t45 -64.5t16 -82.5q0 -60 -20 -113t-56 -93t-87.5 -63.5t-114.5 -23.5zM418 699h96l-145 -128h-59z" />
    <glyph glyph-name="ocircumflex" unicode="&#xf4;" horiz-adv-x="613" 
d="M479 271q0 32 -10 60t-29.5 48.5t-48 32.5t-65.5 12q-44 0 -81 -18t-64 -48.5t-42 -71.5t-15 -86q0 -32 9.5 -60t28.5 -49t48 -33t68 -12q43 0 80 18t64 49t42 72t15 86zM273 -13q-50 0 -91 15t-70 42.5t-44.5 65t-15.5 82.5q0 58 20 111t56.5 93t88.5 63.5t115 23.5
q48 0 88.5 -14.5t69.5 -41.5t45 -64.5t16 -82.5q0 -60 -20 -113t-56 -93t-87.5 -63.5t-114.5 -23.5zM380 656l-78 -85h-75l118 128h81l62 -128h-68z" />
    <glyph glyph-name="otilde" unicode="&#xf5;" horiz-adv-x="613" 
d="M479 271q0 32 -10 60t-29.5 48.5t-48 32.5t-65.5 12q-44 0 -81 -18t-64 -48.5t-42 -71.5t-15 -86q0 -32 9.5 -60t28.5 -49t48 -33t68 -12q43 0 80 18t64 49t42 72t15 86zM273 -13q-50 0 -91 15t-70 42.5t-44.5 65t-15.5 82.5q0 58 20 111t56.5 93t88.5 63.5t115 23.5
q48 0 88.5 -14.5t69.5 -41.5t45 -64.5t16 -82.5q0 -60 -20 -113t-56 -93t-87.5 -63.5t-114.5 -23.5zM197 578q12 45 38 72t69 27q20 0 37 -4.5t31 -10.5t30 -12.5t29 -6.5q23 0 34 13.5t15 27.5h45q-14 -48 -39.5 -73.5t-68.5 -25.5q-17 0 -32.5 4.5t-34.5 13.5
q-15 8 -30.5 12.5t-28.5 4.5q-23 0 -34.5 -14t-14.5 -28h-45z" />
    <glyph glyph-name="odieresis" unicode="&#xf6;" horiz-adv-x="613" 
d="M479 271q0 32 -10 60t-29.5 48.5t-48 32.5t-65.5 12q-44 0 -81 -18t-64 -48.5t-42 -71.5t-15 -86q0 -32 9.5 -60t28.5 -49t48 -33t68 -12q43 0 80 18t64 49t42 72t15 86zM273 -13q-50 0 -91 15t-70 42.5t-44.5 65t-15.5 82.5q0 58 20 111t56.5 93t88.5 63.5t115 23.5
q48 0 88.5 -14.5t69.5 -41.5t45 -64.5t16 -82.5q0 -60 -20 -113t-56 -93t-87.5 -63.5t-114.5 -23.5zM227 627q0 20 14 34t34 14t34.5 -14t14.5 -34t-14.5 -34.5t-34.5 -14.5t-34 14.5t-14 34.5zM413 627q0 20 14 34t34 14t34.5 -14t14.5 -34t-14.5 -34.5t-34.5 -14.5
t-34 14.5t-14 34.5z" />
    <glyph glyph-name="divide" unicode="&#xf7;" 
d="M206 382q0 20 14 34t35 14t34.5 -14t13.5 -34t-13.5 -35t-34.5 -15t-35 15t-14 35zM206 110q0 20 14 34.5t35 14.5t34.5 -14.5t13.5 -34.5t-13.5 -34.5t-34.5 -14.5t-35 14.5t-14 34.5zM49 216v59h412v-59h-412z" />
    <glyph glyph-name="oslash" unicode="&#xf8;" horiz-adv-x="613" 
d="M98 59q-46 54 -46 133q0 58 20 111t56.5 93t88.5 63.5t115 23.5q41 0 76 -10.5t63 -30.5l52 54l35 -31l-53 -54q22 -26 34 -59t12 -72q0 -60 -20 -113t-56 -93t-87.5 -63.5t-114.5 -23.5q-42 0 -77.5 10.5t-63.5 30.5l-56 -58l-35 31zM124 200q0 -52 23 -90l276 283
q-19 14 -43 22.5t-54 8.5q-44 0 -81 -18t-64 -48.5t-42 -71.5t-15 -86zM479 271q0 25 -6.5 47t-17.5 41l-276 -284q18 -14 42.5 -21.5t56.5 -7.5q43 0 80 18t64 49t42 72t15 86z" />
    <glyph glyph-name="ugrave" unicode="&#xf9;" horiz-adv-x="572" 
d="M382 82q-33 -45 -77.5 -66.5t-95.5 -21.5q-21 0 -46.5 6t-47.5 20t-37 38.5t-15 62.5q0 17 5 42l65 307h71l-60 -284q-2 -11 -4 -23.5t-2 -21.5q0 -50 29 -69t70 -19q26 0 53 10t51 30t42.5 49t26.5 67l55 261h71l-99 -470h-71l17 82h-1zM200 699h95l79 -128h-56z" />
    <glyph glyph-name="uacute" unicode="&#xfa;" horiz-adv-x="572" 
d="M382 82q-33 -45 -77.5 -66.5t-95.5 -21.5q-21 0 -46.5 6t-47.5 20t-37 38.5t-15 62.5q0 17 5 42l65 307h71l-60 -284q-2 -11 -4 -23.5t-2 -21.5q0 -50 29 -69t70 -19q26 0 53 10t51 30t42.5 49t26.5 67l55 261h71l-99 -470h-71l17 82h-1zM411 699h96l-145 -128h-59z" />
    <glyph glyph-name="ucircumflex" unicode="&#xfb;" horiz-adv-x="572" 
d="M382 82q-33 -45 -77.5 -66.5t-95.5 -21.5q-21 0 -46.5 6t-47.5 20t-37 38.5t-15 62.5q0 17 5 42l65 307h71l-60 -284q-2 -11 -4 -23.5t-2 -21.5q0 -50 29 -69t70 -19q26 0 53 10t51 30t42.5 49t26.5 67l55 261h71l-99 -470h-71l17 82h-1zM378 656l-78 -85h-75l118 128h81
l62 -128h-68z" />
    <glyph glyph-name="udieresis" unicode="&#xfc;" horiz-adv-x="572" 
d="M382 82q-33 -45 -77.5 -66.5t-95.5 -21.5q-21 0 -46.5 6t-47.5 20t-37 38.5t-15 62.5q0 17 5 42l65 307h71l-60 -284q-2 -11 -4 -23.5t-2 -21.5q0 -50 29 -69t70 -19q26 0 53 10t51 30t42.5 49t26.5 67l55 261h71l-99 -470h-71l17 82h-1zM223 627q0 20 14 34t34 14
t34.5 -14t14.5 -34t-14.5 -34.5t-34.5 -14.5t-34 14.5t-14 34.5zM409 627q0 20 14 34t34 14t34.5 -14t14.5 -34t-14.5 -34.5t-34.5 -14.5t-34 14.5t-14 34.5z" />
    <glyph glyph-name="yacute" unicode="&#xfd;" horiz-adv-x="507" 
d="M172 10l-95 460h81l63 -390h2l229 390h78l-419 -670h-80zM396 699h96l-145 -128h-59z" />
    <glyph glyph-name="thorn" unicode="&#xfe;" horiz-adv-x="616" 
d="M187 706h70l-67 -316h1q9 15 24.5 31t37 30t49 23t62.5 9q96 0 144.5 -55.5t48.5 -150.5q0 -59 -18.5 -111.5t-53 -92t-83.5 -63t-109 -23.5q-40 0 -69 11t-49 26.5t-32 33t-17 30.5l-62 -288h-70zM483 270q0 33 -7.5 61t-24 48.5t-42 32t-60.5 11.5q-39 0 -74 -18
t-61 -49.5t-41 -74.5t-15 -94q0 -60 35 -99t100 -39q40 0 75 16t60.5 45t40 69.5t14.5 90.5z" />
    <glyph glyph-name="ydieresis" unicode="&#xff;" horiz-adv-x="507" 
d="M172 10l-95 460h81l63 -390h2l229 390h78l-419 -670h-80zM185 627q0 20 14 34t34 14t34.5 -14t14.5 -34t-14.5 -34.5t-34.5 -14.5t-34 14.5t-14 34.5zM371 627q0 20 14 34t34 14t34.5 -14t14.5 -34t-14.5 -34.5t-34.5 -14.5t-34 14.5t-14 34.5z" />
    <glyph glyph-name="Amacron" unicode="&#x100;" horiz-adv-x="633" 
d="M403 594h-2l-202 -333h244zM386 680h73l96 -680h-80l-24 197h-292l-117 -197h-86zM327 825h246l-11 -52h-246z" />
    <glyph glyph-name="amacron" unicode="&#x101;" horiz-adv-x="552" 
d="M355 62h-2q-35 -44 -80 -59.5t-85 -15.5q-75 0 -114.5 33t-39.5 91q0 48 22.5 79t58.5 49.5t81 26.5t91 10l116 5l8 38q2 8 3 16.5t1 16.5q0 32 -22.5 52.5t-81.5 20.5q-67 0 -99 -21t-45 -63h-70q23 78 82.5 110t139.5 32t123 -30t43 -87q0 -20 -4 -39l-50 -233
q-5 -22 -6.5 -46.5t-1.5 -47.5h-68v62zM392 227l-89 -3q-40 -2 -75 -7t-61.5 -16.5t-42 -31t-15.5 -50.5q0 -40 24.5 -58.5t69.5 -18.5q25 0 53 7t53 22t44 37.5t25 53.5zM259 655h246l-11 -52h-246z" />
    <glyph glyph-name="Abreve" unicode="&#x102;" horiz-adv-x="633" 
d="M403 594h-2l-202 -333h244zM386 680h73l96 -680h-80l-24 197h-292l-117 -197h-86zM350 869v-9q0 -25 21 -43.5t62 -18.5q45 0 75 18t38 53h43q-11 -56 -50.5 -89t-108.5 -33q-59 0 -89.5 25.5t-30.5 69.5v13t2 14h38z" />
    <glyph glyph-name="abreve" unicode="&#x103;" horiz-adv-x="552" 
d="M355 62h-2q-35 -44 -80 -59.5t-85 -15.5q-75 0 -114.5 33t-39.5 91q0 48 22.5 79t58.5 49.5t81 26.5t91 10l116 5l8 38q2 8 3 16.5t1 16.5q0 32 -22.5 52.5t-81.5 20.5q-67 0 -99 -21t-45 -63h-70q23 78 82.5 110t139.5 32t123 -30t43 -87q0 -20 -4 -39l-50 -233
q-5 -22 -6.5 -46.5t-1.5 -47.5h-68v62zM392 227l-89 -3q-40 -2 -75 -7t-61.5 -16.5t-42 -31t-15.5 -50.5q0 -40 24.5 -58.5t69.5 -18.5q25 0 53 7t53 22t44 37.5t25 53.5zM275 699v-9q0 -25 21 -43.5t62 -18.5q45 0 75 18t38 53h43q-11 -56 -50.5 -89t-108.5 -33
q-59 0 -89.5 25.5t-30.5 69.5v13t2 14h38z" />
    <glyph glyph-name="Aogonek" unicode="&#x104;" horiz-adv-x="633" 
d="M475 0l-24 197h-292l-117 -197h-86l430 680h73l96 -680h-35q-47 -38 -76.5 -68t-29.5 -64q0 -24 15 -30.5t30 -6.5q12 0 20.5 2t16.5 5v-36q-5 -2 -13 -4t-17 -3.5t-17.5 -2.5t-14.5 -1q-15 0 -30.5 2.5t-28 9.5t-20.5 18.5t-8 29.5q0 23 10 43t27.5 37.5t41 34.5
t50.5 34h-1zM403 594h-2l-202 -333h244z" />
    <glyph glyph-name="aogonek" unicode="&#x105;" horiz-adv-x="552" 
d="M355 62h-2q-35 -44 -80 -59.5t-85 -15.5q-75 0 -114.5 33t-39.5 91q0 48 22.5 79t58.5 49.5t81 26.5t91 10l116 5l8 38q2 8 3 16.5t1 16.5q0 32 -22.5 52.5t-81.5 20.5q-67 0 -99 -21t-45 -63h-70q23 78 82.5 110t139.5 32t123 -30t43 -87q0 -20 -4 -39l-50 -233
q-5 -22 -6.5 -46.5t-1.5 -47.5h-24q-47 -38 -76.5 -68t-29.5 -64q0 -24 15 -30.5t30 -6.5q12 0 20.5 2t16.5 5v-36q-5 -2 -13 -4t-17 -3.5t-17.5 -2.5t-14.5 -1q-15 0 -30.5 2.5t-28 9.5t-20.5 18.5t-8 29.5q0 23 10 43t27.5 37.5t41 34.5t50.5 34v62zM392 227l-89 -3
q-40 -2 -75 -7t-61.5 -16.5t-42 -31t-15.5 -50.5q0 -40 24.5 -58.5t69.5 -18.5q25 0 53 7t53 22t44 37.5t25 53.5z" />
    <glyph glyph-name="Cacute" unicode="&#x106;" horiz-adv-x="723" 
d="M671 133q-50 -63 -123.5 -104.5t-173.5 -41.5q-68 0 -123.5 21t-94.5 59t-60.5 91.5t-21.5 118.5q0 88 31.5 164t86.5 132t129 88t159 32q61 0 105 -12.5t74 -33.5t49 -47t32 -53l-63 -34q-21 54 -69 85.5t-130 31.5q-73 0 -132.5 -28.5t-102 -76.5t-65.5 -111t-23 -131
q0 -50 13.5 -92t41 -73.5t69.5 -49t99 -17.5q61 0 123.5 27t115.5 94zM561 869h96l-144 -128h-59z" />
    <glyph glyph-name="cacute" unicode="&#x107;" horiz-adv-x="550" 
d="M454 347q-6 21 -18.5 35.5t-29 24t-35.5 13.5t-38 4q-47 0 -85.5 -18.5t-66 -49.5t-42.5 -71.5t-15 -84.5q0 -32 9.5 -60t28 -49t46 -33t63.5 -12q39 0 78 15t68 58l56 -29q-38 -54 -90.5 -78.5t-115.5 -24.5q-51 0 -91 15t-67.5 42t-42 65t-14.5 84q0 60 21.5 113
t59 92.5t89 62t112.5 22.5q30 0 58.5 -5.5t52.5 -18t42.5 -34t29.5 -53.5zM421 699h96l-145 -128h-59z" />
    <glyph glyph-name="Ccircumflex" unicode="&#x108;" horiz-adv-x="723" 
d="M671 133q-50 -63 -123.5 -104.5t-173.5 -41.5q-68 0 -123.5 21t-94.5 59t-60.5 91.5t-21.5 118.5q0 88 31.5 164t86.5 132t129 88t159 32q61 0 105 -12.5t74 -33.5t49 -47t32 -53l-63 -34q-21 54 -69 85.5t-130 31.5q-73 0 -132.5 -28.5t-102 -76.5t-65.5 -111t-23 -131
q0 -50 13.5 -92t41 -73.5t69.5 -49t99 -17.5q61 0 123.5 27t115.5 94zM528 826l-77 -85h-75l117 128h81l63 -128h-68z" />
    <glyph glyph-name="ccircumflex" unicode="&#x109;" horiz-adv-x="550" 
d="M454 347q-6 21 -18.5 35.5t-29 24t-35.5 13.5t-38 4q-47 0 -85.5 -18.5t-66 -49.5t-42.5 -71.5t-15 -84.5q0 -32 9.5 -60t28 -49t46 -33t63.5 -12q39 0 78 15t68 58l56 -29q-38 -54 -90.5 -78.5t-115.5 -24.5q-51 0 -91 15t-67.5 42t-42 65t-14.5 84q0 60 21.5 113
t59 92.5t89 62t112.5 22.5q30 0 58.5 -5.5t52.5 -18t42.5 -34t29.5 -53.5zM376 656l-78 -85h-75l118 128h81l62 -128h-68z" />
    <glyph glyph-name="Cdotaccent" unicode="&#x10a;" horiz-adv-x="723" 
d="M671 133q-50 -63 -123.5 -104.5t-173.5 -41.5q-68 0 -123.5 21t-94.5 59t-60.5 91.5t-21.5 118.5q0 88 31.5 164t86.5 132t129 88t159 32q61 0 105 -12.5t74 -33.5t49 -47t32 -53l-63 -34q-21 54 -69 85.5t-130 31.5q-73 0 -132.5 -28.5t-102 -76.5t-65.5 -111t-23 -131
q0 -50 13.5 -92t41 -73.5t69.5 -49t99 -17.5q61 0 123.5 27t115.5 94zM450 796q0 23 15.5 38.5t38.5 15.5q22 0 37.5 -15.5t15.5 -38.5q0 -22 -15.5 -37.5t-37.5 -15.5q-23 0 -38.5 15.5t-15.5 37.5z" />
    <glyph glyph-name="cdotaccent" unicode="&#x10b;" horiz-adv-x="550" 
d="M454 347q-6 21 -18.5 35.5t-29 24t-35.5 13.5t-38 4q-47 0 -85.5 -18.5t-66 -49.5t-42.5 -71.5t-15 -84.5q0 -32 9.5 -60t28 -49t46 -33t63.5 -12q39 0 78 15t68 58l56 -29q-38 -54 -90.5 -78.5t-115.5 -24.5q-51 0 -91 15t-67.5 42t-42 65t-14.5 84q0 60 21.5 113
t59 92.5t89 62t112.5 22.5q30 0 58.5 -5.5t52.5 -18t42.5 -34t29.5 -53.5zM300 630q0 23 15.5 38.5t38.5 15.5q22 0 37.5 -15.5t15.5 -38.5q0 -22 -15.5 -37.5t-37.5 -15.5q-23 0 -38.5 15.5t-15.5 37.5z" />
    <glyph glyph-name="Ccaron" unicode="&#x10c;" horiz-adv-x="723" 
d="M671 133q-50 -63 -123.5 -104.5t-173.5 -41.5q-68 0 -123.5 21t-94.5 59t-60.5 91.5t-21.5 118.5q0 88 31.5 164t86.5 132t129 88t159 32q61 0 105 -12.5t74 -33.5t49 -47t32 -53l-63 -34q-21 54 -69 85.5t-130 31.5q-73 0 -132.5 -28.5t-102 -76.5t-65.5 -111t-23 -131
q0 -50 13.5 -92t41 -73.5t69.5 -49t99 -17.5q61 0 123.5 27t115.5 94zM411 869h70l40 -84l78 84h73l-115 -128h-81z" />
    <glyph glyph-name="ccaron" unicode="&#x10d;" horiz-adv-x="550" 
d="M454 347q-6 21 -18.5 35.5t-29 24t-35.5 13.5t-38 4q-47 0 -85.5 -18.5t-66 -49.5t-42.5 -71.5t-15 -84.5q0 -32 9.5 -60t28 -49t46 -33t63.5 -12q39 0 78 15t68 58l56 -29q-38 -54 -90.5 -78.5t-115.5 -24.5q-51 0 -91 15t-67.5 42t-42 65t-14.5 84q0 60 21.5 113
t59 92.5t89 62t112.5 22.5q30 0 58.5 -5.5t52.5 -18t42.5 -34t29.5 -53.5zM238 699h70l40 -84l78 84h73l-116 -128h-81z" />
    <glyph glyph-name="Dcaron" unicode="&#x10e;" horiz-adv-x="723" 
d="M384 680q98 0 159 -25.5t95.5 -66t46.5 -90t12 -97.5q0 -86 -29.5 -159t-84.5 -127t-133.5 -84.5t-177.5 -30.5h-217l144 680h185zM141 64h128q79 0 143.5 24t110.5 66.5t71.5 101.5t25.5 130q0 48 -12.5 89.5t-42.5 73t-78.5 49.5t-120.5 18h-108zM319 869h70l40 -84
l78 84h73l-115 -128h-81z" />
    <glyph glyph-name="dcaron" unicode="&#x10f;" horiz-adv-x="616" 
d="M427 77q-23 -36 -64.5 -63t-106.5 -27q-96 0 -146 53.5t-50 144.5q0 58 19 112t53.5 95.5t84 66t109.5 24.5q40 0 68 -10t47 -25t30 -32t17 -31h4l69 321h69l-150 -706h-65l14 77h-2zM135 192q0 -66 35 -105.5t102 -39.5q37 0 72.5 16.5t63 46.5t44 72t16.5 93
q0 30 -8.5 56.5t-26.5 46.5t-45 31.5t-63 11.5q-41 0 -75.5 -17t-60 -48t-40 -73t-14.5 -91zM645 483q35 42 55.5 81t20.5 70q0 13 -4 25l63 21q4 -9 5 -16t1 -18q0 -34 -27.5 -78t-66.5 -85h-47z" />
    <glyph glyph-name="Dcroat" unicode="&#x110;" horiz-adv-x="723" 
d="M62 392h76l61 288h185q98 0 159 -25.5t95.5 -66t46.5 -90t12 -97.5q0 -86 -29.5 -159t-84.5 -127t-133.5 -84.5t-177.5 -30.5h-217l72 334h-78zM211 392h159l-13 -58h-158l-58 -270h128q79 0 143.5 24t110.5 66.5t71.5 101.5t25.5 130q0 48 -12.5 89.5t-42.5 73
t-78.5 49.5t-120.5 18h-108z" />
    <glyph glyph-name="dcroat" unicode="&#x111;" horiz-adv-x="616" 
d="M400 589h136l25 117h69l-25 -117h64l-10 -47h-64l-115 -542h-65l14 77h-2q-23 -36 -64.5 -63t-106.5 -27q-96 0 -146 53.5t-50 144.5q0 58 19 112t53.5 95.5t84 66t109.5 24.5q40 0 68 -10t47 -25t30 -32t17 -31h4l34 157h-137zM135 192q0 -66 35 -105.5t102 -39.5
q37 0 72.5 16.5t63 46.5t44 72t16.5 93q0 30 -8.5 56.5t-26.5 46.5t-45 31.5t-63 11.5q-41 0 -75.5 -17t-60 -48t-40 -73t-14.5 -91z" />
    <glyph glyph-name="Emacron" unicode="&#x112;" horiz-adv-x="542" 
d="M191 680h380l-14 -64h-308l-50 -235h299l-13 -63h-299l-54 -254h308l-13 -64h-380zM294 825h246l-11 -52h-246z" />
    <glyph glyph-name="emacron" unicode="&#x113;" horiz-adv-x="580" 
d="M125 220q-2 -9 -2 -15.5v-11.5q0 -71 42.5 -109.5t111.5 -38.5q60 0 98 23t63 59l54 -34q-41 -51 -93 -78.5t-129 -27.5q-46 0 -86 13t-69 39t-46 65t-17 91q0 60 20 112.5t56.5 91.5t86.5 61.5t110 22.5q91 0 144 -48.5t53 -134.5q0 -13 -1.5 -35t-6.5 -45h-389z
M449 276q2 9 2.5 17.5t0.5 14.5q0 49 -36 83t-98 34q-35 0 -65.5 -12.5t-54 -33t-39.5 -47.5t-23 -56h313zM240 655h246l-11 -52h-246z" />
    <glyph glyph-name="Ebreve" unicode="&#x114;" horiz-adv-x="542" 
d="M191 680h380l-14 -64h-308l-50 -235h299l-13 -63h-299l-54 -254h308l-13 -64h-380zM313 869v-9q0 -25 21 -43.5t62 -18.5q45 0 75 18t38 53h43q-11 -56 -50.5 -89t-108.5 -33q-59 0 -89.5 25.5t-30.5 69.5v13t2 14h38z" />
    <glyph glyph-name="ebreve" unicode="&#x115;" horiz-adv-x="580" 
d="M125 220q-2 -9 -2 -15.5v-11.5q0 -71 42.5 -109.5t111.5 -38.5q60 0 98 23t63 59l54 -34q-41 -51 -93 -78.5t-129 -27.5q-46 0 -86 13t-69 39t-46 65t-17 91q0 60 20 112.5t56.5 91.5t86.5 61.5t110 22.5q91 0 144 -48.5t53 -134.5q0 -13 -1.5 -35t-6.5 -45h-389z
M449 276q2 9 2.5 17.5t0.5 14.5q0 49 -36 83t-98 34q-35 0 -65.5 -12.5t-54 -33t-39.5 -47.5t-23 -56h313zM275 699v-9q0 -25 21 -43.5t62 -18.5q45 0 75 18t38 53h43q-11 -56 -50.5 -89t-108.5 -33q-59 0 -89.5 25.5t-30.5 69.5v13t2 14h38z" />
    <glyph glyph-name="Edotaccent" unicode="&#x116;" horiz-adv-x="542" 
d="M191 680h380l-14 -64h-308l-50 -235h299l-13 -63h-299l-54 -254h308l-13 -64h-380zM348 796q0 23 15.5 38.5t38.5 15.5q22 0 37.5 -15.5t15.5 -38.5q0 -22 -15.5 -37.5t-37.5 -15.5q-23 0 -38.5 15.5t-15.5 37.5z" />
    <glyph glyph-name="edotaccent" unicode="&#x117;" horiz-adv-x="580" 
d="M125 220q-2 -9 -2 -15.5v-11.5q0 -71 42.5 -109.5t111.5 -38.5q60 0 98 23t63 59l54 -34q-41 -51 -93 -78.5t-129 -27.5q-46 0 -86 13t-69 39t-46 65t-17 91q0 60 20 112.5t56.5 91.5t86.5 61.5t110 22.5q91 0 144 -48.5t53 -134.5q0 -13 -1.5 -35t-6.5 -45h-389z
M449 276q2 9 2.5 17.5t0.5 14.5q0 49 -36 83t-98 34q-35 0 -65.5 -12.5t-54 -33t-39.5 -47.5t-23 -56h313zM306 630q0 23 15.5 38.5t38.5 15.5q22 0 37.5 -15.5t15.5 -38.5q0 -22 -15.5 -37.5t-37.5 -15.5q-23 0 -38.5 15.5t-15.5 37.5z" />
    <glyph glyph-name="Eogonek" unicode="&#x118;" horiz-adv-x="542" 
d="M191 680h380l-14 -64h-308l-50 -235h299l-13 -63h-299l-54 -254h308l-13 -64h-32q-47 -38 -76.5 -68t-29.5 -64q0 -24 15 -30.5t30 -6.5q12 0 20.5 2t16.5 5v-36q-5 -2 -13 -4t-17 -3.5t-17.5 -2.5t-14.5 -1q-15 0 -30.5 2.5t-28 9.5t-20.5 18.5t-8 29.5q0 23 10 43
t27.5 37.5t41 34.5t50.5 34h-304z" />
    <glyph glyph-name="eogonek" unicode="&#x119;" horiz-adv-x="580" 
d="M125 220q-2 -9 -2 -15.5v-11.5q0 -71 42.5 -109.5t111.5 -38.5q60 0 98 23t63 59l54 -34q-35 -45 -79.5 -71t-105.5 -33q-42 -33 -67 -61t-25 -60q0 -24 15 -30.5t30 -6.5q12 0 20.5 2t16.5 5v-36q-5 -2 -13 -4t-17 -3.5t-17.5 -2.5t-14.5 -1q-15 0 -30.5 2.5t-28 9.5
t-20.5 18.5t-8 29.5q0 42 31 73.5t78 62.5q-44 2 -81.5 16t-65 40t-43 64t-15.5 88q0 60 20 112.5t56.5 91.5t86.5 61.5t110 22.5q91 0 144 -48.5t53 -134.5q0 -13 -1.5 -35t-6.5 -45h-389zM449 276q2 9 2.5 17.5t0.5 14.5q0 49 -36 83t-98 34q-35 0 -65.5 -12.5t-54 -33
t-39.5 -47.5t-23 -56h313z" />
    <glyph glyph-name="Ecaron" unicode="&#x11a;" horiz-adv-x="542" 
d="M191 680h380l-14 -64h-308l-50 -235h299l-13 -63h-299l-54 -254h308l-13 -64h-380zM290 869h70l40 -84l78 84h73l-115 -128h-81z" />
    <glyph glyph-name="ecaron" unicode="&#x11b;" horiz-adv-x="580" 
d="M125 220q-2 -9 -2 -15.5v-11.5q0 -71 42.5 -109.5t111.5 -38.5q60 0 98 23t63 59l54 -34q-41 -51 -93 -78.5t-129 -27.5q-46 0 -86 13t-69 39t-46 65t-17 91q0 60 20 112.5t56.5 91.5t86.5 61.5t110 22.5q91 0 144 -48.5t53 -134.5q0 -13 -1.5 -35t-6.5 -45h-389z
M449 276q2 9 2.5 17.5t0.5 14.5q0 49 -36 83t-98 34q-35 0 -65.5 -12.5t-54 -33t-39.5 -47.5t-23 -56h313zM245 699h70l40 -84l78 84h73l-116 -128h-81z" />
    <glyph glyph-name="Gcircumflex" unicode="&#x11c;" horiz-adv-x="753" 
d="M370 -13q-69 0 -124 21t-93 59t-58.5 91.5t-20.5 118.5q0 88 32 164t87.5 132t130 88t159.5 32q95 0 156.5 -35.5t90.5 -89.5l-60 -40q-27 48 -74 75t-118 27q-73 0 -132.5 -28.5t-102 -76.5t-65.5 -111t-23 -131q0 -50 12.5 -92t39.5 -73.5t68.5 -49t98.5 -17.5
q67 0 115 21.5t79.5 54.5t47.5 73.5t19 79.5h-240l14 64h307q-3 -72 -25.5 -136.5t-65 -113.5t-106 -78t-149.5 -29zM506 826l-77 -85h-75l117 128h81l63 -128h-68z" />
    <glyph glyph-name="gcircumflex" unicode="&#x11d;" horiz-adv-x="616" 
d="M423 88q-23 -34 -65.5 -61t-104.5 -27q-96 0 -146 52t-50 143q0 58 19 110.5t53.5 92t84 62.5t109.5 23q40 0 68 -9.5t47 -24t30 -31t17 -30.5h2l17 82h71l-91 -423q-12 -56 -32 -101.5t-51.5 -77.5t-77 -50t-108.5 -18q-85 0 -133 30.5t-59 99.5l71 11q5 -37 34.5 -58.5
t91.5 -21.5q51 0 85 15.5t56.5 42.5t35.5 63t22 77l6 29h-2zM132 202q0 -66 35 -104t102 -38q37 0 72.5 14.5t63 42t44 67.5t16.5 91q0 30 -8.5 56.5t-26.5 46.5t-45 31.5t-63 11.5q-41 0 -75.5 -15.5t-60 -44.5t-40 -69.5t-14.5 -89.5zM403 656l-78 -85h-75l118 128h81
l62 -128h-68z" />
    <glyph glyph-name="Gbreve" unicode="&#x11e;" horiz-adv-x="753" 
d="M370 -13q-69 0 -124 21t-93 59t-58.5 91.5t-20.5 118.5q0 88 32 164t87.5 132t130 88t159.5 32q95 0 156.5 -35.5t90.5 -89.5l-60 -40q-27 48 -74 75t-118 27q-73 0 -132.5 -28.5t-102 -76.5t-65.5 -111t-23 -131q0 -50 12.5 -92t39.5 -73.5t68.5 -49t98.5 -17.5
q67 0 115 21.5t79.5 54.5t47.5 73.5t19 79.5h-240l14 64h307q-3 -72 -25.5 -136.5t-65 -113.5t-106 -78t-149.5 -29zM413 869v-9q0 -25 21 -43.5t62 -18.5q45 0 75 18t38 53h43q-11 -56 -50.5 -89t-108.5 -33q-59 0 -89.5 25.5t-30.5 69.5v13t2 14h38z" />
    <glyph glyph-name="gbreve" unicode="&#x11f;" horiz-adv-x="616" 
d="M423 88q-23 -34 -65.5 -61t-104.5 -27q-96 0 -146 52t-50 143q0 58 19 110.5t53.5 92t84 62.5t109.5 23q40 0 68 -9.5t47 -24t30 -31t17 -30.5h2l17 82h71l-91 -423q-12 -56 -32 -101.5t-51.5 -77.5t-77 -50t-108.5 -18q-85 0 -133 30.5t-59 99.5l71 11q5 -37 34.5 -58.5
t91.5 -21.5q51 0 85 15.5t56.5 42.5t35.5 63t22 77l6 29h-2zM132 202q0 -66 35 -104t102 -38q37 0 72.5 14.5t63 42t44 67.5t16.5 91q0 30 -8.5 56.5t-26.5 46.5t-45 31.5t-63 11.5q-41 0 -75.5 -15.5t-60 -44.5t-40 -69.5t-14.5 -89.5zM293 699v-9q0 -25 21 -43.5t62 -18.5
q45 0 75 18t38 53h43q-11 -56 -50.5 -89t-108.5 -33q-59 0 -89.5 25.5t-30.5 69.5v13t2 14h38z" />
    <glyph glyph-name="Gdotaccent" unicode="&#x120;" horiz-adv-x="753" 
d="M370 -13q-69 0 -124 21t-93 59t-58.5 91.5t-20.5 118.5q0 88 32 164t87.5 132t130 88t159.5 32q95 0 156.5 -35.5t90.5 -89.5l-60 -40q-27 48 -74 75t-118 27q-73 0 -132.5 -28.5t-102 -76.5t-65.5 -111t-23 -131q0 -50 12.5 -92t39.5 -73.5t68.5 -49t98.5 -17.5
q67 0 115 21.5t79.5 54.5t47.5 73.5t19 79.5h-240l14 64h307q-3 -72 -25.5 -136.5t-65 -113.5t-106 -78t-149.5 -29zM450 796q0 23 15.5 38.5t38.5 15.5q22 0 37.5 -15.5t15.5 -38.5q0 -22 -15.5 -37.5t-37.5 -15.5q-23 0 -38.5 15.5t-15.5 37.5z" />
    <glyph glyph-name="gdotaccent" unicode="&#x121;" horiz-adv-x="616" 
d="M423 88q-23 -34 -65.5 -61t-104.5 -27q-96 0 -146 52t-50 143q0 58 19 110.5t53.5 92t84 62.5t109.5 23q40 0 68 -9.5t47 -24t30 -31t17 -30.5h2l17 82h71l-91 -423q-12 -56 -32 -101.5t-51.5 -77.5t-77 -50t-108.5 -18q-85 0 -133 30.5t-59 99.5l71 11q5 -37 34.5 -58.5
t91.5 -21.5q51 0 85 15.5t56.5 42.5t35.5 63t22 77l6 29h-2zM132 202q0 -66 35 -104t102 -38q37 0 72.5 14.5t63 42t44 67.5t16.5 91q0 30 -8.5 56.5t-26.5 46.5t-45 31.5t-63 11.5q-41 0 -75.5 -15.5t-60 -44.5t-40 -69.5t-14.5 -89.5zM303 630q0 23 15.5 38.5t38.5 15.5
q22 0 37.5 -15.5t15.5 -38.5q0 -22 -15.5 -37.5t-37.5 -15.5q-23 0 -38.5 15.5t-15.5 37.5z" />
    <glyph glyph-name="Gcommaaccent" unicode="&#x122;" horiz-adv-x="753" 
d="M370 -13q-69 0 -124 21t-93 59t-58.5 91.5t-20.5 118.5q0 88 32 164t87.5 132t130 88t159.5 32q95 0 156.5 -35.5t90.5 -89.5l-60 -40q-27 48 -74 75t-118 27q-73 0 -132.5 -28.5t-102 -76.5t-65.5 -111t-23 -131q0 -50 12.5 -92t39.5 -73.5t68.5 -49t98.5 -17.5
q67 0 115 21.5t79.5 54.5t47.5 73.5t19 79.5h-240l14 64h307q-3 -72 -25.5 -136.5t-65 -113.5t-106 -78t-149.5 -29zM270 -250q35 42 55.5 81t20.5 70q0 13 -4 25l63 21q4 -9 5 -16t1 -18q0 -34 -27.5 -78t-66.5 -85h-47z" />
    <glyph glyph-name="gcommaaccent" unicode="&#x123;" horiz-adv-x="616" 
d="M423 88q-23 -34 -65.5 -61t-104.5 -27q-96 0 -146 52t-50 143q0 58 19 110.5t53.5 92t84 62.5t109.5 23q40 0 68 -9.5t47 -24t30 -31t17 -30.5h2l17 82h71l-91 -423q-12 -56 -32 -101.5t-51.5 -77.5t-77 -50t-108.5 -18q-85 0 -133 30.5t-59 99.5l71 11q5 -37 34.5 -58.5
t91.5 -21.5q51 0 85 15.5t56.5 42.5t35.5 63t22 77l6 29h-2zM132 202q0 -66 35 -104t102 -38q37 0 72.5 14.5t63 42t44 67.5t16.5 91q0 30 -8.5 56.5t-26.5 46.5t-45 31.5t-63 11.5q-41 0 -75.5 -15.5t-60 -44.5t-40 -69.5t-14.5 -89.5zM455 759q-35 -42 -55.5 -81
t-20.5 -70q0 -13 4 -25l-63 -21q-4 9 -5 16t-1 18q0 34 27.5 78t66.5 85h47z" />
    <glyph glyph-name="Hcircumflex" unicode="&#x124;" horiz-adv-x="714" 
d="M191 680h73l-64 -299h377l64 299h73l-144 -680h-73l67 318h-377l-67 -318h-73zM480 826l-77 -85h-75l117 128h81l63 -128h-68z" />
    <glyph glyph-name="hcircumflex" unicode="&#x125;" horiz-adv-x="572" 
d="M430 283q2 11 4 23.5t2 21.5q0 25 -8 42t-21.5 27t-31.5 14.5t-38 4.5q-26 0 -53.5 -10t-51.5 -30t-42 -49t-26 -67l-55 -260h-71l150 706h71l-68 -319h1q33 45 77.5 66.5t95.5 21.5q21 0 46.5 -6t47.5 -20t37 -39t15 -62q0 -17 -5 -42l-65 -306h-71zM390 816l-78 -85
h-75l118 128h81l62 -128h-68z" />
    <glyph glyph-name="Hbar" unicode="&#x126;" horiz-adv-x="714" 
d="M104 516h52l35 164h73l-35 -164h377l35 164h73l-35 -164h58l-10 -46h-58l-99 -470h-73l67 318h-377l-67 -318h-73l99 470h-53zM577 381l19 89h-377l-19 -89h377z" />
    <glyph glyph-name="hbar" unicode="&#x127;" horiz-adv-x="572" 
d="M101 589h63l24 117h71l-24 -117h129l-11 -47h-128l-34 -155h1q33 45 77.5 66.5t95.5 21.5q21 0 46.5 -6t47.5 -20t37 -39t15 -62q0 -17 -5 -42l-65 -306h-71l60 283q2 11 4 23.5t2 21.5q0 25 -8 42t-21.5 27t-31.5 14.5t-38 4.5q-26 0 -53.5 -10t-51.5 -30t-42 -49
t-26 -67l-55 -260h-71l116 542h-63z" />
    <glyph glyph-name="Itilde" unicode="&#x128;" horiz-adv-x="289" 
d="M204 680h73l-144 -680h-73zM95 748q12 45 38 72t69 27q20 0 37 -4.5t31 -10.5t30 -12.5t29 -6.5q23 0 34 13.5t15 27.5h45q-14 -48 -39.5 -73.5t-68.5 -25.5q-17 0 -32.5 4.5t-34.5 13.5q-15 8 -30.5 12.5t-28.5 4.5q-23 0 -34.5 -14t-14.5 -28h-45z" />
    <glyph glyph-name="itilde" unicode="&#x129;" horiz-adv-x="261" 
d="M145 470h71l-99 -470h-71zM47 578q12 45 38 72t69 27q20 0 37 -4.5t31 -10.5t30 -12.5t29 -6.5q23 0 34 13.5t15 27.5h45q-14 -48 -39.5 -73.5t-68.5 -25.5q-17 0 -32.5 4.5t-34.5 13.5q-15 8 -30.5 12.5t-28.5 4.5q-23 0 -34.5 -14t-14.5 -28h-45z" />
    <glyph glyph-name="Imacron" unicode="&#x12a;" horiz-adv-x="289" 
d="M204 680h73l-144 -680h-73zM140 825h246l-11 -52h-246z" />
    <glyph glyph-name="imacron" unicode="&#x12b;" horiz-adv-x="261" 
d="M145 470h71l-99 -470h-71zM85 655h246l-11 -52h-246z" />
    <glyph glyph-name="Iogonek" unicode="&#x12e;" horiz-adv-x="289" 
d="M204 680h73l-144 -680h-15q-47 -38 -76.5 -68t-29.5 -64q0 -24 15 -30.5t30 -6.5q12 0 20.5 2t16.5 5v-36q-5 -2 -13 -4t-17 -3.5t-17.5 -2.5t-14.5 -1q-15 0 -30.5 2.5t-28 9.5t-20.5 18.5t-8 29.5q0 23 10 43t27.5 37.5t41 34.5t50.5 34h-14z" />
    <glyph glyph-name="iogonek" unicode="&#x12f;" horiz-adv-x="261" 
d="M145 470h71l-99 -470h-11q-47 -38 -76.5 -68t-29.5 -64q0 -24 15 -30.5t30 -6.5q12 0 20.5 2t16.5 5v-36q-5 -2 -13 -4t-17 -3.5t-17.5 -2.5t-14.5 -1q-15 0 -30.5 2.5t-28 9.5t-20.5 18.5t-8 29.5q0 23 10 43t27.5 37.5t41 34.5t50.5 34h-16zM165 630q0 23 15.5 38.5
t38.5 15.5q22 0 37.5 -15.5t15.5 -38.5q0 -22 -15.5 -37.5t-37.5 -15.5q-23 0 -38.5 15.5t-15.5 37.5z" />
    <glyph glyph-name="Idotaccent" unicode="&#x130;" horiz-adv-x="289" 
d="M204 680h73l-144 -680h-73zM210 796q0 23 15.5 38.5t38.5 15.5q22 0 37.5 -15.5t15.5 -38.5q0 -22 -15.5 -37.5t-37.5 -15.5q-23 0 -38.5 15.5t-15.5 37.5z" />
    <glyph glyph-name="dotlessi" unicode="&#x131;" horiz-adv-x="261" 
d="M145 470h71l-99 -470h-71z" />
    <glyph glyph-name="Jcircumflex" unicode="&#x134;" horiz-adv-x="401" 
d="M4 58q23 -4 38.5 -5.5t34.5 -1.5q43 0 71 11.5t45 33t27 53t19 71.5l84 396h-142l14 64h215l-102 -479q-9 -42 -23 -81t-40.5 -68.5t-68.5 -47t-106 -17.5q-17 0 -39 2t-41 7zM347 826l-77 -85h-75l117 128h81l63 -128h-68z" />
    <glyph glyph-name="jcircumflex" unicode="&#x135;" horiz-adv-x="261" 
d="M-68 -140h9q40 0 61.5 18t31.5 64l112 528h72l-113 -533q-7 -32 -19 -57.5t-31.5 -43t-48.5 -27t-70 -9.5h-17zM227 656l-78 -85h-75l118 128h81l62 -128h-68z" />
    <glyph glyph-name="Kcommaaccent" unicode="&#x136;" horiz-adv-x="597" 
d="M191 680h71l-68 -321h2l356 321h98l-378 -326l257 -354h-95l-241 345h-2l-73 -345h-71zM146 -250q35 42 55.5 81t20.5 70q0 13 -4 25l63 21q4 -9 5 -16t1 -18q0 -34 -27.5 -78t-66.5 -85h-47z" />
    <glyph glyph-name="kcommaaccent" unicode="&#x137;" horiz-adv-x="507" 
d="M161 250l-53 -250h-71l150 706h71l-95 -447l254 211h96l-273 -216l209 -254h-87zM100 -250q35 42 55.5 81t20.5 70q0 13 -4 25l63 21q4 -9 5 -16t1 -18q0 -34 -27.5 -78t-66.5 -85h-47z" />
    <glyph glyph-name="Lacute" unicode="&#x139;" horiz-adv-x="497" 
d="M191 680h73l-131 -617h291l-13 -63h-364zM310 869h96l-144 -128h-59z" />
    <glyph glyph-name="lacute" unicode="&#x13a;" horiz-adv-x="261" 
d="M196 706h71l-150 -706h-71zM315 894h96l-145 -128h-59z" />
    <glyph glyph-name="Lcommaaccent" unicode="&#x13b;" horiz-adv-x="497" 
d="M191 680h73l-131 -617h291l-13 -63h-364zM114 -250q35 42 55.5 81t20.5 70q0 13 -4 25l63 21q4 -9 5 -16t1 -18q0 -34 -27.5 -78t-66.5 -85h-47z" />
    <glyph glyph-name="lcommaaccent" unicode="&#x13c;" horiz-adv-x="261" 
d="M196 706h71l-150 -706h-71zM-34 -250q35 42 55.5 81t20.5 70q0 13 -4 25l63 21q4 -9 5 -16t1 -18q0 -34 -27.5 -78t-66.5 -85h-47z" />
    <glyph glyph-name="Lcaron" unicode="&#x13d;" horiz-adv-x="497" 
d="M191 680h73l-131 -617h291l-13 -63h-364zM341 483q35 42 55.5 81t20.5 70q0 13 -4 25l63 21q4 -9 5 -16t1 -18q0 -34 -27.5 -78t-66.5 -85h-47z" />
    <glyph glyph-name="lcaron" unicode="&#x13e;" horiz-adv-x="261" 
d="M196 706h71l-150 -706h-71zM265 483q35 42 55.5 81t20.5 70q0 13 -4 25l63 21q4 -9 5 -16t1 -18q0 -34 -27.5 -78t-66.5 -85h-47z" />
    <glyph glyph-name="Ldot" unicode="&#x13f;" horiz-adv-x="497" 
d="M191 680h73l-131 -617h291l-13 -63h-364zM339 356q0 23 15.5 38.5t38.5 15.5q22 0 37.5 -15.5t15.5 -38.5q0 -22 -15.5 -37.5t-37.5 -15.5q-23 0 -38.5 15.5t-15.5 37.5z" />
    <glyph glyph-name="ldot" unicode="&#x140;" horiz-adv-x="416" 
d="M196 706h71l-150 -706h-71zM320 417q0 23 15.5 38.5t38.5 15.5q22 0 37.5 -15.5t15.5 -38.5q0 -22 -15.5 -37.5t-37.5 -15.5q-23 0 -38.5 15.5t-15.5 37.5z" />
    <glyph glyph-name="Lslash" unicode="&#x141;" horiz-adv-x="497" 
d="M424 63l-13 -63h-364l59 279l-79 -41l15 69l79 42l70 331h73l-62 -293l206 109l-15 -68l-206 -110l-54 -255h291z" />
    <glyph glyph-name="lslash" unicode="&#x142;" horiz-adv-x="261" 
d="M131 401l-65 -36l12 57l65 35l53 249h71l-44 -204l78 41l-12 -56l-78 -41l-94 -446h-71z" />
    <glyph glyph-name="Nacute" unicode="&#x143;" horiz-adv-x="723" 
d="M191 680h75l262 -570l121 570h71l-144 -680h-75l-261 568h-2l-120 -568h-71zM550 869h96l-144 -128h-59z" />
    <glyph glyph-name="nacute" unicode="&#x144;" horiz-adv-x="572" 
d="M400 699h96l-145 -128h-59zM192 387q33 45 77.5 66.5t95.5 21.5q21 0 46.5 -6t47.5 -20t37 -39t15 -62q0 -17 -5 -42l-65 -306h-71l60 283q2 11 4 23.5t2 21.5q0 25 -8 42t-21.5 27t-31.5 14.5t-38 4.5q-26 0 -53.5 -10t-51.5 -30t-42 -49t-26 -67l-55 -260h-71l99 470
h71l-17 -83h1z" />
    <glyph glyph-name="Ncommaaccent" unicode="&#x145;" horiz-adv-x="723" 
d="M191 680h75l262 -570l121 570h71l-144 -680h-75l-261 568h-2l-120 -568h-71zM192 -250q35 42 55.5 81t20.5 70q0 13 -4 25l63 21q4 -9 5 -16t1 -18q0 -34 -27.5 -78t-66.5 -85h-47z" />
    <glyph glyph-name="ncommaaccent" unicode="&#x146;" horiz-adv-x="572" 
d="M124 -250q35 42 55.5 81t20.5 70q0 13 -4 25l63 21q4 -9 5 -16t1 -18q0 -34 -27.5 -78t-66.5 -85h-47zM192 387q33 45 77.5 66.5t95.5 21.5q21 0 46.5 -6t47.5 -20t37 -39t15 -62q0 -17 -5 -42l-65 -306h-71l60 283q2 11 4 23.5t2 21.5q0 25 -8 42t-21.5 27t-31.5 14.5
t-38 4.5q-26 0 -53.5 -10t-51.5 -30t-42 -49t-26 -67l-55 -260h-71l99 470h71l-17 -83h1z" />
    <glyph glyph-name="Ncaron" unicode="&#x147;" horiz-adv-x="723" 
d="M191 680h75l262 -570l121 570h71l-144 -680h-75l-261 568h-2l-120 -568h-71zM367 869h70l40 -84l78 84h73l-115 -128h-81z" />
    <glyph glyph-name="ncaron" unicode="&#x148;" horiz-adv-x="572" 
d="M229 699h70l40 -84l78 84h73l-116 -128h-81zM192 387q33 45 77.5 66.5t95.5 21.5q21 0 46.5 -6t47.5 -20t37 -39t15 -62q0 -17 -5 -42l-65 -306h-71l60 283q2 11 4 23.5t2 21.5q0 25 -8 42t-21.5 27t-31.5 14.5t-38 4.5q-26 0 -53.5 -10t-51.5 -30t-42 -49t-26 -67
l-55 -260h-71l99 470h71l-17 -83h1z" />
    <glyph glyph-name="Omacron" unicode="&#x14c;" horiz-adv-x="805" 
d="M374 -13q-66 0 -121.5 20.5t-95.5 58t-62 91t-22 118.5q0 87 30.5 163.5t83.5 133t125 89t155 32.5q66 0 121.5 -20.5t95 -58t62 -90t22.5 -117.5q0 -87 -29.5 -163.5t-82 -133.5t-125 -90t-157.5 -33zM691 400q0 48 -15 90t-43.5 73t-71 49t-96.5 18q-71 0 -129.5 -29.5
t-99.5 -78.5t-63.5 -111.5t-22.5 -129.5q0 -48 15 -90.5t43.5 -73.5t71 -49t97.5 -18q70 0 128 29t99 77.5t64 112t23 131.5zM395 825h246l-11 -52h-246z" />
    <glyph glyph-name="omacron" unicode="&#x14d;" horiz-adv-x="613" 
d="M479 271q0 32 -10 60t-29.5 48.5t-48 32.5t-65.5 12q-44 0 -81 -18t-64 -48.5t-42 -71.5t-15 -86q0 -32 9.5 -60t28.5 -49t48 -33t68 -12q43 0 80 18t64 49t42 72t15 86zM273 -13q-50 0 -91 15t-70 42.5t-44.5 65t-15.5 82.5q0 58 20 111t56.5 93t88.5 63.5t115 23.5
q48 0 88.5 -14.5t69.5 -41.5t45 -64.5t16 -82.5q0 -60 -20 -113t-56 -93t-87.5 -63.5t-114.5 -23.5zM255 655h246l-11 -52h-246z" />
    <glyph glyph-name="Obreve" unicode="&#x14e;" horiz-adv-x="805" 
d="M374 -13q-66 0 -121.5 20.5t-95.5 58t-62 91t-22 118.5q0 87 30.5 163.5t83.5 133t125 89t155 32.5q66 0 121.5 -20.5t95 -58t62 -90t22.5 -117.5q0 -87 -29.5 -163.5t-82 -133.5t-125 -90t-157.5 -33zM691 400q0 48 -15 90t-43.5 73t-71 49t-96.5 18q-71 0 -129.5 -29.5
t-99.5 -78.5t-63.5 -111.5t-22.5 -129.5q0 -48 15 -90.5t43.5 -73.5t71 -49t97.5 -18q70 0 128 29t99 77.5t64 112t23 131.5zM401 869v-9q0 -25 21 -43.5t62 -18.5q45 0 75 18t38 53h43q-11 -56 -50.5 -89t-108.5 -33q-59 0 -89.5 25.5t-30.5 69.5v13t2 14h38z" />
    <glyph glyph-name="obreve" unicode="&#x14f;" horiz-adv-x="613" 
d="M479 271q0 32 -10 60t-29.5 48.5t-48 32.5t-65.5 12q-44 0 -81 -18t-64 -48.5t-42 -71.5t-15 -86q0 -32 9.5 -60t28.5 -49t48 -33t68 -12q43 0 80 18t64 49t42 72t15 86zM273 -13q-50 0 -91 15t-70 42.5t-44.5 65t-15.5 82.5q0 58 20 111t56.5 93t88.5 63.5t115 23.5
q48 0 88.5 -14.5t69.5 -41.5t45 -64.5t16 -82.5q0 -60 -20 -113t-56 -93t-87.5 -63.5t-114.5 -23.5zM273 699v-9q0 -25 21 -43.5t62 -18.5q45 0 75 18t38 53h43q-11 -56 -50.5 -89t-108.5 -33q-59 0 -89.5 25.5t-30.5 69.5v13t2 14h38z" />
    <glyph glyph-name="Ohungarumlaut" unicode="&#x150;" horiz-adv-x="805" 
d="M374 -13q-66 0 -121.5 20.5t-95.5 58t-62 91t-22 118.5q0 87 30.5 163.5t83.5 133t125 89t155 32.5q66 0 121.5 -20.5t95 -58t62 -90t22.5 -117.5q0 -87 -29.5 -163.5t-82 -133.5t-125 -90t-157.5 -33zM691 400q0 48 -15 90t-43.5 73t-71 49t-96.5 18q-71 0 -129.5 -29.5
t-99.5 -78.5t-63.5 -111.5t-22.5 -129.5q0 -48 15 -90.5t43.5 -73.5t71 -49t97.5 -18q70 0 128 29t99 77.5t64 112t23 131.5zM647 869h94l-143 -128h-59zM494 869h96l-145 -128h-57z" />
    <glyph glyph-name="ohungarumlaut" unicode="&#x151;" horiz-adv-x="613" 
d="M479 271q0 32 -10 60t-29.5 48.5t-48 32.5t-65.5 12q-44 0 -81 -18t-64 -48.5t-42 -71.5t-15 -86q0 -32 9.5 -60t28.5 -49t48 -33t68 -12q43 0 80 18t64 49t42 72t15 86zM273 -13q-50 0 -91 15t-70 42.5t-44.5 65t-15.5 82.5q0 58 20 111t56.5 93t88.5 63.5t115 23.5
q48 0 88.5 -14.5t69.5 -41.5t45 -64.5t16 -82.5q0 -60 -20 -113t-56 -93t-87.5 -63.5t-114.5 -23.5zM513 699h94l-144 -128h-59zM360 699h96l-146 -128h-57z" />
    <glyph glyph-name="OE" unicode="&#x152;" horiz-adv-x="950" 
d="M979 680l-14 -64h-265l-48 -235h253l-12 -63h-256l-52 -254h262l-13 -64h-331l22 107h-2q-50 -67 -108.5 -93.5t-113.5 -26.5q-63 0 -106.5 20t-70.5 54t-39 79t-12 96q0 101 29.5 185t78.5 144.5t113 94t133 33.5q49 0 84 -12.5t58.5 -30.5t36.5 -37.5t18 -33.5h2
l21 101h332zM572 351q12 54 12 99q0 84 -40.5 132.5t-117.5 48.5q-69 0 -120.5 -36t-86 -92t-51.5 -125t-17 -136q0 -92 41.5 -142.5t122.5 -50.5q47 0 88 21.5t73.5 61.5t57 95.5t38.5 123.5z" />
    <glyph glyph-name="oe" unicode="&#x153;" horiz-adv-x="930" 
d="M495 220q-2 -9 -2 -15.5v-11.5q0 -71 37.5 -109.5t106.5 -38.5q30 0 52.5 6t40.5 17t32 26t26 33l54 -34q-20 -26 -41.5 -45.5t-46.5 -33t-55.5 -20.5t-68.5 -7q-136 0 -180 110q-32 -48 -81 -79t-121 -31q-49 0 -86 15t-61.5 42t-36.5 64t-12 81q0 54 17.5 106.5
t51.5 94.5t83.5 67.5t112.5 25.5q72 0 114 -31.5t56 -78.5q29 52 78.5 81t119.5 29q91 0 139 -48.5t48 -134.5q0 -13 -1.5 -35t-6.5 -45h-369zM439 273q0 32 -6 59.5t-21 48t-39.5 32t-61.5 11.5q-44 0 -78.5 -19.5t-58.5 -52t-37 -73t-13 -82.5q0 -31 6 -58.5t21 -48
t39.5 -32.5t62.5 -12q43 0 77.5 18.5t58.5 49.5t37 72.5t13 86.5zM799 276q2 9 2.5 17.5t0.5 14.5q0 49 -31 83t-93 34q-35 0 -64 -12.5t-50.5 -33t-36 -47.5t-21.5 -56h293z" />
    <glyph glyph-name="Racute" unicode="&#x154;" horiz-adv-x="597" 
d="M333 358q37 0 71 8t59 26t40 46.5t15 70.5q0 33 -13 54t-34 32.5t-47 16t-51 4.5h-123l-54 -258h137zM317 296h-134l-63 -296h-73l144 680h197q58 0 97.5 -13t64 -35t35.5 -51t11 -61q0 -59 -21 -99t-52 -65.5t-66.5 -38t-63.5 -15.5l149 -302h-86zM438 869h96l-144 -128
h-59z" />
    <glyph glyph-name="racute" unicode="&#x155;" horiz-adv-x="374" 
d="M137 470h69l-24 -113h2q11 18 31 38.5t46 38t56 29.5t60 12h22l-13 -65h-20q-36 0 -70.5 -15t-63 -41t-49 -62t-29.5 -79l-45 -213h-71zM298 699h96l-145 -128h-59z" />
    <glyph glyph-name="Rcommaaccent" unicode="&#x156;" horiz-adv-x="597" 
d="M333 358q37 0 71 8t59 26t40 46.5t15 70.5q0 33 -13 54t-34 32.5t-47 16t-51 4.5h-123l-54 -258h137zM317 296h-134l-63 -296h-73l144 680h197q58 0 97.5 -13t64 -35t35.5 -51t11 -61q0 -59 -21 -99t-52 -65.5t-66.5 -38t-63.5 -15.5l149 -302h-86zM159 -250
q35 42 55.5 81t20.5 70q0 13 -4 25l63 21q4 -9 5 -16t1 -18q0 -34 -27.5 -78t-66.5 -85h-47z" />
    <glyph glyph-name="rcommaaccent" unicode="&#x157;" horiz-adv-x="374" 
d="M137 470h69l-24 -113h2q11 18 31 38.5t46 38t56 29.5t60 12h22l-13 -65h-20q-36 0 -70.5 -15t-63 -41t-49 -62t-29.5 -79l-45 -213h-71zM-36 -250q35 42 55.5 81t20.5 70q0 13 -4 25l63 21q4 -9 5 -16t1 -18q0 -34 -27.5 -78t-66.5 -85h-47z" />
    <glyph glyph-name="Rcaron" unicode="&#x158;" horiz-adv-x="597" 
d="M333 358q37 0 71 8t59 26t40 46.5t15 70.5q0 33 -13 54t-34 32.5t-47 16t-51 4.5h-123l-54 -258h137zM317 296h-134l-63 -296h-73l144 680h197q58 0 97.5 -13t64 -35t35.5 -51t11 -61q0 -59 -21 -99t-52 -65.5t-66.5 -38t-63.5 -15.5l149 -302h-86zM281 869h70l40 -84
l78 84h73l-115 -128h-81z" />
    <glyph glyph-name="rcaron" unicode="&#x159;" horiz-adv-x="374" 
d="M137 470h69l-24 -113h2q11 18 31 38.5t46 38t56 29.5t60 12h22l-13 -65h-20q-36 0 -70.5 -15t-63 -41t-49 -62t-29.5 -79l-45 -213h-71zM161 699h70l40 -84l78 84h73l-116 -128h-81z" />
    <glyph glyph-name="Sacute" unicode="&#x15a;" horiz-adv-x="603" 
d="M521 514q0 32 -11 54t-31 35.5t-48 19.5t-61 6q-26 0 -55.5 -6.5t-54.5 -22.5t-41 -41.5t-16 -63.5q0 -31 10.5 -50t28 -31t41 -19.5t50.5 -14.5q41 -11 77 -24t63 -33.5t42.5 -50t15.5 -73.5q0 -42 -17 -80.5t-50.5 -67.5t-82.5 -46.5t-112 -17.5q-41 0 -82 8t-74.5 30
t-55.5 59.5t-24 97.5h75q2 -42 18 -68t39.5 -40.5t51.5 -19t55 -4.5q31 0 63 7.5t58 24t43 43t17 65.5q0 29 -10 49t-30.5 34.5t-51 25t-71.5 21.5q-30 8 -59 19t-52.5 30t-37.5 47.5t-14 70.5q0 45 19.5 83t53.5 65.5t79 42.5t95 15q99 0 158 -42.5t59 -136.5h-70zM466 869
h96l-144 -128h-59z" />
    <glyph glyph-name="sacute" unicode="&#x15b;" horiz-adv-x="500" 
d="M397 346q0 44 -30.5 62t-80.5 18q-19 0 -41 -3.5t-40.5 -13.5t-31 -26.5t-12.5 -41.5q0 -32 23 -45.5t73 -24.5q33 -8 62 -17t50.5 -23.5t34 -36.5t12.5 -55t-14 -61t-41 -48t-66 -31.5t-90 -11.5q-33 0 -65.5 5.5t-59.5 20.5t-45 43t-21 73h71q2 -29 14 -45.5
t29.5 -25.5t38 -11.5t40.5 -2.5q23 0 47 4t43.5 14t32 27.5t12.5 44.5q0 18 -7.5 30.5t-22.5 21t-38 15.5t-54 15q-27 7 -50.5 15t-41.5 21.5t-28.5 34t-10.5 50.5q0 35 16 62.5t43.5 46t63.5 28t77 9.5q81 0 127.5 -32t46.5 -105h-66zM381 699h96l-145 -128h-59z" />
    <glyph glyph-name="Scircumflex" unicode="&#x15c;" horiz-adv-x="603" 
d="M521 514q0 32 -11 54t-31 35.5t-48 19.5t-61 6q-26 0 -55.5 -6.5t-54.5 -22.5t-41 -41.5t-16 -63.5q0 -31 10.5 -50t28 -31t41 -19.5t50.5 -14.5q41 -11 77 -24t63 -33.5t42.5 -50t15.5 -73.5q0 -42 -17 -80.5t-50.5 -67.5t-82.5 -46.5t-112 -17.5q-41 0 -82 8t-74.5 30
t-55.5 59.5t-24 97.5h75q2 -42 18 -68t39.5 -40.5t51.5 -19t55 -4.5q31 0 63 7.5t58 24t43 43t17 65.5q0 29 -10 49t-30.5 34.5t-51 25t-71.5 21.5q-30 8 -59 19t-52.5 30t-37.5 47.5t-14 70.5q0 45 19.5 83t53.5 65.5t79 42.5t95 15q99 0 158 -42.5t59 -136.5h-70zM422 826
l-77 -85h-75l117 128h81l63 -128h-68z" />
    <glyph glyph-name="scircumflex" unicode="&#x15d;" horiz-adv-x="500" 
d="M397 346q0 44 -30.5 62t-80.5 18q-19 0 -41 -3.5t-40.5 -13.5t-31 -26.5t-12.5 -41.5q0 -32 23 -45.5t73 -24.5q33 -8 62 -17t50.5 -23.5t34 -36.5t12.5 -55t-14 -61t-41 -48t-66 -31.5t-90 -11.5q-33 0 -65.5 5.5t-59.5 20.5t-45 43t-21 73h71q2 -29 14 -45.5
t29.5 -25.5t38 -11.5t40.5 -2.5q23 0 47 4t43.5 14t32 27.5t12.5 44.5q0 18 -7.5 30.5t-22.5 21t-38 15.5t-54 15q-27 7 -50.5 15t-41.5 21.5t-28.5 34t-10.5 50.5q0 35 16 62.5t43.5 46t63.5 28t77 9.5q81 0 127.5 -32t46.5 -105h-66zM344 656l-78 -85h-75l118 128h81
l62 -128h-68z" />
    <glyph glyph-name="Scedilla" unicode="&#x15e;" horiz-adv-x="603" 
d="M168 -79l57 68q-36 4 -69.5 15t-60 33.5t-43.5 57.5t-19 87h75q2 -42 18 -68t39.5 -40.5t51.5 -19t55 -4.5q31 0 63 7.5t58 24t43 43t17 65.5q0 29 -10 49t-30.5 34.5t-51 25t-71.5 21.5q-30 8 -59 19t-52.5 30t-37.5 47.5t-14 70.5q0 45 19.5 83t53.5 65.5t79 42.5
t95 15q99 0 158 -42.5t59 -136.5h-70q0 32 -11 54t-31 35.5t-48 19.5t-61 6q-26 0 -55.5 -6.5t-54.5 -22.5t-41 -41.5t-16 -63.5q0 -31 10.5 -50t28 -31t41 -19.5t50.5 -14.5q41 -11 77 -24t63 -33.5t42.5 -50t15.5 -73.5q0 -42 -17 -80.5t-50.5 -67.5t-82.5 -46.5
t-112 -17.5h-5l-30 -39l1 -1q4 1 10.5 1h10.5q28 0 50 -15t22 -45q0 -29 -12.5 -48.5t-32 -31.5t-42.5 -17t-44 -5q-16 0 -34 2t-38 7l7 36q30 -6 59 -6q13 0 26.5 2.5t24.5 8.5t18.5 15.5t7.5 23.5q0 20 -15.5 28t-35.5 8q-13 0 -24 -1.5t-17 -3.5z" />
    <glyph glyph-name="scedilla" unicode="&#x15f;" horiz-adv-x="500" 
d="M102 -79l57 68q-27 3 -52 11.5t-45 24.5t-32.5 41.5t-15.5 62.5h71q2 -29 14 -45.5t29.5 -25.5t38 -11.5t40.5 -2.5q23 0 47 4t43.5 14t32 27.5t12.5 44.5q0 18 -7.5 30.5t-22.5 21t-38 15.5t-54 15q-27 7 -50.5 15t-41.5 21.5t-28.5 34t-10.5 50.5q0 35 16 62.5t43.5 46
t63.5 28t77 9.5q81 0 127.5 -32t46.5 -105h-66q0 44 -30.5 62t-80.5 18q-19 0 -41 -3.5t-40.5 -13.5t-31 -26.5t-12.5 -41.5q0 -32 23 -45.5t73 -24.5q33 -8 62 -17t50.5 -23.5t34 -36.5t12.5 -55t-14 -61t-41 -48t-66 -31.5t-90 -11.5h-7l-30 -39l1 -1q4 1 10.5 1h10.5
q28 0 50 -15t22 -45q0 -29 -12.5 -48.5t-32 -31.5t-42.5 -17t-44 -5q-16 0 -34 2t-38 7l7 36q30 -6 59 -6q13 0 26.5 2.5t24.5 8.5t18.5 15.5t7.5 23.5q0 20 -15.5 28t-35.5 8q-13 0 -24 -1.5t-17 -3.5z" />
    <glyph glyph-name="Scaron" unicode="&#x160;" horiz-adv-x="603" 
d="M521 514q0 32 -11 54t-31 35.5t-48 19.5t-61 6q-26 0 -55.5 -6.5t-54.5 -22.5t-41 -41.5t-16 -63.5q0 -31 10.5 -50t28 -31t41 -19.5t50.5 -14.5q41 -11 77 -24t63 -33.5t42.5 -50t15.5 -73.5q0 -42 -17 -80.5t-50.5 -67.5t-82.5 -46.5t-112 -17.5q-41 0 -82 8t-74.5 30
t-55.5 59.5t-24 97.5h75q2 -42 18 -68t39.5 -40.5t51.5 -19t55 -4.5q31 0 63 7.5t58 24t43 43t17 65.5q0 29 -10 49t-30.5 34.5t-51 25t-71.5 21.5q-30 8 -59 19t-52.5 30t-37.5 47.5t-14 70.5q0 45 19.5 83t53.5 65.5t79 42.5t95 15q99 0 158 -42.5t59 -136.5h-70zM295 869
h70l40 -84l78 84h73l-115 -128h-81z" />
    <glyph glyph-name="scaron" unicode="&#x161;" horiz-adv-x="500" 
d="M397 346q0 44 -30.5 62t-80.5 18q-19 0 -41 -3.5t-40.5 -13.5t-31 -26.5t-12.5 -41.5q0 -32 23 -45.5t73 -24.5q33 -8 62 -17t50.5 -23.5t34 -36.5t12.5 -55t-14 -61t-41 -48t-66 -31.5t-90 -11.5q-33 0 -65.5 5.5t-59.5 20.5t-45 43t-21 73h71q2 -29 14 -45.5
t29.5 -25.5t38 -11.5t40.5 -2.5q23 0 47 4t43.5 14t32 27.5t12.5 44.5q0 18 -7.5 30.5t-22.5 21t-38 15.5t-54 15q-27 7 -50.5 15t-41.5 21.5t-28.5 34t-10.5 50.5q0 35 16 62.5t43.5 46t63.5 28t77 9.5q81 0 127.5 -32t46.5 -105h-66zM213 699h70l40 -84l78 84h73
l-116 -128h-81z" />
    <glyph glyph-name="Tcommaaccent" unicode="&#x162;" horiz-adv-x="524" 
d="M307 616h-209l14 64h488l-14 -64h-206l-130 -616h-73zM105 -250q35 42 55.5 81t20.5 70q0 13 -4 25l63 21q4 -9 5 -16t1 -18q0 -34 -27.5 -78t-66.5 -85h-47z" />
    <glyph glyph-name="tcommaaccent" unicode="&#x163;" horiz-adv-x="343" 
d="M66 470h95l30 137h70l-30 -137h140l-12 -56h-140l-58 -269q-2 -9 -4 -20.5t-2 -23.5q0 -27 15 -37.5t47 -10.5q14 0 24 1.5t21 3.5l-13 -58q-28 -5 -60 -5q-49 0 -78.5 22t-29.5 69q0 12 2 25t5 26l61 277h-95zM54 -250q35 42 55.5 81t20.5 70q0 13 -4 25l63 21
q4 -9 5 -16t1 -18q0 -34 -27.5 -78t-66.5 -85h-47z" />
    <glyph glyph-name="Tcaron" unicode="&#x164;" horiz-adv-x="524" 
d="M307 616h-209l14 64h488l-14 -64h-206l-130 -616h-73zM254 869h70l40 -84l78 84h73l-115 -128h-81z" />
    <glyph glyph-name="tcaron" unicode="&#x165;" horiz-adv-x="343" 
d="M66 470h95l30 137h70l-30 -137h140l-12 -56h-140l-58 -269q-2 -9 -4 -20.5t-2 -23.5q0 -27 15 -37.5t47 -10.5q14 0 24 1.5t21 3.5l-13 -58q-28 -5 -60 -5q-49 0 -78.5 22t-29.5 69q0 12 2 25t5 26l61 277h-95zM291 534q35 42 55.5 81t20.5 70q0 13 -4 25l63 21
q4 -9 5 -16t1 -18q0 -34 -27.5 -78t-66.5 -85h-47z" />
    <glyph glyph-name="Tbar" unicode="&#x166;" horiz-adv-x="524" 
d="M151 470h125l31 146h-209l14 64h488l-14 -64h-206l-31 -146h137l-10 -47h-137l-89 -423h-73l89 423h-125z" />
    <glyph glyph-name="tbar" unicode="&#x167;" horiz-adv-x="343" 
d="M63 323h65l21 91h-95l12 56h95l30 137h70l-30 -137h140l-12 -56h-140l-20 -91h103l-10 -44h-103l-28 -134q-2 -9 -4 -20.5t-2 -23.5q0 -27 15 -37.5t47 -10.5q14 0 24 1.5t21 3.5l-13 -58q-28 -5 -60 -5q-49 0 -78.5 22t-29.5 69q0 12 2 25t5 26l31 142h-67z" />
    <glyph glyph-name="Utilde" unicode="&#x168;" horiz-adv-x="687" 
d="M185 680h73l-95 -445q-3 -14 -4.5 -30t-1.5 -28q0 -37 11.5 -61t31.5 -38.5t47 -20.5t57 -6q49 0 85.5 11t63.5 35t45.5 61.5t29.5 90.5l92 431h73l-92 -432q-28 -132 -98.5 -196.5t-198.5 -64.5q-108 0 -165.5 43t-57.5 131q0 14 1.5 29.5t4.5 30.5zM306 748
q12 45 38 72t69 27q20 0 37 -4.5t31 -10.5t30 -12.5t29 -6.5q23 0 34 13.5t15 27.5h45q-14 -48 -39.5 -73.5t-68.5 -25.5q-17 0 -32.5 4.5t-34.5 13.5q-15 8 -30.5 12.5t-28.5 4.5q-23 0 -34.5 -14t-14.5 -28h-45z" />
    <glyph glyph-name="utilde" unicode="&#x169;" horiz-adv-x="572" 
d="M382 82q-33 -45 -77.5 -66.5t-95.5 -21.5q-21 0 -46.5 6t-47.5 20t-37 38.5t-15 62.5q0 17 5 42l65 307h71l-60 -284q-2 -11 -4 -23.5t-2 -21.5q0 -50 29 -69t70 -19q26 0 53 10t51 30t42.5 49t26.5 67l55 261h71l-99 -470h-71l17 82h-1zM212 578q12 45 38 72t69 27
q20 0 37 -4.5t31 -10.5t30 -12.5t29 -6.5q23 0 34 13.5t15 27.5h45q-14 -48 -39.5 -73.5t-68.5 -25.5q-17 0 -32.5 4.5t-34.5 13.5q-15 8 -30.5 12.5t-28.5 4.5q-23 0 -34.5 -14t-14.5 -28h-45z" />
    <glyph glyph-name="Umacron" unicode="&#x16a;" horiz-adv-x="687" 
d="M185 680h73l-95 -445q-3 -14 -4.5 -30t-1.5 -28q0 -37 11.5 -61t31.5 -38.5t47 -20.5t57 -6q49 0 85.5 11t63.5 35t45.5 61.5t29.5 90.5l92 431h73l-92 -432q-28 -132 -98.5 -196.5t-198.5 -64.5q-108 0 -165.5 43t-57.5 131q0 14 1.5 29.5t4.5 30.5zM348 825h246
l-11 -52h-246z" />
    <glyph glyph-name="umacron" unicode="&#x16b;" horiz-adv-x="572" 
d="M382 82q-33 -45 -77.5 -66.5t-95.5 -21.5q-21 0 -46.5 6t-47.5 20t-37 38.5t-15 62.5q0 17 5 42l65 307h71l-60 -284q-2 -11 -4 -23.5t-2 -21.5q0 -50 29 -69t70 -19q26 0 53 10t51 30t42.5 49t26.5 67l55 261h71l-99 -470h-71l17 82h-1zM248 655h246l-11 -52h-246z" />
    <glyph glyph-name="Ubreve" unicode="&#x16c;" horiz-adv-x="687" 
d="M185 680h73l-95 -445q-3 -14 -4.5 -30t-1.5 -28q0 -37 11.5 -61t31.5 -38.5t47 -20.5t57 -6q49 0 85.5 11t63.5 35t45.5 61.5t29.5 90.5l92 431h73l-92 -432q-28 -132 -98.5 -196.5t-198.5 -64.5q-108 0 -165.5 43t-57.5 131q0 14 1.5 29.5t4.5 30.5zM368 869v-9
q0 -25 21 -43.5t62 -18.5q45 0 75 18t38 53h43q-11 -56 -50.5 -89t-108.5 -33q-59 0 -89.5 25.5t-30.5 69.5v13t2 14h38z" />
    <glyph glyph-name="ubreve" unicode="&#x16d;" horiz-adv-x="572" 
d="M382 82q-33 -45 -77.5 -66.5t-95.5 -21.5q-21 0 -46.5 6t-47.5 20t-37 38.5t-15 62.5q0 17 5 42l65 307h71l-60 -284q-2 -11 -4 -23.5t-2 -21.5q0 -50 29 -69t70 -19q26 0 53 10t51 30t42.5 49t26.5 67l55 261h71l-99 -470h-71l17 82h-1zM268 699v-9q0 -25 21 -43.5
t62 -18.5q45 0 75 18t38 53h43q-11 -56 -50.5 -89t-108.5 -33q-59 0 -89.5 25.5t-30.5 69.5v13t2 14h38z" />
    <glyph glyph-name="Uring" unicode="&#x16e;" horiz-adv-x="687" 
d="M185 680h73l-95 -445q-3 -14 -4.5 -30t-1.5 -28q0 -37 11.5 -61t31.5 -38.5t47 -20.5t57 -6q49 0 85.5 11t63.5 35t45.5 61.5t29.5 90.5l92 431h73l-92 -432q-28 -132 -98.5 -196.5t-198.5 -64.5q-108 0 -165.5 43t-57.5 131q0 14 1.5 29.5t4.5 30.5zM357 818
q0 19 7.5 36t20 29.5t29 20t35.5 7.5t36 -7.5t29.5 -20t20 -29.5t7.5 -36t-7.5 -35.5t-20 -29t-29.5 -20t-36 -7.5q-38 0 -65 27t-27 65zM505 818q0 23 -16.5 39.5t-39.5 16.5t-39.5 -16.5t-16.5 -39.5t16.5 -39.5t39.5 -16.5t39.5 16.5t16.5 39.5z" />
    <glyph glyph-name="uring" unicode="&#x16f;" horiz-adv-x="572" 
d="M382 82q-33 -45 -77.5 -66.5t-95.5 -21.5q-21 0 -46.5 6t-47.5 20t-37 38.5t-15 62.5q0 17 5 42l65 307h71l-60 -284q-2 -11 -4 -23.5t-2 -21.5q0 -50 29 -69t70 -19q26 0 53 10t51 30t42.5 49t26.5 67l55 261h71l-99 -470h-71l17 82h-1zM271 648q0 19 7.5 36t20 29.5
t29 20t35.5 7.5t36 -7.5t29.5 -20t20 -29.5t7.5 -36t-7.5 -35.5t-20 -29t-29.5 -20t-36 -7.5q-38 0 -65 27t-27 65zM419 648q0 23 -16.5 39.5t-39.5 16.5t-39.5 -16.5t-16.5 -39.5t16.5 -39.5t39.5 -16.5t39.5 16.5t16.5 39.5z" />
    <glyph glyph-name="Uhungarumlaut" unicode="&#x170;" horiz-adv-x="687" 
d="M185 680h73l-95 -445q-3 -14 -4.5 -30t-1.5 -28q0 -37 11.5 -61t31.5 -38.5t47 -20.5t57 -6q49 0 85.5 11t63.5 35t45.5 61.5t29.5 90.5l92 431h73l-92 -432q-28 -132 -98.5 -196.5t-198.5 -64.5q-108 0 -165.5 43t-57.5 131q0 14 1.5 29.5t4.5 30.5zM600 869h94
l-143 -128h-59zM447 869h96l-145 -128h-57z" />
    <glyph glyph-name="uhungarumlaut" unicode="&#x171;" horiz-adv-x="572" 
d="M382 82q-33 -45 -77.5 -66.5t-95.5 -21.5q-21 0 -46.5 6t-47.5 20t-37 38.5t-15 62.5q0 17 5 42l65 307h71l-60 -284q-2 -11 -4 -23.5t-2 -21.5q0 -50 29 -69t70 -19q26 0 53 10t51 30t42.5 49t26.5 67l55 261h71l-99 -470h-71l17 82h-1zM502 699h94l-144 -128h-59z
M349 699h96l-146 -128h-57z" />
    <glyph glyph-name="Uogonek" unicode="&#x172;" horiz-adv-x="687" 
d="M185 680h73l-95 -445q-3 -14 -4.5 -30t-1.5 -28q0 -37 11.5 -61t31.5 -38.5t47 -20.5t57 -6q49 0 85.5 11t63.5 35t45.5 61.5t29.5 90.5l92 431h73l-92 -432q-26 -121 -86.5 -184.5t-167.5 -74.5q-42 -33 -67 -61t-25 -60q0 -24 15 -30.5t30 -6.5q12 0 20.5 2t16.5 5v-36
q-5 -2 -13 -4t-17 -3.5t-17.5 -2.5t-14.5 -1q-15 0 -30.5 2.5t-28 9.5t-20.5 18.5t-8 29.5q0 42 31 73.5t78 62.5q-105 2 -160.5 45t-55.5 129q0 14 1.5 29.5t4.5 30.5z" />
    <glyph glyph-name="uogonek" unicode="&#x173;" horiz-adv-x="572" 
d="M383 82h-1q-33 -45 -77.5 -66.5t-95.5 -21.5q-21 0 -46.5 6t-47.5 20t-37 38.5t-15 62.5q0 17 5 42l65 307h71l-60 -284q-2 -11 -4 -23.5t-2 -21.5q0 -50 29 -69t70 -19q26 0 53 10t51 30t42.5 49t26.5 67l55 261h71l-99 -470h-27q-47 -38 -76.5 -68t-29.5 -64
q0 -24 15 -30.5t30 -6.5q12 0 20.5 2t16.5 5v-36q-5 -2 -13 -4t-17 -3.5t-17.5 -2.5t-14.5 -1q-15 0 -30.5 2.5t-28 9.5t-20.5 18.5t-8 29.5q0 23 10 43t27.5 37.5t41 34.5t50.5 34z" />
    <glyph glyph-name="Wcircumflex" unicode="&#x174;" horiz-adv-x="904" 
d="M529 573h-2l-322 -573h-62l-26 680h77l11 -562h2l310 562h68l60 -568h1l257 568h76l-324 -680h-62zM582 826l-77 -85h-75l117 128h81l63 -128h-68z" />
    <glyph glyph-name="wcircumflex" unicode="&#x175;" horiz-adv-x="769" 
d="M87 470h76l32 -362h2l209 362h62l41 -362h2l205 362h77l-275 -470h-65l-38 361h-2l-212 -361h-61zM472 656l-78 -85h-75l118 128h81l62 -128h-68z" />
    <glyph glyph-name="Ycircumflex" unicode="&#x176;" horiz-adv-x="570" 
d="M262 280l-152 400h87l112 -340l253 340h87l-318 -400l-59 -280h-69zM420 826l-77 -85h-75l117 128h81l63 -128h-68z" />
    <glyph glyph-name="ycircumflex" unicode="&#x177;" horiz-adv-x="507" 
d="M172 10l-95 460h81l63 -390h2l229 390h78l-419 -670h-80zM349 656l-78 -85h-75l118 128h81l62 -128h-68z" />
    <glyph glyph-name="Ydieresis" unicode="&#x178;" horiz-adv-x="570" 
d="M262 280l-152 400h87l112 -340l253 340h87l-318 -400l-59 -280h-69zM265 797q0 20 14 34t34 14t34.5 -14t14.5 -34t-14.5 -34.5t-34.5 -14.5t-34 14.5t-14 34.5zM451 797q0 20 14 34t34 14t34.5 -14t14.5 -34t-14.5 -34.5t-34.5 -14.5t-34 14.5t-14 34.5z" />
    <glyph glyph-name="Zacute" unicode="&#x179;" horiz-adv-x="588" 
d="M-2 59l541 557h-388l14 64h480l-13 -59l-539 -557h410l-13 -64h-504zM462 869h96l-144 -128h-59z" />
    <glyph glyph-name="zacute" unicode="&#x17a;" horiz-adv-x="469" 
d="M12 60l354 349h-267l13 61h351l-13 -60l-353 -349h279l-12 -61h-364zM368 699h96l-145 -128h-59z" />
    <glyph glyph-name="Zdotaccent" unicode="&#x17b;" horiz-adv-x="588" 
d="M-2 59l541 557h-388l14 64h480l-13 -59l-539 -557h410l-13 -64h-504zM356 796q0 23 15.5 38.5t38.5 15.5q22 0 37.5 -15.5t15.5 -38.5q0 -22 -15.5 -37.5t-37.5 -15.5q-23 0 -38.5 15.5t-15.5 37.5z" />
    <glyph glyph-name="zdotaccent" unicode="&#x17c;" horiz-adv-x="469" 
d="M12 60l354 349h-267l13 61h351l-13 -60l-353 -349h279l-12 -61h-364zM256 630q0 23 15.5 38.5t38.5 15.5q22 0 37.5 -15.5t15.5 -38.5q0 -22 -15.5 -37.5t-37.5 -15.5q-23 0 -38.5 15.5t-15.5 37.5z" />
    <glyph glyph-name="Zcaron" unicode="&#x17d;" horiz-adv-x="588" 
d="M-2 59l541 557h-388l14 64h480l-13 -59l-539 -557h410l-13 -64h-504zM290 869h70l40 -84l78 84h73l-115 -128h-81z" />
    <glyph glyph-name="zcaron" unicode="&#x17e;" horiz-adv-x="469" 
d="M12 60l354 349h-267l13 61h351l-13 -60l-353 -349h279l-12 -61h-364zM216 699h70l40 -84l78 84h73l-116 -128h-81z" />
    <glyph glyph-name="florin" unicode="&#x192;" 
d="M-12 -121h24q35 0 55 19t37 69l118 349h-87l16 47h87l72 209q17 51 57 79.5t100 28.5h37l-23 -69h-21q-17 0 -29.5 -3t-22 -11.5t-18.5 -24.5t-18 -42l-58 -167h97l-15 -47h-97l-123 -359q-15 -45 -33 -74t-39 -45t-46 -22t-55 -6h-38z" />
    <glyph glyph-name="Scommaaccent" unicode="&#x218;" horiz-adv-x="603" 
d="M521 514q0 32 -11 54t-31 35.5t-48 19.5t-61 6q-26 0 -55.5 -6.5t-54.5 -22.5t-41 -41.5t-16 -63.5q0 -31 10.5 -50t28 -31t41 -19.5t50.5 -14.5q41 -11 77 -24t63 -33.5t42.5 -50t15.5 -73.5q0 -42 -17 -80.5t-50.5 -67.5t-82.5 -46.5t-112 -17.5q-41 0 -82 8t-74.5 30
t-55.5 59.5t-24 97.5h75q2 -42 18 -68t39.5 -40.5t51.5 -19t55 -4.5q31 0 63 7.5t58 24t43 43t17 65.5q0 29 -10 49t-30.5 34.5t-51 25t-71.5 21.5q-30 8 -59 19t-52.5 30t-37.5 47.5t-14 70.5q0 45 19.5 83t53.5 65.5t79 42.5t95 15q99 0 158 -42.5t59 -136.5h-70z
M151 -250q35 42 55.5 81t20.5 70q0 13 -4 25l63 21q4 -9 5 -16t1 -18q0 -34 -27.5 -78t-66.5 -85h-47z" />
    <glyph glyph-name="scommaaccent" unicode="&#x219;" horiz-adv-x="500" 
d="M397 346q0 44 -30.5 62t-80.5 18q-19 0 -41 -3.5t-40.5 -13.5t-31 -26.5t-12.5 -41.5q0 -32 23 -45.5t73 -24.5q33 -8 62 -17t50.5 -23.5t34 -36.5t12.5 -55t-14 -61t-41 -48t-66 -31.5t-90 -11.5q-33 0 -65.5 5.5t-59.5 20.5t-45 43t-21 73h71q2 -29 14 -45.5
t29.5 -25.5t38 -11.5t40.5 -2.5q23 0 47 4t43.5 14t32 27.5t12.5 44.5q0 18 -7.5 30.5t-22.5 21t-38 15.5t-54 15q-27 7 -50.5 15t-41.5 21.5t-28.5 34t-10.5 50.5q0 35 16 62.5t43.5 46t63.5 28t77 9.5q81 0 127.5 -32t46.5 -105h-66zM75 -250q35 42 55.5 81t20.5 70
q0 13 -4 25l63 21q4 -9 5 -16t1 -18q0 -34 -27.5 -78t-66.5 -85h-47z" />
    <glyph glyph-name="uni021A" unicode="&#x21a;" horiz-adv-x="524" 
d="M307 616h-209l14 64h488l-14 -64h-206l-130 -616h-73zM105 -250q35 42 55.5 81t20.5 70q0 13 -4 25l63 21q4 -9 5 -16t1 -18q0 -34 -27.5 -78t-66.5 -85h-47z" />
    <glyph glyph-name="uni021B" unicode="&#x21b;" horiz-adv-x="343" 
d="M66 470h95l30 137h70l-30 -137h140l-12 -56h-140l-58 -269q-2 -9 -4 -20.5t-2 -23.5q0 -27 15 -37.5t47 -10.5q14 0 24 1.5t21 3.5l-13 -58q-28 -5 -60 -5q-49 0 -78.5 22t-29.5 69q0 12 2 25t5 26l61 277h-95zM54 -250q35 42 55.5 81t20.5 70q0 13 -4 25l63 21
q4 -9 5 -16t1 -18q0 -34 -27.5 -78t-66.5 -85h-47z" />
    <glyph glyph-name="dotlessj" unicode="&#x237;" horiz-adv-x="261" 
d="M-68 -140h9q40 0 61.5 18t31.5 64l112 528h72l-113 -533q-7 -32 -19 -57.5t-31.5 -43t-48.5 -27t-70 -9.5h-17z" />
    <glyph glyph-name="circumflex" unicode="&#x2c6;" horiz-adv-x="255" 
d="M219 656l-78 -85h-75l118 128h81l62 -128h-68z" />
    <glyph glyph-name="caron" unicode="&#x2c7;" horiz-adv-x="255" 
d="M94 699h70l40 -84l78 84h73l-116 -128h-81z" />
    <glyph glyph-name="uni02C9" unicode="&#x2c9;" horiz-adv-x="255" 
d="M129 825h246l-11 -52h-246z" />
    <glyph glyph-name="breve" unicode="&#x2d8;" horiz-adv-x="255" 
d="M125 699v-9q0 -25 21 -43.5t62 -18.5q45 0 75 18t38 53h43q-11 -56 -50.5 -89t-108.5 -33q-59 0 -89.5 25.5t-30.5 69.5v13t2 14h38z" />
    <glyph glyph-name="dotaccent" unicode="&#x2d9;" horiz-adv-x="255" 
d="M155 630q0 23 15.5 38.5t38.5 15.5q22 0 37.5 -15.5t15.5 -38.5q0 -22 -15.5 -37.5t-37.5 -15.5q-23 0 -38.5 15.5t-15.5 37.5z" />
    <glyph glyph-name="ring" unicode="&#x2da;" horiz-adv-x="255" 
d="M119 648q0 19 7.5 36t20 29.5t29 20t35.5 7.5t36 -7.5t29.5 -20t20 -29.5t7.5 -36t-7.5 -35.5t-20 -29t-29.5 -20t-36 -7.5q-38 0 -65 27t-27 65zM267 648q0 23 -16.5 39.5t-39.5 16.5t-39.5 -16.5t-16.5 -39.5t16.5 -39.5t39.5 -16.5t39.5 16.5t16.5 39.5z" />
    <glyph glyph-name="ogonek" unicode="&#x2db;" horiz-adv-x="255" 
d="M153 0q-47 -38 -76.5 -68t-29.5 -64q0 -24 15 -30.5t30 -6.5q12 0 20.5 2t16.5 5v-36q-5 -2 -13 -4t-17 -3.5t-17.5 -2.5t-14.5 -1q-15 0 -30.5 2.5t-28 9.5t-20.5 18.5t-8 29.5q0 23 10 43t27.5 37.5t41 34.5t50.5 34h44z" />
    <glyph glyph-name="tilde" unicode="&#x2dc;" horiz-adv-x="255" 
d="M47 578q12 45 38 72t69 27q20 0 37 -4.5t31 -10.5t30 -12.5t29 -6.5q23 0 34 13.5t15 27.5h45q-14 -48 -39.5 -73.5t-68.5 -25.5q-17 0 -32.5 4.5t-34.5 13.5q-15 8 -30.5 12.5t-28.5 4.5q-23 0 -34.5 -14t-14.5 -28h-45z" />
    <glyph glyph-name="hungarumlaut" unicode="&#x2dd;" horiz-adv-x="255" 
d="M298 699h94l-144 -128h-59zM145 699h96l-146 -128h-57z" />
    <glyph glyph-name="uni0394" unicode="&#x394;" horiz-adv-x="685" 
d="M22 0l281 712h74l287 -712h-642zM339 645l-226 -583h455z" />
    <glyph glyph-name="uni03A9" unicode="&#x3a9;" horiz-adv-x="759" 
d="M447 0v181q45 8 79.5 28.5t58 51.5t35 70t11.5 84q0 54 -19.5 99t-53.5 77.5t-80 50.5t-99 18t-99 -18.5t-80 -51t-53.5 -77.5t-19.5 -98q0 -44 11.5 -83.5t35 -70.5t58 -52t79.5 -28v-181h-251v58h197v82q-47 13 -83.5 40t-62 63.5t-38.5 80.5t-13 92q0 67 25.5 123
t69.5 96.5t102 63t123 22.5t122.5 -22.5t101 -63t69 -96.5t25.5 -122q0 -48 -13 -92.5t-38 -81t-61.5 -63.5t-84.5 -40v-82h197v-58h-251z" />
    <glyph glyph-name="uni03BC" unicode="&#x3bc;" horiz-adv-x="574" 
d="M82 470h66v-261q0 -86 27.5 -123.5t99.5 -37.5q30 0 56 12t45 35t30 56.5t11 76.5v242h66v-367q0 -26 1.5 -51.5t3.5 -51.5h-71v76h-2q-11 -18 -28 -34t-38 -28t-44.5 -19t-46.5 -7q-69 0 -110 29v-245h-66v698z" />
    <glyph glyph-name="pi" unicode="&#x3c0;" horiz-adv-x="593" 
d="M540 11q-17 -8 -31.5 -12.5t-32.5 -4.5q-29 0 -45.5 9.5t-24 26t-9 37.5t-1.5 44v300h-220v-411h-64v411h-70v59h494v-59h-76v-307q0 -22 5.5 -38t32.5 -16q20 0 42 10v-49z" />
    <glyph glyph-name="endash" unicode="&#x2013;" 
d="M60 285h410l-12 -57h-410z" />
    <glyph glyph-name="emdash" unicode="&#x2014;" horiz-adv-x="800" 
d="M60 285h700l-12 -57h-700z" />
    <glyph glyph-name="quoteleft" unicode="&#x2018;" horiz-adv-x="250" 
d="M169 466l-65 18l149 208l39 -12z" />
    <glyph glyph-name="quoteright" unicode="&#x2019;" horiz-adv-x="250" 
d="M227 692l64 -19l-148 -207l-40 11z" />
    <glyph glyph-name="quotesinglbase" unicode="&#x201a;" horiz-adv-x="250" 
d="M76 101l64 -19l-148 -207l-40 11z" />
    <glyph glyph-name="quotedblleft" unicode="&#x201c;" horiz-adv-x="420" 
d="M170 466l-66 18l149 208l40 -12zM339 466l-66 18l149 208l40 -12z" />
    <glyph glyph-name="quotedblright" unicode="&#x201d;" horiz-adv-x="420" 
d="M396 692l65 -19l-148 -207l-41 11zM227 692l65 -19l-148 -207l-41 11z" />
    <glyph glyph-name="quotedblbase" unicode="&#x201e;" horiz-adv-x="420" 
d="M244 101l65 -19l-148 -207l-41 11zM75 101l65 -19l-148 -207l-41 11z" />
    <glyph glyph-name="dagger" unicode="&#x2020;" 
d="M253 412h-155l15 69h155l42 199h71l-42 -199h154l-15 -69h-154l-111 -521h-71z" />
    <glyph glyph-name="daggerdbl" unicode="&#x2021;" 
d="M258 437h-155l15 68h155l37 175h71l-37 -175h154l-15 -68h-154l-64 -303h154l-15 -69h-154l-37 -174h-71l37 174h-155l15 69h155z" />
    <glyph glyph-name="bullet" unicode="&#x2022;" horiz-adv-x="500" 
d="M431 352q0 -38 -14 -70.5t-39 -57.5t-58 -39t-70 -14q-38 0 -70.5 14t-57.5 39t-39 57.5t-14 70.5q0 37 14 70t39 57.5t57.5 38.5t70.5 14q37 0 70 -14t58 -38.5t39 -57.5t14 -70z" />
    <glyph glyph-name="ellipsis" unicode="&#x2026;" horiz-adv-x="765" 
d="M548 47q0 23 16.5 39.5t39.5 16.5t39 -16.5t16 -39.5t-16 -39t-39 -16t-39.5 16t-16.5 39zM293 47q0 23 16.5 39.5t39.5 16.5t39 -16.5t16 -39.5t-16 -39t-39 -16t-39.5 16t-16.5 39zM38 47q0 23 16.5 39.5t39.5 16.5t39 -16.5t16 -39.5t-16 -39t-39 -16t-39.5 16
t-16.5 39z" />
    <glyph glyph-name="perthousand" unicode="&#x2030;" horiz-adv-x="1190" 
d="M1056 202q0 33 -16 54t-49 21q-28 0 -49.5 -16t-36.5 -40t-22.5 -53.5t-7.5 -56.5q0 -32 16 -52.5t48 -20.5q26 0 47.5 14.5t37 38t24 52.5t8.5 59zM815 111q0 41 12.5 79.5t36 68t57 47.5t76.5 18q51 0 84.5 -29t33.5 -92q0 -39 -12.5 -77.5t-35.5 -68.5t-56 -48.5
t-74 -18.5q-25 0 -47.5 7t-39 22t-26 37.5t-9.5 54.5zM361 558q0 33 -16 54t-49 21q-28 0 -49.5 -16t-36.5 -40t-22.5 -53.5t-7.5 -56.5q0 -32 16 -52.5t48 -20.5q26 0 47.5 14.5t37 38t24 52.5t8.5 59zM120 467q0 40 12.5 78.5t36 68.5t57 48t76.5 18q51 0 84.5 -29
t33.5 -92q0 -39 -12.5 -77.5t-35.5 -68.5t-56 -48.5t-74 -18.5q-25 0 -47.5 7t-39 22t-26 37.5t-9.5 54.5zM698 701h55l-578 -733h-55zM696 202q0 33 -16 54t-49 21q-28 0 -49.5 -16t-36.5 -40t-22.5 -53.5t-7.5 -56.5q0 -32 16 -52.5t48 -20.5q26 0 47.5 14.5t37 38
t24 52.5t8.5 59zM455 111q0 41 12.5 79.5t36 68t57 47.5t76.5 18q51 0 84.5 -29t33.5 -92q0 -39 -12.5 -77.5t-35.5 -68.5t-56 -48.5t-74 -18.5q-25 0 -47.5 7t-39 22t-26 37.5t-9.5 54.5z" />
    <glyph glyph-name="guilsinglleft" unicode="&#x2039;" horiz-adv-x="330" 
d="M81 249l134 162h73l-135 -162l62 -167h-73z" />
    <glyph glyph-name="guilsinglright" unicode="&#x203a;" horiz-adv-x="330" 
d="M182 245l-63 166h73l61 -166l-133 -163h-74z" />
    <glyph glyph-name="fraction" unicode="&#x2044;" horiz-adv-x="100" 
d="M321 701h55l-578 -733h-55z" />
    <glyph glyph-name="Euro" unicode="&#x20ac;" 
d="M176 244v-10q0 -32 7.5 -64.5t25.5 -58.5t49 -43t78 -17q14 0 30.5 1.5t34.5 7.5l6 -61q-21 -7 -43.5 -9.5t-42.5 -2.5q-57 0 -98 17t-68 48t-40 73t-13 93v12.5t1 13.5h-73l20 50h58q5 26 11 51t14 49h-69l20 51h68q21 49 52 93.5t72 79t91.5 55t110.5 20.5
q20 0 41 -2.5t37 -9.5l-29 -57q-12 5 -29 7t-34 2q-50 0 -89.5 -19.5t-69.5 -48t-50 -61.5t-30 -59h231l-22 -51h-229q-9 -23 -15 -50t-10 -50h222l-21 -50h-205z" />
    <glyph glyph-name="afii61289" unicode="&#x2113;" horiz-adv-x="500" 
d="M373 42q-71 -55 -141 -55q-47 0 -75.5 23t-28.5 69q0 19 5 41l20 92l-71 -62h-2l-18 37l104 84l55 259q9 42 25 74.5t38 55t47.5 34t52.5 11.5q40 0 65 -24t25 -67q0 -48 -18.5 -91t-51 -85.5t-77 -86t-96.5 -92.5l-29 -133q-3 -17 -3 -28q0 -17 5.5 -28.5t14 -18.5
t19 -9.5t21.5 -2.5q20 0 44.5 9t51.5 29h2zM415 603q0 25 -9 39.5t-29 14.5q-23 0 -48 -28t-38 -88l-47 -222q34 32 65.5 67t54.5 71.5t37 73t14 72.5z" />
    <glyph glyph-name="trademark" unicode="&#x2122;" horiz-adv-x="900" 
d="M240 633h-119v47h291v-47h-119v-326h-53v326zM819 633h-2l-129 -326h-33l-129 326h-2v-326h-52v373h85l116 -292l112 292h86v-373h-52v326z" />
    <glyph glyph-name="Omega" unicode="&#x2126;" horiz-adv-x="759" 
d="M447 0v181q45 8 79.5 28.5t58 51.5t35 70t11.5 84q0 54 -19.5 99t-53.5 77.5t-80 50.5t-99 18t-99 -18.5t-80 -51t-53.5 -77.5t-19.5 -98q0 -44 11.5 -83.5t35 -70.5t58 -52t79.5 -28v-181h-251v58h197v82q-47 13 -83.5 40t-62 63.5t-38.5 80.5t-13 92q0 67 25.5 123
t69.5 96.5t102 63t123 22.5t122.5 -22.5t101 -63t69 -96.5t25.5 -122q0 -48 -13 -92.5t-38 -81t-61.5 -63.5t-84.5 -40v-82h197v-58h-251z" />
    <glyph glyph-name="estimated" unicode="&#x212e;" horiz-adv-x="604" 
d="M157 259v-181q59 -59 145 -59q63 0 109 28.5t84 91.5l35 -21q-23 -36 -46.5 -61.5t-51 -42t-59.5 -24t-71 -7.5q-59 0 -106.5 21.5t-81.5 59t-52 87.5t-18 108t18 108.5t52 87.5t81.5 58.5t106.5 21.5q58 0 105.5 -20.5t81.5 -57t53 -87t19 -111.5h-404zM448 295v145
q-63 60 -147 60t-144 -60v-145h291z" />
    <glyph glyph-name="partialdiff" unicode="&#x2202;" horiz-adv-x="556" 
d="M487 363q0 -55 -8 -120.5t-32 -122t-68.5 -94.5t-116.5 -38q-47 0 -84 18.5t-62.5 49.5t-39 71.5t-13.5 84.5q0 43 13 82t38 68t61 46t82 17q49 0 92 -23t74 -61q0 13 0.5 26t0.5 26q0 42 -8.5 89.5t-29 88.5t-55 68t-86.5 27q-35 0 -60.5 -13t-51.5 -33l-36 43
q32 28 67 43t78 15q48 0 85 -15.5t64 -42.5t45.5 -62.5t29.5 -75.5t16 -81.5t5 -80.5zM418 278q-27 36 -67 63.5t-88 27.5q-34 0 -59.5 -13t-43 -35t-26 -51t-8.5 -60q0 -30 8.5 -60t26 -54.5t43 -39.5t59.5 -15q43 0 72 24t47 60t26 77.5t10 75.5z" />
    <glyph glyph-name="Delta" unicode="&#x2206;" horiz-adv-x="685" 
d="M22 0l281 712h74l287 -712h-642zM339 645l-226 -583h455z" />
    <glyph glyph-name="product" unicode="&#x220f;" horiz-adv-x="741" 
d="M590 -214v938h-438v-938h-66v1000h570v-1000h-66z" />
    <glyph glyph-name="summation" unicode="&#x2211;" horiz-adv-x="648" 
d="M76 -214v55l329 448l-315 441v56h527v-62h-442l309 -435l-328 -442h473v-61h-553z" />
    <glyph glyph-name="minus" unicode="&#x2212;" 
d="M461 275v-59h-412v59h412z" />
    <glyph glyph-name="uni2215" unicode="&#x2215;" horiz-adv-x="100" 
d="M321 701h55l-578 -733h-55z" />
    <glyph glyph-name="uni2219" unicode="&#x2219;" horiz-adv-x="255" 
d="M82 294q0 23 16.5 39.5t39.5 16.5t39 -16.5t16 -39.5t-16 -39t-39 -16t-39.5 16t-16.5 39z" />
    <glyph glyph-name="radical" unicode="&#x221a;" horiz-adv-x="537" 
d="M316 -214h-66l-164 340l-46 -22l-24 50l100 48l158 -332l189 916h63z" />
    <glyph glyph-name="infinity" unicode="&#x221e;" horiz-adv-x="815" 
d="M737 252q0 -31 -10 -58t-28 -47t-44 -31.5t-58 -11.5q-29 0 -55 9.5t-49 25t-44.5 34.5t-40.5 38q-22 -18 -43 -37t-43.5 -34.5t-48 -25.5t-55.5 -10q-32 0 -57.5 11t-44 30.5t-28.5 46t-10 57.5q0 30 9.5 57t27.5 47.5t43.5 32t57.5 11.5q29 0 55.5 -10t50 -26.5
t45 -36.5t41.5 -39q20 19 40.5 39t43 36.5t48 27t55.5 10.5q32 0 58 -11t45 -30.5t29 -46.5t10 -58zM680 249q0 38 -21 65t-62 27q-21 0 -41.5 -9t-40 -23t-37 -30.5t-32.5 -30.5q16 -15 33.5 -30t37 -27.5t40 -20.5t43.5 -8q38 0 59 25t21 62zM370 249q-15 14 -33 30
t-38.5 29.5t-41.5 22.5t-42 9q-19 0 -34 -7.5t-25 -20t-15.5 -28.5t-5.5 -34q0 -38 22 -63t62 -25q20 0 41 8.5t41 21.5t37.5 28.5t31.5 28.5z" />
    <glyph glyph-name="integral" unicode="&#x222b;" horiz-adv-x="611" 
d="M434 736q0 -17 -10.5 -25.5t-26.5 -8.5q-14 0 -21 6t-11.5 13.5t-8.5 14t-11 6.5q-12 0 -19 -10.5t-10 -33t-4 -59t-1 -88.5v-504q0 -48 -3.5 -94.5t-16 -83t-37 -59.5t-65.5 -23q-21 0 -40.5 11t-19.5 36q0 14 9.5 23t23.5 9q13 0 20 -6t11.5 -13t8.5 -13t10 -6
q24 0 28.5 44t4.5 136v495q0 71 4.5 124t18 88.5t38.5 53t66 17.5q23 0 42.5 -11t19.5 -39z" />
    <glyph glyph-name="approxequal" unicode="&#x2248;" 
d="M468 190q-3 -23 -10 -44.5t-19.5 -38t-31.5 -26.5t-45 -10t-55.5 9t-58.5 20q-30 11 -57.5 19.5t-47.5 8.5q-26 0 -41 -19t-19 -43h-43q3 22 10 44t19.5 39.5t31.5 28t45 10.5q29 0 59 -10.5t62 -21.5l52.5 -17.5t47.5 -8.5q27 0 40.5 18t18.5 42h42zM468 337
q-3 -23 -10 -44.5t-19.5 -38t-31.5 -26.5t-45 -10t-55.5 9t-58.5 20q-30 11 -57.5 19.5t-47.5 8.5q-26 0 -41 -19t-19 -43h-43q3 22 10 44t19.5 39.5t31.5 28t45 10.5q29 0 59 -10.5t62 -21.5l52.5 -17.5t47.5 -8.5q27 0 40.5 18t18.5 42h42z" />
    <glyph glyph-name="notequal" unicode="&#x2260;" 
d="M231 107l-60 -117l-51 27l47 90h-116v59h147l47 93h-194v59h226l60 118l53 -27l-49 -91h117v-59h-148l-48 -93h196v-59h-227z" />
    <glyph glyph-name="lessequal" unicode="&#x2264;" 
d="M51 244v64l407 150v-65l-324 -117l324 -116v-64zM51 5v59h407v-59h-407z" />
    <glyph glyph-name="greaterequal" unicode="&#x2265;" 
d="M51 160l326 116l-326 117v65l407 -150v-64l-407 -148v64zM51 64h407v-59h-407v59z" />
    <glyph glyph-name="lozenge" unicode="&#x25ca;" horiz-adv-x="593" 
d="M327 -35h-63l-169 391l169 391h63l171 -391zM296 681l-136 -325l136 -325l137 325z" />
    <glyph glyph-name="grave.cap" unicode="&#xe300;" horiz-adv-x="255" 
d="M144 869h95l79 -128h-56z" />
    <glyph glyph-name="acute.cap" unicode="&#xe301;" horiz-adv-x="255" 
d="M257 869h96l-144 -128h-59z" />
    <glyph glyph-name="circumflex.cap" unicode="&#xe302;" horiz-adv-x="255" 
d="M255 826l-77 -85h-75l117 128h81l63 -128h-68z" />
    <glyph glyph-name="caron.cap" unicode="&#xe303;" horiz-adv-x="255" 
d="M130 869h70l40 -84l78 84h73l-115 -128h-81z" />
    <glyph glyph-name="tilde.cap" unicode="&#xe304;" horiz-adv-x="255" 
d="M82 748q12 45 38 72t69 27q20 0 37 -4.5t31 -10.5t30 -12.5t29 -6.5q23 0 34 13.5t15 27.5h45q-14 -48 -39.5 -73.5t-68.5 -25.5q-17 0 -32.5 4.5t-34.5 13.5q-15 8 -30.5 12.5t-28.5 4.5q-23 0 -34.5 -14t-14.5 -28h-45z" />
    <glyph glyph-name="dieresis.cap" unicode="&#xe305;" horiz-adv-x="255" 
d="M105 797q0 20 14 34t34 14t34.5 -14t14.5 -34t-14.5 -34.5t-34.5 -14.5t-34 14.5t-14 34.5zM291 797q0 20 14 34t34 14t34.5 -14t14.5 -34t-14.5 -34.5t-34.5 -14.5t-34 14.5t-14 34.5z" />
    <glyph glyph-name="macron.cap" unicode="&#xe306;" horiz-adv-x="255" 
d="M129 825h246l-11 -52h-246z" />
    <glyph glyph-name="breve.cap" unicode="&#xe307;" horiz-adv-x="255" 
d="M159 869v-9q0 -25 21 -43.5t62 -18.5q45 0 75 18t38 53h43q-11 -56 -50.5 -89t-108.5 -33q-59 0 -89.5 25.5t-30.5 69.5v13t2 14h38z" />
    <glyph glyph-name="ring.cap" unicode="&#xe308;" horiz-adv-x="255" 
d="M159 818q0 19 7.5 36t20 29.5t29 20t35.5 7.5t36 -7.5t29.5 -20t20 -29.5t7.5 -36t-7.5 -35.5t-20 -29t-29.5 -20t-36 -7.5q-38 0 -65 27t-27 65zM307 818q0 23 -16.5 39.5t-39.5 16.5t-39.5 -16.5t-16.5 -39.5t16.5 -39.5t39.5 -16.5t39.5 16.5t16.5 39.5z" />
    <glyph glyph-name="hungarumlaut.cap" unicode="&#xe309;" horiz-adv-x="255" 
d="M334 869h94l-143 -128h-59zM181 869h96l-145 -128h-57z" />
    <glyph glyph-name="dotaccent.cap" unicode="&#xe30a;" horiz-adv-x="255" 
d="M191 796q0 23 15.5 38.5t38.5 15.5q22 0 37.5 -15.5t15.5 -38.5q0 -22 -15.5 -37.5t-37.5 -15.5q-23 0 -38.5 15.5t-15.5 37.5z" />
    <glyph glyph-name="caron.alt" unicode="&#xe30b;" horiz-adv-x="255" 
d="M125 483q35 42 55.5 81t20.5 70q0 13 -4 25l63 21q4 -9 5 -16t1 -18q0 -34 -27.5 -78t-66.5 -85h-47z" />
    <glyph glyph-name="commaaccent" unicode="&#xe30c;" horiz-adv-x="255" 
d="M-37 -250q35 42 55.5 81t20.5 70q0 13 -4 25l63 21q4 -9 5 -16t1 -18q0 -34 -27.5 -78t-66.5 -85h-47z" />
    <glyph glyph-name="commaaccent.alt" unicode="&#xe30d;" horiz-adv-x="255" 
d="M307 759q-35 -42 -55.5 -81t-20.5 -70q0 -13 4 -25l-63 -21q-4 9 -5 16t-1 18q0 34 27.5 78t66.5 85h47z" />
    <glyph glyph-name="uniF8FF" unicode="&#xf8ff;" horiz-adv-x="512" 
d="M222 117v67h56v-67h-56zM225 234l-2 17q0 56 13 81q7 13 18 27.5t28 31.5q16 15 26 26.5t15 21t7 18t2 17.5q0 36 -22.5 60.5t-53.5 24.5t-53.5 -22t-28.5 -73l-50 8q7 72 44 104.5t91 32.5t89 -35.5t35 -95.5q0 -32 -12.5 -58.5t-50.5 -61.5q-37 -33 -43 -52
q-6 -20 -6 -72h-46zM462 50v617h-412v-617h412zM512 718v-718h-512v718h512z" />
    </font>
</defs>
</svg>
